<svg xmlns="http://www.w3.org/2000/svg" width="18" height="18" viewBox="0 0 18 18" fill="none">
  <path d="M15.0014 15.6C15.0014 16.2365 14.7485 16.847 14.2984 17.2971C13.8483 17.7471 13.2379 18 12.6014 18H2.40137V0H15.0014V15.6Z" fill="#E2E7F6"/>
  <path d="M2.40137 0V17.1H11.7014C12.3379 17.1 12.9483 16.8471 13.3984 16.3971C13.8485 15.947 14.1014 15.3365 14.1014 14.7V0H2.40137Z" fill="#F2F2F2"/>
  <path d="M6.0001 6.0002C7.32558 6.0002 8.4001 4.92568 8.4001 3.6002C8.4001 2.27471 7.32558 1.2002 6.0001 1.2002C4.67461 1.2002 3.6001 2.27471 3.6001 3.6002C3.6001 4.92568 4.67461 6.0002 6.0001 6.0002Z" fill="#B52F28"/>
  <path d="M7.79902 3.3001C7.79911 2.91179 7.70485 2.52927 7.52435 2.18545C7.34385 1.84164 7.08251 1.54683 6.76282 1.3264C6.21527 1.14458 5.62055 1.16608 5.08757 1.38697C4.55458 1.60787 4.11901 2.01337 3.86061 2.52921C3.60221 3.04506 3.53829 3.63673 3.68055 4.19586C3.8228 4.75499 4.16171 5.24417 4.63522 5.5738C4.99603 5.69584 5.38073 5.7301 5.75743 5.67375C6.13412 5.6174 6.49196 5.47205 6.80126 5.24977C7.11056 5.02749 7.36241 4.73467 7.53593 4.39561C7.70945 4.05654 7.79964 3.68099 7.79902 3.3001Z" fill="#D23F34"/>
  <path d="M7.5 3.29961H6.3V2.09961H5.7V3.29961H4.5V3.89961H5.7V5.09961H6.3V3.89961H7.5V3.29961Z" fill="#F2F2F2"/>
  <path d="M3.29883 6.90039H9.29883V7.50039H3.29883V6.90039Z" fill="#939393"/>
  <path d="M9.89941 6.90039H11.0994V7.50039H9.89941V6.90039Z" fill="#939393"/>
  <path d="M3.29883 8.1001H9.29883V8.7001H3.29883V8.1001Z" fill="#939393"/>
  <path d="M9.89941 8.1001H11.0994V8.7001H9.89941V8.1001Z" fill="#939393"/>
  <path d="M3.29883 9.30029H9.29883V9.90029H3.29883V9.30029Z" fill="#939393"/>
  <path d="M9.89941 9.30029H11.0994V9.90029H9.89941V9.30029Z" fill="#939393"/>
  <path d="M3.29883 10.5H9.29883V11.1H3.29883V10.5Z" fill="#939393"/>
  <path d="M9.89941 10.5H11.0994V11.1H9.89941V10.5Z" fill="#939393"/>
  <path d="M3.29883 11.7002H9.29883V12.3002H3.29883V11.7002Z" fill="#939393"/>
  <path d="M9.89941 11.7002H11.0994V12.3002H9.89941V11.7002Z" fill="#939393"/>
  <path d="M3.29883 12.8999H9.29883V13.4999H3.29883V12.8999Z" fill="#939393"/>
  <path d="M9.89941 12.8999H11.0994V13.4999H9.89941V12.8999Z" fill="#939393"/>
  <path d="M9.30078 1.5H14.1008V2.1H9.30078V1.5Z" fill="#939393"/>
  <path d="M9.30078 2.7002H14.1008V3.3002H9.30078V2.7002Z" fill="#939393"/>
  <path d="M9.30078 3.8999H14.1008V4.4999H9.30078V3.8999Z" fill="#939393"/>
  <path d="M9.30078 5.10059H14.1008V5.70059H9.30078V5.10059Z" fill="#939393"/>
  <path d="M12.6 17.9996C11.9635 17.9996 11.353 17.7468 10.9029 17.2967C10.4529 16.8466 10.2 16.2361 10.2 15.5996H0C0 16.2361 0.252856 16.8466 0.702944 17.2967C1.15303 17.7468 1.76348 17.9996 2.4 17.9996H12.6Z" fill="#C8CDED"/>
  <path d="M15 13.2002C16.6569 13.2002 18 11.857 18 10.2002C18 8.54334 16.6569 7.2002 15 7.2002C13.3431 7.2002 12 8.54334 12 10.2002C12 11.857 13.3431 13.2002 15 13.2002Z" fill="#F4A93C"/>
  <path d="M12.0001 10.2002C12 10.7476 12.1499 11.2845 12.4333 11.7527C12.7168 12.221 13.1231 12.6027 13.6081 12.8564C14.3114 12.9739 15.0336 12.8368 15.6449 12.4697C16.2562 12.1027 16.7167 11.5297 16.9436 10.8537C17.1706 10.1777 17.1491 9.44296 16.883 8.78138C16.617 8.11979 16.1238 7.57472 15.4921 7.24403C15.0622 7.16951 14.6212 7.1902 14.2002 7.30464C13.7792 7.41908 13.3884 7.62449 13.0555 7.90638C12.7225 8.18827 12.4554 8.53977 12.273 8.93611C12.0907 9.33244 11.9975 9.76396 12.0001 10.2002Z" fill="#F6B940"/>
  <path d="M15.0516 8.94811L13.7484 10.2513C13.6696 10.3301 13.6071 10.4237 13.5645 10.5266C13.5219 10.6295 13.5 10.7399 13.5 10.8513C13.5 11.0763 13.5894 11.2921 13.7485 11.4512C13.9076 11.6103 14.1234 11.6997 14.3484 11.6997C14.4598 11.6997 14.5702 11.6778 14.6731 11.6352C14.7761 11.5926 14.8696 11.5301 14.9484 11.4513L16.2516 10.1481C16.3304 10.0693 16.3929 9.97576 16.4355 9.87281C16.4781 9.76986 16.5 9.65953 16.5 9.54811C16.5 9.3231 16.4106 9.1073 16.2515 8.9482C16.0924 8.78909 15.8766 8.69971 15.6516 8.69971C15.5402 8.69968 15.4298 8.72161 15.3269 8.76423C15.2239 8.80685 15.1304 8.86933 15.0516 8.94811Z" fill="#F2F2F2"/>
  <path d="M15.6517 8.69971C15.5403 8.69968 15.43 8.72161 15.327 8.76423C15.2241 8.80685 15.1305 8.86933 15.0517 8.94811L13.7485 10.2513C13.7041 10.2968 13.665 10.3471 13.6318 10.4013C13.6992 10.5095 13.7902 10.601 13.8979 10.6691C14.0056 10.7372 14.1273 10.78 14.2539 10.7944C14.3806 10.8089 14.5088 10.7945 14.6291 10.7524C14.7494 10.7103 14.8586 10.6415 14.9485 10.5513L16.2517 9.24811C16.2961 9.20264 16.3353 9.15232 16.3684 9.09811C16.2926 8.97635 16.187 8.87589 16.0616 8.8062C15.9362 8.7365 15.7952 8.69985 15.6517 8.69971Z" fill="white"/>
  <path d="M15.6 10.8001L14.4 9.6001L13.7484 10.2517C13.6696 10.3305 13.6071 10.424 13.5645 10.527C13.5219 10.6299 13.5 10.7403 13.5 10.8517C13.5 11.0767 13.5894 11.2925 13.7485 11.4516C13.9076 11.6107 14.1234 11.7001 14.3484 11.7001C14.4598 11.7001 14.5702 11.6782 14.6731 11.6356C14.7761 11.593 14.8696 11.5305 14.9484 11.4517L15.6 10.8001Z" fill="#A72B25"/>
  <path d="M13.7485 10.2517C13.7041 10.2972 13.665 10.3475 13.6318 10.4017C13.6992 10.5099 13.7902 10.6014 13.8979 10.6695C14.0056 10.7376 14.1273 10.7804 14.2539 10.7948C14.3806 10.8093 14.5088 10.7949 14.6291 10.7528C14.7494 10.7107 14.8586 10.6419 14.9485 10.5517L15.1501 10.3501L14.4001 9.6001L13.7485 10.2517Z" fill="#D23F34"/>
</svg>