  <svg
                    xmlns="http://www.w3.org/2000/svg"
                    width="10"
                    height="15"
                    viewBox="0 0 10 15"
                    fill="none"
                  >
                    <path
                      opacity="0.6"
                      d="M5 7.15C4.5264 7.15 4.0722 6.96563 3.73731 6.63744C3.40242 6.30925 3.21429 5.86413 3.21429 5.4C3.21429 4.93587 3.40242 4.49075 3.73731 4.16256C4.0722 3.83437 4.5264 3.65 5 3.65C5.4736 3.65 5.9278 3.83437 6.26269 4.16256C6.59758 4.49075 6.78571 4.93587 6.78571 5.4C6.78571 5.62981 6.73953 5.85738 6.64979 6.0697C6.56004 6.28202 6.42851 6.47493 6.26269 6.63744C6.09687 6.79994 5.90002 6.92884 5.68336 7.01679C5.46671 7.10473 5.2345 7.15 5 7.15ZM5 0.5C3.67392 0.5 2.40215 1.01625 1.46447 1.93518C0.526784 2.8541 0 4.10044 0 5.4C0 9.075 5 14.5 5 14.5C5 14.5 10 9.075 10 5.4C10 4.10044 9.47322 2.8541 8.53553 1.93518C7.59785 1.01625 6.32608 0.5 5 0.5Z"
                      fill="#444444"
                    />
                  </svg>