<svg width="37" height="28" viewBox="0 0 37 28" fill="none" xmlns="http://www.w3.org/2000/svg">
<g opacity="0.8">
<path d="M16.6998 23.625H23.6998M21.0748 6.125H22.725C25.0175 6.125 26.1655 6.125 27.1368 6.67625C28.1098 7.22575 28.7573 8.2425 30.054 10.2743C30.964 11.6988 31.916 12.7348 33.2583 13.6535C34.6093 14.581 35.2533 15.0343 35.6085 15.7605C35.9498 16.457 35.9498 17.2813 35.9498 18.9298C35.9498 21.105 35.9498 22.1918 35.339 22.883L35.2585 22.9688C34.6163 23.625 33.603 23.625 31.58 23.625H30.6998M21.0748 6.125C21.0748 3.6505 21.0748 2.41325 20.3048 1.645C19.5365 0.875 18.2993 0.875 15.8248 0.875H6.19977C3.72352 0.875 2.48627 0.875 1.71977 1.645C0.949768 2.41325 0.949768 3.6505 0.949768 6.125V18.375C0.949768 20.8513 0.949768 22.0885 1.71977 22.855C2.48802 23.625 3.72527 23.625 6.19977 23.625M21.0748 6.125V23.625H13.1998M35.9498 18.375H34.1998M11.4498 7.875V14.875M14.9498 11.375H7.94977" stroke="black" stroke-width="1.5" stroke-linecap="round" stroke-linejoin="round"/>
<path d="M27.1999 27.125C29.1329 27.125 30.6999 25.558 30.6999 23.625C30.6999 21.692 29.1329 20.125 27.1999 20.125C25.2669 20.125 23.6999 21.692 23.6999 23.625C23.6999 25.558 25.2669 27.125 27.1999 27.125Z" stroke="black" stroke-width="1.5" stroke-linecap="round" stroke-linejoin="round"/>
<path d="M9.69977 27.125C11.6328 27.125 13.1998 25.558 13.1998 23.625C13.1998 21.692 11.6328 20.125 9.69977 20.125C7.76677 20.125 6.19977 21.692 6.19977 23.625C6.19977 25.558 7.76677 27.125 9.69977 27.125Z" stroke="black" stroke-width="1.5" stroke-linecap="round" stroke-linejoin="round"/>
</g>
</svg>
