<svg xmlns="http://www.w3.org/2000/svg" width="24" height="20" viewBox="0 0 24 20" fill="none">
  <path d="M15.4885 19.5143H8.5116V17.1674C8.5116 16.5036 8.98018 15.9321 9.63109 15.8019L12 15.3281L14.369 15.8019C15.02 15.9321 15.4885 16.5036 15.4885 17.1674V19.5143Z" fill="#42A5F5"/>
  <path d="M10.9787 15.8019L12.6739 15.4629L12 15.3281L9.63109 15.8019C8.98018 15.9321 8.5116 16.5036 8.5116 17.1674V19.5143H9.85925V17.1674C9.85925 16.5036 10.3278 15.9321 10.9787 15.8019Z" fill="#0593FC"/>
  <path d="M22.4653 19.5143H15.4884V17.1674C15.4884 16.5036 15.957 15.9321 16.6079 15.8019L18.9769 15.3281L21.3458 15.8019C21.9968 15.9321 22.4653 16.5036 22.4653 17.1674V19.5143H22.4653Z" fill="#DF646E"/>
  <path d="M17.9557 15.8019L19.6508 15.4629L18.977 15.3281L16.608 15.8019C15.9571 15.9321 15.4885 16.5036 15.4885 17.1674V19.5143H16.8362V17.1674C16.8362 16.5036 17.3047 15.9321 17.9557 15.8019Z" fill="#DC4955"/>
  <path d="M8.51148 19.5143H1.53455V17.1674C1.53455 16.5036 2.00313 15.9321 2.65404 15.8019L5.02299 15.3281L7.39194 15.8019C8.0429 15.9321 8.51144 16.5036 8.51144 17.1674L8.51148 19.5143Z" fill="#FFCA28"/>
  <path d="M4.00174 15.8019L5.69686 15.4629L5.02304 15.3281L2.65404 15.8019C2.00313 15.9321 1.53455 16.5036 1.53455 17.1674V19.5143H2.8822V17.1674C2.88224 16.5036 3.35078 15.9321 4.00174 15.8019Z" fill="#F9B916"/>
  <path d="M12 4.16618C12.9633 4.16618 13.7442 3.38527 13.7442 2.42196C13.7442 1.45865 12.9633 0.677734 12 0.677734C11.0367 0.677734 10.2557 1.45865 10.2557 2.42196C10.2557 3.38527 11.0367 4.16618 12 4.16618Z" fill="#FED2A4"/>
  <path d="M11.6034 2.42196C11.6034 1.6975 12.0451 1.07624 12.6738 0.81268C12.4665 0.725756 12.2388 0.677734 12 0.677734C11.0367 0.677734 10.2557 1.45865 10.2557 2.42196C10.2557 3.38526 11.0367 4.16618 12 4.16618C12.2388 4.16618 12.4665 4.11816 12.6738 4.03124C12.0451 3.76768 11.6034 3.14641 11.6034 2.42196Z" fill="#FFBD86"/>
  <path d="M15.4885 8.35219H8.5116V6.00534C8.5116 5.34153 8.98018 4.76999 9.63109 4.63981L12 4.16602L14.369 4.63976C15.02 4.76994 15.4885 5.34148 15.4885 6.00529V8.35219Z" fill="#FFCA28"/>
  <path d="M10.9787 4.63981L12.6739 4.30078L12 4.16602L9.63109 4.63976C8.98018 4.76994 8.5116 5.34148 8.5116 6.00529V8.35214H9.85925V6.00529C9.85925 5.34148 10.3278 4.76994 10.9787 4.63981Z" fill="#F9B916"/>
  <path d="M18.9769 4.16618C19.9402 4.16618 20.7211 3.38527 20.7211 2.42196C20.7211 1.45865 19.9402 0.677734 18.9769 0.677734C18.0136 0.677734 17.2327 1.45865 17.2327 2.42196C17.2327 3.38527 18.0136 4.16618 18.9769 4.16618Z" fill="#FFF3DE"/>
  <path d="M18.5803 2.42196C18.5803 1.6975 19.022 1.07624 19.6507 0.81268C19.4434 0.725756 19.2157 0.677734 18.9769 0.677734C18.0136 0.677734 17.2327 1.45865 17.2327 2.42196C17.2327 3.38526 18.0136 4.16618 18.9769 4.16618C19.2157 4.16618 19.4434 4.11816 19.6507 4.03124C19.0219 3.76768 18.5803 3.14641 18.5803 2.42196Z" fill="#FFE5C2"/>
  <path d="M22.4653 8.35214H15.4884V6.00529C15.4884 5.34148 15.957 4.76994 16.6079 4.63976L18.9769 4.16602L21.3458 4.63976C21.9968 4.76994 22.4653 5.34148 22.4653 6.00529V8.35214H22.4653Z" fill="#DF646E"/>
  <path d="M17.9557 4.63976L19.6508 4.30078L18.977 4.16602L16.608 4.63976C15.9571 4.76994 15.4885 5.34148 15.4885 6.00529V8.35214H16.8362V6.00529C16.8362 5.34144 17.3047 4.7699 17.9557 4.63976Z" fill="#DC4955"/>
  <path d="M5.02315 4.16618C5.98646 4.16618 6.76738 3.38527 6.76738 2.42196C6.76738 1.45865 5.98646 0.677734 5.02315 0.677734C4.05985 0.677734 3.27893 1.45865 3.27893 2.42196C3.27893 3.38527 4.05985 4.16618 5.02315 4.16618Z" fill="#FFF3DE"/>
  <path d="M4.62658 2.42196C4.62658 1.6975 5.06826 1.07624 5.69698 0.81268C5.48967 0.725756 5.262 0.677734 5.02315 0.677734C4.05985 0.677734 3.27893 1.45865 3.27893 2.42196C3.27893 3.38526 4.05985 4.16618 5.02315 4.16618C5.262 4.16618 5.48967 4.11816 5.69698 4.03124C5.06821 3.76768 4.62658 3.14641 4.62658 2.42196Z" fill="#FFE5C2"/>
  <path d="M8.51148 8.35214H1.53455V6.00529C1.53455 5.34148 2.00313 4.76994 2.65404 4.63976L5.02299 4.16602L7.39194 4.63976C8.0429 4.76994 8.51144 5.34148 8.51144 6.00529L8.51148 8.35214Z" fill="#42A5F5"/>
  <path d="M4.00182 4.63976L5.69694 4.30078L5.02311 4.16602L2.65416 4.63976C2.00325 4.76994 1.53467 5.34148 1.53467 6.00529V8.35214H2.88232V6.00529C2.88232 5.34144 3.35086 4.7699 4.00182 4.63976Z" fill="#0593FC"/>
  <path d="M15.4885 9.74626C16.4518 9.74626 17.2327 8.96534 17.2327 8.00204C17.2327 7.03873 16.4518 6.25781 15.4885 6.25781C14.5252 6.25781 13.7443 7.03873 13.7443 8.00204C13.7443 8.96534 14.5252 9.74626 15.4885 9.74626Z" fill="#FED2A4"/>
  <path d="M15.0919 8.00204C15.0919 7.27758 15.5336 6.65631 16.1623 6.39276C15.955 6.30583 15.7273 6.25781 15.4885 6.25781C14.5252 6.25781 13.7443 7.03873 13.7443 8.00204C13.7443 8.96534 14.5252 9.74626 15.4885 9.74626C15.7273 9.74626 15.955 9.69824 16.1623 9.61131C15.5336 9.34776 15.0919 8.72649 15.0919 8.00204Z" fill="#FFBD86"/>
  <path d="M18.9769 13.9322H12V11.5854C12 10.9216 12.4686 10.35 13.1195 10.2198L15.4884 9.74609L17.8574 10.2198C18.5084 10.35 18.9769 10.9216 18.9769 11.5854V13.9322Z" fill="#544F56"/>
  <path d="M14.4671 10.2198L16.1623 9.88086L15.4884 9.74609L13.1195 10.2198C12.4686 10.35 12 10.9216 12 11.5854V13.9323H13.3477V11.5854C13.3477 10.9216 13.8162 10.35 14.4671 10.2198Z" fill="#444145"/>
  <path d="M8.51156 9.74626C9.47486 9.74626 10.2558 8.96534 10.2558 8.00204C10.2558 7.03873 9.47486 6.25781 8.51156 6.25781C7.54825 6.25781 6.76733 7.03873 6.76733 8.00204C6.76733 8.96534 7.54825 9.74626 8.51156 9.74626Z" fill="#FED2A4"/>
  <path d="M8.11499 8.00204C8.11499 7.27758 8.55666 6.65631 9.18538 6.39276C8.97807 6.30583 8.75041 6.25781 8.51156 6.25781C7.54825 6.25781 6.76733 7.03873 6.76733 8.00204C6.76733 8.96534 7.54825 9.74626 8.51156 9.74626C8.75045 9.74626 8.97807 9.69824 9.18538 9.61131C8.55666 9.34776 8.11499 8.72649 8.11499 8.00204Z" fill="#FFBD86"/>
  <path d="M12 13.9322H5.02307V11.5854C5.02307 10.9216 5.49165 10.35 6.14257 10.2198L8.51152 9.74609L10.8805 10.2198C11.5314 10.35 12 10.9215 12 11.5854V13.9322Z" fill="#56BE90"/>
  <path d="M7.49022 10.2198L9.18534 9.88086L8.51152 9.74609L6.14257 10.2198C5.49165 10.35 5.02307 10.9216 5.02307 11.5854V13.9322H6.37072V11.5854C6.37072 10.9216 6.83926 10.35 7.49022 10.2198Z" fill="#23B37E"/>
  <path d="M12 15.3283C12.9633 15.3283 13.7442 14.5474 13.7442 13.5841C13.7442 12.6208 12.9633 11.8398 12 11.8398C11.0367 11.8398 10.2557 12.6208 10.2557 13.5841C10.2557 14.5474 11.0367 15.3283 12 15.3283Z" fill="#FED2A4"/>
  <path d="M11.6034 13.5841C11.6034 12.8596 12.0451 12.2383 12.6738 11.9748C12.4665 11.8879 12.2388 11.8398 12 11.8398C11.0367 11.8398 10.2557 12.6208 10.2557 13.5841C10.2557 14.5474 11.0367 15.3283 12 15.3283C12.2388 15.3283 12.4665 15.2803 12.6738 15.1933C12.0451 14.9298 11.6034 14.3085 11.6034 13.5841Z" fill="#FFBD86"/>
  <path d="M18.9769 15.3283C19.9402 15.3283 20.7211 14.5474 20.7211 13.5841C20.7211 12.6208 19.9402 11.8398 18.9769 11.8398C18.0136 11.8398 17.2327 12.6208 17.2327 13.5841C17.2327 14.5474 18.0136 15.3283 18.9769 15.3283Z" fill="#FFF3DE"/>
  <path d="M18.5803 13.5841C18.5803 12.8596 19.022 12.2383 19.6507 11.9748C19.4434 11.8879 19.2157 11.8398 18.9769 11.8398C18.0136 11.8398 17.2327 12.6208 17.2327 13.5841C17.2327 14.5474 18.0136 15.3283 18.9769 15.3283C19.2157 15.3283 19.4434 15.2803 19.6507 15.1933C19.0219 14.9298 18.5803 14.3085 18.5803 13.5841Z" fill="#FFE5C2"/>
  <path d="M5.02315 15.3283C5.98646 15.3283 6.76738 14.5474 6.76738 13.5841C6.76738 12.6208 5.98646 11.8398 5.02315 11.8398C4.05985 11.8398 3.27893 12.6208 3.27893 13.5841C3.27893 14.5474 4.05985 15.3283 5.02315 15.3283Z" fill="#FFF3DE"/>
  <path d="M4.62658 13.5841C4.62658 12.8596 5.06826 12.2383 5.69698 11.9748C5.48967 11.8879 5.262 11.8398 5.02315 11.8398C4.05985 11.8398 3.27893 12.6208 3.27893 13.5841C3.27893 14.5474 4.05985 15.3283 5.02315 15.3283C5.262 15.3283 5.48967 15.2803 5.69698 15.1933C5.06821 14.9298 4.62658 14.3085 4.62658 13.5841Z" fill="#FFE5C2"/>
  <path d="M23.163 19.1775H22.8024V17.1677C22.8024 16.3462 22.2177 15.6329 21.4121 15.4717L20.2398 15.2372C20.737 14.8565 21.0581 14.2571 21.0581 13.584C21.0581 12.5508 20.3012 11.6911 19.3128 11.53C19.2869 10.7323 18.7107 10.0477 17.9235 9.89008L16.7514 9.65559C17.0711 9.41077 17.318 9.07538 17.4535 8.68815H19.4171C19.6032 8.68815 19.754 8.53731 19.754 8.35124C19.754 8.16517 19.6032 8.01433 19.4171 8.01433H17.5695C17.575 7.02749 16.8015 6.10901 15.827 5.94891C15.8523 5.47117 16.2007 5.06404 16.6741 4.96926L18.9768 4.50899L21.2799 4.96921C21.7716 5.06764 22.1286 5.50306 22.1286 6.00453V8.01433H20.8856C20.6995 8.01433 20.5487 8.16517 20.5487 8.35124C20.5487 8.53731 20.6995 8.68815 20.8856 8.68815L23.1631 8.68824C23.3492 8.68824 23.5 8.5374 23.5 8.35133C23.5 8.16526 23.3492 8.01442 23.1631 8.01442H22.8025V6.00448C22.8025 5.183 22.2178 4.46973 21.4121 4.30846L20.2397 4.07419C20.7369 3.69353 21.0581 3.09404 21.0581 2.42098C21.0581 1.27341 20.1245 0.339844 18.977 0.339844C17.8294 0.339844 16.8959 1.27345 16.8959 2.42098C16.8959 3.09409 17.2171 3.69357 17.7143 4.07424L16.5421 4.30855C16.1078 4.39547 15.7376 4.6429 15.4887 4.98125C15.2397 4.64286 14.8695 4.39543 14.4349 4.3085L13.2629 4.07424C13.7601 3.69357 14.0813 3.09409 14.0813 2.42098C14.0813 1.27341 13.1477 0.339844 12.0002 0.339844C10.8526 0.339844 9.91902 1.27345 9.91902 2.42098C9.91902 3.09409 10.2403 3.69357 10.7375 4.07424L9.56535 4.3085C9.13082 4.39543 8.76053 4.64286 8.51158 4.98125C8.26266 4.6429 7.89251 4.39547 7.45812 4.3085L6.28602 4.07424C6.78321 3.69357 7.1044 3.09409 7.1044 2.42098C7.1044 1.27341 6.17084 0.339844 5.02326 0.339844C3.87574 0.339844 2.94213 1.27345 2.94213 2.42098C2.94213 3.09409 3.26332 3.69357 3.76051 4.07419L2.58801 4.3085C1.78243 4.46973 1.19777 5.183 1.19777 6.00453V8.01446H0.836913C0.650802 8.01446 0.5 8.16531 0.5 8.35137C0.5 8.53744 0.650802 8.68829 0.836913 8.68829L6.54643 8.6882C6.68191 9.07542 6.92885 9.41077 7.24856 9.65563L6.07646 9.89013C5.28929 10.0477 4.71304 10.7324 4.68712 11.53C3.69875 11.6911 2.9419 12.5508 2.9419 13.5841C2.9419 14.2572 3.26305 14.8566 3.7602 15.2373L2.58801 15.4717C1.78238 15.6328 1.19768 16.346 1.19768 17.1676V19.1775H0.836913C0.650802 19.1775 0.5 19.3284 0.5 19.5144C0.5 19.7005 0.650802 19.8514 0.836913 19.8514H18.2428C18.4289 19.8514 18.5797 19.7005 18.5797 19.5144C18.5797 19.3284 18.4289 19.1775 18.2428 19.1775H15.8256V17.1677C15.8256 16.6663 16.1825 16.2309 16.6742 16.1325L18.9768 15.6717L21.2799 16.1324C21.7716 16.2308 22.1286 16.6663 22.1286 17.1677V19.1775H19.7113C19.5252 19.1775 19.3744 19.3284 19.3744 19.5144C19.3744 19.7005 19.5252 19.8514 19.7113 19.8514H23.163C23.3492 19.8514 23.5 19.7005 23.5 19.5144C23.5 19.3284 23.3492 19.1775 23.163 19.1775ZM18.9769 1.01367C19.7529 1.01367 20.3842 1.645 20.3842 2.42098C20.3842 3.19696 19.7528 3.82829 18.9769 3.82829C18.2009 3.82829 17.5696 3.19696 17.5696 2.42098C17.5696 1.645 18.2009 1.01367 18.9769 1.01367ZM20.3842 13.584C20.3842 14.3573 19.7573 14.9869 18.9851 14.9913C18.9797 14.9912 18.9742 14.9912 18.9687 14.9913C18.1965 14.9869 17.5696 14.3573 17.5696 13.584C17.5696 12.81 18.1977 12.1799 18.9711 12.1768C18.973 12.1768 18.9749 12.1769 18.9768 12.1769C18.9788 12.1769 18.9807 12.1768 18.9826 12.1768C19.7559 12.1799 20.3842 12.81 20.3842 13.584ZM18.6384 11.5304C17.6513 11.6926 16.8957 12.5517 16.8957 13.5841C16.8957 13.588 16.8958 13.592 16.8958 13.5959H14.0811C14.0811 13.592 14.0812 13.588 14.0812 13.5841C14.0812 12.5517 13.3256 11.6926 12.3384 11.5304C12.3637 11.0527 12.7122 10.6456 13.1856 10.5509L15.4887 10.0902L17.7913 10.5508C18.2647 10.6456 18.6131 11.0527 18.6384 11.5304ZM12.0006 14.9914H11.9994C11.2237 14.991 10.5927 14.3598 10.5927 13.584C10.5927 12.81 11.2209 12.1799 11.9942 12.1767C11.9961 12.1768 11.998 12.1768 12 12.1768C12.0019 12.1768 12.0038 12.1768 12.0058 12.1767C12.7791 12.1799 13.4073 12.81 13.4073 13.584C13.4073 14.3598 12.7763 14.991 12.0006 14.9914ZM10.9466 9.89008L9.77446 9.65563C10.0942 9.41077 10.3411 9.07542 10.4766 8.6882H13.5234C13.6589 9.07542 13.9058 9.41081 14.2255 9.65563L13.0533 9.89013C12.619 9.97705 12.2488 10.2245 12 10.5628C11.7511 10.2244 11.381 9.97705 10.9466 9.89008ZM7.10422 8.00251C7.10422 7.2277 7.73358 6.59718 8.50794 6.5952C8.50906 6.5952 8.51018 6.59525 8.51135 6.59525C8.51252 6.59525 8.51373 6.5952 8.5149 6.5952C9.28935 6.597 9.91884 7.22761 9.91884 8.00251C9.91884 8.73631 9.25975 9.40502 8.5207 9.40978C7.85832 9.39154 7.10422 8.85275 7.10422 8.00251ZM16.8957 8.00251C16.8957 8.72544 16.1705 9.40511 15.4983 9.40973C14.7777 9.41387 14.0811 8.77036 14.0811 8.00251C14.0811 7.22761 14.7106 6.597 15.4851 6.5952C15.4862 6.5952 15.4874 6.59525 15.4886 6.59525C15.4897 6.59525 15.4909 6.5952 15.492 6.5952C16.2664 6.59718 16.8957 7.22775 16.8957 8.00251ZM12 1.01367C12.776 1.01367 13.4073 1.645 13.4073 2.42098C13.4073 3.19696 12.776 3.82829 12 3.82829C11.224 3.82829 10.5927 3.19696 10.5927 2.42098C10.5927 1.645 11.224 1.01367 12 1.01367ZM9.69724 4.96926L12 4.50904L14.3027 4.9693C14.7763 5.06404 15.1249 5.47117 15.1503 5.94887C14.1746 6.10897 13.4019 7.02605 13.4074 8.01437H10.5926C10.5981 7.0274 9.82437 6.10883 8.8497 5.94887C8.87499 5.47113 9.22363 5.064 9.69724 4.96926ZM5.02304 1.01367C5.79906 1.01367 6.43035 1.645 6.43035 2.42098C6.43035 3.19696 5.79902 3.82829 5.02304 3.82829C4.24706 3.82829 3.61578 3.19696 3.61578 2.42098C3.61578 1.645 4.24711 1.01367 5.02304 1.01367ZM1.87142 8.01437V6.00457C1.87142 5.50311 2.22832 5.06773 2.71999 4.9693L5.02318 4.50904L7.32578 4.96926C7.79925 5.06404 8.14771 5.47121 8.17296 5.94891C7.19743 6.10919 6.425 7.02618 6.43049 8.01433L1.87142 8.01437ZM6.20871 10.5508L8.51131 10.0901L10.8144 10.5508C11.2878 10.6456 11.6363 11.0527 11.6616 11.5304C10.6744 11.6925 9.91884 12.5517 9.91884 13.584C9.91884 13.588 9.91889 13.592 9.91893 13.5959H9.19686C9.01075 13.5959 8.85995 13.7468 8.85995 13.9328C8.85995 14.1189 9.01075 14.2697 9.19686 14.2697H10.0349C10.1704 14.657 10.4174 14.9923 10.7371 15.2372L9.56499 15.4716C9.1306 15.5585 8.76049 15.8059 8.51158 16.1442C8.26266 15.8059 7.89251 15.5585 7.45816 15.4716L6.28597 15.2372C6.60572 14.9923 6.85266 14.657 6.98819 14.2697H7.72841C7.91452 14.2697 8.06532 14.1189 8.06532 13.9328C8.06532 13.7468 7.91452 13.5959 7.72841 13.5959H7.10422C7.10422 13.592 7.10431 13.588 7.10431 13.584C7.10431 12.5517 6.34882 11.6926 5.36162 11.5304C5.38682 11.0527 5.73528 10.6456 6.20871 10.5508ZM5.01733 12.1768C5.01927 12.1768 5.0212 12.1769 5.02313 12.1769C5.02506 12.1769 5.02695 12.1768 5.02888 12.1768C5.80221 12.1799 6.43035 12.81 6.43035 13.584C6.43035 14.3598 5.79938 14.991 5.02362 14.9914H5.02246C4.24675 14.991 3.61573 14.3598 3.61573 13.584C3.61578 12.81 4.24401 12.1799 5.01733 12.1768ZM1.87151 17.1676C1.87151 16.6661 2.22841 16.2307 2.72017 16.1324L5.02304 15.6719L7.32596 16.1324C7.81767 16.2307 8.17462 16.6661 8.17462 17.1676V19.1775H1.87151V17.1676ZM15.1515 19.1775H8.84844V17.1676C8.84844 16.6661 9.20535 16.2307 9.69711 16.1324L12 15.6719L14.3028 16.1324C14.7946 16.2307 15.1515 16.6661 15.1515 17.1676V19.1775ZM16.542 15.4717C16.1076 15.5586 15.7375 15.8061 15.4886 16.1445C15.2396 15.806 14.8694 15.5585 14.435 15.4717L13.2628 15.2373C13.5826 14.9924 13.8296 14.657 13.965 14.2698H17.0118C17.1473 14.657 17.3942 14.9924 17.714 15.2372L16.542 15.4717Z" fill="black"/>
</svg>