<svg xmlns="http://www.w3.org/2000/svg" width="19" height="19" viewBox="0 0 19 19" fill="none">
  <path d="M17.417 1.90003H15.8336V1.26669C15.8336 0.930741 15.7001 0.608554 15.4626 0.371004C15.225 0.133454 14.9029 0 14.5669 0C14.231 0 13.9088 0.133454 13.6712 0.371004C13.4337 0.608554 13.3002 0.930741 13.3002 1.26669V1.90003H10.7668V1.26669C10.7668 0.930741 10.6334 0.608554 10.3958 0.371004C10.1583 0.133454 9.8361 0 9.50016 0C9.16421 0 8.84202 0.133454 8.60448 0.371004C8.36693 0.608554 8.23347 0.930741 8.23347 1.26669V1.90003H5.70009V1.26669C5.70009 0.930741 5.56664 0.608554 5.32909 0.371004C5.09154 0.133454 4.76935 0 4.43341 0C4.09746 0 3.77527 0.133454 3.53772 0.371004C3.30017 0.608554 3.16672 0.930741 3.16672 1.26669V1.90003H1.58336C1.16343 1.90003 0.760693 2.06685 0.463755 2.36379C0.166818 2.66072 0 3.06346 0 3.48339V16.1503C0 16.5702 0.166818 16.9729 0.463755 17.2699C0.760693 17.5668 1.16343 17.7336 1.58336 17.7336H10.4502C10.5342 17.7336 10.6147 17.7003 10.6741 17.6409C10.7335 17.5815 10.7668 17.5009 10.7668 17.417C10.7668 17.333 10.7335 17.2524 10.6741 17.193C10.6147 17.1336 10.5342 17.1003 10.4502 17.1003H1.58336C1.33163 17.0995 1.09043 16.9992 0.912428 16.8212C0.734428 16.6432 0.634096 16.402 0.633344 16.1503V6.33344H18.367V11.7169C18.367 11.8008 18.4003 11.8814 18.4597 11.9408C18.5191 12.0002 18.5997 12.0335 18.6836 12.0335C18.7676 12.0335 18.8482 12.0002 18.9076 11.9408C18.967 11.8814 19.0003 11.8008 19.0003 11.7169V3.48339C19.0003 3.06346 18.8335 2.66072 18.5366 2.36379C18.2396 2.06685 17.8369 1.90003 17.417 1.90003ZM13.9336 1.26669C13.9336 1.09871 14.0003 0.937621 14.1191 0.818846C14.2378 0.700071 14.3989 0.633344 14.5669 0.633344C14.7349 0.633344 14.896 0.700071 15.0148 0.818846C15.1335 0.937621 15.2003 1.09871 15.2003 1.26669V3.16672C15.2003 3.33469 15.1335 3.49579 15.0148 3.61456C14.896 3.73334 14.7349 3.80006 14.5669 3.80006C14.3989 3.80006 14.2378 3.73334 14.1191 3.61456C14.0003 3.49579 13.9336 3.33469 13.9336 3.16672V1.26669ZM8.86681 1.26669C8.86681 1.09871 8.93354 0.937621 9.05232 0.818846C9.17109 0.700071 9.33218 0.633344 9.50016 0.633344C9.66813 0.633344 9.82923 0.700071 9.948 0.818846C10.0668 0.937621 10.1335 1.09871 10.1335 1.26669V3.16672C10.1335 3.33469 10.0668 3.49579 9.948 3.61456C9.82923 3.73334 9.66813 3.80006 9.50016 3.80006C9.33218 3.80006 9.17109 3.73334 9.05232 3.61456C8.93354 3.49579 8.86681 3.33469 8.86681 3.16672V1.26669ZM3.80006 1.26669C3.80006 1.09871 3.86679 0.937621 3.98557 0.818846C4.10434 0.700071 4.26543 0.633344 4.43341 0.633344C4.60138 0.633344 4.76247 0.700071 4.88125 0.818846C5.00002 0.937621 5.06675 1.09871 5.06675 1.26669V3.16672C5.06675 3.33469 5.00002 3.49579 4.88125 3.61456C4.76247 3.73334 4.60138 3.80006 4.43341 3.80006C4.26543 3.80006 4.10434 3.73334 3.98557 3.61456C3.86679 3.49579 3.80006 3.33469 3.80006 3.16672V1.26669ZM18.367 5.70009H0.633344V3.48339C0.634096 3.23166 0.734428 2.99046 0.912428 2.81246C1.09043 2.63446 1.33163 2.53413 1.58336 2.53338H3.16672V3.16672C3.16672 3.50267 3.30017 3.82485 3.53772 4.0624C3.77527 4.29995 4.09746 4.43341 4.43341 4.43341C4.76935 4.43341 5.09154 4.29995 5.32909 4.0624C5.56664 3.82485 5.70009 3.50267 5.70009 3.16672V2.53338H8.23347V3.16672C8.23347 3.50267 8.36693 3.82485 8.60448 4.0624C8.84202 4.29995 9.16421 4.43341 9.50016 4.43341C9.8361 4.43341 10.1583 4.29995 10.3958 4.0624C10.6334 3.82485 10.7668 3.50267 10.7668 3.16672V2.53338H13.3002V3.16672C13.3002 3.50267 13.4337 3.82485 13.6712 4.0624C13.9088 4.29995 14.231 4.43341 14.5669 4.43341C14.9029 4.43341 15.225 4.29995 15.4626 4.0624C15.7001 3.82485 15.8336 3.50267 15.8336 3.16672V2.53338H17.417C17.6687 2.53413 17.9099 2.63446 18.0879 2.81246C18.2659 2.99046 18.3662 3.23166 18.367 3.48339V5.70009Z" fill="black"/>
  <path d="M8.86687 8.55034C8.86687 8.38236 8.80014 8.22127 8.68137 8.10249C8.56259 7.98372 8.4015 7.91699 8.23353 7.91699H6.96684C6.79887 7.91699 6.63777 7.98372 6.519 8.10249C6.40022 8.22127 6.3335 8.38236 6.3335 8.55034V9.50035C6.3335 9.66833 6.40022 9.82942 6.519 9.94819C6.63777 10.067 6.79887 10.1337 6.96684 10.1337H8.23353C8.4015 10.1337 8.56259 10.067 8.68137 9.94819C8.80014 9.82942 8.86687 9.66833 8.86687 9.50035V8.55034ZM6.96684 9.50035V8.55034H8.23353V9.50035H6.96684Z" fill="black"/>
  <path d="M5.06707 8.55034C5.06707 8.38236 5.00034 8.22127 4.88156 8.10249C4.76279 7.98372 4.6017 7.91699 4.43372 7.91699H3.16704C2.99906 7.91699 2.83797 7.98372 2.71919 8.10249C2.60042 8.22127 2.53369 8.38236 2.53369 8.55034V9.50035C2.53369 9.66833 2.60042 9.82942 2.71919 9.94819C2.83797 10.067 2.99906 10.1337 3.16704 10.1337H4.43372C4.6017 10.1337 4.76279 10.067 4.88156 9.94819C5.00034 9.82942 5.06707 9.66833 5.06707 9.50035V8.55034ZM3.16704 9.50035V8.55034H4.43372V9.50035H3.16704Z" fill="black"/>
  <path d="M15.8339 10.1337C16.0018 10.1337 16.1629 10.067 16.2817 9.94819C16.4005 9.82942 16.4672 9.66833 16.4672 9.50035V8.55034C16.4672 8.38236 16.4005 8.22127 16.2817 8.10249C16.1629 7.98372 16.0018 7.91699 15.8339 7.91699H14.5672C14.3992 7.91699 14.2381 7.98372 14.1193 8.10249C14.0006 8.22127 13.9338 8.38236 13.9338 8.55034V9.50035C13.9338 9.66833 14.0006 9.82942 14.1193 9.94819C14.2381 10.067 14.3992 10.1337 14.5672 10.1337H15.8339ZM14.5672 8.55034H15.8339V9.50035H14.5672V8.55034Z" fill="black"/>
  <path d="M8.86687 11.3999C8.86687 11.232 8.80014 11.0709 8.68137 10.9521C8.56259 10.8333 8.4015 10.7666 8.23353 10.7666H6.96684C6.79887 10.7666 6.63777 10.8333 6.519 10.9521C6.40022 11.0709 6.3335 11.232 6.3335 11.3999V12.35C6.3335 12.5179 6.40022 12.679 6.519 12.7978C6.63777 12.9166 6.79887 12.9833 6.96684 12.9833H8.23353C8.4015 12.9833 8.56259 12.9166 8.68137 12.7978C8.80014 12.679 8.86687 12.5179 8.86687 12.35V11.3999ZM6.96684 12.35V11.3999H8.23353V12.35H6.96684Z" fill="black"/>
  <path d="M5.06707 11.3999C5.06707 11.232 5.00034 11.0709 4.88156 10.9521C4.76279 10.8333 4.6017 10.7666 4.43372 10.7666H3.16704C2.99906 10.7666 2.83797 10.8333 2.71919 10.9521C2.60042 11.0709 2.53369 11.232 2.53369 11.3999V12.35C2.53369 12.5179 2.60042 12.679 2.71919 12.7978C2.83797 12.9166 2.99906 12.9833 3.16704 12.9833H4.43372C4.6017 12.9833 4.76279 12.9166 4.88156 12.7978C5.00034 12.679 5.06707 12.5179 5.06707 12.35V11.3999ZM3.16704 12.35V11.3999H4.43372V12.35H3.16704Z" fill="black"/>
  <path d="M8.23353 13.6167H6.96684C6.79887 13.6167 6.63777 13.6834 6.519 13.8022C6.40022 13.921 6.3335 14.0821 6.3335 14.25V15.2001C6.3335 15.368 6.40022 15.5291 6.519 15.6479C6.63777 15.7667 6.79887 15.8334 6.96684 15.8334H8.23353C8.4015 15.8334 8.56259 15.7667 8.68137 15.6479C8.80014 15.5291 8.86687 15.368 8.86687 15.2001V14.25C8.86687 14.0821 8.80014 13.921 8.68137 13.8022C8.56259 13.6834 8.4015 13.6167 8.23353 13.6167ZM6.96684 15.2001V14.25H8.23353V15.2001H6.96684Z" fill="black"/>
  <path d="M10.7669 10.1337H12.0336C12.2015 10.1337 12.3626 10.067 12.4814 9.94819C12.6002 9.82942 12.6669 9.66833 12.6669 9.50035V8.55034C12.6669 8.38236 12.6002 8.22127 12.4814 8.10249C12.3626 7.98372 12.2015 7.91699 12.0336 7.91699H10.7669C10.5989 7.91699 10.4378 7.98372 10.319 8.10249C10.2003 8.22127 10.1335 8.38236 10.1335 8.55034V9.50035C10.1335 9.66833 10.2003 9.82942 10.319 9.94819C10.4378 10.067 10.5989 10.1337 10.7669 10.1337ZM10.7669 8.55034H12.0336V9.50035H10.7669V8.55034Z" fill="black"/>
  <path d="M10.1335 12.35C10.1335 12.5179 10.2003 12.679 10.319 12.7978C10.4378 12.9166 10.5989 12.9833 10.7669 12.9833C10.8509 12.9833 10.9314 12.9499 10.9908 12.8906C11.0502 12.8312 11.0836 12.7506 11.0836 12.6666C11.0836 12.5826 11.0502 12.5021 10.9908 12.4427C10.9314 12.3833 10.8509 12.35 10.7669 12.35V11.3999H12.0336C12.1176 11.3999 12.1981 11.3666 12.2575 11.3072C12.3169 11.2478 12.3502 11.1673 12.3502 11.0833C12.3502 10.9993 12.3169 10.9187 12.2575 10.8594C12.1981 10.8 12.1176 10.7666 12.0336 10.7666H10.7669C10.5989 10.7666 10.4378 10.8333 10.319 10.9521C10.2003 11.0709 10.1335 11.232 10.1335 11.3999V12.35Z" fill="black"/>
  <path d="M4.43372 13.6167H3.16704C2.99906 13.6167 2.83797 13.6834 2.71919 13.8022C2.60042 13.921 2.53369 14.0821 2.53369 14.25V15.2001C2.53369 15.368 2.60042 15.5291 2.71919 15.6479C2.83797 15.7667 2.99906 15.8334 3.16704 15.8334H4.43372C4.6017 15.8334 4.76279 15.7667 4.88156 15.6479C5.00034 15.5291 5.06707 15.368 5.06707 15.2001V14.25C5.06707 14.0821 5.00034 13.921 4.88156 13.8022C4.76279 13.6834 4.6017 13.6167 4.43372 13.6167ZM3.16704 15.2001V14.25H4.43372V15.2001H3.16704Z" fill="black"/>
  <path d="M14.8833 10.7666C14.0691 10.7666 13.2732 11.008 12.5962 11.4604C11.9192 11.9127 11.3916 12.5557 11.08 13.3079C10.7684 14.0602 10.6869 14.8879 10.8457 15.6865C11.0046 16.485 11.3966 17.2186 11.9724 17.7943C12.5481 18.37 13.2816 18.7621 14.0802 18.921C14.8788 19.0798 15.7065 18.9983 16.4587 18.6867C17.211 18.3751 17.8539 17.8475 18.3063 17.1705C18.7586 16.4935 19.0001 15.6976 19.0001 14.8833C18.9988 13.7919 18.5647 12.7455 17.7929 11.9738C17.0212 11.202 15.9748 10.7679 14.8833 10.7666ZM14.8833 18.3667C14.1944 18.3667 13.5209 18.1624 12.9481 17.7797C12.3752 17.3969 11.9288 16.8529 11.6651 16.2164C11.4015 15.5799 11.3325 14.8795 11.4669 14.2038C11.6013 13.528 11.933 12.9074 12.4202 12.4202C12.9074 11.933 13.5281 11.6013 14.2038 11.4669C14.8795 11.3325 15.5799 11.4015 16.2164 11.6651C16.8529 11.9288 17.3969 12.3752 17.7797 12.9481C18.1624 13.5209 18.3667 14.1944 18.3667 14.8833C18.3656 15.8069 17.9983 16.6922 17.3453 17.3453C16.6922 17.9983 15.8069 18.3656 14.8833 18.3667Z" fill="black"/>
  <path d="M16.7134 13.5557L14.2503 16.0188L13.1309 14.899C13.0712 14.8413 12.9912 14.8094 12.9082 14.8101C12.8251 14.8109 12.7457 14.8442 12.687 14.9029C12.6283 14.9616 12.595 15.041 12.5943 15.124C12.5935 15.2071 12.6254 15.2871 12.6831 15.3468L14.0265 16.6904C14.0858 16.7498 14.1664 16.7831 14.2503 16.7831C14.3343 16.7831 14.4148 16.7498 14.4742 16.6904L17.1612 14.0035C17.2189 13.9437 17.2508 13.8637 17.2501 13.7807C17.2494 13.6977 17.216 13.6183 17.1573 13.5595C17.0986 13.5008 17.0192 13.4675 16.9362 13.4668C16.8531 13.4661 16.7731 13.498 16.7134 13.5557Z" fill="black"/>
</svg>