<svg width="17" height="17" viewBox="0 0 17 17" fill="none" xmlns="http://www.w3.org/2000/svg">
<path d="M8.5 0C6.81886 0 5.17547 0.498516 3.77766 1.43251C2.37984 2.3665 1.29037 3.69402 0.647028 5.24719C0.003683 6.80036 -0.164645 8.50943 0.163329 10.1583C0.491303 11.8071 1.30085 13.3217 2.4896 14.5104C3.67834 15.6992 5.1929 16.5087 6.84173 16.8367C8.49057 17.1646 10.1996 16.9963 11.7528 16.353C13.306 15.7096 14.6335 14.6202 15.5675 13.2223C16.5015 11.8245 17 10.1811 17 8.5C17 6.24566 16.1045 4.08365 14.5104 2.48959C12.9164 0.895533 10.7543 0 8.5 0ZM8.86437 5.22127C9.63703 5.22217 10.3778 5.5295 10.9241 6.07586C11.4705 6.62221 11.7778 7.36297 11.7787 8.13563H11.05C11.0494 7.55615 10.8189 7.00057 10.4092 6.59082C9.99943 6.18106 9.44385 5.9506 8.86437 5.95V5.22127ZM11.2245 13.6C11.2024 13.6 9.01453 13.5626 6.20104 10.799C3.4374 7.9866 3.4 5.79757 3.4 5.77547C3.4 5.5029 5.1 3.4 5.4757 3.4C5.60604 3.4 5.70747 3.4884 5.81854 3.621C6.086 3.93947 7.26864 5.80607 7.21424 6.11717C7.18817 6.26337 7.06407 6.37443 6.7082 6.67307C6.53285 6.81091 6.36876 6.9625 6.21747 7.1264C6.28992 7.42628 6.39758 7.71654 6.5382 7.99113C7.06211 9.06833 7.93256 9.93839 9.01 10.4618C9.2846 10.6024 9.57486 10.7101 9.87474 10.7825C10.0386 10.6312 10.1902 10.4671 10.3281 10.2918C10.6267 9.93593 10.7378 9.81183 10.884 9.78576C11.1951 9.7291 13.0617 10.914 13.3801 11.1815C13.5127 11.2948 13.6011 11.394 13.6011 11.5243C13.6 11.9 11.4971 13.6 11.2245 13.6ZM12.8713 8.13563C12.8701 7.0733 12.4475 6.05483 11.6963 5.30365C10.9452 4.55247 9.9267 4.12993 8.86437 4.12873V3.4C10.1199 3.4015 11.3235 3.90091 12.2113 4.78869C13.0991 5.67647 13.5985 6.88012 13.6 8.13563H12.8713Z" fill="#CDC7DD"/>
</svg>
