<svg xmlns="http://www.w3.org/2000/svg" width="33" height="33" viewBox="0 0 33 33" fill="none">
  <path d="M26.4 26.4C24.5685 26.4 23.1 27.8685 23.1 29.7C23.1 30.5752 23.4477 31.4146 24.0665 32.0335C24.6854 32.6523 25.5248 33 26.4 33C27.2752 33 28.1146 32.6523 28.7335 32.0335C29.3523 31.4146 29.7 30.5752 29.7 29.7C29.7 28.8248 29.3523 27.9854 28.7335 27.3665C28.1146 26.7477 27.2752 26.4 26.4 26.4ZM0 0V3.3H3.3L9.24 15.8235L6.996 19.866C6.7485 20.328 6.6 20.8725 6.6 21.45C6.6 22.3252 6.94768 23.1646 7.56655 23.7835C8.18542 24.4023 9.02479 24.75 9.9 24.75H29.7V21.45H10.593C10.4836 21.45 10.3787 21.4065 10.3013 21.3292C10.224 21.2518 10.1805 21.1469 10.1805 21.0375C10.1805 20.955 10.197 20.889 10.23 20.8395L11.715 18.15H24.0075C25.245 18.15 26.334 17.457 26.895 16.4505L32.802 5.775C32.9175 5.511 33 5.2305 33 4.95C33 4.51239 32.8262 4.09271 32.5167 3.78327C32.2073 3.47384 31.7876 3.3 31.35 3.3H6.9465L5.3955 0M9.9 26.4C8.0685 26.4 6.6 27.8685 6.6 29.7C6.6 30.5752 6.94768 31.4146 7.56655 32.0335C8.18542 32.6523 9.02479 33 9.9 33C10.7752 33 11.6146 32.6523 12.2335 32.0335C12.8523 31.4146 13.2 30.5752 13.2 29.7C13.2 28.8248 12.8523 27.9854 12.2335 27.3665C11.6146 26.7477 10.7752 26.4 9.9 26.4Z" fill="#07A304"/>
</svg>