<svg xmlns="http://www.w3.org/2000/svg" width="24" height="21" viewBox="0 0 24 21" fill="none">
  <path fill-rule="evenodd" clip-rule="evenodd" d="M11.2374 8.22176C8.71079 8.22176 6.18287 8.22176 3.65625 8.22176V6.93777C3.65625 3.07161 9.98832 2.55235 9.98832 4.2768V4.69918H10.3203C10.8241 4.69918 11.2374 5.11124 11.2374 5.61631V8.22176Z" fill="#4A4D71"/>
  <path fill-rule="evenodd" clip-rule="evenodd" d="M9.52195 4.55454V4.97691H9.85391C10.3577 4.97691 10.771 5.39029 10.771 5.89535V8.22174H11.2374V5.61633C11.2374 5.11127 10.824 4.6992 10.3202 4.6992H9.98827V4.27682C9.98827 3.25377 7.75745 3.01996 5.94385 3.80793C7.65021 3.28867 9.52195 3.61675 9.52195 4.55454Z" fill="#414470"/>
  <path fill-rule="evenodd" clip-rule="evenodd" d="M12.9374 15.8447V18.0936H1.9884V15.8447C1.9884 15.0582 2.38121 14.3824 3.06475 13.9937C3.10214 13.9718 3.14084 13.9509 3.17958 13.9303C3.51362 13.7508 3.85173 13.5831 4.1935 13.4236C4.40494 13.3247 4.61773 13.229 4.83192 13.136C5.68771 12.7638 6.56537 12.4293 7.46311 12.082C8.36084 12.4293 9.23896 12.7638 10.0943 13.136C10.3085 13.2294 10.5213 13.3247 10.7323 13.4236C11.074 13.5831 11.4121 13.7508 11.7462 13.9303C11.7849 13.9509 11.8237 13.9718 11.8601 13.9937C12.5445 14.3824 12.9374 15.0581 12.9374 15.8447Z" fill="#0FBEBE"/>
  <path fill-rule="evenodd" clip-rule="evenodd" d="M7.46286 10.7402H8.66937L9.4728 12.8793L7.46286 14.9384L5.45166 12.8793L6.2564 10.7402H7.46286Z" fill="#F7C5B8"/>
  <path fill-rule="evenodd" clip-rule="evenodd" d="M7.46308 10.7402H8.66954L9.31022 12.4453C8.76511 12.7566 8.13993 12.9362 7.46303 12.9362C6.78618 12.9362 6.16096 12.7566 5.61584 12.4453L6.25653 10.7402H7.46308Z" fill="#FCAC8F"/>
  <path fill-rule="evenodd" clip-rule="evenodd" d="M4.06696 9.298C4.34598 11.069 5.76044 12.4162 7.46292 12.4162C9.16545 12.4162 10.5786 11.069 10.8589 9.298C11.258 9.24244 11.5667 8.8782 11.5667 8.43512C11.5667 7.95461 11.2025 7.56578 10.7542 7.56578C10.5799 7.56578 10.4171 7.62518 10.284 7.72595L9.9753 6.47686C9.86938 6.04539 9.45604 5.76899 9.01685 5.83355L7.32983 6.08029L5.80945 6.12424C5.15841 6.14232 4.64042 6.67582 4.64042 7.32685V7.72599C4.50869 7.62522 4.34589 7.56582 4.17153 7.56582C3.72329 7.56582 3.35901 7.95461 3.35901 8.43516C3.3591 8.8782 3.66782 9.24248 4.06696 9.298Z" fill="#F7C5B8"/>
  <path d="M4.60348 15.418C4.3684 15.418 4.17712 15.6092 4.17712 15.8443C4.17712 16.0797 4.3684 16.2713 4.60348 16.2713C4.83887 16.2713 5.03037 16.0797 5.03037 15.8443C5.03037 15.6092 4.83887 15.418 4.60348 15.418Z" fill="#E2F0FA"/>
  <path fill-rule="evenodd" clip-rule="evenodd" d="M0.427002 18.0938H18.7063V19.7136H0.427002V18.0938Z" fill="#D88654"/>
  <path fill-rule="evenodd" clip-rule="evenodd" d="M12.4541 0H19.7847C20.0947 0 20.3492 0.254474 20.3492 0.564509V2.99167C20.3492 3.3017 20.0947 3.55486 19.7847 3.55486H15.1706V5.00807L13.7188 3.55486H12.4542C12.1441 3.55486 11.8896 3.3017 11.8896 2.99167V0.564509C11.8896 0.254474 12.1441 0 12.4541 0Z" fill="#FFD54F"/>
  <path fill-rule="evenodd" clip-rule="evenodd" d="M19.7577 0H19.7848C20.0948 0 20.3493 0.254474 20.3493 0.564509V2.99167C20.3493 3.3017 20.0948 3.55486 19.7848 3.55486H15.1708V5.00807L13.7189 3.55486H12.4543C12.1972 3.55486 11.9789 3.3805 11.9117 3.14542H13.1492H14.6011H19.2152C19.5252 3.14542 19.7797 2.89094 19.7797 2.58091V0.155063C19.7797 0.100768 19.7719 0.0490956 19.7577 0Z" fill="#FFC328"/>
  <path fill-rule="evenodd" clip-rule="evenodd" d="M11.966 14.0586C12.5847 14.4552 12.9374 15.101 12.9374 15.8463V18.0952H7.46299H1.98865V17.4119H6.79129H12.2656V15.163C12.2657 14.7574 12.161 14.3815 11.966 14.0586Z" fill="#0AB0B0"/>
  <path fill-rule="evenodd" clip-rule="evenodd" d="M14.4563 8.91992H14.8077V10.7413H14.4563C13.9551 10.7413 13.5457 10.3318 13.5457 9.83059C13.5457 9.32941 13.9551 8.91992 14.4563 8.91992ZM20.4848 8.91992H20.8375C21.3374 8.91992 21.7481 9.32941 21.7481 9.83059C21.7481 10.3318 21.3374 10.7413 20.8375 10.7413H20.4848V8.91992Z" fill="#F7C5B8"/>
  <path fill-rule="evenodd" clip-rule="evenodd" d="M11.4274 18.0938H18.7063V19.7136H0.427002V18.9993H11.4274V18.0938Z" fill="#C97745"/>
  <path fill-rule="evenodd" clip-rule="evenodd" d="M23.1212 17.4662V19.7151H12.1727V17.4662C12.1727 16.6792 12.5655 16.0039 13.2486 15.6138C13.286 15.5929 13.3247 15.5724 13.3635 15.5505C14.7301 14.8182 16.1614 14.2782 17.647 13.7031C19.1326 14.2782 20.5639 14.8182 21.9291 15.5505C21.9692 15.5724 22.0066 15.5929 22.044 15.6138C22.7289 16.0039 23.1212 16.6792 23.1212 17.4662Z" fill="#8399FE"/>
  <path fill-rule="evenodd" clip-rule="evenodd" d="M16.0388 11.8418H19.2552V14.2534C19.2552 14.672 18.984 15.0143 18.6533 15.0143H16.6408C16.3088 15.0143 16.0388 14.672 16.0388 14.2534V11.8418Z" fill="#F7C5B8"/>
  <path fill-rule="evenodd" clip-rule="evenodd" d="M17.0539 5.75586H18.2397C19.4746 5.75586 20.4848 6.76598 20.4848 8.00088V11.1811C20.4848 12.4173 19.4746 13.4274 18.2397 13.4274H17.0539C15.819 13.4274 14.8076 12.4173 14.8076 11.1811V8.00088C14.8077 6.76598 15.819 5.75586 17.0539 5.75586Z" fill="#4A4D71"/>
  <path fill-rule="evenodd" clip-rule="evenodd" d="M19.8132 7.57719V8.91932V10.7406V11.6061C19.8132 12.1706 19.6027 12.6886 19.2551 13.0839C19.1996 13.1471 19.1415 13.2066 19.0795 13.2634C19.1389 13.2389 19.1983 13.2117 19.2551 13.1834C19.9837 12.81 20.4849 12.0518 20.4849 11.1812V10.7406V8.91932V8.00088C20.4849 7.06309 19.9023 6.25315 19.0795 5.91992C19.529 6.33068 19.8132 6.92227 19.8132 7.57719Z" fill="#414470"/>
  <path d="M12.5482 15.0429C12.6093 15.1337 12.7092 15.183 12.8114 15.183C12.8719 15.183 12.933 15.1658 12.9872 15.1297C13.1323 15.0325 13.1712 14.8358 13.074 14.6903C12.8638 14.3765 12.584 14.1188 12.2386 13.9217L12.2051 13.9032C12.1771 13.8874 12.1491 13.8715 12.1192 13.8562C11.763 13.6649 11.3841 13.4773 10.9655 13.2857C10.7653 13.1934 10.5555 13.1003 10.3349 13.0054C10.2146 12.9538 10.0912 12.9014 9.96417 12.848C9.96413 12.848 9.96413 12.848 9.96408 12.848L9.75843 12.3011C9.75843 12.3011 9.75848 12.301 9.75852 12.301C10.5569 11.7404 11.1482 10.8548 11.3679 9.79426C11.8037 9.6297 12.1102 9.18938 12.1102 8.68486C12.1102 8.36117 11.9859 8.06777 11.7847 7.85484C11.7847 7.8548 11.7847 7.8548 11.7846 7.85475V5.88858C11.7846 5.21164 11.2339 4.66092 10.557 4.66092H10.5441V4.55965C10.5441 3.80134 9.71282 3.31129 8.42621 3.31129C7.34488 3.31129 6.18228 3.65052 5.31628 4.21874C4.21262 4.94292 3.6293 5.97321 3.6293 7.1982V7.88997L3.62926 7.89002C3.44707 8.09933 3.33586 8.37871 3.33586 8.68477C3.33586 9.18929 3.64237 9.63006 4.07908 9.79417C4.29788 10.8543 4.88875 11.7404 5.68757 12.3009L5.48165 12.8485C5.33752 12.9081 5.19833 12.9673 5.0628 13.0261C4.85981 13.1138 4.66632 13.2001 4.48007 13.2856C4.0628 13.4772 3.68351 13.6649 3.32546 13.857C3.29698 13.8719 3.2685 13.8877 3.24093 13.9031L3.20747 13.9216C3.20612 13.9225 3.20476 13.9234 3.2034 13.9239C2.42357 14.3692 1.97601 15.1391 1.97601 16.0365V17.951H0.743379C0.568561 17.951 0.42688 18.0928 0.42688 18.2675V19.8745C0.42688 20.0493 0.568606 20.191 0.743379 20.191H11.2656C11.4404 20.191 11.5821 20.0493 11.5821 19.8745C11.5821 19.6997 11.4403 19.558 11.2656 19.558H1.05992V18.5841H11.3605C11.5353 18.5841 11.677 18.4424 11.677 18.2676C11.677 18.0928 11.5352 17.9511 11.3605 17.9511H2.60933V16.0365C2.60933 15.3733 2.93934 14.8041 3.51574 14.4746L3.54829 14.4565C3.57316 14.4429 3.59802 14.4289 3.62379 14.4153C3.89368 14.2707 4.17668 14.1283 4.48002 13.9845V15.159C4.12198 15.2888 3.8652 15.6328 3.8652 16.0351C3.8652 16.5482 4.28292 16.9655 4.79648 16.9655C5.30959 16.9655 5.72685 16.5482 5.72685 16.0351C5.72685 15.6328 5.47098 15.2897 5.11338 15.1595V13.6947C5.28472 13.6192 5.46329 13.5424 5.64955 13.4642L7.49714 15.3556C7.55673 15.4166 7.63837 15.451 7.72363 15.451C7.8089 15.451 7.89054 15.4166 7.95008 15.3555L9.79636 13.4642C9.79636 13.4642 9.79641 13.4642 9.79645 13.4642C9.98316 13.5429 10.1613 13.6193 10.3326 13.6948V14.9109C9.87905 15.0294 9.49333 15.4053 9.49333 16.02V16.6889C9.49333 16.8637 9.63506 17.0054 9.80983 17.0054C9.98461 17.0054 10.1263 16.8637 10.1263 16.6889V16.02C10.1263 15.6404 10.4056 15.5046 10.6463 15.5033C10.6472 15.5034 10.6482 15.5035 10.649 15.5035C10.6502 15.5035 10.6514 15.5034 10.6525 15.5033C10.8934 15.5043 11.1733 15.6399 11.1733 16.02V16.6889C11.1733 16.8638 11.315 17.0054 11.4898 17.0054C11.6646 17.0054 11.8063 16.8637 11.8063 16.6889V16.02C11.8063 15.4047 11.4197 15.0286 10.9654 14.9106V13.9837C11.2701 14.1284 11.5531 14.2708 11.8221 14.415C11.8235 14.4159 11.8248 14.4168 11.8266 14.4177C11.8501 14.4299 11.8728 14.4426 11.8949 14.4548L11.9288 14.4738C12.1843 14.6197 12.3927 14.811 12.5482 15.0429ZM4.79648 16.3327C4.63192 16.3327 4.49811 16.1993 4.49811 16.0352C4.49811 15.8706 4.63192 15.7368 4.79648 15.7368C4.96058 15.7368 5.09395 15.8706 5.09395 16.0352C5.09395 16.1993 4.96058 16.3327 4.79648 16.3327ZM4.26235 7.19825C4.26235 5.93311 5.02437 5.16752 5.66361 4.74808C6.43056 4.24483 7.46333 3.94438 8.42621 3.94438C9.2866 3.94438 9.9111 4.20314 9.9111 4.55965V4.97742C9.9111 5.15224 10.0528 5.29392 10.2276 5.29392H10.5569C10.8848 5.29392 11.1516 5.56064 11.1516 5.88853V7.51714C11.1515 7.51714 11.1514 7.5171 11.1513 7.5171C11.0984 7.50851 11.0437 7.50444 10.9886 7.50444C10.9036 7.50444 10.8195 7.51439 10.7377 7.53382L10.5234 6.66674C10.3792 6.07814 9.81815 5.7011 9.21915 5.78926L7.5641 6.03293L6.07314 6.07587C5.27387 6.09803 4.64322 6.72461 4.60841 7.51529C4.55869 7.50806 4.50805 7.50444 4.45697 7.50444C4.39056 7.50444 4.32555 7.51077 4.2623 7.52248L4.26235 7.19825ZM4.66718 9.49046C4.64548 9.35213 4.53563 9.24453 4.39729 9.226C4.15317 9.19254 3.96872 8.96017 3.96872 8.68486C3.96872 8.51538 4.03753 8.36388 4.14598 8.26352C4.14956 8.26058 4.1529 8.25737 4.15634 8.2543C4.15937 8.25163 4.1623 8.24901 4.16538 8.24634C4.24675 8.17808 4.34802 8.13739 4.45697 8.13739C4.55552 8.13739 4.65 8.17039 4.73093 8.23233C4.82632 8.30557 4.95561 8.31822 5.06366 8.26533C5.1717 8.21199 5.23997 8.10168 5.23997 7.98143V7.58405C5.23997 7.11434 5.62152 6.72149 6.09123 6.70838L7.60071 6.66498C7.61292 6.66453 7.62558 6.66362 7.63778 6.66181L9.31137 6.41588C9.58578 6.3752 9.84256 6.54834 9.90857 6.81823L10.2151 8.05737C10.2408 8.1609 10.3168 8.24454 10.4176 8.2798C10.5184 8.31506 10.6301 8.29743 10.7151 8.23233C10.796 8.17039 10.8905 8.13739 10.9886 8.13739C11.0894 8.13739 11.1834 8.17175 11.2612 8.23097C11.262 8.23156 11.2627 8.23224 11.2635 8.23283C11.2675 8.23617 11.2715 8.23925 11.2756 8.24237C11.2773 8.24372 11.279 8.2449 11.2806 8.2463C11.3995 8.34621 11.4768 8.50534 11.4768 8.68481C11.4768 8.96013 11.2933 9.19295 11.0501 9.22595C10.9117 9.24449 10.8019 9.35208 10.7802 9.48996C10.6147 10.5347 10.0324 11.3964 9.23995 11.8837C9.23904 11.8842 9.23814 11.8851 9.23723 11.8851C9.23678 11.8854 9.23628 11.8856 9.23583 11.8859C9.21526 11.8957 9.19609 11.9073 9.1786 11.9207C9.17855 11.9207 9.17851 11.9208 9.17846 11.9208C9.17801 11.9213 9.17756 11.9213 9.17711 11.9217C9.17665 11.9222 9.17575 11.9226 9.17485 11.9235C8.73995 12.1763 8.24538 12.3178 7.72368 12.3178C7.20108 12.3178 6.7065 12.1763 6.27115 11.9235C6.27061 11.923 6.27007 11.9228 6.26953 11.9225C6.25027 11.9074 6.22879 11.8946 6.20569 11.8841C6.20551 11.884 6.20533 11.8838 6.2052 11.8838C6.20474 11.8838 6.20474 11.8833 6.20429 11.8833C6.20384 11.8833 6.20384 11.8829 6.20339 11.8829C6.20339 11.8829 6.20294 11.8829 6.20294 11.8824C5.41221 11.3946 4.83174 10.5334 4.66718 9.49046ZM7.72354 14.6814L6.09552 13.0147L6.24299 12.6225C6.69859 12.8345 7.19945 12.9507 7.72372 12.9507C8.24723 12.9507 8.74768 12.8345 9.20292 12.6225H9.20297L9.35048 13.0148L7.72354 14.6814ZM7.17025 10.4614C7.28919 10.605 7.48173 10.7761 7.72359 10.7761C7.96436 10.7761 8.15672 10.605 8.27566 10.4614C8.38715 10.3268 8.58674 10.308 8.72132 10.4196C8.85595 10.5311 8.87462 10.7307 8.76309 10.8653C8.4725 11.216 8.10333 11.4091 7.72354 11.4091C7.34294 11.4091 6.97332 11.216 6.68273 10.8652C6.5712 10.7306 6.58991 10.5311 6.72454 10.4196C6.85917 10.308 7.05872 10.3268 7.17025 10.4614ZM6.24218 8.8142C6.13056 8.8142 6.03969 8.90502 6.03969 9.01668C6.03969 9.1915 5.89796 9.33318 5.72319 9.33318C5.54842 9.33318 5.40669 9.19146 5.40669 9.01668C5.40669 8.55597 5.78151 8.18115 6.24218 8.18115C6.70284 8.18115 7.07771 8.55597 7.07771 9.01668C7.07771 9.1915 6.93598 9.33318 6.76121 9.33318C6.58643 9.33318 6.44471 9.19146 6.44471 9.01668C6.44466 8.90502 6.35384 8.8142 6.24218 8.8142ZM8.36947 9.01668C8.36947 8.55597 8.74429 8.18115 9.20496 8.18115C9.66562 8.18115 10.0405 8.55597 10.0405 9.01668C10.0405 9.1915 9.89876 9.33318 9.72398 9.33318C9.54921 9.33318 9.40749 9.19146 9.40749 9.01668C9.40749 8.90502 9.31666 8.8142 9.205 8.8142C9.09338 8.8142 9.00251 8.90502 9.00251 9.01668C9.00251 9.1915 8.86079 9.33318 8.68602 9.33318C8.51124 9.33318 8.36947 9.19146 8.36947 9.01668ZM12.6739 4.16002H13.7987L15.1463 5.50766C15.2069 5.56824 15.2878 5.60034 15.3701 5.60034C15.4108 5.60034 15.4519 5.5922 15.4913 5.57638C15.6097 5.5271 15.6866 5.41182 15.6866 5.28388V4.16002H19.9474C20.4302 4.16002 20.8231 3.76671 20.8231 3.28344V0.876578C20.8231 0.393307 20.4302 0 19.9474 0H12.6739C12.1911 0 11.7987 0.393307 11.7987 0.876578V3.28344C11.7987 3.76671 12.1911 4.16002 12.6739 4.16002ZM12.4316 0.876578C12.4316 0.742311 12.5406 0.63336 12.6739 0.63336H19.9474C20.0812 0.63336 20.1897 0.742311 20.1897 0.876578V3.28344C20.1897 3.41544 20.0789 3.52666 19.9474 3.52666H15.3701C15.1952 3.52666 15.0537 3.66861 15.0537 3.84356V4.51942L14.1536 3.61933C14.0944 3.56011 14.0139 3.52666 13.9298 3.52666H12.6739C12.5428 3.52666 12.4316 3.41544 12.4316 3.28344V0.876578ZM13.7773 2.08001C13.7773 1.90519 13.919 1.76351 14.0938 1.76351H14.5436C14.7184 1.76351 14.8601 1.90523 14.8601 2.08001C14.8601 2.25478 14.7184 2.39651 14.5436 2.39651H14.0938C13.919 2.39655 13.7773 2.25483 13.7773 2.08001ZM15.77 2.08001C15.77 1.90519 15.9117 1.76351 16.0865 1.76351H16.535C16.7098 1.76351 16.8515 1.90523 16.8515 2.08001C16.8515 2.25478 16.7098 2.39651 16.535 2.39651H16.0865C15.9117 2.39655 15.77 2.25483 15.77 2.08001ZM17.7614 2.08001C17.7614 1.90519 17.9031 1.76351 18.0779 1.76351H18.5277C18.7026 1.76351 18.8442 1.90523 18.8442 2.08001C18.8442 2.25478 18.7025 2.39651 18.5277 2.39651H18.0779C17.9031 2.39655 17.7614 2.25483 17.7614 2.08001ZM22.3416 15.5289L22.3086 15.5103C22.2806 15.495 22.2521 15.4791 22.2245 15.4642C21.3467 14.9932 20.4548 14.6108 19.7387 14.3205V13.5799C20.4701 13.1328 20.9587 12.3267 20.9587 11.4091V11.2889H20.9908C21.6635 11.2889 22.2105 10.7414 22.2105 10.0687C22.2105 9.39602 21.6635 8.84901 20.9908 8.84901H20.9587V8.25408C20.9587 6.85083 19.8172 5.70933 18.4135 5.70933H17.2372C15.8348 5.70933 14.6934 6.85083 14.6934 8.25408V8.84901H14.6617C13.989 8.84901 13.4416 9.39602 13.4416 10.0687C13.4416 10.7414 13.989 11.2889 14.6617 11.2889H14.6934V11.4091C14.6934 12.3273 15.1825 13.1333 15.9135 13.5805V14.32C15.1983 14.6107 14.3068 14.9927 13.4298 15.4634C13.4004 15.4787 13.3719 15.4945 13.3439 15.5104L13.3068 15.5307C12.5261 15.9742 12.0781 16.7441 12.0781 17.6424V19.8747C12.0781 20.0497 12.2196 20.1912 12.3945 20.1912H14.5699H15.2015H20.451H21.0821H23.2566C23.4311 20.1912 23.5731 20.0497 23.5731 19.8747V17.6424C23.5731 16.7445 23.1255 15.9746 22.3416 15.5289ZM20.9587 9.48187H20.9908C21.3145 9.48187 21.5776 9.74498 21.5776 10.0687C21.5776 10.3924 21.3145 10.6555 20.9908 10.6555H20.9587V9.48187ZM14.6934 10.6555H14.6617C14.338 10.6555 14.0745 10.3924 14.0745 10.0687C14.0745 9.74498 14.338 9.48187 14.6617 9.48187H14.6934V10.6555ZM15.3267 11.4091V10.9724V9.16542V8.25403C15.3267 7.19978 16.1839 6.34219 17.2372 6.34219H18.4135C19.4677 6.34219 20.3258 7.19978 20.3258 8.25403V9.16542V10.9724V11.4091C20.3258 12.1437 19.909 12.7824 19.2992 13.1025C19.299 13.1026 19.2988 13.1027 19.2985 13.1028C19.2969 13.1036 19.2953 13.1044 19.2937 13.1048C19.292 13.1057 19.2899 13.1069 19.2881 13.1078C19.2792 13.112 19.2705 13.1166 19.262 13.1215C19.2617 13.1216 19.2614 13.1218 19.2611 13.122H19.2607C19.0053 13.2486 18.7173 13.32 18.4135 13.32H17.2372C16.9357 13.32 16.6504 13.2499 16.3963 13.1247H16.3959C16.3954 13.1243 16.3945 13.1243 16.3941 13.1238C16.3937 13.1236 16.3934 13.1234 16.3931 13.1233C16.381 13.116 16.3686 13.1093 16.3555 13.1036C16.3548 13.1033 16.3541 13.1029 16.3534 13.1026C16.3529 13.1026 16.3525 13.1021 16.3525 13.1021C15.7431 12.7825 15.3267 12.1437 15.3267 11.4091ZM19.1021 14.5217C19.0795 14.7437 18.9455 14.8935 18.8238 14.8935H16.8285C16.7065 14.8935 16.5721 14.743 16.55 14.5201C16.55 14.5197 16.5498 14.5194 16.55 14.5189C16.55 14.5116 16.5491 14.5045 16.548 14.4972C16.5472 14.4838 16.5466 14.4704 16.5466 14.4565V13.8575C16.7663 13.9199 16.9981 13.9529 17.2372 13.9529H18.4135C18.6536 13.9529 18.8855 13.9194 19.1057 13.857H19.1057V14.4565C19.1057 14.4691 19.1051 14.4814 19.1044 14.4936C19.1044 14.4938 19.1043 14.4939 19.1043 14.4941C19.1043 14.4972 19.1043 14.5008 19.1038 14.504C19.1038 14.5076 19.1034 14.5108 19.1025 14.5144C19.1029 14.5167 19.1025 14.5189 19.102 14.5212C19.102 14.5214 19.1021 14.5215 19.1021 14.5217ZM22.9397 19.5582H21.083V17.3756C21.083 17.2011 20.9411 17.0591 20.7666 17.0591C20.5916 17.0591 20.4501 17.2011 20.4501 17.3756V19.5582H15.2024V17.3756C15.2024 17.2011 15.0604 17.0591 14.8859 17.0591C14.711 17.0591 14.569 17.2011 14.569 17.3756V19.5582H12.711V17.6423C12.711 16.9782 13.0424 16.4091 13.6161 16.0831L13.654 16.0619C13.6762 16.0492 13.6988 16.0365 13.7227 16.0243C13.7241 16.0239 13.7255 16.023 13.7268 16.0221C14.5269 15.5926 15.3443 15.2373 16.0215 14.9602C16.1758 15.2969 16.4796 15.5266 16.8285 15.5266H18.8237C19.1727 15.5266 19.4766 15.2968 19.6308 14.9599C20.3075 15.2374 21.1251 15.5927 21.9256 16.0225C21.951 16.0356 21.9758 16.0497 22.0007 16.0637L22.0323 16.0808C22.6092 16.4091 22.9396 16.9782 22.9396 17.6423V19.5582H22.9397Z" fill="black"/>
</svg>