<svg width="21" height="21" viewBox="0 0 21 21" fill="none" xmlns="http://www.w3.org/2000/svg">
<path d="M2.36554 7.52915L2.36558 7.52913L15.561 1.24549C15.5611 1.24545 15.5612 1.24542 15.5613 1.24538C17.5983 0.276226 19.7237 2.40275 18.7545 4.43865C18.7545 4.43868 18.7545 4.43871 18.7545 4.43874L12.4708 17.6343L12.4708 17.6343C11.5623 19.5423 8.80767 19.4248 8.06473 17.4462C8.06468 17.446 8.06463 17.4459 8.06458 17.4458L6.90237 14.345L6.90226 14.3447C6.7954 14.0599 6.62882 13.8013 6.41372 13.5862C6.19862 13.3711 5.93997 13.2045 5.65515 13.0976L5.65497 13.0976L2.55496 11.9352L2.55479 11.9351C0.57547 11.1934 0.45724 8.43779 2.36554 7.52915Z" stroke="#FF0000" stroke-width="2"/>
</svg>
