<svg xmlns="http://www.w3.org/2000/svg" width="30" height="27" viewBox="0 0 30 27" fill="none">
  <rect opacity="0.9" width="29.3442" height="26.965" rx="9" fill="#559DF3"/>
  <path fill-rule="evenodd" clip-rule="evenodd" d="M15.3336 10.8385C15.3336 10.2776 15.5564 9.73969 15.953 9.34307C16.3496 8.94645 16.8876 8.72363 17.4485 8.72363C18.0094 8.72363 18.5473 8.94645 18.9439 9.34307C19.3405 9.73969 19.5634 10.2776 19.5634 10.8385C19.5634 11.3994 19.3405 11.9374 18.9439 12.334C18.5473 12.7306 18.0094 12.9534 17.4485 12.9534C16.8876 12.9534 16.3496 12.7306 15.953 12.334C15.5564 11.9374 15.3336 11.3994 15.3336 10.8385ZM15.3336 14.0109C14.6324 14.0109 13.96 14.2894 13.4642 14.7852C12.9685 15.281 12.6899 15.9534 12.6899 16.6545C12.6899 17.0752 12.8571 17.4786 13.1545 17.7761C13.452 18.0736 13.8554 18.2407 14.2761 18.2407H20.6208C21.0415 18.2407 21.4449 18.0736 21.7424 17.7761C22.0399 17.4786 22.207 17.0752 22.207 16.6545C22.207 15.9534 21.9285 15.281 21.4327 14.7852C20.9369 14.2894 20.2645 14.0109 19.5634 14.0109H15.3336Z" fill="white"/>
  <path fill-rule="evenodd" clip-rule="evenodd" d="M9.78181 10.8385C9.78181 10.2776 10.0046 9.73969 10.4012 9.34307C10.7979 8.94645 11.3358 8.72363 11.8967 8.72363C12.4576 8.72363 12.9955 8.94645 13.3922 9.34307C13.7888 9.73969 14.0116 10.2776 14.0116 10.8385C14.0116 11.3994 13.7888 11.9374 13.3922 12.334C12.9955 12.7306 12.4576 12.9534 11.8967 12.9534C11.3358 12.9534 10.7979 12.7306 10.4012 12.334C10.0046 11.9374 9.78181 11.3994 9.78181 10.8385ZM9.78181 14.0109C9.08068 14.0109 8.40826 14.2894 7.91248 14.7852C7.41671 15.281 7.13818 15.9534 7.13818 16.6545C7.13818 17.0752 7.3053 17.4786 7.60276 17.7761C7.90023 18.0736 8.30368 18.2407 8.72436 18.2407H15.0691C15.4897 18.2407 15.8932 18.0736 16.1907 17.7761C16.4881 17.4786 16.6552 17.0752 16.6552 16.6545C16.6552 15.9534 16.3767 15.281 15.8809 14.7852C15.3852 14.2894 14.7127 14.0109 14.0116 14.0109H9.78181Z" fill="white"/>
  <path opacity="0.99" d="M16.8947 7.55893L16.5411 7.91248L16.8947 7.55893C16.3051 6.96939 15.5055 6.63818 14.6718 6.63818C13.838 6.63818 13.0385 6.96939 12.4489 7.55893C11.8594 8.14847 11.5282 8.94807 11.5282 9.78181C11.5282 10.6155 11.8594 11.4151 12.4489 12.0047C13.0385 12.5942 13.838 12.9254 14.6718 12.9254C15.5055 12.9254 16.3051 12.5942 16.8947 12.0047C17.4842 11.4151 17.8154 10.6155 17.8154 9.78181C17.8154 8.94807 17.4842 8.14847 16.8947 7.55893ZM12.0282 13.2472C11.0191 13.2472 10.0514 13.6481 9.33795 14.3616C8.62447 15.0751 8.22363 16.0428 8.22363 17.0518C8.22363 17.7102 8.4852 18.3417 8.9508 18.8073C9.4164 19.2729 10.0479 19.5345 10.7064 19.5345H18.6372C19.2957 19.5345 19.9272 19.2729 20.3928 18.8073C20.8584 18.3417 21.1199 17.7102 21.1199 17.0518C21.1199 16.0428 20.7191 15.0751 20.0056 14.3616C19.2921 13.6481 18.3244 13.2472 17.3154 13.2472H12.0282Z" fill="white" stroke="#66A7F4"/>
</svg>