<svg width="17" height="17" viewBox="0 0 17 17" fill="none" xmlns="http://www.w3.org/2000/svg">
<rect width="17" height="17" fill="#1E1E1E"/>
<g id="Home" clip-path="url(#clip0_0_1)">
<rect width="1440" height="1078" transform="translate(-965 -542)" fill="white"/>
<rect id="Rectangle 6060" x="-689.5" y="-46.5" width="765" height="362" rx="4.5" stroke="#D6CECE"/>
<path id="Vector" opacity="0.7" fill-rule="evenodd" clip-rule="evenodd" d="M8.5 0C13.1944 0 17 3.80558 17 8.5C17 13.1944 13.1944 17 8.5 17C3.80558 17 0 13.1944 0 8.5C0 3.80558 3.80558 0 8.5 0ZM5.38279 10.621L8.06046 13.2979C8.11818 13.3557 8.18676 13.4016 8.26225 13.4329C8.33774 13.4643 8.41867 13.4804 8.5004 13.4804C8.58213 13.4804 8.66306 13.4643 8.73855 13.4329C8.81404 13.4016 8.88261 13.3557 8.94034 13.2979L11.6171 10.6211C11.7314 10.5038 11.795 10.3461 11.7939 10.1823C11.7928 10.0185 11.7272 9.8617 11.6113 9.74593C11.4954 9.63016 11.3385 9.56473 11.1747 9.56385C11.0109 9.56296 10.8533 9.62669 10.7361 9.7412L9.12292 11.3553V6.18043C9.12123 6.01643 9.05489 5.85972 8.93832 5.74435C8.82176 5.62898 8.66437 5.56427 8.50036 5.56427C8.33636 5.56427 8.17897 5.62898 8.06241 5.74435C7.94584 5.85972 7.8795 6.01643 7.87781 6.18043V11.3551L6.26367 9.74097C6.20615 9.68198 6.1375 9.63499 6.06169 9.60273C5.98587 9.57047 5.90441 9.55358 5.82203 9.55304C5.73964 9.55249 5.65796 9.56831 5.58173 9.59956C5.5055 9.63081 5.43623 9.67689 5.37794 9.73511C5.31965 9.79333 5.27349 9.86255 5.24214 9.93874C5.2108 10.0149 5.19488 10.0966 5.19533 10.179C5.19577 10.2614 5.21257 10.3428 5.24473 10.4187C5.2769 10.4945 5.32381 10.5633 5.38272 10.6208L5.38279 10.621ZM5.69902 4.14182C5.69901 4.30691 5.76452 4.46525 5.88117 4.58207C5.99782 4.69889 6.15606 4.76464 6.32114 4.76488H10.6789C10.7614 4.76609 10.8433 4.75087 10.9199 4.72013C10.9965 4.68938 11.0662 4.64372 11.125 4.58579C11.1838 4.52786 11.2304 4.45882 11.2623 4.38269C11.2942 4.30656 11.3106 4.22485 11.3106 4.14232C11.3106 4.05979 11.2942 3.97809 11.2623 3.90196C11.2304 3.82582 11.1838 3.75679 11.125 3.69886C11.0662 3.64093 10.9965 3.59526 10.9199 3.56452C10.8433 3.53377 10.7614 3.51856 10.6789 3.51976H6.32114C6.15617 3.51979 5.99795 3.58533 5.88129 3.70199C5.76462 3.81864 5.69906 3.97685 5.69902 4.14182Z" fill="#9474FF"/>
</g>
<defs>
<clipPath id="clip0_0_1">
<rect width="1440" height="1078" fill="white" transform="translate(-965 -542)"/>
</clipPath>
</defs>
</svg>
