<svg width="17" height="17" viewBox="0 0 17 17" fill="none" xmlns="http://www.w3.org/2000/svg">
<g clip-path="url(#clip0_3246_3735)">
<path d="M10.5497 11.8596C11.7026 12.511 12.6001 13.5841 12.9941 14.91C13.0525 15.1093 13.016 15.3239 12.8992 15.4925C12.7825 15.6611 12.5928 15.7607 12.3958 15.7607H3.64719C3.45018 15.7607 3.26047 15.6611 3.14372 15.4925C3.02698 15.3239 2.99049 15.1093 3.04887 14.91C3.44288 13.5764 4.34766 12.5034 5.50052 11.8519C5.79968 11.6833 6.16451 11.7523 6.37611 12.0282L7.59464 13.5611C7.81353 13.8446 8.22944 13.8446 8.44833 13.5611L9.65957 12.0282C9.88576 11.7599 10.2506 11.691 10.5497 11.8596Z" fill="url(#paint0_linear_3246_3735)"/>
<path d="M14.1557 2.29849L9.94898 0.975338C9.04537 0.690351 8.05063 0.690351 7.15461 0.968553L2.89472 2.30528C2.36319 2.46813 2.02148 2.90239 2.02148 3.40451C2.02148 3.90663 2.36319 4.3409 2.89472 4.50375L7.12424 5.82012C7.57225 5.96261 8.04304 6.03046 8.51383 6.03046C8.98462 6.03046 9.45541 5.96261 9.90342 5.82012L13.7153 4.63267V7.1772C13.7153 7.49611 14.0038 7.76074 14.3683 7.76074C14.7328 7.76074 15.0214 7.5029 15.0214 7.1772C15.0214 7.1772 15.0214 3.40451 15.0214 3.39773C15.029 2.90239 14.6797 2.46813 14.1557 2.29849Z" fill="url(#paint1_linear_3246_3735)"/>
<path d="M12.0137 6.76074L9.88141 7.44402C8.68296 7.82836 7.35222 7.82836 6.15378 7.44402L4.02148 6.76074V7.10238C4.02148 9.11661 5.81137 10.7607 8.02148 10.7607C10.2316 10.7607 12.0215 9.12373 12.0215 7.10238V6.76074H12.0137Z" fill="url(#paint2_linear_3246_3735)"/>
</g>
<defs>
<linearGradient id="paint0_linear_3246_3735" x1="8.02148" y1="11.7607" x2="8.02148" y2="15.7607" gradientUnits="userSpaceOnUse">
<stop stop-color="#252B61"/>
<stop offset="0.595" stop-color="#4C58C7"/>
<stop offset="0.97" stop-color="#252B61"/>
</linearGradient>
<linearGradient id="paint1_linear_3246_3735" x1="8.52148" y1="0.760742" x2="8.52148" y2="7.76074" gradientUnits="userSpaceOnUse">
<stop stop-color="#252B61"/>
<stop offset="0.595" stop-color="#4C58C7"/>
<stop offset="0.97" stop-color="#252B61"/>
</linearGradient>
<linearGradient id="paint2_linear_3246_3735" x1="8.02148" y1="6.76074" x2="8.02148" y2="10.7607" gradientUnits="userSpaceOnUse">
<stop stop-color="#252B61"/>
<stop offset="0.595" stop-color="#4C58C7"/>
<stop offset="0.97" stop-color="#252B61"/>
</linearGradient>
<clipPath id="clip0_3246_3735">
<rect width="16" height="16" fill="white" transform="translate(0.0214844 0.760742)"/>
</clipPath>
</defs>
</svg>
