<svg xmlns="http://www.w3.org/2000/svg" width="14" height="15" viewBox="0 0 14 15" fill="none">
  <path d="M0.5 2.5H7.571C7.7945 3.36 8.571 4 9.5 4C10.429 4 11.2055 3.36 11.429 2.5H13.5C13.776 2.5 14 2.276 14 2C14 1.724 13.776 1.5 13.5 1.5H11.429C11.2055 0.64 10.429 0 9.5 0C8.571 0 7.7945 0.64 7.571 1.5H0.5C0.224 1.5 0 1.724 0 2C0 2.276 0.224 2.5 0.5 2.5ZM9.5 1C10.0515 1 10.5 1.4485 10.5 2C10.5 2.5515 10.0515 3 9.5 3C8.9485 3 8.5 2.5515 8.5 2C8.5 1.4485 8.9485 1 9.5 1ZM13.5 12.5H11.429C11.2055 11.64 10.429 11 9.5 11C8.571 11 7.7945 11.64 7.571 12.5H0.5C0.224 12.5 0 12.724 0 13C0 13.276 0.224 13.5 0.5 13.5H7.571C7.7945 14.36 8.571 15 9.5 15C10.429 15 11.2055 14.36 11.429 13.5H13.5C13.776 13.5 14 13.276 14 13C14 12.724 13.776 12.5 13.5 12.5ZM9.5 14C8.9485 14 8.5 13.5515 8.5 13C8.5 12.4485 8.9485 12 9.5 12C10.0515 12 10.5 12.4485 10.5 13C10.5 13.5515 10.0515 14 9.5 14ZM13.5 7H5.929C5.7055 6.14 4.929 5.5 4 5.5C3.071 5.5 2.2945 6.14 2.071 7H0.5C0.224 7 0 7.224 0 7.5C0 7.776 0.224 8 0.5 8H2.071C2.2945 8.86 3.071 9.5 4 9.5C4.929 9.5 5.7055 8.86 5.929 8H13.5C13.776 8 14 7.776 14 7.5C14 7.224 13.776 7 13.5 7ZM4 8.5C3.4485 8.5 3 8.0515 3 7.5C3 6.9485 3.4485 6.5 4 6.5C4.5515 6.5 5 6.9485 5 7.5C5 8.0515 4.5515 8.5 4 8.5Z" fill="black"/>
</svg>