<svg xmlns="http://www.w3.org/2000/svg" width="15" height="11" viewBox="0 0 15 11" fill="none">
  <g clip-path="url(#clip0_241_444)">
    <path d="M3.68183 10.9457V5.30832L2.00429 3.70887L0.5 2.82129V9.95083C0.5 10.5013 0.92793 10.9457 1.45457 10.9457H3.68183Z" fill="#4285F4"/>
    <path d="M11.3181 10.9456H13.5454C14.0736 10.9456 14.4999 10.4996 14.4999 9.95077V2.82129L12.7961 3.83791L11.3181 5.30826V10.9456Z" fill="#34A853"/>
    <path d="M3.68188 5.30891L3.45361 3.10623L3.68188 0.998047L7.50005 3.98252L11.3182 0.998047L11.5736 2.99241L11.3182 5.30891L7.50005 8.29338L3.68188 5.30891Z" fill="#EA4335"/>
    <path d="M11.3181 0.99762V5.30848L14.4999 2.82145V1.49501C14.4999 0.26478 13.1524 -0.436541 12.2091 0.301257L11.3181 0.99762Z" fill="#FBBC04"/>
    <path d="M0.5 2.82148L1.96338 3.96537L3.68183 5.30851V0.997646L2.79086 0.301283C1.84586 -0.436572 0.5 0.264806 0.5 1.49498V2.82148Z" fill="#C5221F"/>
  </g>
  <defs>
    <clipPath id="clip0_241_444">
      <rect width="14" height="11" fill="white" transform="translate(0.5)"/>
    </clipPath>
  </defs>
</svg>