<svg
                                className="checkmark"
                                xmlns="http://www.w3.org/2000/svg"
                                width="75"
                                height="72"
                                viewBox="0 0 75 72"
                                fill="none"
                              >
                                <path
                                  className="checkmark__circle"
                                  stroke="#00A5FF"
                                  fill="#00A5FF"
                                  d="M59.7084 11.8828C60.3596 11.2316 60.3621 10.1726 59.6812 9.55251C53.8389 4.23225 46.3806 0.991413 38.472 0.36754C30.0081 -0.300135 21.5836 2.07333 14.7131 7.06123C7.84253 12.0491 2.97661 19.3243 0.990104 27.5788C-0.996408 35.8333 0.0267834 44.5258 3.87573 52.0934C7.72468 59.661 14.1469 65.6074 21.9879 68.8637C29.8288 72.1199 38.5741 72.4723 46.6517 69.8575C54.7292 67.2427 61.609 61.8323 66.0544 54.5989C70.2081 47.84 71.9817 39.9038 71.123 32.0488C71.0229 31.1333 70.1655 30.5117 69.2557 30.6544C68.3459 30.7971 67.7286 31.6503 67.8243 32.5663C68.5627 39.6361 66.9511 46.7703 63.2131 52.8527C59.1834 59.4098 52.9468 64.3143 45.6246 66.6846C38.3023 69.0549 30.3747 68.7354 23.2669 65.7837C16.1591 62.832 10.3374 57.4415 6.84833 50.5815C3.35927 43.7215 2.43175 35.8418 4.23252 28.3591C6.03328 20.8764 10.4442 14.2815 16.6723 9.76C22.9004 5.23849 30.5372 3.08695 38.2097 3.6922C45.3268 4.25363 52.0416 7.153 57.3202 11.9136C58.0041 12.5304 59.0572 12.534 59.7084 11.8828Z"
                                />
                                <path
                                  className="checkmark__tick"
                                  d="M71.3341 13.0394L36.466 48.0879L20.6168 32.1568"
                                  stroke="#00A5FF"
                                  stroke-width="6.18503"
                                  stroke-linecap="round"
                                  stroke-linejoin="round"
                                />
                              </svg>