<svg xmlns="http://www.w3.org/2000/svg" width="50" height="51" viewBox="0 0 50 51" fill="none">
  <ellipse opacity="0.6" cx="25" cy="25.5" rx="25" ry="25.5" fill="#D9D9D9"/>
  <path d="M33.6257 17.674L33.2323 17.9537L31.9604 16.1647C31.3369 15.2878 30.1237 15.0766 29.2562 15.6933C28.9528 15.909 28.7311 16.1978 28.598 16.5196C27.9358 15.9288 26.9346 15.8476 26.1891 16.3776L26.1887 16.3779C25.3213 16.9946 25.1221 18.21 25.7456 19.0869L27.724 21.8698L21.7451 26.1205L19.7666 23.3376C19.1432 22.4607 17.9298 22.2495 17.062 22.8665C16.3165 23.3965 16.0643 24.3688 16.4047 25.1884C16.0571 25.2083 15.7114 25.3229 15.4081 25.5386C14.5406 26.1553 14.3415 27.3706 14.965 28.2475L16.2369 30.0365L15.8435 30.3162C15.1928 30.7788 15.0437 31.6905 15.5111 32.348L16.6417 33.9382C17.1092 34.5957 18.0192 34.7543 18.6699 34.2918L19.0633 34.0121L20.3351 35.801C20.9586 36.678 22.1718 36.8892 23.0393 36.2725C23.3427 36.0568 23.5644 35.768 23.6975 35.4462C24.3597 36.037 25.3609 36.1182 26.1064 35.5882L26.1069 35.5879C26.9742 34.9712 27.1734 33.7558 26.55 32.8789L24.5715 30.096L30.5504 25.8453L32.5289 28.6282C33.1524 29.5051 34.3657 29.7162 35.2336 29.0993C35.979 28.5693 36.2312 27.597 35.8908 26.7774C36.2384 26.7575 36.5841 26.6429 36.8874 26.4272C37.7549 25.8105 37.954 24.5952 37.3305 23.7182L36.0586 21.9293L36.4521 21.6496C37.1027 21.187 37.2518 20.2753 36.7844 19.6178L35.6538 18.0276C35.1864 17.3701 34.2763 17.2114 33.6257 17.674ZM18.498 33.217L18.1046 33.4966C17.8877 33.6508 17.5843 33.5979 17.4285 33.3788L16.298 31.7886C16.1422 31.5695 16.1919 31.2655 16.4087 31.1113L16.8022 30.8316L18.498 33.217ZM22.6956 34.1229C22.8516 34.3423 22.9049 34.6037 22.8648 34.8489C22.8247 35.0942 22.6912 35.323 22.4741 35.4774C22.0401 35.7859 21.4337 35.6802 21.122 35.2417L15.7518 27.6882C15.44 27.2496 15.5394 26.6422 15.9734 26.3337C16.4074 26.0251 17.0137 26.1308 17.3255 26.5694L22.6956 34.1229ZM25.7631 33.4383C26.0749 33.8768 25.9751 34.4846 25.5416 34.7928L25.5411 34.7931C25.1076 35.1013 24.5008 34.9959 24.189 34.5574L17.4057 25.0161C17.0939 24.5776 17.1937 23.9698 17.6277 23.6613C18.0612 23.3531 18.668 23.4584 18.9798 23.897L25.7631 33.4383ZM28.8523 23.4616L26.1012 25.4175C25.884 25.5719 25.8344 25.8753 25.9904 26.0948C26.1464 26.3142 26.4493 26.367 26.6664 26.2126L29.4176 24.2567L29.9828 25.0518L24.0042 29.3023L22.3084 26.917L28.287 22.6665L28.8523 23.4616ZM34.8898 26.9497C35.2016 27.3882 35.1018 27.996 34.6678 28.3045C34.2343 28.6127 33.6275 28.5073 33.3157 28.0688L29.9385 23.3185C29.9444 23.3274 29.9498 23.3367 29.9545 23.3459L29.889 23.2537C29.8961 23.2612 29.9031 23.2693 29.9096 23.2778L26.5324 18.5275C26.2206 18.089 26.3204 17.4812 26.7539 17.173L26.7544 17.1727C27.1879 16.8645 27.7947 16.9699 28.1065 17.4084L34.8898 26.9497ZM36.5437 24.2776C36.8555 24.7162 36.7561 25.3236 36.3222 25.6321C35.8882 25.9407 35.2818 25.835 34.9701 25.3964L29.5999 17.8429C29.2881 17.4043 29.3875 16.7969 29.8215 16.4884C30.2554 16.1799 30.8618 16.2856 31.1736 16.7241L36.5437 24.2776ZM35.9976 20.1772C36.1533 20.3963 36.1036 20.7003 35.8868 20.8545L35.4934 21.1341L33.7975 18.7488L34.1909 18.4691C34.4078 18.315 34.7112 18.3679 34.867 18.587L35.9976 20.1772Z" fill="black"/>
</svg>