<svg xmlns="http://www.w3.org/2000/svg" width="20" height="20" viewBox="0 0 20 20" fill="none">
  <g clip-path="url(#clip0_615_2146)">
    <path d="M14.3542 9.30469C11.5169 9.30469 9.20837 11.6132 9.20837 14.4505C9.20837 17.2879 11.5169 19.5964 14.3542 19.5964C17.1915 19.5964 19.5 17.2879 19.5 14.4505C19.5 11.6132 17.1915 9.30469 14.3542 9.30469ZM16.8693 16.8421C16.7134 17.0377 16.483 17.139 16.251 17.139C16.0777 17.139 15.9027 17.082 15.757 16.9656L13.8602 15.448C13.6726 15.2984 13.5633 15.0704 13.5633 14.8297V12.1745C13.5633 11.7375 13.918 11.3828 14.355 11.3828C14.792 11.3828 15.1467 11.7375 15.1467 12.1745V14.4497L16.7466 15.7299C17.087 16.0022 17.1425 16.5001 16.8693 16.8421Z" fill="#BFC200"/>
    <path d="M8.9788 10.4038C8.63838 10.8471 8.35338 11.3459 8.13963 11.8763H5.09172C4.6563 11.8763 4.30005 11.5201 4.30005 11.0846C4.30005 10.6492 4.6563 10.293 5.09172 10.293H8.58297C8.72547 10.293 8.86005 10.3326 8.9788 10.4038Z" fill="black"/>
    <path d="M12.6205 7.91862V7.95029C11.9871 8.11654 11.3934 8.36987 10.8471 8.71029H5.09172C4.6563 8.71029 4.30005 8.35404 4.30005 7.91862C4.30005 7.4832 4.6563 7.12695 5.09172 7.12695H11.8288C12.2642 7.12695 12.6205 7.4832 12.6205 7.91862Z" fill="black"/>
    <path d="M12.5729 5.54427H5.09403C4.65703 5.54427 4.30237 5.1896 4.30237 4.7526C4.30237 4.3156 4.65703 3.96094 5.09403 3.96094H12.5729C13.0099 3.96094 13.3646 4.3156 13.3646 4.7526C13.3646 5.1896 13.0099 5.54427 12.5729 5.54427Z" fill="black"/>
    <path d="M17.5129 0.737995C17.3942 0.666745 17.2675 0.611328 17.125 0.611328H4.45833C3.15208 0.611328 2.08333 1.68008 2.08333 2.98633V14.0697H1.29167C0.85625 14.0697 0.5 14.4259 0.5 14.8613V17.2047C0.5 18.5109 1.56875 19.5797 2.875 19.5797H10C8.55125 18.3447 7.625 16.5001 7.625 14.4497C7.625 14.323 7.625 14.1963 7.63292 14.0697H3.66667V2.98633C3.66667 2.55091 4.02292 2.19466 4.45833 2.19466H14.2354C14.0613 2.55883 13.9583 2.95466 13.9583 3.38216V7.72841C14.0929 7.72049 14.2196 7.72049 14.3542 7.72049C14.7579 7.72049 15.1538 7.76008 15.5417 7.83133V5.36133H18.7083C19.1438 5.36133 19.5 5.00508 19.5 4.56966V3.38216C19.5 2.13133 18.6608 1.07841 17.5129 0.737995Z" fill="#036BCC"/>
  </g>
  <defs>
    <clipPath id="clip0_615_2146">
      <rect width="19" height="19" fill="white" transform="translate(0.5 0.595703)"/>
    </clipPath>
  </defs>
</svg>