<svg
                        xmlns="http://www.w3.org/2000/svg"
                        width="8"
                        height="12"
                        viewBox="0 0 8 12"
                        fill="none"
                      >
                        <path
                          d="M4 5.725C3.62112 5.725 3.25776 5.58013 2.98985 5.32227C2.72194 5.06441 2.57143 4.71467 2.57143 4.35C2.57143 3.98533 2.72194 3.63559 2.98985 3.37773C3.25776 3.11987 3.62112 2.975 4 2.975C4.37888 2.975 4.74224 3.11987 5.01015 3.37773C5.27806 3.63559 5.42857 3.98533 5.42857 4.35C5.42857 4.53057 5.39162 4.70937 5.31983 4.87619C5.24804 5.04301 5.14281 5.19459 5.01015 5.32227C4.8775 5.44995 4.72001 5.55123 4.54669 5.62033C4.37337 5.68944 4.1876 5.725 4 5.725ZM4 0.5C2.93913 0.5 1.92172 0.905624 1.17157 1.62764C0.421427 2.34965 0 3.32892 0 4.35C0 7.2375 4 11.5 4 11.5C4 11.5 8 7.2375 8 4.35C8 3.32892 7.57857 2.34965 6.82843 1.62764C6.07828 0.905624 5.06087 0.5 4 0.5Z"
                          fill="#444444"
                        />
                      </svg>