 <svg
                          width="13"
                          className="svg-info-icon"
                          height="13"
                          viewBox="0 0 13 13"
                          fill="none"
                          xmlns="http://www.w3.org/2000/svg"
                        >
                          <path
                            opacity="0.5"
                            d="M7.15 3.25H5.85V7.15H7.15V3.25ZM6.5 8.45C6.31584 8.45 6.16135 8.5124 6.03655 8.6372C5.91175 8.762 5.84957 8.91627 5.85 9.1C5.85044 9.28373 5.91284 9.438 6.0372 9.5628C6.16157 9.6876 6.31584 9.75 6.5 9.75C6.68417 9.75 6.83844 9.6876 6.9628 9.5628C7.08717 9.438 7.14957 9.28373 7.15 9.1C7.15044 8.91627 7.08804 8.76178 6.9628 8.63655C6.83757 8.51132 6.6833 8.44913 6.5 8.45ZM6.5 3.8147e-06C7.39917 3.8147e-06 8.24417 0.170737 9.035 0.512204C9.82583 0.85367 10.5138 1.31669 11.0988 1.90125C11.6838 2.48582 12.1468 3.17374 12.4878 3.965C12.8288 4.75627 12.9996 5.60127 13 6.5C13.0004 7.39874 12.8297 8.24373 12.4878 9.035C12.1459 9.82627 11.6829 10.5142 11.0988 11.0988C10.5146 11.6833 9.8267 12.1463 9.035 12.4878C8.2433 12.8293 7.3983 13 6.5 13C5.6017 13 4.75671 12.8293 3.96501 12.4878C3.17331 12.1463 2.48539 11.6833 1.90126 11.0988C1.31712 10.5142 0.85389 9.82627 0.511558 9.035C0.169225 8.24373 -0.00129223 7.39874 7.62939e-06 6.5C0.00130749 5.60127 0.172041 4.75627 0.512207 3.965C0.852374 3.17374 1.31539 2.48582 1.90126 1.90125C2.48712 1.31669 3.17504 0.853455 3.96501 0.511555C4.75497 0.169655 5.59997 -0.000863075 6.5 3.8147e-06ZM6.5 1.3C5.04834 1.3 3.81876 1.80375 2.81126 2.81125C1.80376 3.81875 1.30001 5.04834 1.30001 6.5C1.30001 7.95167 1.80376 9.18125 2.81126 10.1888C3.81876 11.1963 5.04834 11.7 6.5 11.7C7.95167 11.7 9.18125 11.1963 10.1888 10.1888C11.1963 9.18125 11.7 7.95167 11.7 6.5C11.7 5.04834 11.1963 3.81875 10.1888 2.81125C9.18125 1.80375 7.95167 1.3 6.5 1.3Z"
                            fill="black"
                          />
                        </svg>