<svg xmlns="http://www.w3.org/2000/svg" width="17" height="19" viewBox="0 0 17 19" fill="none">
  <path fill-rule="evenodd" clip-rule="evenodd" d="M12.9087 18.9495H1.50164C0.76119 18.9495 0.157532 18.4127 0.157532 17.751V3.62046C0.157532 2.95871 0.76119 2.42188 1.50164 2.42188H3.99359C4.32069 2.42188 4.32069 2.86304 3.99359 2.86304H1.50164C1.03477 2.86304 0.654137 3.20321 0.654137 3.62046V17.751C0.654137 18.1682 1.03477 18.5057 1.50164 18.5057H12.9087C13.0247 18.5057 13.1377 18.4871 13.2417 18.4446C13.3696 18.3968 13.5153 18.4473 13.5689 18.5589C13.6224 18.6705 13.5659 18.8007 13.441 18.8512C13.2715 18.9177 13.0931 18.9495 12.9087 18.9495ZM14.003 7.83011C13.8662 7.83011 13.7532 7.72912 13.7532 7.60687V3.62046C13.7532 3.20321 13.3756 2.86304 12.9087 2.86304H10.4138C10.0867 2.86304 10.0867 2.42188 10.4138 2.42188H12.9087C13.6491 2.42188 14.2498 2.95871 14.2498 3.62046V7.60687C14.2498 7.72912 14.1398 7.83011 14.003 7.83011Z" fill="black"/>
  <path fill-rule="evenodd" clip-rule="evenodd" d="M9.55128 4.18868H4.85583C4.24622 4.18868 3.74664 3.74486 3.74664 3.19739V2.08651C3.74664 1.53904 4.24622 1.09522 4.85583 1.09522C5.33394 1.09522 5.73933 0.74826 6.10579 0.441184C6.39582 0.19816 6.78484 0.0507812 7.20504 0.0507812C7.62498 0.0507812 8.01278 0.197979 8.3019 0.440736C8.66807 0.748173 9.07316 1.09522 9.55128 1.09522C10.1639 1.09522 10.6605 1.53904 10.6605 2.08651V3.19739C10.6605 3.74486 10.1639 4.18868 9.55128 4.18868ZM4.85583 1.53904C4.51683 1.53904 4.24325 1.78354 4.24325 2.08651V3.19739C4.24325 3.50036 4.51683 3.74752 4.85583 3.74752H9.55128C9.89028 3.74752 10.1668 3.50036 10.1668 3.19739V2.08651C10.1668 1.78354 9.89028 1.53904 9.55128 1.53904H8.54914C8.42425 1.53904 8.32017 1.45666 8.30233 1.34769C8.22799 0.861352 7.75517 0.494602 7.20504 0.494602C6.65491 0.494602 6.18209 0.861352 6.10478 1.34769C6.08693 1.45666 5.98285 1.53904 5.86093 1.53904H4.85583Z" fill="black"/>
  <path fill-rule="evenodd" clip-rule="evenodd" d="M7.20488 2.24518C6.76775 2.24518 6.41388 1.92892 6.41388 1.53825C6.41388 1.15024 6.76775 0.833984 7.20488 0.833984C7.63904 0.833984 7.99291 1.15024 7.99291 1.53825C7.99291 1.92892 7.63904 2.24518 7.20488 2.24518ZM7.20488 1.27515C7.04133 1.27515 6.91048 1.39474 6.91048 1.53825C6.91048 1.68442 7.04133 1.80135 7.20488 1.80135C7.36546 1.80135 7.49927 1.68442 7.49927 1.53825C7.49927 1.39474 7.36546 1.27515 7.20488 1.27515Z" fill="black"/>
  <path fill-rule="evenodd" clip-rule="evenodd" d="M3.40177 7.70745H1.76624C1.48969 7.70745 1.26666 7.50813 1.26666 7.26098V5.79929C1.26666 5.55479 1.48969 5.35547 1.76624 5.35547H3.40177C3.67535 5.35547 3.90135 5.55479 3.90135 5.79929V7.26098C3.90135 7.50813 3.67535 7.70745 3.40177 7.70745ZM2.49988 5.79663C2.0947 5.79663 1.76624 6.12509 1.76624 6.53027C1.76624 6.93638 2.09615 7.26522 2.50226 7.2639L2.67227 7.26335C3.07695 7.26204 3.40408 6.93318 3.40325 6.5285C3.40243 6.12406 3.07434 5.79663 2.66989 5.79663H2.49988Z" fill="black"/>
  <path fill-rule="evenodd" clip-rule="evenodd" d="M3.40177 10.921H1.76624C1.48969 10.921 1.26666 10.7191 1.26666 10.4746V9.01288C1.26666 8.76573 1.48969 8.56641 1.76624 8.56641H3.40177C3.67535 8.56641 3.90135 8.76573 3.90135 9.01288V10.4746C3.90135 10.7191 3.67535 10.921 3.40177 10.921ZM2.49915 9.01023C2.09437 9.01023 1.76624 9.33836 1.76624 9.74313C1.76624 10.1484 2.0951 10.4767 2.50034 10.476L2.67168 10.4758C3.07649 10.4751 3.40408 10.1463 3.40325 9.74151C3.40243 9.33739 3.0746 9.01023 2.67049 9.01023H2.49915Z" fill="black"/>
  <path fill-rule="evenodd" clip-rule="evenodd" d="M3.40177 14.13H1.76624C1.48969 14.13 1.26666 13.9307 1.26666 13.6836V12.2219C1.26666 11.9774 1.48969 11.7754 1.76624 11.7754H3.40177C3.67535 11.7754 3.90135 11.9774 3.90135 12.2219V13.6836C3.90135 13.9307 3.67535 14.13 3.40177 14.13ZM2.49915 12.2192C2.09437 12.2192 1.76624 12.5473 1.76624 12.9521C1.76624 13.3574 2.0951 13.6857 2.50034 13.685L2.67168 13.6847C3.07649 13.6841 3.40408 13.3553 3.40325 12.9505C3.40243 12.5464 3.0746 12.2192 2.67049 12.2192H2.49915Z" fill="black"/>
  <path fill-rule="evenodd" clip-rule="evenodd" d="M3.40177 17.3403H1.76624C1.48969 17.3403 1.26666 17.1409 1.26666 16.8938V15.4321C1.26666 15.1876 1.48969 14.9883 1.76624 14.9883H3.40177C3.67535 14.9883 3.90135 15.1876 3.90135 15.4321V16.8938C3.90135 17.1409 3.67535 17.3403 3.40177 17.3403ZM2.49915 15.4294C2.09437 15.4294 1.76624 15.7576 1.76624 16.1623C1.76624 16.5676 2.0951 16.8959 2.50034 16.8953L2.67168 16.895C3.07649 16.8943 3.40408 16.5655 3.40325 16.1607C3.40243 15.7566 3.0746 15.4294 2.67049 15.4294H2.49915Z" fill="black"/>
  <path fill-rule="evenodd" clip-rule="evenodd" d="M12.5014 5.90601H4.81442C4.48732 5.90601 4.48732 5.46484 4.81442 5.46484H12.5014C12.8285 5.46484 12.8285 5.90601 12.5014 5.90601Z" fill="black"/>
  <path fill-rule="evenodd" clip-rule="evenodd" d="M10.3395 6.75437H4.81442C4.48732 6.75437 4.48732 6.31055 4.81442 6.31055H10.3395C10.6666 6.31055 10.6666 6.75437 10.3395 6.75437Z" fill="black"/>
  <path fill-rule="evenodd" clip-rule="evenodd" d="M10.2919 7.59741H4.81442C4.48732 7.59741 4.48732 7.15625 4.81442 7.15625H10.2919C10.6191 7.15625 10.6191 7.59741 10.2919 7.59741Z" fill="black"/>
  <path fill-rule="evenodd" clip-rule="evenodd" d="M11.9394 15.5388H4.81442C4.48732 15.5388 4.48732 15.0977 4.81442 15.0977H11.9394C12.2665 15.0977 12.2665 15.5388 11.9394 15.5388Z" fill="black"/>
  <path fill-rule="evenodd" clip-rule="evenodd" d="M10.3395 16.3872H4.81442C4.48732 16.3872 4.48732 15.9434 4.81442 15.9434H10.3395C10.6666 15.9434 10.6666 16.3872 10.3395 16.3872Z" fill="black"/>
  <path fill-rule="evenodd" clip-rule="evenodd" d="M10.2919 17.2322H4.81442C4.48732 17.2322 4.48732 16.791 4.81442 16.791H10.2919C10.6191 16.791 10.6191 17.2322 10.2919 17.2322Z" fill="black"/>
  <path fill-rule="evenodd" clip-rule="evenodd" d="M11.9394 12.3286H4.81442C4.48732 12.3286 4.48732 11.8848 4.81442 11.8848H11.9394C12.2665 11.8848 12.2665 12.3286 11.9394 12.3286Z" fill="black"/>
  <path fill-rule="evenodd" clip-rule="evenodd" d="M10.3395 13.1736H4.81442C4.48732 13.1736 4.48732 12.7324 4.81442 12.7324H10.3395C10.6666 12.7324 10.6666 13.1736 10.3395 13.1736Z" fill="black"/>
  <path fill-rule="evenodd" clip-rule="evenodd" d="M10.2919 14.0219H4.81442C4.48732 14.0219 4.48732 13.5781 4.81442 13.5781H10.2919C10.6191 13.5781 10.6191 14.0219 10.2919 14.0219Z" fill="black"/>
  <path fill-rule="evenodd" clip-rule="evenodd" d="M11.3565 9.1196H4.81442C4.48732 9.1196 4.48732 8.67578 4.81442 8.67578H11.3565C11.6807 8.67578 11.6807 9.1196 11.3565 9.1196Z" fill="black"/>
  <path fill-rule="evenodd" clip-rule="evenodd" d="M10.3395 9.96335H4.81442C4.48732 9.96335 4.48732 9.51953 4.81442 9.51953H10.3395C10.6666 9.51953 10.6666 9.96335 10.3395 9.96335Z" fill="black"/>
  <path fill-rule="evenodd" clip-rule="evenodd" d="M10.2919 10.811H4.81442C4.48732 10.811 4.48732 10.3672 4.81442 10.3672H10.2919C10.6191 10.3672 10.6191 10.811 10.2919 10.811Z" fill="black"/>
  <path fill-rule="evenodd" clip-rule="evenodd" d="M13.9347 18.9479C12.6976 18.9479 11.6925 18.0496 11.6925 16.944V9.10144C11.6925 8.97919 11.8025 8.88086 11.9393 8.88086H15.93C16.0668 8.88086 16.1768 8.97919 16.1768 9.10144V16.944C16.1768 18.0496 15.1717 18.9479 13.9347 18.9479ZM13.9347 9.32202C12.969 9.32202 12.1861 10.1049 12.1861 11.0705V16.944C12.1861 17.8051 12.9712 18.5041 13.9347 18.5041C14.8981 18.5041 15.6832 17.8051 15.6832 16.944V11.0706C15.6832 10.1049 14.9003 9.32202 13.9347 9.32202Z" fill="black"/>
  <path fill-rule="evenodd" clip-rule="evenodd" d="M16.0902 9.32412H11.7783C11.362 9.32412 11.026 9.02381 11.026 8.6544V8.05909C11.026 7.68703 11.362 7.38672 11.7783 7.38672H16.0902C16.5065 7.38672 16.8425 7.68703 16.8425 8.05909V8.6544C16.8425 9.02381 16.5065 9.32412 16.0902 9.32412ZM11.7783 7.83054C11.6356 7.83054 11.5226 7.93153 11.5226 8.05909V8.6544C11.5226 8.77931 11.6356 8.88295 11.7783 8.88295H16.0902C16.2329 8.88295 16.3459 8.77931 16.3459 8.6544V8.05909C16.3459 7.93153 16.2329 7.83054 16.0902 7.83054H11.7783Z" fill="black"/>
  <path fill-rule="evenodd" clip-rule="evenodd" d="M13.9344 18.2264C13.0988 18.2264 12.4208 17.6178 12.4208 16.8737V13.6261C12.4208 13.5597 12.4535 13.4959 12.513 13.4534C13.3367 12.8634 14.1396 13.7085 14.7165 13.7085C15.0168 13.7085 15.0763 13.4693 15.3082 13.5703C15.3945 13.6049 15.448 13.6846 15.448 13.7696V16.8737C15.448 17.6178 14.77 18.2264 13.9344 18.2264ZM13.503 13.7622C13.0969 13.6154 12.9174 14.0162 12.9174 14.448V16.8737C12.9174 17.3733 13.3724 17.7826 13.9344 17.7826C14.4964 17.7826 14.9514 17.3733 14.9514 16.8737V15.5443C14.9514 14.8166 14.1872 14.0096 13.503 13.7622Z" fill="black"/>
</svg>