   <svg
              xmlns="http://www.w3.org/2000/svg"
              width="9"
              height="11"
              viewBox="0 0 9 11"
              fill="none"
            >
              <path
                fill-rule="evenodd"
                clip-rule="evenodd"
                d="M4.5 0.916626C5.59402 0.916626 6.64323 1.35122 7.41682 2.12481C8.1904 2.8984 8.625 3.94761 8.625 5.04163C8.625 6.45054 7.85683 7.60371 7.04742 8.431C6.64294 8.83979 6.20169 9.21046 5.72925 9.53833L5.534 9.67125L5.44233 9.73221L5.26954 9.84221L5.11554 9.93617L4.92488 10.0471C4.7954 10.1208 4.64898 10.1595 4.5 10.1595C4.35102 10.1595 4.2046 10.1208 4.07512 10.0471L3.88446 9.93617L3.64613 9.7895L3.55813 9.73221L3.37021 9.60708C2.86053 9.26211 2.38574 8.86821 1.95258 8.431C1.14317 7.60325 0.375 6.45054 0.375 5.04163C0.375 3.94761 0.809597 2.8984 1.58318 2.12481C2.35677 1.35122 3.40598 0.916626 4.5 0.916626ZM4.5 1.83329C3.6491 1.83329 2.83305 2.17131 2.23137 2.77299C1.62969 3.37467 1.29167 4.19072 1.29167 5.04163C1.29167 6.10588 1.87467 7.03996 2.60754 7.78979C2.9227 8.10874 3.2633 8.40152 3.62596 8.66521L3.83587 8.81463C3.90371 8.86183 3.96879 8.90583 4.03158 8.94663L4.21033 9.06121L4.36754 9.157L4.5 9.23446L4.70854 9.11117L4.87675 9.00575C4.96613 8.94892 5.06238 8.88521 5.16413 8.81463L5.37404 8.66521C5.7367 8.40152 6.0773 8.10874 6.39246 7.78979C7.12533 7.04042 7.70833 6.10588 7.70833 5.04163C7.70833 4.19072 7.37031 3.37467 6.76863 2.77299C6.16695 2.17131 5.3509 1.83329 4.5 1.83329ZM4.5 3.20829C4.98623 3.20829 5.45255 3.40145 5.79636 3.74526C6.14018 4.08908 6.33333 4.5554 6.33333 5.04163C6.33333 5.52786 6.14018 5.99417 5.79636 6.33799C5.45255 6.68181 4.98623 6.87496 4.5 6.87496C4.01377 6.87496 3.54745 6.68181 3.20364 6.33799C2.85982 5.99417 2.66667 5.52786 2.66667 5.04163C2.66667 4.5554 2.85982 4.08908 3.20364 3.74526C3.54745 3.40145 4.01377 3.20829 4.5 3.20829ZM4.5 4.12496C4.25689 4.12496 4.02373 4.22154 3.85182 4.39344C3.67991 4.56535 3.58333 4.79851 3.58333 5.04163C3.58333 5.28474 3.67991 5.5179 3.85182 5.68981C4.02373 5.86172 4.25689 5.95829 4.5 5.95829C4.74312 5.95829 4.97627 5.86172 5.14818 5.68981C5.32009 5.5179 5.41667 5.28474 5.41667 5.04163C5.41667 4.79851 5.32009 4.56535 5.14818 4.39344C4.97627 4.22154 4.74312 4.12496 4.5 4.12496Z"
                fill="#F5F5F5"
              />
            </svg>