 <svg
                    xmlns="http://www.w3.org/2000/svg"
                    width="17"
                    height="15"
                    viewBox="0 0 17 15"
                    fill="none"
                  >
                    <path
                      opacity="0.7"
                      d="M10.45 9.45H13.05L15 14H2L3.95 9.45H6.55M9.15 4.9C9.15 5.07239 9.08152 5.23772 8.95962 5.35962C8.83772 5.48152 8.67239 5.55 8.5 5.55C8.32761 5.55 8.16228 5.48152 8.04038 5.35962C7.91848 5.23772 7.85 5.07239 7.85 4.9C7.85 4.72761 7.91848 4.56228 8.04038 4.44038C8.16228 4.31848 8.32761 4.25 8.5 4.25C8.67239 4.25 8.83772 4.31848 8.95962 4.44038C9.08152 4.56228 9.15 4.72761 9.15 4.9ZM4.6 4.9C4.6 8.15 8.5 11.4 8.5 11.4C8.5 11.4 12.4 8.15 12.4 4.9C12.4 2.67895 10.6541 1 8.5 1C6.3459 1 4.6 2.67895 4.6 4.9Z"
                      stroke="#444444"
                      strokeWidth="2"
                    />
                  </svg>