<svg xmlns="http://www.w3.org/2000/svg" width="48" height="48" viewBox="0 0 48 48" fill="none">
  <g clip-path="url(#clip0_492_1098)">
    <path opacity="0.8" d="M24.794 7.60869L23.6458 0H6.80068C4.26416 0 2.25 2.0666 2.25 4.60283V36.4567C2.25 38.993 4.26416 41.0177 6.80068 41.0177H22.7798L34.2917 23.5875V11.1574L24.794 7.60869Z" fill="white"/>
    <path d="M23.6458 0.0107422L34.2603 11.1576H27.1945C25.2322 11.1576 23.6458 9.57119 23.6458 7.60889V0.0107422Z" fill="#EAE3E3"/>
    <path d="M23.2389 23.9014H9.63955C9.06562 23.9014 8.5957 24.3713 8.5957 24.9452C8.5957 25.5194 9.06562 25.9888 9.63955 25.9888H23.2389C23.8128 25.9888 24.2827 25.5194 24.2827 24.9452C24.2827 24.3713 23.8236 23.9014 23.2389 23.9014Z" fill="#083863"/>
    <path d="M9.63955 20.77H20.2122C20.7861 20.77 21.2561 20.3004 21.2561 19.7262C21.2561 19.1522 20.7861 18.6826 20.2122 18.6826H9.63955C9.06563 18.6826 8.5957 19.1522 8.5957 19.7262C8.5957 20.3004 9.06563 20.77 9.63955 20.77Z" fill="#083863"/>
    <path d="M19.805 29.2236H9.63955C9.06563 29.2236 8.5957 29.6936 8.5957 30.2672C8.5957 30.8414 9.06563 31.311 9.63955 31.311H19.805C20.3792 31.311 20.8488 30.8414 20.8488 30.2672C20.8488 29.6936 20.3792 29.2236 19.805 29.2236Z" fill="#083863"/>
    <path d="M34.2604 21.5109C40.7315 22.4186 45.7096 27.9712 45.7096 34.6925C45.7096 42.0401 39.7503 48 32.4027 48C27.3513 48 22.9468 45.1819 20.7027 41.0279C19.6799 39.1389 19.0955 36.9785 19.0955 34.6822C19.0955 27.3346 25.055 21.375 32.4027 21.375C33.0291 21.3855 33.6446 21.4274 34.2604 21.5109Z" fill="#00A5FF"/>
    <path d="M33.1436 26.9902C32.9455 26.7816 32.674 26.6562 32.3819 26.6562C32.0895 26.6562 31.8182 26.7816 31.6199 26.9902L25.5035 33.5554C25.1072 33.9729 25.1385 34.6408 25.556 35.0267C25.754 35.2147 26.0154 35.3088 26.2658 35.3088C26.5474 35.3088 26.8395 35.1937 27.0484 34.9748L31.3694 30.3509V41.7485C31.3694 42.3225 31.839 42.7924 32.4129 42.7924C32.9871 42.7924 33.4568 42.3225 33.4568 41.7485V30.3509L37.7464 34.9748C38.1431 35.3923 38.7903 35.4233 39.218 35.0267C39.6355 34.6303 39.6563 33.9729 39.2701 33.5554L33.1436 26.9902Z" fill="white"/>
  </g>
  <defs>
    <clipPath id="clip0_492_1098">
      <rect width="48" height="48" fill="white"/>
    </clipPath>
  </defs>
</svg>