<svg
              xmlns="http://www.w3.org/2000/svg"
              width="113"
              height="113"
              viewBox="0 0 113 113"
              fill="none"
            >
              <circle
                cx="56.0667"
                cy="56.0748"
                r="40.1683"
                transform="rotate(101.712 56.0667 56.0748)"
                fill="#FBBC04"
              />
              <path
                d="M55.5766 16.1618C60.8511 16.0861 66.0888 17.0501 70.9906 18.9987C75.8925 20.9472 80.3626 23.8422 84.1457 27.5183C87.9288 31.1944 90.9507 35.5796 93.0391 40.4236C95.1274 45.2676 96.2412 50.4755 96.3168 55.7499L56.1527 56.3259L55.5766 16.1618Z"
                fill="#A0AAFD"
              />
              <path
                d="M96.4035 54.9214C96.6739 63.0462 94.4728 71.0617 90.0909 77.909C85.7091 84.7562 79.3528 90.1127 71.8621 93.2708L56.2575 56.2574L96.4035 54.9214Z"
                fill="#00F90A"
              />
              <path
                d="M77.113 90.6981C70.1566 94.9045 62.0877 96.9012 53.9724 96.4244C45.8572 95.9476 38.0776 93.0197 31.6616 88.0276L56.3284 56.3253L77.113 90.6981Z"
                fill="#F77373"
              />
              <circle cx="56.4348" cy="56.4348" r="23.0593" fill="white" />
              <circle
                cx="56.4348"
                cy="56.4348"
                r="22.5593"
                stroke="black"
                stroke-opacity="0.25"
              />
            </svg>