<svg xmlns="http://www.w3.org/2000/svg" width="16" height="14" viewBox="0 0 16 14" fill="none">
  <path d="M6.25 13.5H0.75C0.612 13.5 0.5 13.388 0.5 13.25V0.75C0.5 0.61225 0.612 0.5 0.75 0.5H7.25C7.388 0.5 7.5 0.61225 7.5 0.75V3C7.5 3.138 7.61175 3.25 7.75 3.25C7.88825 3.25 8 3.138 8 3V0.75C8 0.3365 7.6635 0 7.25 0H0.75C0.3365 0 0 0.3365 0 0.75V13.25C0 13.6635 0.3365 14 0.75 14H6.25C6.38825 14 6.5 13.8883 6.5 13.75C6.5 13.6117 6.38825 13.5 6.25 13.5Z" fill="black"/>
  <path d="M2.50006 1.5C1.94856 1.5 1.50006 1.9485 1.50006 2.5C1.50006 3.0515 1.94856 3.5 2.50006 3.5C3.05156 3.5 3.50006 3.0515 3.50006 2.5C3.50006 1.9485 3.05156 1.5 2.50006 1.5ZM2.50006 3C2.22431 3 2.00006 2.77575 2.00006 2.5C2.00006 2.22425 2.22431 2 2.50006 2C2.77581 2 3.00006 2.22425 3.00006 2.5C3.00006 2.77575 2.77581 3 2.50006 3Z" fill="black"/>
  <path d="M5.5 1.5C4.9485 1.5 4.5 1.9485 4.5 2.5C4.5 3.0515 4.9485 3.5 5.5 3.5C6.0515 3.5 6.5 3.0515 6.5 2.5C6.5 1.9485 6.0515 1.5 5.5 1.5ZM5.5 3C5.22425 3 5 2.77575 5 2.5C5 2.22425 5.22425 2 5.5 2C5.77575 2 6 2.22425 6 2.5C6 2.77575 5.77575 3 5.5 3Z" fill="black"/>
  <path d="M2.50006 4.5C1.94856 4.5 1.50006 4.9485 1.50006 5.5C1.50006 6.0515 1.94856 6.5 2.50006 6.5C3.05156 6.5 3.50006 6.0515 3.50006 5.5C3.50006 4.9485 3.05156 4.5 2.50006 4.5ZM2.50006 6C2.22431 6 2.00006 5.77575 2.00006 5.5C2.00006 5.22425 2.22431 5 2.50006 5C2.77581 5 3.00006 5.22425 3.00006 5.5C3.00006 5.77575 2.77581 6 2.50006 6Z" fill="black"/>
  <path d="M5.5 4.5C4.9485 4.5 4.5 4.9485 4.5 5.5C4.5 6.0515 4.9485 6.5 5.5 6.5C6.0515 6.5 6.5 6.0515 6.5 5.5C6.5 4.9485 6.0515 4.5 5.5 4.5ZM5.5 6C5.22425 6 5 5.77575 5 5.5C5 5.22425 5.22425 5 5.5 5C5.77575 5 6 5.22425 6 5.5C6 5.77575 5.77575 6 5.5 6Z" fill="black"/>
  <path d="M2.50006 7.5C1.94856 7.5 1.50006 7.9485 1.50006 8.5C1.50006 9.0515 1.94856 9.5 2.50006 9.5C3.05156 9.5 3.50006 9.0515 3.50006 8.5C3.50006 7.9485 3.05156 7.5 2.50006 7.5ZM2.50006 9C2.22431 9 2.00006 8.77575 2.00006 8.5C2.00006 8.22425 2.22431 8 2.50006 8C2.77581 8 3.00006 8.22425 3.00006 8.5C3.00006 8.77575 2.77581 9 2.50006 9Z" fill="black"/>
  <path d="M5.5 7.5C4.9485 7.5 4.5 7.9485 4.5 8.5C4.5 9.0515 4.9485 9.5 5.5 9.5C6.0515 9.5 6.5 9.0515 6.5 8.5C6.5 7.9485 6.0515 7.5 5.5 7.5ZM5.5 9C5.22425 9 5 8.77575 5 8.5C5 8.22425 5.22425 8 5.5 8C5.77575 8 6 8.22425 6 8.5C6 8.77575 5.77575 9 5.5 9Z" fill="black"/>
  <path d="M2.50006 10.5C1.94856 10.5 1.50006 10.9485 1.50006 11.5C1.50006 12.0515 1.94856 12.5 2.50006 12.5C3.05156 12.5 3.50006 12.0515 3.50006 11.5C3.50006 10.9485 3.05156 10.5 2.50006 10.5ZM2.50006 12C2.22431 12 2.00006 11.7758 2.00006 11.5C2.00006 11.2242 2.22431 11 2.50006 11C2.77581 11 3.00006 11.2242 3.00006 11.5C3.00006 11.7758 2.77581 12 2.50006 12Z" fill="black"/>
  <path d="M5.5 10.5C4.9485 10.5 4.5 10.9485 4.5 11.5C4.5 12.0515 4.9485 12.5 5.5 12.5C6.0515 12.5 6.5 12.0515 6.5 11.5C6.5 10.9485 6.0515 10.5 5.5 10.5ZM5.5 12C5.22425 12 5 11.7758 5 11.5C5 11.2242 5.22425 11 5.5 11C5.77575 11 6 11.2242 6 11.5C6 11.7758 5.77575 12 5.5 12Z" fill="black"/>
  <path d="M15.55 4.567L14.5 3.16691V2.25C14.6382 2.25 14.75 2.138 14.75 2V0.5C14.75 0.362 14.6382 0.25 14.5 0.25H8.5C8.36175 0.25 8.25 0.362 8.25 0.5V2C8.25 2.138 8.36175 2.25 8.5 2.25V3.16691L7.45 4.56697C7.15975 4.95372 7 5.43322 7 5.91672V13.25C7 13.6635 7.3365 14 7.75 14H15.25C15.6635 14 16 13.6635 16 13.25V12V6.5V5.917C16 5.4335 15.8403 4.954 15.55 4.567ZM14.25 1.75H13.25V0.75H14.25V1.75ZM11.75 1.75V0.75H12.75V1.75H11.75ZM10.25 1.75V0.75H11.25V1.75H10.25ZM8.75 0.75H9.75V1.75H8.75V0.75ZM14 2.25V3H9V2.25H14ZM15.25 13.5H7.75C7.612 13.5 7.5 13.388 7.5 13.25V5.91675C7.5 5.5405 7.62425 5.1675 7.84975 4.86675L8.875 3.5H14.125L15.1503 4.86675C15.3758 5.16775 15.5 5.54075 15.5 5.91675V6.25H10C9.5865 6.25 9.25 6.5865 9.25 7V11.5C9.25 11.9135 9.5865 12.25 10 12.25H15.5V13.25C15.5 13.388 15.388 13.5 15.25 13.5ZM15.5 11.75H10C9.862 11.75 9.75 11.638 9.75 11.5V7C9.75 6.86225 9.862 6.75 10 6.75H15.5V11.75Z" fill="black"/>
  <path d="M11.2501 10H12.0001V10.75C12.0001 10.8882 12.1119 11 12.2501 11H13.2501C13.3884 11 13.5001 10.8882 13.5001 10.75V10H14.2501C14.3884 10 14.5001 9.88825 14.5001 9.75V8.75C14.5001 8.61175 14.3884 8.5 14.2501 8.5H13.5001V7.75C13.5001 7.61175 13.3884 7.5 13.2501 7.5H12.2501C12.1119 7.5 12.0001 7.61175 12.0001 7.75V8.5H11.2501C11.1119 8.5 11.0001 8.61175 11.0001 8.75V9.75C11.0001 9.88825 11.1119 10 11.2501 10ZM11.5001 9H12.2501C12.3884 9 12.5001 8.88825 12.5001 8.75V8H13.0001V8.75C13.0001 8.88825 13.1119 9 13.2501 9H14.0001V9.5H13.2501C13.1119 9.5 13.0001 9.61175 13.0001 9.75V10.5H12.5001V9.75C12.5001 9.61175 12.3884 9.5 12.2501 9.5H11.5001V9Z" fill="black"/>
</svg>