<svg xmlns="http://www.w3.org/2000/svg" width="17" height="17" viewBox="0 0 17 17" fill="none">
  <circle cx="8.5" cy="8.5" r="8.5" fill="#0EB6CA"/>
  <path d="M8.5 5C8.61603 5 8.72731 5.04609 8.80936 5.12814C8.89141 5.21019 8.9375 5.32147 8.9375 5.4375V8.0625H11.5625C11.6785 8.0625 11.7898 8.10859 11.8719 8.19064C11.9539 8.27269 12 8.38397 12 8.5C12 8.61603 11.9539 8.72731 11.8719 8.80936C11.7898 8.89141 11.6785 8.9375 11.5625 8.9375H8.9375V11.5625C8.9375 11.6785 8.89141 11.7898 8.80936 11.8719C8.72731 11.9539 8.61603 12 8.5 12C8.38397 12 8.27269 11.9539 8.19064 11.8719C8.10859 11.7898 8.0625 11.6785 8.0625 11.5625V8.9375H5.4375C5.32147 8.9375 5.21019 8.89141 5.12814 8.80936C5.04609 8.72731 5 8.61603 5 8.5C5 8.38397 5.04609 8.27269 5.12814 8.19064C5.21019 8.10859 5.32147 8.0625 5.4375 8.0625H8.0625V5.4375C8.0625 5.32147 8.10859 5.21019 8.19064 5.12814C8.27269 5.04609 8.38397 5 8.5 5Z" fill="white"/>
</svg>