<svg xmlns="http://www.w3.org/2000/svg" width="14" height="15" viewBox="0 0 14 15" fill="none">
  <g opacity="0.99">
    <path opacity="0.5" d="M1 3.51715C1 3.34839 1.06726 3.18655 1.18698 3.06722C1.3067 2.9479 1.46908 2.88086 1.63839 2.88086H7.06473V6.69859H11.2143V13.6978C11.2143 13.8665 11.147 14.0284 11.0273 14.1477C10.9076 14.267 10.7452 14.334 10.5759 14.334H1.63839C1.46908 14.334 1.3067 14.267 1.18698 14.1477C1.06726 14.0284 1 13.8665 1 13.6978V3.51715Z" fill="white" stroke="#9747FF" stroke-linejoin="round"/>
    <g opacity="0.5">
      <path d="M8.42859 1.37695L12.5781 5.19468L8.42859 1.37695ZM8.43625 1.37695V5.22077H12.5781" fill="#9747FF"/>
      <path d="M8.42859 1.37695L12.5781 5.19468M8.43625 1.37695V5.22077H12.5781" stroke="#9747FF" stroke-linecap="round" stroke-linejoin="round"/>
    </g>
    <g opacity="0.5">
      <path d="M2.91516 10.5163H6.74552H2.91516ZM4.83034 8.60742V12.4252V8.60742Z" fill="white"/>
      <path d="M2.91516 10.5163H6.74552M4.83034 8.60742V12.4252" stroke="#9747FF" stroke-linecap="round"/>
    </g>
  </g>
</svg>