<svg xmlns="http://www.w3.org/2000/svg" width="17" height="17" viewBox="0 0 17 17" fill="none">
  <path d="M15.7549 14.5098H14.9497C14.8121 14.5098 14.7007 14.6212 14.7007 14.7588C14.7007 14.8963 14.8121 15.0078 14.9497 15.0078H15.7549C16.1668 15.0078 16.502 15.343 16.502 15.7549C16.502 16.1668 16.1668 16.502 15.7549 16.502H1.24512C0.833166 16.502 0.498047 16.1668 0.498047 15.7549C0.498047 15.343 0.833166 15.0078 1.24512 15.0078H13.7876C13.9252 15.0078 14.0366 14.8963 14.0366 14.7588C14.0366 14.6212 13.9252 14.5098 13.7876 14.5098H12.7803C13.7358 13.8915 14.55 13.0719 15.1643 12.1032C15.9634 10.8431 16.3857 9.38476 16.3857 7.88574C16.3857 5.7794 15.5655 3.7991 14.076 2.30968C12.5866 0.82025 10.6063 0 8.5 0C6.39366 0 4.41336 0.82025 2.92393 2.30968C1.43451 3.7991 0.614258 5.7794 0.614258 7.88574C0.614258 9.38473 1.0366 10.8431 1.83567 12.1032C2.44996 13.0719 3.26423 13.8916 4.21969 14.5098H1.24512C0.558543 14.5098 0 15.0683 0 15.7549C0 16.4415 0.558543 17 1.24512 17H15.7549C16.4415 17 17 16.4415 17 15.7549C17 15.0683 16.4415 14.5098 15.7549 14.5098ZM4.18359 10.3594H12.8164C13.2283 10.3594 13.5635 10.6945 13.5635 11.1064C13.5635 11.5184 13.2283 11.8535 12.8164 11.8535H4.18359C3.77164 11.8535 3.43652 11.5184 3.43652 11.1064C3.43652 10.6945 3.77164 10.3594 4.18359 10.3594ZM4.43262 7.88574C4.43262 6.74037 4.90629 5.6689 5.74238 4.89862C5.99376 5.43668 6.53985 5.81055 7.17188 5.81055H9.82812C10.4601 5.81055 11.0061 5.43675 11.2576 4.89879C12.0934 5.66923 12.5674 6.74153 12.5674 7.88574C12.5674 8.57843 12.3898 9.25922 12.054 9.86133H4.94584C4.60992 9.25912 4.43262 8.57872 4.43262 7.88574ZM8.5 2.49023C9.36458 2.49023 10.1821 2.69496 10.9072 3.05801V4.2334C10.9072 4.82843 10.4232 5.3125 9.82812 5.3125H7.17188C6.57688 5.3125 6.09277 4.82843 6.09277 4.2334V3.06073C6.82769 2.69287 7.64914 2.49023 8.5 2.49023ZM13.4489 10.0346C13.2634 9.92468 13.0472 9.86133 12.8164 9.86133H12.6147C12.9101 9.2474 13.0654 8.57172 13.0654 7.88574C13.0654 6.51429 12.4591 5.23504 11.3996 4.36223C11.403 4.31969 11.4053 4.27679 11.4053 4.2334V3.34096C12.9018 4.301 13.8955 5.97952 13.8955 7.88574C13.8955 8.63524 13.7452 9.35664 13.4489 10.0346ZM10.1262 12.3516H11.5253C11.1613 12.5994 10.7699 12.8002 10.3551 12.9523L10.1262 12.3516ZM6.87378 12.3516L6.64494 12.9523C6.23017 12.8003 5.8388 12.5995 5.47473 12.3516H6.87378ZM7.40672 12.3516H9.59325L10.4154 14.5098H6.58458L7.40672 12.3516ZM2.25629 11.8365C1.50789 10.6563 1.1123 9.29013 1.1123 7.88574C1.1123 5.91241 1.88076 4.05719 3.27612 2.66186C4.67145 1.2665 6.52667 0.498047 8.5 0.498047C10.4733 0.498047 12.3286 1.2665 13.7239 2.66186C15.1192 4.05719 15.8877 5.91241 15.8877 7.88574C15.8877 9.29013 15.4921 10.6563 14.7437 11.8364C14.0163 12.9837 12.9897 13.908 11.7749 14.5098H10.9484L10.5324 13.4177C11.1947 13.1741 11.8021 12.8162 12.3412 12.3516H12.8164C13.503 12.3516 14.0615 11.793 14.0615 11.1064C14.0615 10.8401 13.9772 10.5932 13.8341 10.3905C14.2052 9.6044 14.3936 8.76254 14.3936 7.88574C14.3936 4.63602 11.7497 1.99219 8.5 1.99219C6.19667 1.99219 4.09009 3.34976 3.13321 5.45079C3.0762 5.57597 3.13149 5.72362 3.25663 5.78063C3.38171 5.83764 3.52946 5.78239 3.58647 5.65722C4.02688 4.69021 4.7333 3.89542 5.59473 3.34379V4.2334C5.59473 4.27676 5.59698 4.31956 5.6004 4.36206C4.54046 5.23477 3.93457 6.51286 3.93457 7.88574C3.93457 8.57205 4.08986 9.24737 4.3853 9.86133H4.18359C3.9528 9.86133 3.73661 9.92465 3.55114 10.0345C3.2548 9.35661 3.10449 8.63517 3.10449 7.88574C3.10449 7.49554 3.14653 7.10617 3.22944 6.72831C3.25892 6.59397 3.17392 6.4612 3.03958 6.43168C2.90524 6.40249 2.77246 6.48719 2.74298 6.62157C2.65237 7.03438 2.60645 7.45971 2.60645 7.88574C2.60645 8.7625 2.79481 9.60434 3.16588 10.3904C3.02285 10.5931 2.93848 10.8401 2.93848 11.1064C2.93848 11.793 3.49702 12.3516 4.18359 12.3516H4.6587C5.19808 12.8164 5.80533 13.1742 6.4676 13.4177L6.0516 14.5098H5.22514C4.01027 13.908 2.98377 12.9837 2.25629 11.8365Z" fill="black"/>
</svg>