<svg xmlns="http://www.w3.org/2000/svg" width="15" height="15" viewBox="0 0 15 15" fill="none">
  <path fill-rule="evenodd" clip-rule="evenodd" d="M7.88435 13.4798C7.63122 14.358 6.82031 15 5.85938 15C4.69453 15 3.75 14.0557 3.75 12.8906H2.8125C2.06719 12.8906 1.35 12.5944 0.822659 12.0668C0.295315 11.5394 0 10.8241 0 10.0781C0 9.79805 0 9.60914 0 9.60914C0 9.45234 0.0796623 9.30609 0.208569 9.21937C0.517944 9.01336 0.703125 8.66672 0.703125 8.2957C0.703125 7.73156 0.703125 6.94008 0.703125 6.09375C0.703125 4.72617 1.24686 3.41461 2.21249 2.44781C3.0703 1.59188 4.19531 1.06805 5.39062 0.958829V0.46875C5.39062 0.21 5.60156 0 5.85938 0C6.11719 0 6.32812 0.21 6.32812 0.46875V0.958829C7.52344 1.06805 8.65079 1.59188 9.50626 2.44781C10.4719 3.41461 11.0156 4.72617 11.0156 6.09375V7.03125C13.2141 7.03125 15 8.81648 15 11.0156C15 13.2148 13.2141 15 11.0156 15C9.74766 15 8.6156 14.4054 7.88435 13.4798ZM7.03125 12.8906H4.6875C4.6875 13.5377 5.2125 14.0625 5.85938 14.0625C6.50625 14.0625 7.03125 13.5377 7.03125 12.8906ZM11.0156 7.96875C12.6984 7.96875 14.0625 9.33398 14.0625 11.0156C14.0625 12.6973 12.6984 14.0625 11.0156 14.0625C9.33516 14.0625 7.96875 12.6973 7.96875 11.0156C7.96875 9.33398 9.33516 7.96875 11.0156 7.96875ZM12.4219 10.5469H11.4844V8.90625C11.4844 8.6475 11.2734 8.4375 11.0156 8.4375C10.7578 8.4375 10.5469 8.6475 10.5469 8.90625V11.0156C10.5469 11.2746 10.7555 11.4844 11.0156 11.4844H12.4219C12.6797 11.4844 12.8906 11.2744 12.8906 11.0156C12.8906 10.7569 12.6797 10.5469 12.4219 10.5469Z" fill="#9474FF"/>
</svg>