<svg xmlns="http://www.w3.org/2000/svg" width="14" height="15" viewBox="0 0 14 15" fill="none">
  <g opacity="0.5">
    <path d="M3.08203 8.35406H8.01339V9.35077H3.08203V8.35406ZM3.08203 5.8623H10.4791V6.85901H3.08203V5.8623ZM3.08203 10.8458H6.16413V11.8425H3.08203V10.8458Z" fill="#9747FF"/>
    <path d="M12.3284 1.87543H10.4791V1.37707C10.4791 1.11273 10.3492 0.859217 10.118 0.672299C9.88684 0.485381 9.57326 0.380371 9.24629 0.380371H4.31493C3.98797 0.380371 3.67439 0.485381 3.44319 0.672299C3.21198 0.859217 3.0821 1.11273 3.0821 1.37707V1.87543H1.23284C0.905869 1.87543 0.592292 1.98044 0.36109 2.16735C0.129888 2.35427 0 2.60779 0 2.87213V13.3375C0 13.6019 0.129888 13.8554 0.36109 14.0423C0.592292 14.2292 0.905869 14.3342 1.23284 14.3342H12.3284C12.6554 14.3342 12.9689 14.2292 13.2001 14.0423C13.4313 13.8554 13.5612 13.6019 13.5612 13.3375V2.87213C13.5612 2.60779 13.4313 2.35427 13.2001 2.16735C12.9689 1.98044 12.6554 1.87543 12.3284 1.87543ZM4.31493 1.37707H9.24629V3.37048H4.31493V1.37707ZM12.3284 13.3375H1.23284V2.87213H3.0821V4.36718H10.4791V2.87213H12.3284V13.3375Z" fill="#9747FF"/>
  </g>
</svg>