<svg xmlns="http://www.w3.org/2000/svg" width="14" height="18" viewBox="0 0 14 18" fill="none">
  <path d="M12.7273 1.92857H10.8182V1.28571C10.8182 0.944722 10.6841 0.617695 10.4454 0.376577C10.2067 0.135459 9.883 0 9.54545 0H4.45455C4.117 0 3.79327 0.135459 3.55459 0.376577C3.31591 0.617695 3.18182 0.944722 3.18182 1.28571V1.92857H1.27273C0.935179 1.92857 0.611456 2.06403 0.372773 2.30515C0.13409 2.54627 0 2.87329 0 3.21429V16.7143C0 17.0553 0.13409 17.3823 0.372773 17.6234C0.611456 17.8645 0.935179 18 1.27273 18H12.7273C13.0648 18 13.3885 17.8645 13.6272 17.6234C13.8659 17.3823 14 17.0553 14 16.7143V3.21429C14 2.87329 13.8659 2.54627 13.6272 2.30515C13.3885 2.06403 13.0648 1.92857 12.7273 1.92857ZM4.45455 1.28571H9.54545V3.85714H4.45455V1.28571ZM12.7273 16.7143H1.27273V3.21429H3.18182V5.14286H10.8182V3.21429H12.7273V16.7143Z" fill="#072549"/>
</svg>