<svg xmlns="http://www.w3.org/2000/svg" width="15" height="16" viewBox="0 0 15 16" fill="none">
  <path opacity="0.5" d="M10.7204 9.93396H10.0429L9.80274 9.7024C10.6723 8.69384 11.1502 7.40626 11.1492 6.07462C11.1492 4.97206 10.8223 3.89427 10.2097 2.97753C9.59719 2.06079 8.72655 1.34627 7.70793 0.924345C6.6893 0.502415 5.56843 0.392019 4.48706 0.607117C3.40569 0.822215 2.41239 1.35315 1.63277 2.13277C0.853145 2.91239 0.322215 3.90569 0.107117 4.98706C-0.107981 6.06843 0.00241539 7.1893 0.424345 8.20793C0.846274 9.22655 1.56079 10.0972 2.47753 10.7097C3.39427 11.3223 4.47206 11.6492 5.57462 11.6492C6.9554 11.6492 8.2247 11.1432 9.2024 10.3027L9.43396 10.5429V11.2204L13.7221 15.5L15 14.2221L10.7204 9.93396ZM5.57462 9.93396C3.43911 9.93396 1.71527 8.21012 1.71527 6.07462C1.71527 3.93911 3.43911 2.21527 5.57462 2.21527C7.71012 2.21527 9.43396 3.93911 9.43396 6.07462C9.43396 8.21012 7.71012 9.93396 5.57462 9.93396Z" fill="#444444"/>
</svg>