<svg width="17" height="17" viewBox="0 0 17 17" fill="none" xmlns="http://www.w3.org/2000/svg">
<g clip-path="url(#clip0_3246_3768)">
<circle cx="8.52148" cy="9.26074" r="3.5" fill="#92BDF6"/>
<path d="M14.1502 9.72393C14.1606 8.76392 14.031 6.03351 13.9282 5.51342C13.7627 4.65952 12.9828 3.83393 12.1312 3.64556C12.0561 3.63006 11.9599 3.61576 11.8481 3.59906C10.8577 3.50965 9.0539 3.43603 8.21401 3.43454C7.32821 3.43454 5.59119 3.518 4.71792 3.61337C4.60152 3.62618 4.4848 3.59222 4.39344 3.51897C4.30208 3.44572 4.24356 3.33918 4.23076 3.22278C4.21795 3.10638 4.25191 2.98967 4.32516 2.89831C4.39841 2.80695 4.50495 2.74843 4.62135 2.73562C5.58732 2.62892 7.35623 2.55173 8.21251 2.55024C8.9776 2.55173 10.6434 2.61313 11.7324 2.70224C11.514 1.9002 10.773 1.1524 9.96831 0.973569C9.4515 0.867763 7.96484 0.762552 7.00483 0.760764C6.04482 0.758976 4.55816 0.867763 4.04105 0.97506C3.18953 1.16372 2.40954 1.98931 2.24442 2.84411C2.14011 3.36331 2.01165 6.33126 2.02208 7.29187V7.43791C2.02208 8.78359 2.1711 12.8868 2.29032 13.4936C2.49121 14.5287 3.43661 15.5293 4.46875 15.7588C5.09465 15.889 6.89783 16.0166 8.0617 16.0187H8.08614C9.06463 16.0154 11.6174 15.9108 12.1303 15.8041C12.9819 15.6157 13.7619 14.7907 13.9273 13.9365C14.0322 13.414 14.1606 10.6827 14.1502 9.72393ZM8.68224 12.5563C8.08776 12.5563 7.50663 12.38 7.01233 12.0497C6.51804 11.7195 6.13278 11.25 5.90527 10.7008C5.67776 10.1516 5.61821 9.54723 5.73417 8.96417C5.85012 8.38111 6.13637 7.84553 6.55671 7.42515C6.97705 7.00477 7.5126 6.71847 8.09565 6.60245C8.6787 6.48644 9.28306 6.54592 9.8323 6.77338C10.3815 7.00084 10.851 7.38605 11.1813 7.88031C11.5116 8.37458 11.688 8.95569 11.688 9.55017C11.6881 9.94492 11.6104 10.3358 11.4593 10.7005C11.3083 11.0652 11.0869 11.3966 10.8078 11.6758C10.5286 11.9549 10.1973 12.1764 9.83258 12.3274C9.46788 12.4785 9.07699 12.5563 8.68224 12.5563Z" fill="url(#paint0_radial_3246_3768)"/>
<path d="M9.66508 10.789C9.55122 10.789 9.44004 10.7545 9.34617 10.6901L8.36261 10.018C8.28643 9.96606 8.22407 9.89632 8.18096 9.81482C8.13785 9.73333 8.11529 9.64254 8.11523 9.55034V8.03895C8.11523 7.88876 8.1749 7.74472 8.2811 7.63852C8.3873 7.53232 8.53133 7.47266 8.68152 7.47266C8.83171 7.47266 8.97575 7.53232 9.08195 7.63852C9.18815 7.74472 9.24781 7.88876 9.24781 8.03895V9.25229L9.98399 9.7557C10.0836 9.82401 10.1588 9.92238 10.1985 10.0365C10.2383 10.1505 10.2405 10.2743 10.2048 10.3897C10.1692 10.5052 10.0976 10.6062 10.0005 10.678C9.90341 10.7498 9.78587 10.7887 9.66508 10.789Z" fill="url(#paint1_radial_3246_3768)"/>
</g>
<defs>
<radialGradient id="paint0_radial_3246_3768" cx="0" cy="0" r="1" gradientUnits="userSpaceOnUse" gradientTransform="translate(8.08614 8.38971) rotate(90) scale(7.62897 6.06466)">
<stop stop-color="#1B2047"/>
<stop offset="1" stop-color="#424DAD"/>
</radialGradient>
<radialGradient id="paint1_radial_3246_3768" cx="0" cy="0" r="1" gradientUnits="userSpaceOnUse" gradientTransform="translate(9.17263 9.13084) rotate(90) scale(1.65818 1.0574)">
<stop stop-color="#1B2047"/>
<stop offset="1" stop-color="#424DAD"/>
</radialGradient>
<clipPath id="clip0_3246_3768">
<rect width="16" height="16" fill="white" transform="translate(0.0214844 0.760742)"/>
</clipPath>
</defs>
</svg>
