<svg width="193" height="183" viewBox="0 0 193 183" fill="none" xmlns="http://www.w3.org/2000/svg">
<path d="M95.3567 77.4678C95.1504 77.1085 94.8256 76.8334 94.4389 76.6905C94.0521 76.5476 93.6279 76.5458 93.24 76.6855L63.836 87.1389L34.432 76.6855C34.0441 76.5458 33.6199 76.5476 33.2332 76.6905C32.8464 76.8334 32.5217 77.1085 32.3153 77.4678L25.2598 89.9122C25.1296 90.1385 25.0509 90.391 25.0293 90.6517C25.0077 90.9123 25.0437 91.1745 25.1349 91.4194C25.226 91.6643 25.3699 91.8858 25.5562 92.0678C25.7425 92.2499 25.9666 92.388 26.2123 92.4722L32.086 94.57V112.134C32.0874 112.519 32.2117 112.892 32.4405 113.2C32.6693 113.507 32.9903 113.732 33.356 113.841L63.3421 122.73C63.6647 122.825 64.0074 122.825 64.33 122.73L94.3161 113.841C94.6818 113.732 95.0028 113.507 95.2315 113.2C95.4603 112.892 95.5846 112.519 95.586 112.134V94.57L101.46 92.4722C101.705 92.388 101.93 92.2499 102.116 92.0678C102.302 91.8858 102.446 91.6643 102.537 91.4194C102.628 91.1745 102.664 90.9123 102.643 90.6517C102.621 90.391 102.542 90.1385 102.412 89.9122L95.3567 77.4678ZM29.3696 89.8411L34.6436 80.5255L61.2607 89.9833L55.9867 99.2989L29.3696 89.8411ZM63.836 119.174L62.0721 118.659V95.7255L63.836 92.6144L65.5999 95.7255V118.659L63.836 119.174ZM71.6853 99.2989L66.4113 89.9833L93.0284 80.5255L98.3024 89.8411L71.6853 99.2989Z" fill="#E7C2D4" fill-opacity="0.2"/>
<path d="M15.9992 31.0155L12.7361 44.1533C12.6534 44.4917 12.671 44.8472 12.7867 45.1756C12.9025 45.5041 13.1113 45.7911 13.3873 46.0011C13.6633 46.2112 13.9943 46.335 14.3395 46.3573C14.6846 46.3796 15.0286 46.2994 15.329 46.1266L26.7942 39.5133L38.2595 46.1266C38.5602 46.2972 38.9036 46.3762 39.248 46.3541C39.5923 46.332 39.923 46.2098 40.1998 46.0021C40.4777 45.7934 40.6879 45.5064 40.8041 45.1774C40.9202 44.8483 40.9371 44.4919 40.8524 44.1533L37.5892 31.0155L47.3259 22.8377C47.5909 22.6159 47.7856 22.3206 47.8858 21.9884C47.986 21.6562 47.9874 21.3017 47.8898 20.9688C47.7922 20.6358 47.5999 20.339 47.3366 20.115C47.0734 19.8911 46.7508 19.7499 46.4087 19.7088L33.303 18.0555L28.417 6.55325C28.2822 6.23174 28.0564 5.95739 27.7678 5.76451C27.4792 5.57162 27.1406 5.46875 26.7942 5.46875C26.4479 5.46875 26.1093 5.57162 25.8207 5.76451C25.5321 5.95739 25.3063 6.23174 25.1715 6.55325L20.2855 18.0555L7.1798 19.7088C6.83773 19.7499 6.51511 19.8911 6.25185 20.115C5.9886 20.339 5.79627 20.6358 5.69866 20.9688C5.60105 21.3017 5.60245 21.6562 5.70268 21.9884C5.80291 22.3206 5.99757 22.6159 6.26258 22.8377L15.9992 31.0155Z" fill="#E7C2D4" fill-opacity="0.2"/>
<path d="M120.492 37.4862L107.386 35.8328L102.5 24.3306C102.365 24.0091 102.14 23.7347 101.851 23.5419C101.562 23.349 101.224 23.2461 100.877 23.2461C100.531 23.2461 100.193 23.349 99.9039 23.5419C99.6153 23.7347 99.3895 24.0091 99.2547 24.3306L94.3687 35.8328L81.2631 37.4862C80.921 37.5272 80.5984 37.6684 80.3351 37.8924C80.0719 38.1163 79.8795 38.4131 79.7819 38.7461C79.6843 39.0791 79.6857 39.4336 79.7859 39.7658C79.8862 40.0979 80.0808 40.3932 80.3458 40.615L90.0825 48.7928L86.8193 61.9306C86.7366 62.269 86.7542 62.6245 86.87 62.953C86.9857 63.2814 87.1946 63.5684 87.4705 63.7785C87.7465 63.9885 88.0776 64.1123 88.4227 64.1346C88.7678 64.1569 89.1119 64.0767 89.4122 63.9039L100.877 57.2906L112.343 63.9039C112.643 64.0745 112.987 64.1535 113.331 64.1314C113.676 64.1094 114.006 63.9871 114.283 63.7795C114.561 63.5708 114.771 63.2838 114.887 62.9547C115.003 62.6256 115.02 62.2693 114.936 61.9306L111.672 48.7928L121.409 40.615C121.674 40.3932 121.869 40.0979 121.969 39.7658C122.069 39.4336 122.071 39.0791 121.973 38.7461C121.875 38.4131 121.683 38.1163 121.42 37.8924C121.157 37.6684 120.834 37.5272 120.492 37.4862Z" fill="#E7C2D4" fill-opacity="0.2"/>
<path d="M73.2719 79.7068C73.4475 79.859 73.6512 79.9747 73.8713 80.0474C74.0914 80.1201 74.3235 80.1483 74.5544 80.1304C74.7853 80.1125 75.0105 80.0488 75.2169 79.9431C75.4234 79.8373 75.6071 79.6916 75.7575 79.5141L86.3409 67.0697C86.6451 66.7119 86.7959 66.247 86.7601 65.7771C86.7242 65.3073 86.5047 64.8711 86.1497 64.5644C85.7947 64.2578 85.3334 64.1058 84.8673 64.142C84.4011 64.1781 83.9683 64.3994 83.664 64.7572L73.0807 77.2016C72.9297 77.3786 72.8148 77.5838 72.7426 77.8057C72.6704 78.0275 72.6424 78.2615 72.6602 78.4942C72.678 78.727 72.7412 78.9539 72.8461 79.162C72.9511 79.3701 73.0958 79.5552 73.2719 79.7068Z" fill="#E7C2D4" fill-opacity="0.2"/>
<path d="M80.2295 42.8794C80.008 42.8107 79.7753 42.7867 79.5446 42.8087C79.3139 42.8307 79.0898 42.8982 78.8851 43.0075C78.6803 43.1168 78.4989 43.2658 78.3513 43.4457C78.2036 43.6257 78.0926 43.8333 78.0246 44.0565L70.9691 67.1676C70.8323 67.6182 70.8785 68.105 71.0976 68.5213C71.3167 68.9375 71.6908 69.2491 72.1376 69.3875C72.5845 69.526 73.0676 69.4801 73.4809 69.2598C73.8942 69.0395 74.2038 68.6629 74.3418 68.2128L81.3973 45.1017C81.5346 44.6509 81.4887 44.1636 81.2697 43.7469C81.0507 43.3303 80.6766 43.0182 80.2295 42.8794Z" fill="#E7C2D4" fill-opacity="0.2"/>
<path d="M46.2006 26.9124L47.9645 55.3569C47.9924 55.808 48.1897 56.2314 48.5164 56.5411C48.8431 56.8507 49.2746 57.0232 49.7231 57.0235C49.7601 57.0235 49.7972 57.0218 49.835 57.02C50.0663 57.0055 50.2924 56.9453 50.5005 56.8427C50.7087 56.7401 50.8947 56.5972 51.0479 56.4221C51.2012 56.2469 51.3187 56.0431 51.3938 55.8222C51.4688 55.6013 51.4999 55.3676 51.4853 55.1346L49.7214 26.6901C49.7069 26.4571 49.647 26.2293 49.5452 26.0196C49.4433 25.8099 49.3015 25.6225 49.1278 25.468C48.9541 25.3136 48.7519 25.1951 48.5328 25.1195C48.3136 25.0438 48.0819 25.0123 47.8507 25.0269C47.6195 25.0415 47.3934 25.1018 47.1854 25.2045C46.9773 25.3071 46.7914 25.4501 46.6381 25.6252C46.4849 25.8002 46.3674 26.004 46.2923 26.2249C46.2172 26.4457 46.1861 26.6794 46.2006 26.9124Z" fill="#E7C2D4" fill-opacity="0.2"/>
<path d="M70.8915 42.8016C71.3593 42.8016 71.808 42.6143 72.1388 42.2809C72.4696 41.9476 72.6554 41.4954 72.6554 41.0239C72.6554 40.5524 72.4696 40.1002 72.1388 39.7668C71.808 39.4334 71.3593 39.2461 70.8915 39.2461C70.4238 39.2458 69.9753 39.0584 69.6446 38.725C69.3139 38.3917 69.1279 37.9397 69.1276 37.4683V36.5794C69.1281 36.3438 69.2212 36.118 69.3865 35.9514C69.5518 35.7848 69.7758 35.691 70.0096 35.6905H71.7735C72.943 35.6905 74.0646 35.2223 74.8916 34.3888C75.7186 33.5553 76.1832 32.4248 76.1832 31.2461C76.1832 30.0674 75.7186 28.9369 74.8916 28.1034C74.0646 27.2699 72.943 26.8016 71.7735 26.8016H70.0096C69.7758 26.8012 69.5518 26.7074 69.3865 26.5408C69.2212 26.3742 69.1281 26.1484 69.1276 25.9128V24.135C69.1281 23.8994 69.2212 23.6736 69.3865 23.507C69.5518 23.3404 69.7758 23.2466 70.0096 23.2461H75.3012C76.4708 23.2461 77.5924 22.7778 78.4194 21.9443C79.2464 21.1109 79.711 19.9804 79.711 18.8016C79.711 17.6229 79.2464 16.4924 78.4194 15.659C77.5924 14.8255 76.4708 14.3572 75.3012 14.3572H70.0096C69.7758 14.3567 69.5518 14.2629 69.3865 14.0963C69.2212 13.9297 69.1281 13.7039 69.1276 13.4683V11.6905C69.1281 11.4549 69.2212 11.2291 69.3865 11.0625C69.5518 10.8959 69.7758 10.8021 70.0096 10.8016H72.6554C73.1232 10.8016 73.5719 10.6143 73.9027 10.2809C74.2335 9.94755 74.4193 9.49537 74.4193 9.02387C74.4193 8.55238 74.2335 8.10019 73.9027 7.76679C73.5719 7.4334 73.1232 7.24609 72.6554 7.24609H70.0096C68.8404 7.24718 67.7194 7.71578 66.8926 8.54904C66.0659 9.3823 65.6009 10.5121 65.5999 11.6905V13.4683C65.6009 14.6467 66.0659 15.7766 66.8926 16.6098C67.7194 17.4431 68.8404 17.9117 70.0096 17.9128H75.3012C75.5351 17.9128 75.7595 18.0064 75.9249 18.1731C76.0903 18.3398 76.1832 18.5659 76.1832 18.8016C76.1832 19.0374 76.0903 19.2635 75.9249 19.4302C75.7595 19.5969 75.5351 19.6905 75.3012 19.6905H70.0096C68.8404 19.6916 67.7194 20.1602 66.8926 20.9935C66.0659 21.8267 65.6009 22.9566 65.5999 24.135V25.9128C65.6009 27.0912 66.0659 28.221 66.8926 29.0543C67.7194 29.8875 68.8404 30.3561 70.0096 30.3572H71.7735C72.0074 30.3572 72.2317 30.4509 72.3971 30.6176C72.5625 30.7843 72.6554 31.0103 72.6554 31.2461C72.6554 31.4818 72.5625 31.7079 72.3971 31.8746C72.2317 32.0413 72.0074 32.135 71.7735 32.135H70.0096C68.8404 32.1361 67.7194 32.6047 66.8926 33.4379C66.0659 34.2712 65.6009 35.401 65.5999 36.5794V37.4683C65.6014 38.8823 66.1594 40.238 67.1514 41.2378C68.1435 42.2377 69.4886 42.8001 70.8915 42.8016Z" fill="#E7C2D4" fill-opacity="0.2"/>
<path d="M62.0719 71.2448C64.9944 71.2448 67.3636 68.857 67.3636 65.9115C67.3636 62.9659 64.9944 60.5781 62.0719 60.5781C59.1494 60.5781 56.7803 62.9659 56.7803 65.9115C56.7803 68.857 59.1494 71.2448 62.0719 71.2448Z" fill="#E7C2D4" fill-opacity="0.2"/>
<path d="M40.3937 48.2051C39.947 48.3455 39.5729 48.657 39.3518 49.0726C39.1308 49.4882 39.0806 49.9747 39.2119 50.4274L46.2675 73.5385C46.381 73.9023 46.606 74.2205 46.9103 74.4473C47.2146 74.6741 47.5824 74.7979 47.9608 74.8007C48.134 74.8045 48.3067 74.7805 48.4723 74.7296C48.919 74.5892 49.2932 74.2777 49.5142 73.8621C49.7352 73.4465 49.7855 72.96 49.6541 72.5074L42.5986 49.3962C42.4593 48.946 42.1502 48.569 41.7379 48.3462C41.3255 48.1234 40.8428 48.0728 40.3937 48.2051Z" fill="#E7C2D4" fill-opacity="0.2"/>
<path d="M10.9194 67.6901C13.8419 67.6901 16.211 65.3023 16.211 62.3568C16.211 59.4113 13.8419 57.0234 10.9194 57.0234C7.99685 57.0234 5.62769 59.4113 5.62769 62.3568C5.62769 65.3023 7.99685 67.6901 10.9194 67.6901Z" fill="#E7C2D4" fill-opacity="0.2"/>
<path d="M39.1416 73.0261C39.4787 73.0261 39.8089 72.9287 40.0928 72.7454C40.3768 72.5622 40.6027 72.3007 40.7438 71.992C40.8848 71.6834 40.9352 71.3404 40.8888 71.0038C40.8424 70.6672 40.7013 70.351 40.4821 70.0927L21.0793 46.9816C20.7752 46.6233 20.3424 46.4014 19.876 46.3648C19.4096 46.3281 18.9478 46.4797 18.5923 46.7861C18.2368 47.0926 18.0166 47.5288 17.9802 47.9989C17.9438 48.469 18.0942 48.9344 18.3982 49.2927L37.801 72.4038C37.966 72.5997 38.1715 72.7568 38.403 72.8643C38.6346 72.9718 38.8866 73.027 39.1416 73.0261Z" fill="#E7C2D4" fill-opacity="0.2"/>
<path d="M116.753 16.1354C117.799 16.1354 118.822 15.8226 119.692 15.2366C120.563 14.6506 121.241 13.8176 121.641 12.8431C122.042 11.8685 122.147 10.7962 121.943 9.7616C121.738 8.72704 121.234 7.77673 120.494 7.03085C119.754 6.28497 118.811 5.77702 117.785 5.57123C116.758 5.36544 115.694 5.47106 114.728 5.87473C113.761 6.2784 112.934 6.96198 112.353 7.83904C111.771 8.71611 111.461 9.74725 111.461 10.8021C111.465 12.2153 112.024 13.5694 113.015 14.5687C114.007 15.568 115.35 16.1313 116.753 16.1354ZM116.753 9.02431C117.101 9.02431 117.443 9.12857 117.733 9.32392C118.023 9.51926 118.249 9.79691 118.382 10.1218C118.516 10.4466 118.551 10.8041 118.483 11.1489C118.415 11.4938 118.247 11.8105 118 12.0592C117.753 12.3078 117.439 12.4771 117.097 12.5457C116.755 12.6143 116.4 12.5791 116.078 12.4445C115.755 12.31 115.48 12.0821 115.286 11.7898C115.092 11.4974 114.989 11.1537 114.989 10.8021C114.99 10.331 115.176 9.87965 115.507 9.54656C115.837 9.21347 116.285 9.02571 116.753 9.02431Z" fill="#E7C2D4" fill-opacity="0.2"/>
<path d="M59.8977 172.2L64.9339 148.069C65.151 146.984 66.0193 146.203 67.1047 146.029L189.276 126.542C191.056 126.238 192.575 127.801 192.271 129.58L187.886 153.885C187.669 154.97 186.801 155.838 185.716 156.011L62.85 175.325C61.0265 175.585 59.507 173.98 59.8977 172.2Z" fill="#252B61"/>
<path d="M70.6649 168.123C69.9269 168.253 69.3191 168.253 68.7547 168.166C68.2337 168.079 67.7995 167.906 67.4956 167.645C67.1917 167.385 66.9746 167.038 66.8444 166.604C66.7141 166.17 66.6273 165.692 66.6707 165.172C66.6707 164.651 66.7575 164.043 66.8878 163.392L68.0166 157.663C68.1468 156.969 68.3205 156.318 68.5376 155.753C68.7547 155.189 69.0152 154.668 69.3191 154.148C69.623 153.627 70.0137 153.193 70.4479 152.846C70.882 152.498 71.403 152.151 71.9674 151.891C72.5752 151.63 73.2264 151.457 73.9645 151.327C74.8328 151.196 75.5275 151.196 76.0919 151.283C76.6563 151.413 77.047 151.63 77.3509 152.021C77.6114 152.368 77.7851 152.846 77.8285 153.366C77.8719 153.887 77.8285 154.538 77.6548 155.319L77.3943 156.708L74.3987 157.229L74.6592 155.84C74.8328 155.016 74.8762 154.495 74.8328 154.191C74.746 153.67 74.3987 153.453 73.704 153.497C73.6606 153.497 73.5738 153.497 73.5304 153.54C73.2699 153.583 73.0528 153.627 72.8357 153.757C72.6186 153.844 72.445 153.974 72.3147 154.104C72.1845 154.234 72.0542 154.408 71.924 154.582C71.8372 154.755 71.7069 154.929 71.6201 155.189C71.5332 155.45 71.4898 155.667 71.403 155.84C71.3596 156.057 71.3162 156.274 71.2293 156.578L69.84 163.522C69.6664 164.477 69.623 165.172 69.7966 165.519C69.9703 165.866 70.361 166.04 71.0123 165.909C71.2293 165.866 71.4464 165.823 71.6201 165.736C71.7937 165.649 71.9674 165.562 72.0976 165.475C72.2279 165.389 72.3581 165.258 72.445 165.085C72.5318 164.911 72.6186 164.781 72.7055 164.651C72.7923 164.521 72.8357 164.347 72.8791 164.13C72.9225 163.913 73.0094 163.739 73.0094 163.566C73.0528 163.392 73.0962 163.218 73.1396 162.958L73.4435 161.482L76.4392 161.005L76.1787 162.35C76.0484 162.958 75.9182 163.522 75.7011 164.043C75.5275 164.564 75.267 165.041 74.9631 165.475C74.6592 165.953 74.3118 166.343 73.9211 166.691C73.5304 167.038 73.0528 167.342 72.4884 167.559C72.0108 167.819 71.3596 168.036 70.6649 168.123Z" fill="#F0DA69"/>
<path d="M81.9533 166.298C80.1732 166.602 79.0444 166.342 78.4366 165.517C77.8722 164.736 77.742 163.434 78.0893 161.698L79.3049 155.665C79.4786 154.797 79.6957 154.016 79.9996 153.365C80.3035 152.714 80.6942 152.106 81.1718 151.585C81.6494 151.064 82.2138 150.63 82.9084 150.283C83.6031 149.936 84.3845 149.719 85.2963 149.545C87.0329 149.242 88.2051 149.502 88.8129 150.283C89.3773 151.064 89.5075 152.323 89.1602 154.059L87.9446 160.092C87.7709 160.96 87.5539 161.698 87.2499 162.392C86.946 163.087 86.5553 163.694 86.0777 164.215C85.6002 164.736 85.0358 165.213 84.3411 165.56C83.6465 165.908 82.865 166.168 81.9533 166.298ZM81.6494 164.085C81.8664 164.128 82.0835 164.128 82.3874 164.085C82.6913 164.041 82.9518 163.955 83.1689 163.824C83.386 163.694 83.6031 163.564 83.7333 163.39C83.907 163.217 84.0372 163.043 84.124 162.783C84.2543 162.566 84.3411 162.305 84.3845 162.088C84.4714 161.871 84.5148 161.611 84.6016 161.264L86.0777 153.799C86.1646 153.408 86.208 153.061 86.208 152.801C86.208 152.54 86.208 152.323 86.1211 152.106C86.0343 151.889 85.9041 151.759 85.687 151.672C85.4699 151.585 85.166 151.585 84.8187 151.629C84.4279 151.672 84.124 151.802 83.8635 151.932C83.6031 152.106 83.386 152.28 83.2123 152.54C83.0387 152.801 82.9084 153.061 82.8216 153.321C82.7347 153.582 82.6479 153.929 82.5611 154.32L81.085 161.785C81.0415 162.088 80.9981 162.349 80.9547 162.566C80.9547 162.783 80.9547 163 80.9547 163.217C80.9981 163.434 81.0415 163.607 81.1284 163.694C81.302 163.955 81.4323 164.041 81.6494 164.085Z" fill="#F0DA69"/>
<path d="M89.0728 164.956L92.6328 148.55L95.8456 148.029L96.0192 159.14L100.882 147.204L104.008 146.684L101.012 163.046L98.6676 163.436L100.708 152.196L95.9758 163.87L94.1524 164.174L93.9353 153.237L91.504 164.608L89.0728 164.956Z" fill="#F0DA69"/>
<path d="M103.487 162.653L106.743 146.247L109.825 145.77L106.569 162.175L103.487 162.653Z" fill="#F0DA69"/>
<path d="M109.087 161.741L112.343 145.335L114.471 144.988L116.815 153.581L118.682 144.293L121.243 143.859L117.987 160.265L115.947 160.612L113.646 151.541L111.692 161.307L109.087 161.741Z" fill="#F0DA69"/>
<path d="M124.673 159.443C123.067 159.704 121.982 159.4 121.461 158.532C120.94 157.664 120.853 156.318 121.244 154.452L122.329 149.114C122.503 148.159 122.763 147.334 123.067 146.64C123.371 145.946 123.718 145.295 124.196 144.73C124.673 144.166 125.238 143.689 125.932 143.341C126.627 142.994 127.452 142.734 128.364 142.56C130.057 142.3 131.186 142.473 131.75 143.168C132.314 143.862 132.445 144.991 132.141 146.597L131.967 147.378L128.972 147.855L129.145 146.987C129.232 146.64 129.275 146.336 129.275 146.119C129.319 145.902 129.319 145.685 129.275 145.425C129.275 145.208 129.189 145.034 129.102 144.947C129.015 144.861 128.841 144.774 128.668 144.73C128.451 144.687 128.233 144.687 127.886 144.73C127.669 144.774 127.452 144.817 127.235 144.904C127.061 144.991 126.888 145.078 126.714 145.164C126.584 145.251 126.453 145.381 126.323 145.555C126.193 145.729 126.106 145.859 126.019 146.032C125.932 146.163 125.889 146.38 125.802 146.597C125.715 146.814 125.672 147.031 125.629 147.204C125.585 147.378 125.542 147.595 125.498 147.855L124.196 154.452C123.979 155.45 123.979 156.145 124.152 156.579C124.326 157.013 124.76 157.143 125.455 157.013C125.846 156.969 126.15 156.839 126.41 156.666C126.67 156.492 126.931 156.275 127.105 155.971C127.278 155.667 127.452 155.364 127.582 154.973C127.712 154.626 127.843 154.192 127.93 153.671L128.19 152.326L126.367 152.629L126.757 150.72L131.403 149.982L129.753 158.315L127.712 158.619L127.799 157.013C127.191 158.445 126.106 159.226 124.673 159.443Z" fill="#F0DA69"/>
<path d="M141.432 156.75C138.437 157.227 137.178 155.838 137.699 152.497L140.521 151.498C140.173 153.668 140.608 154.623 141.823 154.45C142.301 154.363 142.691 154.189 142.952 153.885C143.256 153.582 143.43 153.191 143.516 152.714C143.603 152.28 143.603 151.846 143.516 151.498C143.43 151.151 143.299 150.891 143.082 150.674C142.909 150.457 142.648 150.24 142.301 149.936L140.434 148.417C139.869 147.983 139.522 147.462 139.305 146.941C139.088 146.377 139.088 145.683 139.262 144.771C139.522 143.512 140.087 142.427 141.042 141.603C141.953 140.778 143.126 140.257 144.472 139.997C145.079 139.91 145.644 139.867 146.078 139.954C146.512 140.04 146.903 140.171 147.163 140.388C147.424 140.605 147.641 140.865 147.771 141.256C147.901 141.603 147.988 141.993 147.988 142.384C147.988 142.775 147.988 143.252 147.945 143.729L145.166 144.641C145.21 144.294 145.253 144.033 145.253 143.773C145.253 143.556 145.253 143.295 145.253 143.078C145.21 142.861 145.166 142.644 145.079 142.514C144.993 142.384 144.862 142.297 144.689 142.21C144.515 142.167 144.298 142.167 143.994 142.21C143.516 142.297 143.126 142.514 142.865 142.818C142.561 143.122 142.388 143.512 142.301 143.946C142.214 144.467 142.214 144.901 142.388 145.205C142.518 145.509 142.822 145.813 143.169 146.117L145.036 147.636C145.34 147.896 145.6 148.156 145.817 148.417C146.034 148.677 146.208 148.981 146.382 149.328C146.555 149.675 146.642 150.066 146.686 150.5C146.729 150.934 146.686 151.411 146.599 151.932C146.382 153.104 145.774 154.146 144.819 155.014C143.82 155.969 142.691 156.533 141.432 156.75Z" fill="#F0DA69"/>
<path d="M152.068 155.013C150.288 155.317 149.159 155.057 148.552 154.232C147.987 153.451 147.857 152.149 148.204 150.413L149.42 144.38C149.594 143.512 149.811 142.731 150.115 142.08C150.418 141.429 150.809 140.821 151.287 140.3C151.764 139.779 152.329 139.345 153.023 138.998C153.718 138.651 154.5 138.434 155.411 138.26C157.148 137.956 158.32 138.217 158.928 138.998C159.492 139.779 159.623 141.038 159.275 142.774L158.06 148.807C157.886 149.675 157.669 150.413 157.365 151.107C157.061 151.801 156.67 152.409 156.193 152.93C155.715 153.451 155.151 153.928 154.456 154.275C153.761 154.623 152.98 154.883 152.068 155.013ZM151.764 152.8C151.981 152.843 152.199 152.843 152.502 152.8C152.806 152.756 153.067 152.669 153.284 152.539C153.501 152.409 153.718 152.279 153.848 152.105C154.022 151.932 154.152 151.758 154.239 151.498C154.369 151.281 154.456 151.02 154.5 150.803C154.586 150.586 154.63 150.326 154.717 149.979L156.193 142.514C156.28 142.123 156.323 141.776 156.323 141.515C156.323 141.255 156.323 141.038 156.236 140.821C156.149 140.604 156.019 140.474 155.802 140.387C155.585 140.3 155.281 140.3 154.934 140.344C154.543 140.387 154.239 140.517 153.979 140.647C153.718 140.821 153.501 140.995 153.327 141.255C153.154 141.515 153.023 141.776 152.937 142.036C152.85 142.297 152.763 142.644 152.676 143.034L151.2 150.499C151.157 150.803 151.113 151.064 151.07 151.281C151.07 151.498 151.07 151.715 151.07 151.932C151.113 152.149 151.157 152.322 151.243 152.409C151.417 152.669 151.547 152.756 151.764 152.8Z" fill="#F0DA69"/>
<path d="M163.834 153.104C162.054 153.408 160.925 153.147 160.317 152.323C159.753 151.541 159.623 150.239 159.97 148.503L161.186 142.471C161.359 141.602 161.577 140.821 161.88 140.17C162.184 139.519 162.575 138.912 163.053 138.391C163.53 137.87 164.095 137.436 164.789 137.089C165.484 136.742 166.265 136.525 167.177 136.351C168.914 136.091 170.086 136.308 170.694 137.089C171.302 137.87 171.388 139.129 171.041 140.865L169.825 146.897C169.652 147.765 169.435 148.503 169.131 149.198C168.827 149.892 168.436 150.5 167.959 151.021C167.481 151.541 166.917 152.019 166.222 152.366C165.484 152.713 164.702 152.974 163.834 153.104ZM163.487 150.89C163.704 150.934 163.921 150.934 164.225 150.89C164.529 150.847 164.789 150.76 165.006 150.63C165.223 150.5 165.44 150.37 165.571 150.196C165.744 150.022 165.875 149.849 165.961 149.588C166.092 149.371 166.179 149.111 166.222 148.894C166.309 148.677 166.352 148.416 166.439 148.069L167.915 140.604C168.002 140.214 168.045 139.866 168.045 139.606C168.045 139.346 168.045 139.129 167.959 138.912C167.872 138.695 167.742 138.564 167.524 138.478C167.307 138.391 167.003 138.391 166.656 138.434C166.265 138.478 165.961 138.608 165.701 138.738C165.44 138.912 165.223 139.085 165.05 139.346C164.876 139.606 164.746 139.866 164.659 140.127C164.572 140.387 164.485 140.734 164.399 141.125L162.922 148.59C162.879 148.894 162.836 149.154 162.792 149.371C162.792 149.588 162.792 149.805 162.792 150.022C162.836 150.239 162.879 150.413 162.966 150.5C163.139 150.76 163.313 150.847 163.487 150.89Z" fill="#F0DA69"/>
<path d="M170.954 151.803L174.21 135.398L176.338 135.05L178.682 143.644L180.549 134.356L183.11 133.922L179.854 150.328L177.814 150.675L175.556 141.604L173.602 151.369L170.954 151.803Z" fill="#F0DA69"/>
<path d="M107.611 136.525C107.524 136.525 107.394 136.438 107.394 136.351C107.394 136.221 107.437 136.134 107.568 136.091L190.274 123.07C190.404 123.07 190.491 123.114 190.535 123.244C190.535 123.374 190.491 123.461 190.361 123.504L107.611 136.525C107.655 136.525 107.655 136.525 107.611 136.525Z" fill="#252B61"/>
<path d="M77.8291 136.785C77.7423 136.785 77.6121 136.698 77.6121 136.611C77.6121 136.481 77.6555 136.394 77.7857 136.351L156.064 124.285C156.194 124.285 156.281 124.329 156.324 124.459C156.324 124.589 156.281 124.676 156.151 124.719L77.8291 136.785C77.8726 136.785 77.8726 136.785 77.8291 136.785Z" fill="#252B61"/>
<path d="M110.824 171.464C110.737 171.464 110.607 171.378 110.607 171.291C110.607 171.161 110.65 171.074 110.78 171.03L189.058 158.965C189.189 158.965 189.275 159.008 189.319 159.138C189.319 159.269 189.275 159.355 189.145 159.399L110.824 171.464Z" fill="#252B61"/>
<path d="M64.5425 182.702C64.4557 182.702 64.3254 182.615 64.3254 182.529C64.3254 182.398 64.3689 182.312 64.4991 182.268L142.777 170.246C142.907 170.246 142.994 170.289 143.038 170.42C143.038 170.55 142.994 170.637 142.864 170.68L64.5425 182.702C64.5859 182.702 64.5859 182.702 64.5425 182.702Z" fill="#252B61"/>
</svg>
