<svg width="195" height="186" viewBox="0 0 195 186" fill="none" xmlns="http://www.w3.org/2000/svg">
<g clip-path="url(#clip0_571_5316)">
<path d="M103.556 48.1531C101.087 48.1531 98.8478 49.1572 97.2285 50.7839C95.6043 52.4032 94.5977 54.6426 94.5977 57.1109V77.5367C94.5977 77.6893 94.5756 77.8148 94.5338 77.9059C94.4845 78.0387 94.4156 78.115 94.3172 78.2061L79.0742 93.4491C78.7665 93.3236 78.4663 93.1834 78.1611 93.0382C77.2678 92.6272 76.1727 91.7068 75.6436 90.875C75.0653 89.9669 74.7503 88.8718 74.7503 87.6733V86.7111C75.3434 86.2583 75.9094 85.7686 76.4311 85.2395C78.5721 83.0984 80.1274 80.3569 80.8042 77.3005H81.7123C83.2528 77.3005 84.6556 76.6729 85.667 75.6615C86.6858 74.65 87.3134 73.2473 87.3134 71.7068C87.3134 69.0489 87.2986 66.3911 87.3478 63.7333C87.5152 54.5811 87.6407 47.9956 76.9061 46.7258L78.2522 44.8284C78.6213 44.2993 78.8305 43.7062 78.8724 43.091C78.9142 42.4757 78.7887 41.863 78.4885 41.292C78.1956 40.726 77.7625 40.2658 77.2334 39.9459V39.9385C76.7043 39.6186 76.0964 39.4439 75.4541 39.4439H62.1306C56.7387 39.4439 51.4994 41.265 47.7194 44.6192C44.2101 47.7225 41.9583 52.1103 41.9583 57.5318V71.7068C41.9583 73.2473 42.5858 74.65 43.5973 75.6615C44.6087 76.6729 46.0115 77.3005 47.552 77.3005H48.465C49.1418 80.3569 50.6971 83.0984 52.8381 85.2395C53.3623 85.7686 53.9258 86.2583 54.5189 86.7111V87.6733C54.5189 88.8743 54.2039 89.9694 53.6256 90.875C53.0178 91.8298 52.1269 92.5632 51.1081 93.0382C50.6823 93.2326 50.4535 93.3458 50.3821 93.3728L50.1926 93.4491L34.9422 78.2135C34.8585 78.1224 34.7748 78.024 34.733 77.9059C34.6912 77.8148 34.669 77.6893 34.669 77.5367V57.1109C34.669 54.6426 33.6649 52.4032 32.0383 50.7839C30.419 49.1596 28.1795 48.1531 25.7112 48.1531C23.2207 48.1531 20.9616 49.1449 19.3152 50.7617C17.6836 52.381 16.6722 54.6131 16.6722 57.1109V83.3618C16.6722 84.0164 16.7903 84.639 17.0339 85.2247C17.2579 85.7612 17.5704 86.2509 17.9765 86.6816C18.0109 86.7234 18.0528 86.7726 18.102 86.8145L28.5167 97.2365H28.524L39.4137 108.126C39.5195 108.237 39.5958 108.335 39.645 108.434L39.6721 108.49C39.7139 108.609 39.741 108.749 39.741 108.924V122.247C39.741 123.3 40.1667 124.255 40.8632 124.947C41.5547 125.638 42.5096 126.069 43.5628 126.069H85.6965C86.7498 126.069 87.7047 125.636 88.3962 124.947C89.0926 124.255 89.5184 123.3 89.5184 122.247V108.924C89.5184 108.749 89.5454 108.609 89.5873 108.49V108.483C89.6365 108.372 89.7202 108.252 89.8457 108.126C96.9406 101.039 104.013 93.9586 111.108 86.8711C111.135 86.8366 111.172 86.8021 111.207 86.7652C111.647 86.3124 111.987 85.7956 112.225 85.2247C112.469 84.639 112.587 84.0188 112.587 83.3618V57.1109C112.587 54.6131 111.576 52.381 109.937 50.7617C108.298 49.1424 106.046 48.1531 103.556 48.1531ZM81.1979 65.3969H81.7147C82.1749 65.3969 82.5859 65.5864 82.8935 65.8916C83.2011 66.1918 83.3882 66.6102 83.3882 67.0704V71.7018C83.3882 72.1546 83.1987 72.573 82.8935 72.8806C82.5859 73.1809 82.1749 73.3679 81.7147 73.3679H81.1979V65.3969ZM48.0787 73.3704H47.5545C47.1017 73.3704 46.6833 73.1809 46.3757 72.8831C46.0755 72.5755 45.8884 72.1571 45.8884 71.7043V67.0728C45.8884 66.6126 46.0779 66.1943 46.3757 65.894C46.6833 65.5864 47.1017 65.3994 47.5545 65.3994H48.0787V73.3704ZM29.9194 93.0628L20.8853 84.036C20.8631 84.009 20.8435 83.9868 20.8164 83.9745C20.7475 83.8909 20.6983 83.8146 20.6687 83.7383C20.6269 83.6398 20.6047 83.5143 20.6047 83.3618V57.1109C20.6047 55.7008 21.1634 54.4531 22.069 53.5598C22.9968 52.6468 24.2863 52.0882 25.7186 52.0882C27.0992 52.0882 28.3542 52.6542 29.2697 53.5598C30.1827 54.4728 30.7487 55.7304 30.7487 57.1109V77.5367C30.7487 78.1864 30.8669 78.8066 31.1105 79.3997C31.3541 79.9854 31.711 80.5169 32.1712 80.9771L32.1785 80.9845H32.1712L37.0881 85.9015L29.9194 93.0628ZM69.9465 96.1955C68.3765 97.0175 66.5849 97.4851 64.6801 97.4851C62.7828 97.4851 60.9961 97.0175 59.4285 96.1955C59.4014 96.1808 59.3645 96.1611 59.3301 96.1463C58.2079 95.5459 57.1964 94.751 56.3302 93.8158C56.5467 93.55 56.7485 93.2646 56.9306 92.9791C57.7108 91.7511 58.2153 90.3631 58.3875 88.8767C60.216 89.6027 62.2094 89.9989 64.2888 89.9989H64.9853C67.0648 89.9989 69.0581 89.6002 70.8866 88.8767C71.0613 90.3631 71.5634 91.7511 72.3435 92.9791C72.5379 93.2867 72.7545 93.587 72.9858 93.8724C72.1097 94.8076 71.0835 95.5951 69.9465 96.1955ZM64.9878 86.0663H64.2913C57.5803 86.0663 52.0137 80.576 52.0137 73.7813V64.0286C52.0137 63.3593 52.2795 62.717 52.752 62.242C53.2122 61.7818 53.8397 61.4963 54.5386 61.4963H55.71C56.532 61.4963 57.3145 61.3856 58.0897 61.1469C58.8502 60.9155 59.5688 60.5759 60.2603 60.1133L62.2758 58.7671C63.0092 58.2725 63.8237 58.0289 64.6408 58.0289C65.4578 58.0289 66.2724 58.2725 67.0057 58.7671L69.0212 60.1133C69.7128 60.5735 70.4314 60.9155 71.1918 61.1469C71.967 61.3831 72.7471 61.4963 73.5715 61.4963H74.7429C75.4394 61.4963 76.0694 61.7818 76.5295 62.242C77.0045 62.717 77.2678 63.3593 77.2678 64.0286V73.7813C77.2654 80.5637 71.711 86.0663 64.9878 86.0663ZM108.669 83.3593C108.669 83.5119 108.647 83.6374 108.605 83.7358C108.571 83.8343 108.495 83.9302 108.396 84.036H108.389L99.404 93.0209L92.2328 85.8498L97.0956 80.9796C97.1448 80.9377 97.1867 80.8959 97.2211 80.8467C97.6247 80.4136 97.9397 79.9337 98.1637 79.3947C98.4073 78.8016 98.5254 78.1815 98.5254 77.5318V57.106C98.5254 55.7254 99.0914 54.4679 100.004 53.5549C100.917 52.6468 102.175 52.0832 103.556 52.0832C104.985 52.0832 106.277 52.6419 107.205 53.5549C108.113 54.4482 108.669 55.6959 108.669 57.106V83.3593ZM69.4519 77.5835C69.6881 77.9108 69.7521 78.3021 69.634 78.686C68.9499 80.7925 66.9762 82.3208 64.6383 82.3208C62.3004 82.3208 60.3267 80.7925 59.6426 78.686C59.5245 78.3021 59.586 77.9108 59.8247 77.5835C60.061 77.2562 60.4104 77.0815 60.8165 77.0815H68.4626C68.8662 77.0815 69.2156 77.2562 69.4519 77.5835ZM58.8133 68.9259C58.7567 68.8275 58.6804 68.7512 58.5893 68.6823C58.5056 68.6257 58.4072 68.5764 58.2965 68.5494C58.107 68.4928 57.9126 68.5075 57.7452 68.5764C57.5631 68.638 57.4179 68.7659 57.3121 68.9259C56.7116 69.834 55.4984 70.085 54.5854 69.4919C53.6773 68.8988 53.4213 67.6782 54.0194 66.7701C54.578 65.9039 55.3999 65.2566 56.3425 64.8998C57.2555 64.5504 58.2891 64.4741 59.3079 64.7472C59.8936 64.9072 60.4301 65.1656 60.8977 65.5003C61.38 65.8497 61.7836 66.2804 62.1035 66.7701C62.6966 67.6782 62.4456 68.8988 61.5326 69.4919C60.627 70.085 59.4063 69.834 58.8133 68.9259ZM75.2548 66.7726C75.8552 67.6807 75.5969 68.9013 74.6888 69.4944C73.7758 70.0875 72.5601 69.8364 71.962 68.9284C71.9054 68.8299 71.8292 68.7536 71.7381 68.6847C71.6544 68.6281 71.556 68.5789 71.4453 68.5518C71.2558 68.4952 71.0613 68.51 70.894 68.5789C70.7193 68.6404 70.5667 68.7684 70.4609 68.9284C69.8678 69.8364 68.6472 70.0875 67.7391 69.4944C66.8261 68.9013 66.5751 67.6807 67.1681 66.7726C67.7342 65.9063 68.5487 65.2591 69.4913 64.9023C70.4117 64.5528 71.4379 64.4765 72.4641 64.7497C73.0498 64.9096 73.5813 65.168 74.0465 65.5027C74.5313 65.8497 74.9422 66.2829 75.2548 66.7726ZM112.235 30.267C112.501 29.5903 112.89 28.948 113.407 28.3426C113.847 27.8258 114.167 27.4714 114.482 27.1146C117.049 24.255 119.281 21.7497 119.281 16.0157C119.281 11.6771 117.524 7.75684 114.684 4.90953C111.837 2.06961 107.909 0.3125 103.578 0.3125C99.2391 0.3125 95.3114 2.06961 92.4715 4.90953C89.6242 7.75684 87.8671 11.6771 87.8671 16.0157C87.8671 21.7497 90.1065 24.255 92.6659 27.1146C92.9858 27.4714 93.3082 27.8258 93.7413 28.3426C94.2655 28.9504 94.6544 29.5903 94.9201 30.267C94.4673 30.491 94.0539 30.7838 93.7069 31.1382C92.8849 31.9626 92.3755 33.0996 92.3755 34.3473C92.3755 35.6023 92.8849 36.7393 93.7069 37.5637C94.1671 38.0239 94.7331 38.3857 95.3533 38.617V39.7539C95.3533 41.073 95.8897 42.2715 96.7634 43.1377C97.6296 44.004 98.8207 44.5479 100.14 44.5479H107.011C108.33 44.5479 109.528 44.004 110.395 43.1377C111.258 42.2739 111.797 41.073 111.797 39.7539V38.617C112.425 38.3857 112.983 38.0239 113.444 37.5637C114.273 36.7393 114.782 35.6023 114.782 34.3473C114.782 33.0996 114.273 31.9626 113.444 31.1382C113.092 30.7838 112.681 30.491 112.235 30.267ZM111.566 24.5035C111.155 24.9637 110.737 25.4313 110.429 25.7881C109.57 26.7922 108.935 27.8676 108.509 29.0243C108.411 29.2827 108.327 29.5411 108.258 29.7995H105.532V20.6743L109.258 16.9411C110.025 16.1732 110.025 14.9329 109.258 14.1651C108.49 13.3973 107.249 13.3973 106.482 14.1651L103.58 17.0666L100.669 14.1676C99.9011 13.3998 98.6608 13.3998 97.893 14.1676C97.1251 14.9354 97.1251 16.1757 97.893 16.9435L101.619 20.6768V29.8019H98.897C98.8207 29.5435 98.7371 29.2851 98.646 29.0267C98.2203 27.8676 97.5779 26.7946 96.7215 25.7906C96.4213 25.4411 96.0029 24.9686 95.592 24.506C93.5691 22.2468 91.8046 20.2781 91.8046 16.0157C91.8046 12.7648 93.1236 9.82156 95.2499 7.68547C97.3835 5.55676 100.329 4.24016 103.58 4.24016C106.831 4.24016 109.774 5.55922 111.903 7.68547C114.037 9.8191 115.356 12.7648 115.356 16.0157C115.353 20.2781 113.589 22.2444 111.566 24.5035ZM42.7335 22.4265C42.7335 12.9666 35.0185 5.2516 25.5586 5.2516C16.1062 5.2516 8.39111 12.9666 8.39111 22.4265C8.39111 31.8863 16.1062 39.6014 25.5586 39.6014C35.0185 39.6014 42.7335 31.8863 42.7335 22.4265ZM13.9233 22.4265C13.9233 16.0157 19.1479 10.7838 25.5586 10.7838C31.9694 10.7838 37.2013 16.0157 37.2013 22.4265C37.2013 28.8372 31.9694 34.0692 25.5586 34.0692C19.1479 34.0692 13.9233 28.8372 13.9233 22.4265ZM25.5586 24.3928H19.4752C18.3948 24.3928 17.5138 23.5142 17.5138 22.4265C17.5138 21.3461 18.3924 20.4602 19.4752 20.4602H23.5997V16.343C23.5997 15.2627 24.4783 14.3817 25.5611 14.3817C26.6488 14.3817 27.5274 15.2602 27.5274 16.343V22.4265C27.5274 23.5142 26.6488 24.3928 25.5586 24.3928ZM62.6228 31.0545V20.9475C62.6228 19.8597 63.5087 18.9812 64.5965 18.9812C65.6768 18.9812 66.5628 19.8597 66.5628 20.9475V31.0545C66.5628 32.1423 65.6768 33.0282 64.5965 33.0282C63.5087 33.0282 62.6228 32.1423 62.6228 31.0545ZM73.7708 32.0118L76.3868 22.2444C76.6649 21.1985 77.7477 20.5709 78.7936 20.849C79.8469 21.1345 80.467 22.2099 80.189 23.2632L77.573 33.0233C77.2949 34.0766 76.2121 34.6967 75.1662 34.4186C74.1105 34.1381 73.4903 33.0577 73.7708 32.0118ZM48.999 23.2632C48.721 22.2099 49.3411 21.1345 50.3944 20.849C51.4403 20.5709 52.5157 21.1985 52.8012 22.2444L55.4172 32.0118C55.6953 33.0577 55.0751 34.1405 54.0218 34.4186C52.9759 34.6967 51.8931 34.0766 51.615 33.0233L48.999 23.2632Z" fill="#F0DA69" fill-opacity="0.2"/>
</g>
<path d="M61.8977 175.196L66.9339 151.065C67.151 149.98 68.0193 149.199 69.1047 149.025L191.276 129.538C193.056 129.234 194.575 130.797 194.271 132.576L189.886 156.881C189.669 157.966 188.801 158.834 187.716 159.007L64.85 178.321C63.0265 178.581 61.507 176.976 61.8977 175.196Z" fill="#252B61"/>
<path d="M72.6649 171.119C71.9269 171.249 71.3191 171.249 70.7547 171.162C70.2337 171.076 69.7995 170.902 69.4956 170.642C69.1917 170.381 68.9746 170.034 68.8444 169.6C68.7141 169.166 68.6273 168.688 68.6707 168.168C68.6707 167.647 68.7575 167.039 68.8878 166.388L70.0166 160.659C70.1468 159.965 70.3205 159.314 70.5376 158.75C70.7547 158.185 71.0152 157.665 71.3191 157.144C71.623 156.623 72.0137 156.189 72.4479 155.842C72.882 155.494 73.403 155.147 73.9674 154.887C74.5752 154.626 75.2264 154.453 75.9645 154.323C76.8328 154.192 77.5275 154.192 78.0919 154.279C78.6563 154.409 79.047 154.626 79.3509 155.017C79.6114 155.364 79.7851 155.842 79.8285 156.363C79.8719 156.883 79.8285 157.534 79.6548 158.316L79.3943 159.704L76.3987 160.225L76.6592 158.836C76.8328 158.012 76.8762 157.491 76.8328 157.187C76.746 156.666 76.3987 156.449 75.704 156.493C75.6606 156.493 75.5738 156.493 75.5304 156.536C75.2699 156.58 75.0528 156.623 74.8357 156.753C74.6186 156.84 74.445 156.97 74.3147 157.1C74.1845 157.231 74.0542 157.404 73.924 157.578C73.8372 157.751 73.7069 157.925 73.6201 158.185C73.5332 158.446 73.4898 158.663 73.403 158.836C73.3596 159.053 73.3162 159.27 73.2293 159.574L71.84 166.518C71.6664 167.473 71.623 168.168 71.7966 168.515C71.9703 168.862 72.361 169.036 73.0123 168.905C73.2293 168.862 73.4464 168.819 73.6201 168.732C73.7937 168.645 73.9674 168.558 74.0976 168.471C74.2279 168.385 74.3581 168.254 74.445 168.081C74.5318 167.907 74.6186 167.777 74.7055 167.647C74.7923 167.517 74.8357 167.343 74.8791 167.126C74.9225 166.909 75.0094 166.735 75.0094 166.562C75.0528 166.388 75.0962 166.215 75.1396 165.954L75.4435 164.479L78.4392 164.001L78.1787 165.347C78.0484 165.954 77.9182 166.518 77.7011 167.039C77.5275 167.56 77.267 168.037 76.9631 168.471C76.6592 168.949 76.3118 169.339 75.9211 169.687C75.5304 170.034 75.0528 170.338 74.4884 170.555C74.0108 170.815 73.3596 171.032 72.6649 171.119Z" fill="#F0DA69"/>
<path d="M83.9533 169.294C82.1732 169.598 81.0444 169.338 80.4366 168.513C79.8722 167.732 79.742 166.43 80.0893 164.694L81.3049 158.661C81.4786 157.793 81.6957 157.012 81.9996 156.361C82.3035 155.71 82.6942 155.102 83.1718 154.581C83.6494 154.061 84.2138 153.627 84.9084 153.279C85.6031 152.932 86.3845 152.715 87.2963 152.542C89.0329 152.238 90.2051 152.498 90.8129 153.279C91.3773 154.061 91.5075 155.319 91.1602 157.055L89.9446 163.088C89.7709 163.956 89.5539 164.694 89.2499 165.388C88.946 166.083 88.5553 166.69 88.0777 167.211C87.6002 167.732 87.0358 168.209 86.3411 168.557C85.6465 168.904 84.865 169.164 83.9533 169.294ZM83.6494 167.081C83.8664 167.124 84.0835 167.124 84.3874 167.081C84.6913 167.038 84.9518 166.951 85.1689 166.821C85.386 166.69 85.6031 166.56 85.7333 166.387C85.907 166.213 86.0372 166.039 86.124 165.779C86.2543 165.562 86.3411 165.301 86.3845 165.084C86.4714 164.867 86.5148 164.607 86.6016 164.26L88.0777 156.795C88.1646 156.404 88.208 156.057 88.208 155.797C88.208 155.536 88.208 155.319 88.1211 155.102C88.0343 154.885 87.9041 154.755 87.687 154.668C87.4699 154.581 87.166 154.581 86.8187 154.625C86.4279 154.668 86.124 154.798 85.8635 154.929C85.6031 155.102 85.386 155.276 85.2123 155.536C85.0387 155.797 84.9084 156.057 84.8216 156.317C84.7347 156.578 84.6479 156.925 84.5611 157.316L83.085 164.781C83.0415 165.084 82.9981 165.345 82.9547 165.562C82.9547 165.779 82.9547 165.996 82.9547 166.213C82.9981 166.43 83.0415 166.604 83.1284 166.69C83.302 166.951 83.4323 167.038 83.6494 167.081Z" fill="#F0DA69"/>
<path d="M91.0728 167.952L94.6328 151.546L97.8456 151.025L98.0192 162.136L102.882 150.201L106.008 149.68L103.012 166.042L100.668 166.433L102.708 155.192L97.9758 166.867L96.1524 167.17L95.9353 156.233L93.504 167.604L91.0728 167.952Z" fill="#F0DA69"/>
<path d="M105.487 165.649L108.743 149.243L111.825 148.766L108.569 165.171L105.487 165.649Z" fill="#F0DA69"/>
<path d="M111.087 164.737L114.343 148.331L116.471 147.984L118.815 156.577L120.682 147.289L123.243 146.855L119.987 163.261L117.947 163.608L115.646 154.537L113.692 164.303L111.087 164.737Z" fill="#F0DA69"/>
<path d="M126.673 162.439C125.067 162.7 123.982 162.396 123.461 161.528C122.94 160.66 122.853 159.315 123.244 157.448L124.329 152.11C124.503 151.155 124.763 150.33 125.067 149.636C125.371 148.942 125.718 148.291 126.196 147.726C126.673 147.162 127.238 146.685 127.932 146.338C128.627 145.99 129.452 145.73 130.364 145.556C132.057 145.296 133.186 145.47 133.75 146.164C134.314 146.858 134.445 147.987 134.141 149.593L133.967 150.374L130.972 150.851L131.145 149.983C131.232 149.636 131.275 149.332 131.275 149.115C131.319 148.898 131.319 148.681 131.275 148.421C131.275 148.204 131.189 148.03 131.102 147.943C131.015 147.857 130.841 147.77 130.668 147.726C130.451 147.683 130.233 147.683 129.886 147.726C129.669 147.77 129.452 147.813 129.235 147.9C129.061 147.987 128.888 148.074 128.714 148.16C128.584 148.247 128.453 148.377 128.323 148.551C128.193 148.725 128.106 148.855 128.019 149.028C127.932 149.159 127.889 149.376 127.802 149.593C127.715 149.81 127.672 150.027 127.629 150.2C127.585 150.374 127.542 150.591 127.498 150.851L126.196 157.448C125.979 158.447 125.979 159.141 126.152 159.575C126.326 160.009 126.76 160.139 127.455 160.009C127.846 159.966 128.15 159.835 128.41 159.662C128.67 159.488 128.931 159.271 129.105 158.967C129.278 158.664 129.452 158.36 129.582 157.969C129.712 157.622 129.843 157.188 129.93 156.667L130.19 155.322L128.367 155.625L128.757 153.716L133.403 152.978L131.753 161.311L129.712 161.615L129.799 160.009C129.191 161.441 128.106 162.222 126.673 162.439Z" fill="#F0DA69"/>
<path d="M143.432 159.746C140.437 160.223 139.178 158.835 139.699 155.493L142.521 154.494C142.173 156.664 142.608 157.619 143.823 157.446C144.301 157.359 144.691 157.185 144.952 156.881C145.256 156.578 145.43 156.187 145.516 155.71C145.603 155.276 145.603 154.842 145.516 154.494C145.43 154.147 145.299 153.887 145.082 153.67C144.909 153.453 144.648 153.236 144.301 152.932L142.434 151.413C141.869 150.979 141.522 150.458 141.305 149.937C141.088 149.373 141.088 148.679 141.262 147.767C141.522 146.509 142.087 145.424 143.042 144.599C143.953 143.774 145.126 143.253 146.472 142.993C147.079 142.906 147.644 142.863 148.078 142.95C148.512 143.036 148.903 143.167 149.163 143.384C149.424 143.601 149.641 143.861 149.771 144.252C149.901 144.599 149.988 144.99 149.988 145.38C149.988 145.771 149.988 146.248 149.945 146.726L147.166 147.637C147.21 147.29 147.253 147.029 147.253 146.769C147.253 146.552 147.253 146.292 147.253 146.075C147.21 145.858 147.166 145.641 147.079 145.51C146.993 145.38 146.862 145.293 146.689 145.207C146.515 145.163 146.298 145.163 145.994 145.207C145.516 145.293 145.126 145.51 144.865 145.814C144.561 146.118 144.388 146.509 144.301 146.943C144.214 147.463 144.214 147.897 144.388 148.201C144.518 148.505 144.822 148.809 145.169 149.113L147.036 150.632C147.34 150.892 147.6 151.152 147.817 151.413C148.034 151.673 148.208 151.977 148.382 152.324C148.555 152.672 148.642 153.062 148.686 153.496C148.729 153.93 148.686 154.408 148.599 154.928C148.382 156.1 147.774 157.142 146.819 158.01C145.82 158.965 144.691 159.529 143.432 159.746Z" fill="#F0DA69"/>
<path d="M154.068 158.009C152.288 158.313 151.159 158.053 150.552 157.228C149.987 156.447 149.857 155.145 150.204 153.409L151.42 147.376C151.594 146.508 151.811 145.727 152.115 145.076C152.418 144.425 152.809 143.817 153.287 143.296C153.764 142.775 154.329 142.341 155.023 141.994C155.718 141.647 156.5 141.43 157.411 141.256C159.148 140.953 160.32 141.213 160.928 141.994C161.492 142.775 161.623 144.034 161.275 145.77L160.06 151.803C159.886 152.671 159.669 153.409 159.365 154.103C159.061 154.798 158.67 155.405 158.193 155.926C157.715 156.447 157.151 156.924 156.456 157.271C155.761 157.619 154.98 157.879 154.068 158.009ZM153.764 155.796C153.981 155.839 154.199 155.839 154.502 155.796C154.806 155.752 155.067 155.666 155.284 155.535C155.501 155.405 155.718 155.275 155.848 155.101C156.022 154.928 156.152 154.754 156.239 154.494C156.369 154.277 156.456 154.016 156.5 153.799C156.586 153.582 156.63 153.322 156.717 152.975L158.193 145.51C158.28 145.119 158.323 144.772 158.323 144.511C158.323 144.251 158.323 144.034 158.236 143.817C158.149 143.6 158.019 143.47 157.802 143.383C157.585 143.296 157.281 143.296 156.934 143.34C156.543 143.383 156.239 143.513 155.979 143.643C155.718 143.817 155.501 143.991 155.327 144.251C155.154 144.511 155.023 144.772 154.937 145.032C154.85 145.293 154.763 145.64 154.676 146.031L153.2 153.496C153.157 153.799 153.113 154.06 153.07 154.277C153.07 154.494 153.07 154.711 153.07 154.928C153.113 155.145 153.157 155.318 153.243 155.405C153.417 155.666 153.547 155.752 153.764 155.796Z" fill="#F0DA69"/>
<path d="M165.834 156.1C164.054 156.404 162.925 156.143 162.317 155.319C161.753 154.537 161.623 153.235 161.97 151.499L163.186 145.467C163.359 144.599 163.577 143.817 163.88 143.166C164.184 142.515 164.575 141.908 165.053 141.387C165.53 140.866 166.095 140.432 166.789 140.085C167.484 139.738 168.265 139.521 169.177 139.347C170.914 139.087 172.086 139.304 172.694 140.085C173.302 140.866 173.388 142.125 173.041 143.861L171.825 149.894C171.652 150.762 171.435 151.499 171.131 152.194C170.827 152.888 170.436 153.496 169.959 154.017C169.481 154.537 168.917 155.015 168.222 155.362C167.484 155.709 166.702 155.97 165.834 156.1ZM165.487 153.886C165.704 153.93 165.921 153.93 166.225 153.886C166.529 153.843 166.789 153.756 167.006 153.626C167.223 153.496 167.44 153.366 167.571 153.192C167.744 153.018 167.875 152.845 167.961 152.584C168.092 152.367 168.179 152.107 168.222 151.89C168.309 151.673 168.352 151.413 168.439 151.065L169.915 143.6C170.002 143.21 170.045 142.863 170.045 142.602C170.045 142.342 170.045 142.125 169.959 141.908C169.872 141.691 169.742 141.56 169.524 141.474C169.307 141.387 169.003 141.387 168.656 141.43C168.265 141.474 167.961 141.604 167.701 141.734C167.44 141.908 167.223 142.081 167.05 142.342C166.876 142.602 166.746 142.863 166.659 143.123C166.572 143.383 166.485 143.731 166.399 144.121L164.922 151.586C164.879 151.89 164.836 152.15 164.792 152.367C164.792 152.584 164.792 152.801 164.792 153.018C164.836 153.235 164.879 153.409 164.966 153.496C165.139 153.756 165.313 153.843 165.487 153.886Z" fill="#F0DA69"/>
<path d="M172.954 154.799L176.21 138.394L178.338 138.046L180.682 146.64L182.549 137.352L185.11 136.918L181.854 153.324L179.814 153.671L177.556 144.6L175.602 154.365L172.954 154.799Z" fill="#F0DA69"/>
<path d="M109.611 139.521C109.524 139.521 109.394 139.434 109.394 139.347C109.394 139.217 109.437 139.13 109.568 139.087L192.274 126.066C192.404 126.066 192.491 126.11 192.535 126.24C192.535 126.37 192.491 126.457 192.361 126.5L109.611 139.521C109.655 139.521 109.655 139.521 109.611 139.521Z" fill="#252B61"/>
<path d="M79.8291 139.781C79.7423 139.781 79.6121 139.694 79.6121 139.607C79.6121 139.477 79.6555 139.39 79.7857 139.347L158.064 127.281C158.194 127.281 158.281 127.325 158.324 127.455C158.324 127.585 158.281 127.672 158.151 127.715L79.8291 139.781C79.8726 139.781 79.8726 139.781 79.8291 139.781Z" fill="#252B61"/>
<path d="M112.824 174.461C112.737 174.461 112.607 174.374 112.607 174.287C112.607 174.157 112.65 174.07 112.78 174.026L191.058 161.961C191.189 161.961 191.275 162.004 191.319 162.135C191.319 162.265 191.275 162.352 191.145 162.395L112.824 174.461Z" fill="#252B61"/>
<path d="M66.5425 185.698C66.4557 185.698 66.3254 185.612 66.3254 185.525C66.3254 185.395 66.3689 185.308 66.4991 185.264L144.777 173.242C144.907 173.242 144.994 173.286 145.038 173.416C145.038 173.546 144.994 173.633 144.864 173.676L66.5425 185.698C66.5859 185.698 66.5859 185.698 66.5425 185.698Z" fill="#252B61"/>
<defs>
<clipPath id="clip0_571_5316">
<rect width="126" height="126" fill="white" transform="translate(0.835938 0.1875)"/>
</clipPath>
</defs>
</svg>
