<svg width="198" height="180" viewBox="0 0 198 180" fill="none" xmlns="http://www.w3.org/2000/svg">
<path d="M108.441 21.6256C109.808 20.1178 110.643 18.1176 110.643 15.9263C110.643 11.2449 106.834 7.43611 102.153 7.43611C97.4715 7.43611 93.6627 11.2449 93.6627 15.9263C93.6627 18.1176 94.4975 20.1178 95.8653 21.6256C91.6817 23.7724 88.6877 27.9868 88.316 32.9394C88.2543 33.7631 88.5403 34.582 89.1004 35.1857C89.6607 35.7895 90.4556 36.1358 91.2817 36.1358H113.024C113.85 36.1358 114.645 35.7895 115.205 35.1857C115.765 34.582 116.051 33.7631 115.99 32.9397C115.618 27.9868 112.624 23.7727 108.441 21.6256ZM92.8366 31.8233C93.8258 27.5714 97.6688 24.4179 102.15 24.4166H102.153C102.153 24.4166 102.155 24.4166 102.156 24.4166C106.637 24.4179 110.48 27.5717 111.47 31.8233H92.8366ZM49.3556 32.9397C48.9839 27.9868 45.9899 23.7727 41.8063 21.6259C43.1741 20.1181 44.0089 18.1182 44.0089 15.9266C44.0089 11.2451 40.2001 7.43638 35.5186 7.43638C30.8372 7.43638 27.0284 11.2451 27.0284 15.9266C27.0284 18.1179 27.8631 20.1181 29.231 21.6259C25.0476 23.7727 22.0534 27.9871 21.6817 32.9397V32.9402C21.62 33.7639 21.9062 34.5825 22.4663 35.1862C23.0267 35.7897 23.8213 36.1361 24.6471 36.1361H46.3894C47.2155 36.1361 48.0106 35.7895 48.571 35.1857C49.1313 34.582 49.4176 33.7626 49.3556 32.9397ZM26.2023 31.8233C27.1915 27.5714 31.0344 24.4179 35.5162 24.4166H35.5189C35.5189 24.4166 35.5208 24.4166 35.5216 24.4166C40.0031 24.4179 43.8461 27.5712 44.8353 31.8233H26.2023ZM128.459 0.507812H9.21293C4.19102 0.507812 0.105469 4.59337 0.105469 9.615V93.291C0.105469 98.3126 4.19102 102.398 9.21293 102.398H40.1093L33.6405 113.499C32.9985 114.601 32.9896 115.911 33.6171 117.003C34.2483 118.101 35.4211 118.784 36.6774 118.784H100.995C102.251 118.784 103.424 118.101 104.055 117.002C104.682 115.911 104.673 114.601 104.031 113.499L97.5626 102.398H128.459C133.481 102.398 137.566 98.3126 137.566 93.291V9.615C137.566 4.59337 133.481 0.507812 128.459 0.507812ZM4.41797 9.615C4.41797 6.97117 6.56883 4.82004 9.21293 4.82004H66.6797V24.1422C56.434 25.1578 48.2621 33.3297 47.2465 43.5754H4.41797V9.615ZM68.8359 28.3472C78.4218 28.3472 86.2207 36.146 86.2207 45.7319C86.2207 55.3178 78.4218 63.1167 68.8359 63.1167C59.2501 63.1167 51.4512 55.3178 51.4512 45.7319C51.4512 36.146 59.2501 28.3472 68.8359 28.3472ZM4.41797 47.8882H47.2465C48.2621 58.1339 56.434 66.3058 66.6797 67.3214V86.6435H4.41797V47.8882ZM99.6064 114.471H38.0654L45.1007 102.398H92.5714L99.6064 114.471ZM133.254 86.6435H70.9922V67.3214C81.2379 66.3058 89.4098 58.1339 90.4254 47.8882H133.254V86.6435ZM133.254 43.5757H90.4254C89.4098 33.33 81.2379 25.1581 70.9922 24.1425V4.82031H128.459C131.103 4.82031 133.254 6.97117 133.254 9.61527V43.5757ZM61.1403 52.9599V38.5036C61.1403 37.3368 61.7669 36.2504 62.7755 35.6682C63.7841 35.0857 65.0385 35.0871 66.0487 35.6701L78.5679 42.8975C79.5762 43.4795 80.2026 44.5654 80.2029 45.7311C80.2029 46.8971 79.5765 47.9833 78.5679 48.5655L66.0484 55.7933C65.5428 56.0852 64.976 56.2312 64.4094 56.2312C63.8442 56.2312 63.2793 56.086 62.7755 55.7951C61.7669 55.2132 61.1403 54.1267 61.1403 52.9599ZM41.8063 67.1052C43.1741 65.5975 44.0089 63.5975 44.0089 61.406C44.0089 56.7245 40.2001 52.9157 35.5186 52.9157C30.8372 52.9157 27.0284 56.7245 27.0284 61.406C27.0284 63.5973 27.8631 65.5975 29.231 67.1052C25.0473 69.252 22.0534 73.4664 21.6817 78.4191V78.4196C21.62 79.2433 21.9062 80.0616 22.4663 80.6653C23.0264 81.2688 23.8213 81.6152 24.6471 81.6152H46.3894C47.2155 81.6152 48.0109 81.2688 48.571 80.6648C49.131 80.0608 49.4168 79.2422 49.3548 78.4191C48.9839 73.4661 45.9899 69.252 41.8063 67.1052ZM26.2023 77.3027C27.1917 73.05 31.0361 69.8959 35.5189 69.8959C40.0012 69.8959 43.8455 73.05 44.8353 77.3027H26.2023ZM88.3163 78.4191C88.2546 79.2427 88.5403 80.0613 89.1006 80.6651C89.661 81.2688 90.4558 81.6152 91.282 81.6152H113.024C113.85 81.6152 114.645 81.2688 115.206 80.6651C115.766 80.0613 116.052 79.2427 115.99 78.4191C115.618 73.4661 112.624 69.252 108.441 67.1052C109.808 65.5975 110.643 63.5975 110.643 61.406C110.643 56.7245 106.834 52.9157 102.153 52.9157C97.4715 52.9157 93.6627 56.7245 93.6627 61.406C93.6627 63.5973 94.4975 65.5975 95.8653 67.1052C91.6819 69.252 88.688 73.4661 88.3163 78.4191ZM102.153 69.8959C106.636 69.8959 110.48 73.05 111.47 77.3027H92.8366C93.8261 73.05 97.6704 69.8959 102.153 69.8959Z" fill="#92BDF6" fill-opacity="0.2"/>
<path d="M64.8977 169.196L69.9339 145.065C70.151 143.98 71.0193 143.199 72.1047 143.025L194.276 123.538C196.056 123.234 197.575 124.797 197.271 126.576L192.886 150.881C192.669 151.966 191.801 152.834 190.716 153.007L67.85 172.321C66.0265 172.581 64.507 170.976 64.8977 169.196Z" fill="#252B61"/>
<path d="M75.6651 165.119C74.927 165.249 74.3192 165.249 73.7548 165.162C73.2338 165.076 72.7996 164.902 72.4957 164.642C72.1918 164.381 71.9747 164.034 71.8445 163.6C71.7143 163.166 71.6274 162.688 71.6708 162.168C71.6708 161.647 71.7577 161.039 71.8879 160.388L73.0167 154.659C73.147 153.965 73.3206 153.314 73.5377 152.75C73.7548 152.185 74.0153 151.665 74.3192 151.144C74.6231 150.623 75.0138 150.189 75.448 149.842C75.8821 149.494 76.4031 149.147 76.9675 148.887C77.5753 148.626 78.2266 148.453 78.9646 148.323C79.8329 148.192 80.5276 148.192 81.092 148.279C81.6564 148.409 82.0471 148.626 82.351 149.017C82.6115 149.364 82.7852 149.842 82.8286 150.363C82.872 150.883 82.8286 151.534 82.6549 152.316L82.3944 153.704L79.3988 154.225L79.6593 152.836C79.8329 152.012 79.8764 151.491 79.8329 151.187C79.7461 150.666 79.3988 150.449 78.7041 150.493C78.6607 150.493 78.5739 150.493 78.5305 150.536C78.27 150.58 78.0529 150.623 77.8358 150.753C77.6188 150.84 77.4451 150.97 77.3148 151.1C77.1846 151.231 77.0544 151.404 76.9241 151.578C76.8373 151.751 76.707 151.925 76.6202 152.185C76.5334 152.446 76.49 152.663 76.4031 152.836C76.3597 153.053 76.3163 153.27 76.2295 153.574L74.8402 160.518C74.6665 161.473 74.6231 162.168 74.7968 162.515C74.9704 162.862 75.3611 163.036 76.0124 162.905C76.2295 162.862 76.4465 162.819 76.6202 162.732C76.7939 162.645 76.9675 162.558 77.0978 162.471C77.228 162.385 77.3583 162.254 77.4451 162.081C77.5319 161.907 77.6188 161.777 77.7056 161.647C77.7924 161.517 77.8358 161.343 77.8792 161.126C77.9227 160.909 78.0095 160.735 78.0095 160.562C78.0529 160.388 78.0963 160.215 78.1397 159.954L78.4436 158.479L81.4393 158.001L81.1788 159.347C81.0486 159.954 80.9183 160.518 80.7012 161.039C80.5276 161.56 80.2671 162.037 79.9632 162.471C79.6593 162.949 79.312 163.339 78.9212 163.687C78.5305 164.034 78.0529 164.338 77.4885 164.555C77.0109 164.815 76.3597 165.032 75.6651 165.119Z" fill="#F0DA69"/>
<path d="M86.9534 163.294C85.1734 163.598 84.0446 163.338 83.4367 162.513C82.8723 161.732 82.7421 160.43 83.0894 158.694L84.305 152.661C84.4787 151.793 84.6958 151.012 84.9997 150.361C85.3036 149.71 85.6943 149.102 86.1719 148.581C86.6495 148.061 87.2139 147.627 87.9085 147.279C88.6032 146.932 89.3846 146.715 90.2964 146.542C92.033 146.238 93.2052 146.498 93.813 147.279C94.3774 148.061 94.5077 149.319 94.1603 151.055L92.9447 157.088C92.7711 157.956 92.554 158.694 92.2501 159.388C91.9462 160.083 91.5554 160.69 91.0779 161.211C90.6003 161.732 90.0359 162.209 89.3412 162.557C88.6466 162.904 87.8651 163.164 86.9534 163.294ZM86.6495 161.081C86.8666 161.124 87.0836 161.124 87.3875 161.081C87.6915 161.038 87.9519 160.951 88.169 160.821C88.3861 160.69 88.6032 160.56 88.7334 160.387C88.9071 160.213 89.0373 160.039 89.1242 159.779C89.2544 159.562 89.3412 159.301 89.3847 159.084C89.4715 158.867 89.5149 158.607 89.6017 158.26L91.0779 150.795C91.1647 150.404 91.2081 150.057 91.2081 149.797C91.2081 149.536 91.2081 149.319 91.1213 149.102C91.0344 148.885 90.9042 148.755 90.6871 148.668C90.47 148.581 90.1661 148.581 89.8188 148.625C89.4281 148.668 89.1242 148.798 88.8637 148.929C88.6032 149.102 88.3861 149.276 88.2124 149.536C88.0388 149.797 87.9085 150.057 87.8217 150.317C87.7349 150.578 87.648 150.925 87.5612 151.316L86.0851 158.781C86.0417 159.084 85.9982 159.345 85.9548 159.562C85.9548 159.779 85.9548 159.996 85.9548 160.213C85.9982 160.43 86.0417 160.604 86.1285 160.69C86.3022 160.951 86.4324 161.038 86.6495 161.081Z" fill="#F0DA69"/>
<path d="M94.0728 161.952L97.6328 145.546L100.846 145.025L101.019 156.136L105.882 144.201L109.008 143.68L106.012 160.042L103.668 160.433L105.708 149.192L100.976 160.867L99.1524 161.17L98.9353 150.233L96.504 161.604L94.0728 161.952Z" fill="#F0DA69"/>
<path d="M108.487 159.649L111.743 143.243L114.825 142.766L111.569 159.171L108.487 159.649Z" fill="#F0DA69"/>
<path d="M114.087 158.737L117.343 142.331L119.471 141.984L121.815 150.577L123.682 141.289L126.244 140.855L122.987 157.261L120.947 157.608L118.646 148.537L116.692 158.303L114.087 158.737Z" fill="#F0DA69"/>
<path d="M129.673 156.439C128.067 156.7 126.982 156.396 126.461 155.528C125.94 154.66 125.853 153.315 126.244 151.448L127.329 146.11C127.503 145.155 127.763 144.33 128.067 143.636C128.371 142.942 128.718 142.291 129.196 141.726C129.673 141.162 130.238 140.685 130.932 140.338C131.627 139.99 132.452 139.73 133.364 139.556C135.057 139.296 136.186 139.47 136.75 140.164C137.314 140.858 137.445 141.987 137.141 143.593L136.967 144.374L133.972 144.851L134.145 143.983C134.232 143.636 134.275 143.332 134.275 143.115C134.319 142.898 134.319 142.681 134.275 142.421C134.275 142.204 134.189 142.03 134.102 141.943C134.015 141.857 133.841 141.77 133.668 141.726C133.451 141.683 133.233 141.683 132.886 141.726C132.669 141.77 132.452 141.813 132.235 141.9C132.061 141.987 131.888 142.074 131.714 142.16C131.584 142.247 131.453 142.377 131.323 142.551C131.193 142.725 131.106 142.855 131.019 143.028C130.932 143.159 130.889 143.376 130.802 143.593C130.715 143.81 130.672 144.027 130.629 144.2C130.585 144.374 130.542 144.591 130.498 144.851L129.196 151.448C128.979 152.447 128.979 153.141 129.152 153.575C129.326 154.009 129.76 154.139 130.455 154.009C130.846 153.966 131.15 153.835 131.41 153.662C131.67 153.488 131.931 153.271 132.105 152.967C132.278 152.664 132.452 152.36 132.582 151.969C132.712 151.622 132.843 151.188 132.93 150.667L133.19 149.322L131.367 149.625L131.757 147.716L136.403 146.978L134.753 155.311L132.712 155.615L132.799 154.009C132.191 155.441 131.106 156.222 129.673 156.439Z" fill="#F0DA69"/>
<path d="M146.432 153.746C143.437 154.223 142.178 152.835 142.699 149.493L145.521 148.494C145.173 150.664 145.608 151.619 146.823 151.446C147.301 151.359 147.691 151.185 147.952 150.881C148.256 150.578 148.43 150.187 148.516 149.71C148.603 149.276 148.603 148.842 148.516 148.494C148.43 148.147 148.299 147.887 148.082 147.67C147.909 147.453 147.648 147.236 147.301 146.932L145.434 145.413C144.869 144.979 144.522 144.458 144.305 143.937C144.088 143.373 144.088 142.679 144.262 141.767C144.522 140.509 145.087 139.424 146.042 138.599C146.953 137.774 148.126 137.253 149.472 136.993C150.079 136.906 150.644 136.863 151.078 136.95C151.512 137.036 151.903 137.167 152.163 137.384C152.424 137.601 152.641 137.861 152.771 138.252C152.901 138.599 152.988 138.99 152.988 139.38C152.988 139.771 152.988 140.248 152.945 140.726L150.166 141.637C150.21 141.29 150.253 141.029 150.253 140.769C150.253 140.552 150.253 140.292 150.253 140.075C150.21 139.858 150.166 139.641 150.079 139.51C149.993 139.38 149.862 139.293 149.689 139.207C149.515 139.163 149.298 139.163 148.994 139.207C148.516 139.293 148.126 139.51 147.865 139.814C147.561 140.118 147.388 140.509 147.301 140.943C147.214 141.463 147.214 141.897 147.388 142.201C147.518 142.505 147.822 142.809 148.169 143.113L150.036 144.632C150.34 144.892 150.6 145.152 150.817 145.413C151.034 145.673 151.208 145.977 151.382 146.324C151.555 146.672 151.642 147.062 151.686 147.496C151.729 147.93 151.686 148.408 151.599 148.928C151.382 150.1 150.774 151.142 149.819 152.01C148.82 152.965 147.691 153.529 146.432 153.746Z" fill="#F0DA69"/>
<path d="M157.068 152.009C155.288 152.313 154.159 152.053 153.552 151.228C152.987 150.447 152.857 149.145 153.204 147.409L154.42 141.376C154.594 140.508 154.811 139.727 155.115 139.076C155.418 138.425 155.809 137.817 156.287 137.296C156.764 136.775 157.329 136.341 158.023 135.994C158.718 135.647 159.5 135.43 160.411 135.256C162.148 134.953 163.32 135.213 163.928 135.994C164.492 136.775 164.623 138.034 164.275 139.77L163.06 145.803C162.886 146.671 162.669 147.409 162.365 148.103C162.061 148.798 161.67 149.405 161.193 149.926C160.715 150.447 160.151 150.924 159.456 151.271C158.761 151.619 157.98 151.879 157.068 152.009ZM156.764 149.796C156.981 149.839 157.199 149.839 157.502 149.796C157.806 149.752 158.067 149.666 158.284 149.535C158.501 149.405 158.718 149.275 158.848 149.101C159.022 148.928 159.152 148.754 159.239 148.494C159.369 148.277 159.456 148.016 159.5 147.799C159.586 147.582 159.63 147.322 159.717 146.975L161.193 139.51C161.28 139.119 161.323 138.772 161.323 138.511C161.323 138.251 161.323 138.034 161.236 137.817C161.149 137.6 161.019 137.47 160.802 137.383C160.585 137.296 160.281 137.296 159.934 137.34C159.543 137.383 159.239 137.513 158.979 137.643C158.718 137.817 158.501 137.991 158.327 138.251C158.154 138.511 158.023 138.772 157.937 139.032C157.85 139.293 157.763 139.64 157.676 140.031L156.2 147.496C156.157 147.799 156.113 148.06 156.07 148.277C156.07 148.494 156.07 148.711 156.07 148.928C156.113 149.145 156.157 149.318 156.243 149.405C156.417 149.666 156.547 149.752 156.764 149.796Z" fill="#F0DA69"/>
<path d="M168.834 150.1C167.054 150.404 165.925 150.143 165.317 149.319C164.753 148.537 164.623 147.235 164.97 145.499L166.186 139.467C166.359 138.599 166.577 137.817 166.88 137.166C167.184 136.515 167.575 135.908 168.053 135.387C168.53 134.866 169.095 134.432 169.789 134.085C170.484 133.738 171.265 133.521 172.177 133.347C173.914 133.087 175.086 133.304 175.694 134.085C176.302 134.866 176.388 136.125 176.041 137.861L174.825 143.894C174.652 144.762 174.435 145.499 174.131 146.194C173.827 146.888 173.436 147.496 172.959 148.017C172.481 148.537 171.917 149.015 171.222 149.362C170.484 149.709 169.702 149.97 168.834 150.1ZM168.487 147.886C168.704 147.93 168.921 147.93 169.225 147.886C169.529 147.843 169.789 147.756 170.006 147.626C170.223 147.496 170.44 147.366 170.571 147.192C170.744 147.018 170.875 146.845 170.961 146.584C171.092 146.367 171.179 146.107 171.222 145.89C171.309 145.673 171.352 145.413 171.439 145.065L172.915 137.6C173.002 137.21 173.045 136.863 173.045 136.602C173.045 136.342 173.045 136.125 172.959 135.908C172.872 135.691 172.742 135.56 172.524 135.474C172.307 135.387 172.003 135.387 171.656 135.43C171.265 135.474 170.961 135.604 170.701 135.734C170.44 135.908 170.223 136.081 170.05 136.342C169.876 136.602 169.746 136.863 169.659 137.123C169.572 137.383 169.485 137.731 169.399 138.121L167.922 145.586C167.879 145.89 167.836 146.15 167.792 146.367C167.792 146.584 167.792 146.801 167.792 147.018C167.836 147.235 167.879 147.409 167.966 147.496C168.139 147.756 168.313 147.843 168.487 147.886Z" fill="#F0DA69"/>
<path d="M175.954 148.799L179.21 132.394L181.338 132.046L183.682 140.64L185.549 131.352L188.11 130.918L184.854 147.324L182.814 147.671L180.556 138.6L178.602 148.365L175.954 148.799Z" fill="#F0DA69"/>
<path d="M112.611 133.521C112.524 133.521 112.394 133.434 112.394 133.347C112.394 133.217 112.438 133.13 112.568 133.087L195.274 120.066C195.404 120.066 195.491 120.11 195.535 120.24C195.535 120.37 195.491 120.457 195.361 120.5L112.611 133.521C112.655 133.521 112.655 133.521 112.611 133.521Z" fill="#252B61"/>
<path d="M82.8291 133.781C82.7423 133.781 82.6121 133.694 82.6121 133.607C82.6121 133.477 82.6555 133.39 82.7857 133.347L161.064 121.281C161.194 121.281 161.281 121.325 161.324 121.455C161.324 121.585 161.281 121.672 161.151 121.715L82.8291 133.781C82.8726 133.781 82.8726 133.781 82.8291 133.781Z" fill="#252B61"/>
<path d="M115.824 168.461C115.737 168.461 115.607 168.374 115.607 168.287C115.607 168.157 115.65 168.07 115.78 168.026L194.058 155.961C194.189 155.961 194.275 156.004 194.319 156.135C194.319 156.265 194.275 156.352 194.145 156.395L115.824 168.461Z" fill="#252B61"/>
<path d="M69.5425 179.698C69.4557 179.698 69.3254 179.612 69.3254 179.525C69.3254 179.395 69.3689 179.308 69.4991 179.264L147.777 167.242C147.907 167.242 147.994 167.286 148.038 167.416C148.038 167.546 147.994 167.633 147.864 167.676L69.5425 179.698C69.5859 179.698 69.5859 179.698 69.5425 179.698Z" fill="#252B61"/>
</svg>
