 <svg
                            xmlns="http://www.w3.org/2000/svg"
                            width="48"
                            height="48"
                            viewBox="0 0 48 48"
                            fill="none"
                          >
                            <g clip-path="url(#clip0_1_146)">
                              <path
                                opacity="0.8"
                                d="M24.794 7.60869L23.6458 0H6.80068C4.26416 0 2.25 2.0666 2.25 4.60283V36.4567C2.25 38.993 4.26416 41.0177 6.80068 41.0177H22.7798L34.2917 23.5875V11.1574L24.794 7.60869Z"
                                fill="white"
                              />
                              <path
                                d="M23.646 0.010498L34.2605 11.1574H27.1947C25.2324 11.1574 23.646 9.57095 23.646 7.60864V0.010498Z"
                                fill="#EAE3E3"
                              />
                              <path
                                d="M23.2389 23.9008H9.63955C9.06562 23.9008 8.5957 24.3707 8.5957 24.9446C8.5957 25.5188 9.06562 25.9882 9.63955 25.9882H23.2389C23.8128 25.9882 24.2827 25.5188 24.2827 24.9446C24.2827 24.3707 23.8236 23.9008 23.2389 23.9008Z"
                                fill="#083863"
                              />
                              <path
                                d="M9.63955 20.7698H20.2122C20.7861 20.7698 21.2561 20.3001 21.2561 19.7259C21.2561 19.152 20.7861 18.6824 20.2122 18.6824H9.63955C9.06563 18.6824 8.5957 19.152 8.5957 19.7259C8.5957 20.3001 9.06563 20.7698 9.63955 20.7698Z"
                                fill="#083863"
                              />
                              <path
                                d="M19.805 29.2236H9.63955C9.06563 29.2236 8.5957 29.6936 8.5957 30.2672C8.5957 30.8414 9.06563 31.311 9.63955 31.311H19.805C20.3792 31.311 20.8488 30.8414 20.8488 30.2672C20.8488 29.6936 20.3792 29.2236 19.805 29.2236Z"
                                fill="#083863"
                              />
                              <path
                                d="M34.2602 21.5109C40.7313 22.4186 45.7094 27.9712 45.7094 34.6925C45.7094 42.0401 39.7501 48 32.4024 48C27.3511 48 22.9466 45.1819 20.7024 41.0279C19.6797 39.1389 19.0952 36.9785 19.0952 34.6822C19.0952 27.3346 25.0548 21.375 32.4024 21.375C33.0288 21.3855 33.6443 21.4274 34.2602 21.5109Z"
                                fill="#00A5FF"
                              />
                              <path
                                d="M33.1435 26.99C32.9454 26.7814 32.6738 26.656 32.3817 26.656C32.0894 26.656 31.8181 26.7814 31.6197 26.99L25.5034 33.5551C25.107 33.9726 25.1384 34.6406 25.5559 35.0264C25.7539 35.2145 26.0152 35.3085 26.2657 35.3085C26.5473 35.3085 26.8394 35.1934 27.0482 34.9746L31.3692 30.3506V41.7483C31.3692 42.3222 31.8389 42.7921 32.4128 42.7921C32.987 42.7921 33.4566 42.3222 33.4566 41.7483V30.3506L37.7463 34.9746C38.143 35.392 38.7901 35.4231 39.2179 35.0264C39.6354 34.63 39.6562 33.9726 39.27 33.5551L33.1435 26.99Z"
                                fill="white"
                              />
                            </g>
                            <defs>
                              <clipPath id="clip0_1_146">
                                <rect width="48" height="48" fill="white" />
                              </clipPath>
                            </defs>
                          </svg>