<svg xmlns="http://www.w3.org/2000/svg" width="14" height="13" viewBox="0 0 14 13" fill="none">
  <path d="M0.937822 6.44476C0.937488 7.51731 1.2177 8.56435 1.75041 9.48727L0.886719 12.6407L4.11391 11.7946C5.00311 12.2794 6.00425 12.535 7.02297 12.5354H7.0256C10.3806 12.5354 13.1118 9.80502 13.1133 6.44964C13.1139 4.8235 12.4811 3.29437 11.3318 2.14407C10.1824 0.993914 8.65407 0.360044 7.0256 0.359375C3.66998 0.359375 0.939159 3.08934 0.937822 6.44476ZM2.85973 9.32832L2.73923 9.13704C2.23269 8.33162 1.96533 7.40087 1.96571 6.44515C1.96676 3.6562 4.23651 1.38717 7.02751 1.38717C8.37912 1.38774 9.64934 1.91463 10.6047 2.8706C11.5601 3.82666 12.0858 5.09755 12.0854 6.44925C12.0842 9.2382 9.8144 11.5075 7.0256 11.5075H7.02359C6.11553 11.507 5.22495 11.2632 4.44828 10.8023L4.26345 10.6927L2.34837 11.1948L2.85973 9.32832Z" fill="url(#paint0_linear_241_437)"/>
  <path d="M1.12561 6.42448C1.12532 7.45977 1.39583 8.47066 1.91021 9.36167L1.07642 12.406L4.1919 11.5891C5.0536 12.0582 6.01907 12.304 7.00019 12.3041H7.00277C10.2416 12.3041 12.8781 9.66853 12.8795 6.42911C12.8801 4.85938 12.2694 3.38331 11.1597 2.2728C10.0502 1.16237 8.57469 0.550521 7.00253 0.549805C3.7633 0.549805 1.12699 3.1852 1.12566 6.42448" fill="url(#paint1_linear_241_437)"/>
  <path d="M5.48365 3.87867C5.36969 3.6254 5.24977 3.62029 5.1414 3.61584C5.05266 3.61202 4.95122 3.61231 4.84987 3.61231C4.74843 3.61231 4.58361 3.65047 4.44429 3.80259C4.30483 3.95484 3.91187 4.32279 3.91187 5.07114C3.91187 5.81949 4.45695 6.54277 4.53294 6.64435C4.60902 6.74575 5.58523 8.33062 7.13132 8.94032C8.41625 9.44701 8.67774 9.34623 8.95661 9.32082C9.23553 9.29551 9.8566 8.95298 9.98331 8.59779C10.1101 8.24264 10.1101 7.93822 10.0721 7.8746C10.0341 7.81123 9.93263 7.77316 9.78052 7.69713C9.6284 7.62109 8.88053 7.25306 8.74112 7.20229C8.60166 7.15157 8.50026 7.12625 8.39882 7.27856C8.29738 7.43063 8.00609 7.77316 7.91731 7.8746C7.82862 7.97628 7.73983 7.98894 7.58776 7.91286C7.43555 7.83654 6.94568 7.67611 6.36449 7.15796C5.91229 6.75477 5.60701 6.25688 5.51827 6.10457C5.42954 5.9525 5.50877 5.87007 5.58504 5.79427C5.65339 5.72612 5.73721 5.61665 5.81333 5.52787C5.88918 5.43903 5.91449 5.37566 5.96521 5.27421C6.01598 5.17268 5.99057 5.08384 5.9526 5.00776C5.91449 4.93168 5.6189 4.17941 5.48365 3.87867Z" fill="white"/>
  <defs>
    <linearGradient id="paint0_linear_241_437" x1="612.215" y1="1228.49" x2="612.215" y2="0.359375" gradientUnits="userSpaceOnUse">
      <stop stop-color="#F9F9F9"/>
      <stop offset="1" stop-color="white"/>
    </linearGradient>
    <linearGradient id="paint1_linear_241_437" x1="591.23" y1="1186.17" x2="591.23" y2="0.549805" gradientUnits="userSpaceOnUse">
      <stop stop-color="#1FAF38"/>
      <stop offset="1" stop-color="#60D669"/>
    </linearGradient>
  </defs>
</svg>