<svg xmlns="http://www.w3.org/2000/svg" width="50" height="51" viewBox="0 0 50 51" fill="none">
  <ellipse opacity="0.6" cx="25" cy="25.5" rx="25" ry="25.5" fill="#D9D9D9"/>
  <path d="M39.2632 34.7744L37.7517 34.1926C37.6303 34.1458 37.5026 34.1264 37.3727 34.1348L36.538 34.1894L33.6894 29.4163L32.7399 23.6859C32.6216 22.9722 32.3044 22.3126 31.8225 21.7785L31.8025 21.7564C31.1467 21.0296 30.2548 20.5895 29.2903 20.5153C29.2892 20.5151 29.2881 20.5151 29.2869 20.5149C29.2817 20.5145 29.2765 20.5138 29.2713 20.5134C29.248 20.5117 28.5513 20.429 28.3527 20.2833C28.4033 20.2321 28.4424 20.1684 28.4647 20.0959L28.82 18.939L29.2435 18.7868C29.4723 18.7046 29.596 18.4537 29.5235 18.2189L28.9464 16.3502C28.943 15.7954 28.7596 15.2473 28.4287 14.8052C27.9366 14.1477 27.1567 13.7553 26.3423 13.7553C26.1307 13.7553 25.9217 13.7821 25.7194 13.8327C25.4948 13.3261 25.0005 13 24.4503 13C23.683 13 23.0587 13.6325 23.0587 14.4099C23.0587 14.9403 23.3453 15.4091 23.7869 15.65C23.6999 15.9099 23.654 16.1839 23.654 16.4591C23.654 17.2244 24.5744 18.4841 24.5744 18.5156V20.0512L23.0383 20.6319C22.1705 20.96 21.4287 21.538 20.8931 22.3035L18.6836 25.4614L17.5714 25.9332C17.2321 26.0771 16.9208 26.2755 16.646 26.523L13.1516 29.6699C13.0552 29.7568 13 29.8812 13 30.012C13 30.012 13.052 32.6654 13.0505 32.6658C13.0503 32.6659 15.0115 35.0245 15.0115 35.0245C14.8728 35.1051 14.7476 35.2105 14.6427 35.3387C14.3845 35.654 14.2793 36.0658 14.3539 36.4685C14.4542 37.0086 14.861 37.4349 15.3903 37.5544C15.7128 37.6273 16.0392 37.6639 16.3664 37.6639C16.5942 37.6639 16.8225 37.6462 17.05 37.6107L17.7102 37.5078C18.0762 37.4508 18.4436 37.4697 18.802 37.5641C19.4164 37.7256 20.0511 37.395 20.2783 36.7943L20.3537 36.5949L20.9538 36.9553C22.0916 37.6388 23.3922 38 24.7149 38H25.7673C26.723 38 27.6211 37.5268 28.1699 36.7342C28.5485 36.1874 28.7357 35.5192 28.6971 34.8524L28.6132 33.4038L28.9394 28.2893L29.5719 27.1133L30.5851 30.288C30.7735 30.8786 31.0625 31.4243 31.444 31.91L35.1817 36.6686C35.3541 36.8881 35.6117 37.014 35.8886 37.014H38.8575C39.4875 37.014 40 36.4947 40 35.8565C40 35.3788 39.7039 34.9439 39.2632 34.7744ZM22.8563 28.8792C22.9263 29.2151 22.9577 29.5574 22.9526 29.8988L20.0643 28.4522C20.213 28.3162 20.3515 28.1681 20.4777 28.0088L21.4107 26.8307C21.4784 27.7266 22.0288 28.518 22.8563 28.8792ZM19.2046 29.0427L22.8381 30.8624C22.7908 31.0717 22.7289 31.2779 22.6528 31.4793L21.9411 31.6656L17.8478 29.6807C17.8478 29.6807 19.1036 29.093 19.2046 29.0427ZM23.7858 30.7154C23.7919 30.6902 23.7959 30.6648 23.7977 30.6394C23.8756 30.1042 23.8766 29.5581 23.7984 29.0209L27.9772 29.1813L27.7463 32.8024L23.582 31.5652C23.6724 31.2875 23.7399 31.0031 23.7858 30.7154ZM28.0355 28.2676L23.3446 28.0875C22.6519 27.8571 22.2224 27.166 22.3214 26.431L22.4544 25.443L23.7975 21.3218L24.4159 21.088L24.2731 21.7793C24.0824 22.702 24.152 23.6572 24.4745 24.5416C24.5417 24.7261 24.7143 24.8407 24.8981 24.8407C24.9478 24.8407 24.9984 24.8323 25.0479 24.8147L25.0871 24.8008C26.3314 24.3564 27.3652 23.407 27.9233 22.1957L28.3361 21.3C28.4487 21.3411 28.565 21.3725 28.6843 21.3936L28.5341 22.0884C28.2155 23.5634 28.3391 25.0731 28.8889 26.4702L28.0355 28.2676ZM27.2506 20.4176C27.2506 20.4176 27.5092 20.7439 27.5678 20.8037L27.1048 21.8085C26.7096 22.6661 26.0227 23.3631 25.1852 23.7701C25.0439 23.1805 25.0336 22.5653 25.1573 21.9669L25.4682 20.4627C25.4693 20.4576 25.4778 19.8558 25.4778 19.8558L25.6636 20.1863C25.7439 20.3293 25.8938 20.4176 26.0561 20.4176L27.2506 20.4176ZM28.3048 18.1531C28.1707 18.2013 28.0669 18.3107 28.0246 18.4484L27.7009 19.5023H26.3187L25.7034 18.4074C25.7117 18.3405 25.7049 18.2728 25.6846 18.209L26.645 17.5575C26.6888 17.5278 26.727 17.4906 26.7581 17.4476L27.1694 16.8788H28.163L28.5314 18.0716L28.3048 18.1531ZM27.7088 15.3582C27.8434 15.5382 27.9403 15.7452 27.9941 15.9635H26.9403C26.7963 15.9635 26.6609 16.033 26.5758 16.1507L26.0763 16.8418L25.0003 17.5716C24.7193 17.2754 24.5574 16.8772 24.5574 16.4591C24.5574 16.1156 24.669 15.7749 24.8717 15.4995L24.9676 15.3693C25.2897 14.9318 25.8036 14.6706 26.3423 14.6706C26.8757 14.6706 27.3865 14.9276 27.7088 15.3582ZM24.4503 13.9153C24.6409 13.9153 24.8119 14.0273 24.8921 14.2013C24.6448 14.3677 24.4242 14.5765 24.2434 14.8221L24.2238 14.8487C24.0653 14.7653 23.9621 14.5987 23.9621 14.4099C23.9621 14.1372 24.1811 13.9153 24.4503 13.9153ZM13.9034 30.2175L17.2462 27.207C17.4464 27.0268 17.6732 26.8823 17.9202 26.7774C17.9202 26.7774 19.3419 26.0991 19.3458 26.0976L21.6301 22.8329C21.9144 22.4265 22.2715 22.0864 22.6818 21.8259L21.6091 25.1177L19.7731 27.4359C19.4542 27.8385 18.5357 28.3401 18.5251 28.3452L14.8545 30.099C14.6868 30.1791 14.5844 30.3548 14.5963 30.5422L14.7108 32.3484L13.9034 32.1121L13.9034 30.2175ZM16.3476 34.8425H16.0441L14.7658 33.3172L15.0219 33.3922L17.003 34.5822C16.8279 34.7461 16.5956 34.8425 16.3476 34.8425ZM19.4347 36.4669C19.3723 36.6318 19.1984 36.7226 19.0293 36.6783C18.5512 36.5523 18.0611 36.527 17.5728 36.6032L16.9127 36.706C16.4701 36.775 16.024 36.7599 15.5869 36.6611C15.4107 36.6213 15.2751 36.4793 15.2418 36.2994C15.2077 36.1158 15.2874 35.9848 15.338 35.9231C15.3885 35.8613 15.5008 35.7578 15.6852 35.7578H16.3476C16.9188 35.7578 17.4473 35.4939 17.7967 35.059L19.5653 36.1213L19.4347 36.4669ZM27.4303 36.2085C27.0505 36.7572 26.4288 37.0847 25.7673 37.0847H24.7149C23.5542 37.0847 22.4129 36.7678 21.4145 36.168L15.6383 32.6983L15.5176 30.7941L16.7938 30.1843L21.6996 32.5632C21.7028 32.5616 22.9777 32.3395 22.9777 32.3395L27.7284 33.7509L27.7952 34.906C27.8219 35.3675 27.6924 35.8301 27.4303 36.2085ZM38.8575 36.0987H35.8886L32.1509 31.34C31.8372 30.9407 31.5996 30.492 31.4447 30.0065L30.108 25.8182C30.0525 25.6442 29.9 25.5204 29.7202 25.5033C29.6522 25.4971 29.5852 25.5067 29.5235 25.5295C29.2207 24.4771 29.1821 23.3699 29.4166 22.2842L29.5903 21.4808C30.1819 21.6051 30.7207 21.914 31.1357 22.374L31.1557 22.3961C31.5198 22.7997 31.7596 23.2981 31.849 23.8374L32.8127 29.654C32.8222 29.711 32.8422 29.7657 32.8717 29.8151L35.9068 34.9008C35.9941 35.0469 36.1559 35.1317 36.3224 35.1207L37.4309 35.0482L38.9424 35.63C39.0347 35.6655 39.0966 35.7565 39.0966 35.8565C39.0966 35.9901 38.9893 36.0987 38.8575 36.0987Z" fill="black"/>
</svg>