<svg xmlns="http://www.w3.org/2000/svg" width="50" height="51" viewBox="0 0 50 51" fill="none">
  <ellipse opacity="0.6" cx="25" cy="25.5" rx="25" ry="25.5" fill="#D9D9D9"/>
  <path d="M35.3813 11.268C35.2232 10.8438 34.805 10.5698 34.3158 10.5698C34.082 10.5698 33.8575 10.6351 33.6665 10.7586L27.5583 14.708L27.4576 13.5094C27.3323 12.0169 26.1121 10.793 24.5564 10.5991C23.6185 10.4822 22.6996 10.7151 21.9697 11.2551C21.2498 11.7876 20.7964 12.5773 20.7254 13.4218L20.533 15.7129C20.0691 15.8522 19.6437 16.0896 19.2884 16.415L17.3645 18.1771C16.6912 18.7939 16.6627 19.7849 17.2997 20.4332L19.213 22.3804C18.7734 23.0585 18.498 23.8238 18.4143 24.6094L17.3087 34.9747L16.0158 36.5537C15.9191 36.6718 15.9035 36.8298 15.9756 36.9619C16.0477 37.0939 16.195 37.1774 16.3562 37.1774H19.085C19.32 37.1774 19.5105 37.0028 19.5105 36.7876V35.1821L21.8188 28.575C21.8905 28.37 21.7671 28.1506 21.5432 28.085C21.3197 28.0195 21.0799 28.1324 21.0083 28.3375L18.7744 34.7316H18.1897L19.1573 25.6611L21.7412 26.2397L21.5905 26.6709C21.5188 26.8759 21.6422 27.0953 21.8661 27.1609C22.0898 27.2265 22.3294 27.1135 22.401 26.9085L22.9028 25.472L26.3101 28.9397C26.397 29.0281 26.4619 29.1302 26.5029 29.243L28.6651 35.1846V36.7876C28.6651 37.0029 28.8556 37.1774 29.0906 37.1774H31.8195C31.9807 37.1774 32.128 37.094 32.2001 36.962C32.2722 36.8299 32.2566 36.6719 32.1599 36.5538L30.8505 34.9547L29.2426 28.3269C29.1072 27.7687 28.8884 27.2303 28.5924 26.7268L25.8778 22.109V20.9575C25.8778 20.7422 25.6873 20.5677 25.4523 20.5677C25.2173 20.5677 25.0268 20.7422 25.0268 20.9575V21.6847L21.7388 20.7891C22.0339 20.4555 22.2068 20.0464 22.2348 19.6184C22.3902 19.6589 22.554 19.681 22.7234 19.681H25.4522C26.4392 19.681 27.2421 18.9456 27.2421 18.0416C27.2421 18.0159 27.2393 17.9903 27.2338 17.9651L27.2247 17.9233L35.0042 12.4171C35.3913 12.1431 35.5394 11.6921 35.3813 11.268ZM18.6595 35.5111V36.3979H17.2072L17.9333 35.5111H18.6595ZM21.3883 19.1319V19.4952C21.3883 19.806 21.2647 20.1058 21.0404 20.339L20.7019 20.6909L19.607 19.3537L20.96 18.321C21.0181 18.6291 21.17 18.908 21.3883 19.1319ZM17.9323 19.9118C17.5982 19.5718 17.6131 19.052 17.9663 18.7284L19.8902 16.9663C20.1836 16.6976 20.5423 16.5106 20.9335 16.4171V17.3265L18.7518 18.9918C18.5778 19.1247 18.5479 19.3591 18.6837 19.5251L21.0641 22.4323C21.1365 22.5207 21.1268 22.6463 21.0415 22.7244C20.977 22.7835 20.9019 22.7908 20.8626 22.7898C20.8234 22.7889 20.7486 22.778 20.6876 22.7159L17.9323 19.9118ZM30.9684 36.3979H29.5162V35.5111H30.2423L30.9684 36.3979ZM27.8431 27.0964C28.102 27.5368 28.2933 28.0078 28.4118 28.496L29.9246 34.7316H29.3974L27.3103 28.9965C27.232 28.7814 27.1083 28.5868 26.9427 28.4182L24.6377 26.0724L26.509 24.827L27.8431 27.0964ZM25.1614 22.5348L26.1018 24.1344L24.0653 25.4898L23.0397 24.4461C22.9377 24.3424 22.7831 24.2964 22.6341 24.3258C22.4851 24.3551 22.3646 24.4551 22.3182 24.5881L22.0012 25.4955L19.2409 24.8774L19.2614 24.6853C19.3243 24.0946 19.514 23.5174 19.8143 22.9923L20.055 23.2373C20.2551 23.4409 20.5413 23.5618 20.8402 23.569C20.8496 23.5692 20.859 23.5693 20.8685 23.5693C21.1575 23.5693 21.4385 23.4631 21.6433 23.2756C22.0262 22.9249 22.0699 22.3612 21.745 21.9645L21.365 21.5004L25.1614 22.5348ZM25.4523 18.9015H22.7234C22.2057 18.9015 21.7846 18.5157 21.7846 18.0415V16.3483H22.8227C23.0008 16.8321 23.5004 17.1815 24.0879 17.1815C24.6753 17.1815 25.175 16.8321 25.3531 16.3483H26.0131L26.3904 18.0766C26.3702 18.5346 25.9571 18.9015 25.4523 18.9015ZM24.4155 14.7018C23.8397 14.8201 23.1564 14.6003 22.8515 14.0445L24.7749 13.1637C24.9371 13.0894 25.1256 13.1016 25.2789 13.1965C25.3447 13.2371 25.4954 13.354 25.4771 13.5612C25.4686 13.6568 25.4481 13.754 25.4162 13.8503C25.2763 14.2714 24.8836 14.6057 24.4155 14.7018ZM24.5719 15.4678V15.9586C24.5719 16.2031 24.3547 16.402 24.0878 16.402C23.8208 16.402 23.6037 16.2031 23.6037 15.9586V15.4665C23.761 15.4981 23.9236 15.5149 24.0893 15.5149C24.2481 15.5149 24.4096 15.4991 24.5719 15.4678ZM26.2268 15.5688H25.4229V15.1142C25.8009 14.8574 26.0921 14.4936 26.2304 14.0769C26.2799 13.9275 26.3119 13.7751 26.3252 13.6242C26.3631 13.1961 26.15 12.7947 25.7551 12.5505C25.3499 12.2997 24.8284 12.2676 24.3942 12.4664L22.134 13.5015C21.9567 13.5827 21.8641 13.7653 21.9106 13.9418C22.0401 14.4322 22.346 14.8363 22.7527 15.1122V15.5688H21.3987L21.5739 13.4816C21.627 12.8503 21.9661 12.2598 22.5043 11.8616C23.05 11.4578 23.7381 11.2838 24.4416 11.3715C25.6027 11.5162 26.5143 12.4405 26.6091 13.5692L26.7486 15.2314L26.2268 15.5688ZM34.4838 11.8003L27.0385 17.07L26.8334 16.1308L34.1573 11.3955C34.2039 11.3653 34.2587 11.3494 34.3157 11.3494C34.4931 11.3494 34.5568 11.4685 34.5758 11.5198C34.595 11.571 34.6242 11.7009 34.4838 11.8003Z" fill="black"/>
</svg>