<svg width="29" height="29" viewBox="0 0 29 29" fill="none" xmlns="http://www.w3.org/2000/svg">
<g id="Icon">
<path id="Vector" d="M14.5 5.30665C16.18 5.30665 17.72 5.71109 19.12 6.51998C20.52 7.32887 21.6555 8.44887 22.5266 9.87998V5.95998C22.5266 5.77331 22.5888 5.61776 22.7133 5.49331C22.8377 5.36887 22.9933 5.30665 23.18 5.30665C23.3666 5.30665 23.5222 5.36887 23.6466 5.49331C23.7711 5.61776 23.8333 5.77331 23.8333 5.95998V11.28C23.8333 11.4666 23.7711 11.6222 23.6466 11.7466C23.5222 11.8711 23.3666 11.9333 23.18 11.9333H17.86C17.6733 11.9333 17.5177 11.8711 17.3933 11.7466C17.2688 11.6222 17.2066 11.4666 17.2066 11.28C17.2066 11.0933 17.2688 10.9378 17.3933 10.8133C17.5177 10.6889 17.6733 10.6266 17.86 10.6266H21.4066C20.7222 9.3822 19.7577 8.4022 18.5133 7.68665C17.2688 6.97109 15.9311 6.61331 14.5 6.61331C13.0688 6.61331 11.7311 6.97109 10.4866 7.68665C9.24218 8.4022 8.26218 9.3822 7.54663 10.6266C6.83107 11.8711 6.47329 13.2089 6.47329 14.64C6.47329 16.0711 6.83107 17.4089 7.54663 18.6533C8.26218 19.8978 9.24218 20.8778 10.4866 21.5933C11.7311 22.3089 13.0688 22.6666 14.5 22.6666C15.7444 22.6666 16.9111 22.3866 18 21.8266C19.0888 21.2666 20.0377 20.52 20.8466 19.5866C20.9711 19.3378 21.1577 19.2289 21.4066 19.26C21.6555 19.2911 21.8422 19.4311 21.9666 19.68C22.0911 19.9289 22.06 20.1778 21.8733 20.4266C20.6288 21.9822 19.0577 23.04 17.16 23.6C15.2622 24.16 13.3644 24.1133 11.4666 23.46C9.56885 22.8066 8.0444 21.6711 6.89329 20.0533C5.74218 18.4355 5.16663 16.6311 5.16663 14.64C5.16663 12.96 5.58663 11.4044 6.42663 9.97331C7.26663 8.5422 8.40218 7.40665 9.83329 6.56665C11.2644 5.72665 12.82 5.30665 14.5 5.30665Z" fill="#9747FF"/>
</g>
</svg>
