<svg width="21" height="21" viewBox="0 0 21 21" fill="none" xmlns="http://www.w3.org/2000/svg">
<path d="M17.5667 10.25C17.5667 10.3833 17.5111 10.5055 17.4 10.6166C17.2889 10.7277 17.1667 10.7833 17.0333 10.7833H11.0333V16.3833C11.0333 16.5166 10.9778 16.6388 10.8667 16.75C10.7556 16.8611 10.6333 16.9166 10.5 16.9166C10.3667 16.9166 10.2445 16.8611 10.1333 16.75C10.0222 16.6388 9.96668 16.5166 9.96668 16.3833V10.7833H3.96668C3.83335 10.7833 3.71113 10.7277 3.60002 10.6166C3.48891 10.5055 3.43335 10.3833 3.43335 10.25C3.43335 10.1166 3.48891 9.9944 3.60002 9.88329C3.71113 9.77218 3.83335 9.71663 3.96668 9.71663H9.96668V4.11662C9.96668 3.93885 10.0222 3.80551 10.1333 3.71663C10.2445 3.62774 10.3667 3.58329 10.5 3.58329C10.6333 3.58329 10.7556 3.62774 10.8667 3.71663C10.9778 3.80551 11.0333 3.93885 11.0333 4.11662V9.71663H17.0333C17.1667 9.71663 17.2889 9.77218 17.4 9.88329C17.5111 9.9944 17.5667 10.1166 17.5667 10.25Z" fill="#A2A9B4"/>
</svg>
