<svg xmlns="http://www.w3.org/2000/svg" width="13" height="14" viewBox="0 0 13 14" fill="none">
  <path d="M8.42304 11.7883C8.36571 11.7883 8.31073 11.7656 8.2702 11.725L6.5611 10.0159C6.52057 9.97537 6.4978 9.92039 6.4978 9.86306C6.4978 9.80574 6.52057 9.75076 6.5611 9.71022L10.1345 6.13659C10.175 6.09604 10.23 6.07325 10.2874 6.07324C10.3447 6.07325 10.3997 6.09604 10.4402 6.13659L12.1495 7.84568C12.19 7.88622 12.2128 7.9412 12.2128 7.99853C12.2128 8.05585 12.19 8.11083 12.1495 8.15137L8.57589 11.725C8.53535 11.7656 8.48037 11.7883 8.42304 11.7883ZM7.01964 9.86306L8.42304 11.2665L11.6911 7.99853L10.2876 6.59513L7.01964 9.86306Z" fill="#978585"/>
  <path d="M6.01479 12.4876C5.98125 12.4876 5.94818 12.4798 5.91818 12.4648C5.88817 12.4498 5.86207 12.4281 5.84193 12.4013C5.82178 12.3745 5.80816 12.3433 5.80212 12.3103C5.79608 12.2774 5.7978 12.2434 5.80714 12.2112L6.5063 9.80285C6.51678 9.76677 6.53648 9.73405 6.56346 9.7079C6.59044 9.68176 6.62377 9.6631 6.66016 9.65376C6.69654 9.64442 6.73474 9.64472 6.77097 9.65464C6.80721 9.66456 6.84023 9.68375 6.8668 9.71032L8.57589 11.4194C8.60246 11.446 8.62165 11.479 8.63156 11.5152C8.64148 11.5515 8.64178 11.5897 8.63244 11.626C8.6231 11.6624 8.60444 11.6958 8.5783 11.7227C8.55216 11.7497 8.51944 11.7694 8.48336 11.7799L6.075 12.4791C6.05544 12.4848 6.03516 12.4877 6.01479 12.4876ZM6.81956 10.2746L6.33194 11.9543L8.01163 11.4666L6.81956 10.2746Z" fill="#978585"/>
  <path d="M8.42304 11.7883C8.36571 11.7883 8.31073 11.7656 8.2702 11.725L6.5611 10.0159C6.52057 9.97537 6.4978 9.92039 6.4978 9.86306C6.4978 9.80574 6.52057 9.75076 6.5611 9.71022L10.1345 6.13659C10.175 6.09604 10.23 6.07325 10.2874 6.07324C10.3447 6.07325 10.3997 6.09604 10.4402 6.13659L12.1495 7.84568C12.19 7.88622 12.2128 7.9412 12.2128 7.99853C12.2128 8.05585 12.19 8.11083 12.1495 8.15137L8.57589 11.725C8.53535 11.7656 8.48037 11.7883 8.42304 11.7883ZM7.01964 9.86306L8.42304 11.2665L11.6911 7.99853L10.2876 6.59513L7.01964 9.86306Z" fill="#978585"/>
  <path d="M6.01479 12.4876C5.98125 12.4876 5.94818 12.4798 5.91818 12.4648C5.88817 12.4498 5.86207 12.4281 5.84193 12.4013C5.82178 12.3745 5.80816 12.3433 5.80212 12.3103C5.79608 12.2774 5.7978 12.2434 5.80714 12.2112L6.5063 9.80285C6.51678 9.76677 6.53648 9.73405 6.56346 9.7079C6.59044 9.68176 6.62377 9.6631 6.66016 9.65376C6.69654 9.64442 6.73474 9.64472 6.77097 9.65464C6.80721 9.66456 6.84023 9.68375 6.8668 9.71032L8.57589 11.4194C8.60246 11.446 8.62165 11.479 8.63156 11.5152C8.64148 11.5515 8.64178 11.5897 8.63244 11.626C8.6231 11.6624 8.60444 11.6958 8.5783 11.7227C8.55216 11.7497 8.51944 11.7694 8.48336 11.7799L6.075 12.4791C6.05544 12.4848 6.03516 12.4877 6.01479 12.4876ZM6.81956 10.2746L6.33194 11.9543L8.01163 11.4666L6.81956 10.2746Z" fill="#978585"/>
  <path d="M11.9965 8.21467C11.9392 8.21465 11.8842 8.19187 11.8437 8.15132L10.1343 6.44255C10.0938 6.40201 10.071 6.34703 10.071 6.2897C10.071 6.23238 10.0938 6.1774 10.1343 6.13686L10.6238 5.64729C10.7613 5.51013 10.9475 5.43311 11.1417 5.43311C11.3359 5.43311 11.5222 5.51013 11.6597 5.64729L12.6386 6.6262C12.7758 6.7637 12.8528 6.94998 12.8528 7.1442C12.8528 7.33841 12.7758 7.5247 12.6386 7.66219L12.1491 8.15165C12.1086 8.19202 12.0537 8.21468 11.9965 8.21467ZM10.5931 6.28938L11.9965 7.69278L12.3331 7.35617C12.3893 7.29985 12.4209 7.22352 12.4209 7.14393C12.4209 7.06434 12.3893 6.988 12.3331 6.93168L11.3542 5.95266C11.2979 5.89643 11.2215 5.86485 11.142 5.86485C11.0624 5.86485 10.986 5.89643 10.9297 5.95266L10.5931 6.28938Z" fill="#978585"/>
  <path d="M11.6423 2.30016H0.216191C0.158853 2.30016 0.103864 2.27738 0.0633207 2.23684C0.0227771 2.1963 0 2.14131 0 2.08397V1.61289C0.000486366 1.18527 0.170572 0.775312 0.472942 0.472942C0.775312 0.170572 1.18527 0.000486366 1.61289 0L10.2457 0C10.6733 0.00051497 11.0832 0.170613 11.3856 0.47298C11.6879 0.775347 11.858 1.18529 11.8585 1.61289V2.08397C11.8585 2.14131 11.8357 2.1963 11.7952 2.23684C11.7546 2.27738 11.6996 2.30016 11.6423 2.30016ZM0.432813 1.86778H11.4261V1.61289C11.4258 1.29991 11.3013 0.999847 11.08 0.77853C10.8587 0.557213 10.5587 0.432724 10.2457 0.432381H1.61289C1.2999 0.432724 0.999837 0.557209 0.778523 0.778523C0.557209 0.999837 0.432724 1.2999 0.432381 1.61289L0.432813 1.86778Z" fill="#978585"/>
  <path d="M10.246 13.8363H1.61257C1.18504 13.8358 0.775156 13.6657 0.472847 13.3634C0.170537 13.0611 0.000486366 12.6512 0 12.2237V2.08435C0 2.02702 0.0227771 1.97203 0.0633207 1.93148C0.103864 1.89094 0.158853 1.86816 0.216191 1.86816H11.6419C11.6992 1.86816 11.7542 1.89094 11.7947 1.93148C11.8353 1.97203 11.8581 2.02702 11.8581 2.08435V5.93601C11.8581 5.99334 11.8353 6.04833 11.7947 6.08887C11.7542 6.12942 11.6992 6.1522 11.6419 6.1522C11.5845 6.1522 11.5295 6.12942 11.489 6.08887C11.4484 6.04833 11.4257 5.99334 11.4257 5.93601V2.30022H0.432381V12.2234C0.432667 12.5363 0.557089 12.8364 0.778345 13.0577C0.999601 13.279 1.29962 13.4035 1.61257 13.4039H10.246C10.5589 13.4035 10.8589 13.279 11.0801 13.0578C11.3013 12.8365 11.4258 12.5366 11.4261 12.2237V8.35193C11.4261 8.2946 11.4489 8.23961 11.4894 8.19907C11.53 8.15852 11.585 8.13574 11.6423 8.13574C11.6996 8.13574 11.7546 8.15852 11.7952 8.19907C11.8357 8.23961 11.8585 8.2946 11.8585 8.35193V12.2237C11.858 12.6512 11.688 13.0611 11.3857 13.3634C11.0834 13.6657 10.6735 13.8358 10.246 13.8363Z" fill="#978585"/>
  <path d="M5.49 6.14543H1.53479C1.47746 6.14543 1.42247 6.12265 1.38192 6.08211C1.34138 6.04156 1.3186 5.98658 1.3186 5.92924V3.29236C1.3186 3.23503 1.34138 3.18004 1.38192 3.13949C1.42247 3.09895 1.47746 3.07617 1.53479 3.07617H5.49C5.54734 3.07617 5.60233 3.09895 5.64287 3.13949C5.68341 3.18004 5.70619 3.23503 5.70619 3.29236V5.92924C5.70619 5.98658 5.68341 6.04156 5.64287 6.08211C5.60233 6.12265 5.54734 6.14543 5.49 6.14543ZM1.75098 5.71305H5.27381V3.50855H1.75098V5.71305Z" fill="#978585"/>
  <path d="M10.324 3.50855H6.36878C6.31144 3.50855 6.25645 3.48578 6.21591 3.44523C6.17536 3.40469 6.15259 3.3497 6.15259 3.29236C6.15259 3.23503 6.17536 3.18004 6.21591 3.13949C6.25645 3.09895 6.31144 3.07617 6.36878 3.07617H10.324C10.3813 3.07617 10.4363 3.09895 10.4769 3.13949C10.5174 3.18004 10.5402 3.23503 10.5402 3.29236C10.5402 3.3497 10.5174 3.40469 10.4769 3.44523C10.4363 3.48578 10.3813 3.50855 10.324 3.50855Z" fill="#978585"/>
  <path d="M9.66482 4.82691H6.36878C6.31144 4.82691 6.25645 4.80414 6.21591 4.76359C6.17536 4.72305 6.15259 4.66806 6.15259 4.61072C6.15259 4.55338 6.17536 4.4984 6.21591 4.45785C6.25645 4.41731 6.31144 4.39453 6.36878 4.39453H9.66482C9.72216 4.39453 9.77715 4.41731 9.81769 4.45785C9.85823 4.4984 9.88101 4.55338 9.88101 4.61072C9.88101 4.66806 9.85823 4.72305 9.81769 4.76359C9.77715 4.80414 9.72216 4.82691 9.66482 4.82691Z" fill="#978585"/>
  <path d="M8.86491 6.25562H6.36878C6.31144 6.25562 6.25645 6.23285 6.21591 6.1923C6.17536 6.15176 6.15259 6.09677 6.15259 6.03943C6.15259 5.9821 6.17536 5.92711 6.21591 5.88656C6.25645 5.84602 6.31144 5.82324 6.36878 5.82324H8.86491C8.92225 5.82324 8.97724 5.84602 9.01778 5.88656C9.05833 5.92711 9.0811 5.9821 9.0811 6.03943C9.0811 6.09677 9.05833 6.15176 9.01778 6.1923C8.97724 6.23285 8.92225 6.25562 8.86491 6.25562Z" fill="#978585"/>
  <path d="M5.49 8.01295H1.53479C1.47746 8.01295 1.42247 7.99017 1.38192 7.94963C1.34138 7.90908 1.3186 7.85409 1.3186 7.79676C1.3186 7.73942 1.34138 7.68443 1.38192 7.64389C1.42247 7.60334 1.47746 7.58057 1.53479 7.58057H5.49C5.54734 7.58057 5.60233 7.60334 5.64287 7.64389C5.68341 7.68443 5.70619 7.73942 5.70619 7.79676C5.70619 7.85409 5.68341 7.90908 5.64287 7.94963C5.60233 7.99017 5.54734 8.01295 5.49 8.01295Z" fill="#978585"/>
  <path d="M2.7807 9.11256H1.53479C1.47746 9.11256 1.42247 9.08978 1.38192 9.04924C1.34138 9.00869 1.3186 8.9537 1.3186 8.89637C1.3186 8.83903 1.34138 8.78404 1.38192 8.7435C1.42247 8.70295 1.47746 8.68018 1.53479 8.68018H2.7807C2.83804 8.68018 2.89303 8.70295 2.93357 8.7435C2.97411 8.78404 2.99689 8.83903 2.99689 8.89637C2.99689 8.9537 2.97411 9.00869 2.93357 9.04924C2.89303 9.08978 2.83804 9.11256 2.7807 9.11256Z" fill="#978585"/>
  <path d="M6.22807 9.11256H3.49109C3.43376 9.11256 3.37877 9.08978 3.33822 9.04924C3.29768 9.00869 3.2749 8.9537 3.2749 8.89637C3.2749 8.83903 3.29768 8.78404 3.33822 8.7435C3.37877 8.70295 3.43376 8.68018 3.49109 8.68018H6.22807C6.2854 8.68018 6.34039 8.70295 6.38094 8.7435C6.42148 8.78404 6.44426 8.83903 6.44426 8.89637C6.44426 8.9537 6.42148 9.00869 6.38094 9.04924C6.34039 9.08978 6.2854 9.11256 6.22807 9.11256Z" fill="#978585"/>
  <path d="M5.23944 10.2107H1.53479C1.47746 10.2107 1.42247 10.1879 1.38192 10.1474C1.34138 10.1068 1.3186 10.0518 1.3186 9.99451C1.3186 9.93717 1.34138 9.88218 1.38192 9.84164C1.42247 9.8011 1.47746 9.77832 1.53479 9.77832H5.23944C5.29677 9.77832 5.35176 9.8011 5.39231 9.84164C5.43285 9.88218 5.45563 9.93717 5.45563 9.99451C5.45563 10.0518 5.43285 10.1068 5.39231 10.1474C5.35176 10.1879 5.29677 10.2107 5.23944 10.2107Z" fill="#978585"/>
  <path d="M1.95788 11.3088H1.53479C1.47746 11.3088 1.42247 11.2861 1.38192 11.2455C1.34138 11.205 1.3186 11.15 1.3186 11.0927C1.3186 11.0353 1.34138 10.9803 1.38192 10.9398C1.42247 10.8992 1.47746 10.8765 1.53479 10.8765H1.95788C2.01522 10.8765 2.07021 10.8992 2.11075 10.9398C2.15129 10.9803 2.17407 11.0353 2.17407 11.0927C2.17407 11.15 2.15129 11.205 2.11075 11.2455C2.07021 11.2861 2.01522 11.3088 1.95788 11.3088Z" fill="#978585"/>
  <path d="M4.09022 11.3088H2.78064C2.72331 11.3088 2.66832 11.2861 2.62777 11.2455C2.58723 11.205 2.56445 11.15 2.56445 11.0927C2.56445 11.0353 2.58723 10.9803 2.62777 10.9398C2.66832 10.8992 2.72331 10.8765 2.78064 10.8765H4.09022C4.14756 10.8765 4.20254 10.8992 4.24309 10.9398C4.28363 10.9803 4.30641 11.0353 4.30641 11.0927C4.30641 11.15 4.28363 11.205 4.24309 11.2455C4.20254 11.2861 4.14756 11.3088 4.09022 11.3088Z" fill="#978585"/>
  <path d="M3.70775 12.408H1.53504C1.4777 12.408 1.42271 12.3852 1.38217 12.3446C1.34162 12.3041 1.31885 12.2491 1.31885 12.1918C1.31885 12.1344 1.34162 12.0795 1.38217 12.0389C1.42271 11.9984 1.4777 11.9756 1.53504 11.9756H3.70775C3.76509 11.9756 3.82008 11.9984 3.86062 12.0389C3.90117 12.0795 3.92394 12.1344 3.92394 12.1918C3.92394 12.2491 3.90117 12.3041 3.86062 12.3446C3.82008 12.3852 3.76509 12.408 3.70775 12.408Z" fill="#978585"/>
</svg>