<svg xmlns="http://www.w3.org/2000/svg" width="14" height="14" viewBox="0 0 14 14" fill="none">
  <path d="M11.375 3.5H11.0833V1.45833C11.0833 0.653917 10.4294 0 9.625 0H2.625C1.17775 0 0 1.17775 0 2.625V7.875C0 9.32225 1.17775 10.5 2.625 10.5H2.91667V11.375C2.91667 12.8222 4.09442 14 5.54167 14H11.375C12.8222 14 14 12.8222 14 11.375V6.125C14 4.67775 12.8222 3.5 11.375 3.5ZM10.5 3.5H4.536L10.2608 0.858083C10.409 1.015 10.5 1.22617 10.5 1.45833V3.5ZM2.625 9.91667C1.49917 9.91667 0.583333 9.00083 0.583333 7.875V2.625C0.583333 1.49917 1.49917 0.583333 2.625 0.583333H9.46342L4.10258 3.05725C3.38217 3.38975 2.91667 4.11717 2.91667 4.91167V9.91667H2.625ZM13.4167 11.375C13.4167 12.5008 12.5008 13.4167 11.375 13.4167H5.54167C4.41583 13.4167 3.5 12.5008 3.5 11.375V4.91167C3.5 4.6095 3.59392 4.32133 3.75958 4.08158C3.77067 4.08275 3.78058 4.08333 3.79167 4.08333H11.375C12.5008 4.08333 13.4167 4.99917 13.4167 6.125V11.375ZM11.6667 7C11.6667 7.161 11.536 7.29167 11.375 7.29167H9.04167C8.88067 7.29167 8.75 7.161 8.75 7C8.75 6.839 8.88067 6.70833 9.04167 6.70833H11.375C11.536 6.70833 11.6667 6.839 11.6667 7ZM6.70833 5.83333H6.125C5.64258 5.83333 5.25 6.22592 5.25 6.70833V7.29167C5.25 7.77408 5.64258 8.16667 6.125 8.16667H6.70833C7.19075 8.16667 7.58333 7.77408 7.58333 7.29167V6.70833C7.58333 6.22592 7.19075 5.83333 6.70833 5.83333ZM7 7.29167C7 7.45208 6.86875 7.58333 6.70833 7.58333H6.125C5.96458 7.58333 5.83333 7.45208 5.83333 7.29167V6.70833C5.83333 6.54792 5.96458 6.41667 6.125 6.41667H6.70833C6.86875 6.41667 7 6.54792 7 6.70833V7.29167ZM11.6667 10.5C11.6667 10.661 11.536 10.7917 11.375 10.7917H9.04167C8.88067 10.7917 8.75 10.661 8.75 10.5C8.75 10.339 8.88067 10.2083 9.04167 10.2083H11.375C11.536 10.2083 11.6667 10.339 11.6667 10.5ZM6.70833 9.33333H6.125C5.64258 9.33333 5.25 9.72592 5.25 10.2083V10.7917C5.25 11.2741 5.64258 11.6667 6.125 11.6667H6.70833C7.19075 11.6667 7.58333 11.2741 7.58333 10.7917V10.2083C7.58333 9.72592 7.19075 9.33333 6.70833 9.33333ZM7 10.7917C7 10.9521 6.86875 11.0833 6.70833 11.0833H6.125C5.96458 11.0833 5.83333 10.9521 5.83333 10.7917V10.2083C5.83333 10.0479 5.96458 9.91667 6.125 9.91667H6.70833C6.86875 9.91667 7 10.0479 7 10.2083V10.7917Z" fill="#808080"/>
</svg>