<svg xmlns="http://www.w3.org/2000/svg" width="14" height="15" viewBox="0 0 14 15" fill="none">
  <path d="M0.36243 8.75343L1.59649 7.72551V14.7579C1.59649 14.8919 1.69683 15 1.82114 15H12.1774C12.3017 15 12.402 14.8919 12.402 14.7579V7.7239L13.6376 8.75343C13.678 8.78732 13.7259 8.80345 13.7754 8.80345C13.8098 8.80345 13.8427 8.79538 13.8742 8.77925C13.9506 8.73891 14 8.65499 14 8.5614V5.88591C14 5.81168 13.9685 5.74068 13.9131 5.69388L7.13778 0.050831C7.05691 -0.0169437 6.94459 -0.0169437 6.86371 0.050831L0.0868635 5.69388C0.0329482 5.74068 0 5.81168 0 5.88591V8.5614C0 8.65338 0.0494223 8.73729 0.125802 8.77925C0.202182 8.81959 0.293539 8.80991 0.36243 8.75343ZM11.9527 7.35114V14.5143H2.04579V7.35114L7 3.22333L11.9527 7.35114ZM0.449294 6.00532L7 0.549459L13.5507 6.00532V8.06923L7.13778 2.72471C7.09735 2.69082 7.04792 2.67468 7 2.67468C6.95208 2.67468 6.90265 2.69082 6.86222 2.72471L0.449294 8.06761V6.00532Z" fill="#8F7F7F"/>
  <path d="M4.3008 11.0548H5.94519V12.6992C5.94519 12.8656 6.07955 13 6.24599 13H7.75401C7.92045 13 8.05481 12.8656 8.05481 12.6992V11.0548H9.6992C9.86564 11.0548 10 10.9205 10 10.754V9.24599C10 9.07955 9.86564 8.94519 9.6992 8.94519H8.05481V7.3008C8.05481 7.13436 7.92045 7 7.75401 7H6.24599C6.07955 7 5.94519 7.13436 5.94519 7.3008V8.94519H4.3008C4.13436 8.94519 4 9.07955 4 9.24599V10.754C4 10.9205 4.13436 11.0548 4.3008 11.0548ZM4.6016 9.54679H6.24599C6.41243 9.54679 6.54679 9.41243 6.54679 9.24599V7.6016H7.45321V9.24599C7.45321 9.41243 7.58757 9.54679 7.75401 9.54679H9.3984V10.4532H7.75401C7.58757 10.4532 7.45321 10.5876 7.45321 10.754V12.3984H6.54679V10.754C6.54679 10.5876 6.41243 10.4532 6.24599 10.4532H4.6016V9.54679Z" fill="#8E7878"/>
</svg>