<svg xmlns="http://www.w3.org/2000/svg" width="15" height="14" viewBox="0 0 15 14" fill="none">
  <path d="M5.08059 8.05405H2.35762C1.99685 8.0561 1.65155 8.20085 1.39717 8.45668C1.14278 8.71251 0.999994 9.05863 1 9.41941V12.1424C1 12.5024 1.14303 12.8478 1.39764 13.1024C1.65224 13.357 1.99756 13.5 2.35762 13.5H5.08059C5.44131 13.5 5.78735 13.3572 6.04307 13.1028C6.29879 12.8484 6.44339 12.5031 6.44524 12.1424V9.41941C6.44524 9.05748 6.30147 8.71037 6.04555 8.45445C5.78963 8.19853 5.44252 8.05476 5.08059 8.05476M5.08059 0.5H2.35762C2.17934 0.5 2.0028 0.535116 1.83808 0.603343C1.67337 0.67157 1.52371 0.771571 1.39764 0.897638C1.27157 1.02371 1.17157 1.17337 1.10334 1.33808C1.03512 1.5028 1 1.67934 1 1.85762V4.58059C0.999995 4.94131 1.14281 5.28735 1.39721 5.54307C1.65161 5.79879 1.99691 5.94339 2.35762 5.94524H5.08059C5.44252 5.94524 5.78963 5.80147 6.04555 5.54555C6.30147 5.28963 6.44524 4.94252 6.44524 4.58059V1.85762C6.44339 1.49691 6.29879 1.15161 6.04307 0.897209C5.78735 0.642805 5.44131 0.499995 5.08059 0.5ZM12.6424 0.5H9.91941C9.55869 0.499995 9.21265 0.642805 8.95693 0.897209C8.70121 1.15161 8.55661 1.49691 8.55476 1.85762V4.58059C8.55494 4.94246 8.69878 5.28946 8.95466 5.54534C9.21054 5.80122 9.55754 5.94506 9.91941 5.94524H12.6424C13.0031 5.94339 13.3484 5.79879 13.6028 5.54307C13.8572 5.28735 14 4.94131 14 4.58059V1.85762C14 1.49756 13.857 1.15224 13.6024 0.897638C13.3478 0.643035 13.0024 0.5 12.6424 0.5ZM11.277 8.05405C10.5548 8.05405 9.86225 8.34094 9.35159 8.85159C8.84094 9.36225 8.55405 10.0548 8.55405 10.777C8.55405 11.4992 8.84094 12.1918 9.35159 12.7025C9.86225 13.2131 10.5548 13.5 11.277 13.5C11.9992 13.5 12.6918 13.2131 13.2025 12.7025C13.7131 12.1918 14 11.4992 14 10.777C14 10.0548 13.7131 9.36225 13.2025 8.85159C12.6918 8.34094 11.9992 8.05405 11.277 8.05405Z" stroke="#808080" stroke-linecap="round" stroke-linejoin="round"/>
</svg>