<svg xmlns="http://www.w3.org/2000/svg" width="17" height="14" viewBox="0 0 17 14" fill="none">
  <path d="M0.94916 6.55181C0.809839 6.55181 0.697754 6.43868 0.697754 6.3004V2.3177C0.697754 1.89765 1.03925 1.55615 1.45931 1.55615H2.6472C2.78652 1.55615 2.89861 1.66929 2.89861 1.80756C2.89861 1.94583 2.78548 2.05897 2.6472 2.05897H1.46035C1.31789 2.05897 1.20161 2.17524 1.20161 2.3177V6.3004C1.20057 6.43868 1.08848 6.55181 0.94916 6.55181Z" fill="#808080"/>
  <path d="M10.3621 2.05897H5.75922C5.6199 2.05897 5.50781 1.94583 5.50781 1.80756C5.50781 1.66929 5.62095 1.55615 5.75922 1.55615H10.3621C10.5014 1.55615 10.6135 1.66929 10.6135 1.80756C10.6135 1.94583 10.5003 2.05897 10.3621 2.05897Z" fill="#808080"/>
  <path d="M15.1704 5.81016C15.0311 5.81016 14.919 5.69703 14.919 5.55875V2.3177C14.919 2.17524 14.8027 2.05897 14.6602 2.05897H13.4724C13.333 2.05897 13.2209 1.94583 13.2209 1.80756C13.2209 1.66929 13.3341 1.55615 13.4724 1.55615H14.6602C15.0803 1.55615 15.4218 1.89765 15.4218 2.3177V5.55875C15.4218 5.69807 15.3097 5.81016 15.1704 5.81016Z" fill="#808080"/>
  <path d="M14.6602 11.8252H1.46028C1.04022 11.8252 0.69873 11.4837 0.69873 11.0636V8.5265C0.69873 8.38718 0.811863 8.27509 0.950137 8.27509C1.08841 8.27509 1.20154 8.38822 1.20154 8.5265V11.0626C1.20154 11.205 1.31782 11.3213 1.46028 11.3213H14.6602C14.8026 11.3213 14.9189 11.205 14.9189 11.0626V7.75971C14.9189 7.62039 15.032 7.5083 15.1703 7.5083C15.3086 7.5083 15.4217 7.62143 15.4217 7.75971V11.0636C15.4217 11.4826 15.0802 11.8252 14.6602 11.8252Z" fill="#808080"/>
  <path d="M14.7514 11.825H1.36817C0.998394 11.825 0.697754 11.5244 0.697754 11.1546V9.79389C0.697754 9.65457 0.810887 9.54248 0.94916 9.54248H15.1704C15.3097 9.54248 15.4218 9.65561 15.4218 9.79389V11.1546C15.4218 11.5234 15.1212 11.825 14.7514 11.825ZM1.20057 10.0453V11.1546C1.20057 11.2468 1.27599 11.3222 1.36817 11.3222H14.7514C14.8436 11.3222 14.919 11.2468 14.919 11.1546V10.0453H1.20057Z" fill="#808080"/>
  <path d="M10.9645 13.9999H5.15595C5.01663 13.9999 4.90454 13.8868 4.90454 13.7485C4.90454 13.6102 5.01767 13.4971 5.15595 13.4971H10.9645C11.1038 13.4971 11.2159 13.6102 11.2159 13.7485C11.2159 13.8868 11.1038 13.9999 10.9645 13.9999Z" fill="#808080"/>
  <path d="M10.2166 13.9998C10.1223 13.9998 10.0312 13.9464 9.98926 13.8553L9.03601 11.8241H7.08447L6.13122 13.8553C6.07256 13.981 5.92276 14.0354 5.79706 13.9757C5.67135 13.916 5.61688 13.7673 5.67659 13.6416L6.69688 11.4658C6.73878 11.3779 6.82678 11.3213 6.9242 11.3213H9.19523C9.29265 11.3213 9.38169 11.3779 9.42255 11.4658L10.4439 13.6416C10.5025 13.7673 10.4491 13.9171 10.3234 13.9757C10.2889 13.9925 10.2522 13.9998 10.2166 13.9998Z" fill="#808080"/>
  <path d="M6.64532 6.89636C6.58247 6.89636 6.52067 6.8796 6.46515 6.84712C6.38344 6.79894 6.32478 6.72142 6.30069 6.62924L5.99167 5.4361C5.94243 5.24545 6.05661 5.05166 6.24726 5.00138L8.59163 4.39277C8.72571 4.3582 8.86294 4.43886 8.89855 4.57294L9.25995 5.96929C9.27671 6.03424 9.26728 6.10233 9.23376 6.15994C9.20024 6.21756 9.14472 6.25946 9.07978 6.27622L6.73541 6.88483C6.70608 6.89217 6.6757 6.89636 6.64532 6.89636ZM6.51543 5.45182L6.75112 6.36107L8.71 5.85302L8.4743 4.94377L6.51543 5.45182Z" fill="#808080"/>
  <path d="M5.80533 6.7991C5.51516 6.7991 5.24909 6.60321 5.17262 6.30991L5.1611 6.26486C5.1171 6.09621 5.14224 5.92023 5.23023 5.76938C5.31823 5.61854 5.46069 5.51169 5.62934 5.46769L6.2191 5.31476C6.28405 5.298 6.35214 5.30742 6.40975 5.34094C6.46736 5.37446 6.50926 5.42998 6.52603 5.49493L6.73972 6.31724C6.77429 6.45132 6.69363 6.58855 6.55955 6.62416L5.96979 6.7771C5.91532 6.79177 5.8598 6.7991 5.80533 6.7991ZM6.10282 5.86471L5.75609 5.95479C5.71733 5.96527 5.68486 5.98936 5.66391 6.02393C5.64296 6.0585 5.63772 6.09935 5.6482 6.13811L5.65972 6.18316C5.68067 6.26382 5.76238 6.312 5.84304 6.29105L6.18977 6.20096L6.10282 5.86471Z" fill="#808080"/>
  <path d="M10.6301 6.53317C10.6176 6.53317 10.605 6.53212 10.5914 6.53003L8.97818 6.28176C8.87867 6.26605 8.79801 6.19377 8.77287 6.09635L8.41043 4.70104C8.38528 4.60362 8.41985 4.50097 8.49947 4.43916L9.78792 3.43773C9.89791 3.35288 10.055 3.37173 10.1409 3.48172C10.2258 3.59171 10.2069 3.74884 10.0969 3.83474L8.93943 4.73457L9.21807 5.80933L10.6678 6.03245C10.8051 6.0534 10.8993 6.18225 10.8784 6.31947C10.8585 6.44413 10.7516 6.53317 10.6301 6.53317Z" fill="#808080"/>
  <path d="M10.759 7.03273C10.6469 7.03273 10.5453 6.95731 10.5159 6.84418L9.57001 3.19774C9.53544 3.06365 9.6161 2.92643 9.75019 2.89081C9.88427 2.85624 10.0215 2.9369 10.0571 3.07099L11.003 6.71743C11.0376 6.85151 10.9569 6.98874 10.8229 7.02435C10.8009 7.03064 10.7799 7.03273 10.759 7.03273Z" fill="#808080"/>
  <path d="M7.9192 8.54659C7.6259 8.54659 7.35773 8.34965 7.28126 8.0532L6.89996 6.58352C6.8832 6.51857 6.89263 6.45049 6.92615 6.39287C6.95967 6.33526 7.01519 6.29336 7.08014 6.2766L7.91501 6.05976C8.0491 6.02519 8.18632 6.10585 8.22194 6.23993L8.60324 7.70961C8.69437 8.06158 8.48277 8.42193 8.1308 8.51411L8.08576 8.52564C8.02919 8.53925 7.97368 8.54659 7.9192 8.54659ZM7.44886 6.6998L7.76731 7.92645C7.77779 7.9673 7.80398 8.00083 7.83959 8.02178C7.87521 8.04273 7.91816 8.04901 7.95796 8.03854L8.00301 8.02701C8.08681 8.00502 8.13709 7.91912 8.11509 7.83636L7.79664 6.60971L7.44886 6.6998Z" fill="#808080"/>
  <path d="M11.9238 2.74918C11.8892 2.74918 11.8547 2.74184 11.8232 2.72823C11.5687 2.61614 11.3414 2.40873 11.1832 2.14371C11.1214 2.04 11.0816 1.94258 11.0596 1.84621C11.0303 1.71317 11.0376 1.58118 11.0816 1.46386C11.1329 1.32559 11.2387 1.20826 11.3707 1.14122C11.5404 1.05533 11.7426 1.05847 11.9112 1.13913C12.0778 1.05533 12.28 1.04695 12.4507 1.1297C12.5837 1.1936 12.6906 1.30883 12.7461 1.44605C12.7922 1.56128 12.8027 1.69327 12.7754 1.82735C12.7566 1.92373 12.7178 2.02219 12.6581 2.12695C12.5052 2.39511 12.2831 2.60671 12.0296 2.72404C11.9961 2.7408 11.9594 2.74918 11.9238 2.74918ZM11.641 1.58014C11.6263 1.58014 11.6116 1.58328 11.598 1.58956C11.5781 1.60004 11.5603 1.6189 11.553 1.63985C11.5435 1.66394 11.5435 1.69956 11.5509 1.73727C11.5603 1.78021 11.5813 1.82945 11.6158 1.88601C11.6954 2.0201 11.8033 2.13428 11.9217 2.21075C12.038 2.13218 12.1438 2.01591 12.2213 1.87973C12.2538 1.82212 12.2737 1.77288 12.2831 1.72993C12.2904 1.69327 12.2894 1.65765 12.28 1.63251C12.2716 1.61156 12.2538 1.59271 12.2339 1.58223C12.1941 1.56338 12.1375 1.57595 12.1071 1.61156C12.06 1.66708 11.9908 1.69956 11.9186 1.7006C11.8452 1.7006 11.7761 1.67022 11.7279 1.61575C11.7038 1.59375 11.6713 1.58014 11.641 1.58014Z" fill="#808080"/>
  <path d="M11.9166 3.61446C10.9288 3.61446 10.1201 2.81624 10.1107 1.82528C10.1013 0.829081 10.9037 0.0109629 11.8999 0.00153512C12.3828 -0.00265499 12.8374 0.180662 13.182 0.517966C13.5267 0.856317 13.7194 1.3078 13.7236 1.78966C13.733 2.78586 12.9306 3.60398 11.9355 3.61446C11.9292 3.61341 11.9229 3.61446 11.9166 3.61446ZM11.9177 0.503301C11.9135 0.503301 11.9093 0.503301 11.904 0.503301C11.5563 0.506443 11.2294 0.645764 10.9864 0.894028C10.7423 1.14229 10.6103 1.47122 10.6135 1.82004C10.6208 2.53446 11.2043 3.1106 11.9166 3.1106H11.9302C12.6488 3.10326 13.2281 2.51246 13.2208 1.79385C13.2176 1.44607 13.0783 1.11925 12.8301 0.87622C12.5839 0.635289 12.2602 0.503301 11.9177 0.503301Z" fill="#808080"/>
  <path d="M4.20473 3.61467C4.09265 3.61467 3.97952 3.6042 3.86429 3.5822C3.38976 3.49106 2.98017 3.22185 2.70887 2.82274C2.43756 2.42363 2.33804 1.94282 2.42918 1.46829C2.61668 0.489899 3.5647 -0.15433 4.54309 0.03213C5.52148 0.219637 6.1657 1.16765 5.9782 2.14604C5.81374 3.0113 5.05428 3.61467 4.20473 3.61467ZM4.20054 0.503517C3.9418 0.503517 3.68935 0.581034 3.47042 0.728735C3.18235 0.924623 2.98751 1.22107 2.92256 1.56257C2.85761 1.90406 2.92885 2.25184 3.12473 2.53991C3.32062 2.82798 3.61707 3.02282 3.95856 3.08777C4.6646 3.2229 5.34968 2.75779 5.48481 2.05176C5.61994 1.34573 5.15484 0.660646 4.44881 0.526563C4.36605 0.51085 4.2833 0.503517 4.20054 0.503517Z" fill="#808080"/>
  <path d="M3.87372 2.7077C3.83287 2.7077 3.79201 2.69723 3.7543 2.67733C3.6726 2.63333 3.62231 2.54848 3.62231 2.4563V1.15946C3.62231 1.06728 3.6726 0.982427 3.7543 0.938431C3.83601 0.894435 3.93448 0.898625 4.01199 0.949954L4.99772 1.59837C5.06895 1.64446 5.11085 1.72408 5.11085 1.80788C5.11085 1.89168 5.0679 1.97129 4.99772 2.01738L4.01199 2.6658C3.97009 2.69304 3.92295 2.7077 3.87372 2.7077ZM4.12513 1.62561V1.99015L4.40167 1.80788L4.12513 1.62561Z" fill="#808080"/>
  <path d="M3.14258 8.7819L0.564617 8.77666C0.413773 8.77666 0.271309 8.71695 0.165509 8.6101C0.059709 8.50326 0 8.36184 0 8.20995L0.00314257 6.61247C0.00314257 6.46162 0.0628516 6.31916 0.169699 6.21231C0.276547 6.10547 0.417963 6.04785 0.568807 6.04785H0.569855L3.14677 6.05309C3.29761 6.05309 3.44008 6.1128 3.54693 6.21965C3.65377 6.32649 3.71244 6.46896 3.71139 6.6198L3.70825 8.21728C3.70825 8.52944 3.4537 8.7819 3.14258 8.7819ZM3.14258 8.27908C3.17715 8.27908 3.20543 8.2508 3.20543 8.21623L3.20858 6.61875C3.20858 6.5978 3.1981 6.58314 3.18972 6.57371C3.18134 6.56533 3.16667 6.55485 3.14572 6.55485L0.568807 6.54962C0.547857 6.54962 0.533191 6.56009 0.524811 6.56847C0.516431 6.57685 0.505956 6.59152 0.505956 6.61247L0.502813 8.21099C0.502813 8.23299 0.513288 8.24661 0.521668 8.25604C0.530049 8.26442 0.544714 8.27489 0.565665 8.27489L3.14258 8.27908Z" fill="#808080"/>
  <path d="M1.85634 7.81416C1.71702 7.81416 1.5777 7.76493 1.46352 7.66751L0.202296 6.58541C0.0964955 6.49533 0.0849727 6.3361 0.17506 6.23135C0.265147 6.12555 0.424371 6.11403 0.529124 6.20411L1.79035 7.28726C1.82806 7.31973 1.88253 7.31973 1.92024 7.28726L3.18565 6.20935C3.29145 6.11926 3.44963 6.13183 3.53972 6.23763C3.6298 6.34343 3.61723 6.50161 3.51143 6.5917L2.24707 7.6696C2.13394 7.76598 1.99461 7.81416 1.85634 7.81416Z" fill="#808080"/>
  <path d="M13.203 8.82214C13.1632 8.82214 13.1224 8.81271 13.0857 8.79281C13.004 8.74881 12.9527 8.66396 12.9516 8.57178L12.9495 8.01869L12.7327 8.01974H12.7316C12.5934 8.01974 12.4813 7.90765 12.4802 7.76938L12.4729 5.56957C12.4729 5.50253 12.4991 5.43863 12.5462 5.39149C12.5934 5.34435 12.6573 5.31712 12.7233 5.31712L15.8302 5.30664H15.8313C15.8973 5.30664 15.9612 5.33283 16.0083 5.37997C16.0554 5.42711 16.0827 5.49101 16.0827 5.55805L16.09 7.75785C16.09 7.89717 15.9779 8.00926 15.8397 8.01031L14.48 8.0145L13.3444 8.78024C13.3015 8.80748 13.2523 8.82214 13.203 8.82214ZM13.2009 7.51483C13.3392 7.51483 13.4513 7.62691 13.4523 7.76519L13.4534 8.09935L14.2621 7.55359C14.3029 7.5253 14.3522 7.51064 14.4014 7.51064L15.5862 7.50645L15.5809 5.80945L12.9768 5.81783L12.982 7.51483H13.2009C13.1999 7.51483 13.1999 7.51483 13.2009 7.51483Z" fill="#808080"/>
  <path d="M13.5246 6.56664C13.3863 6.56664 13.2742 6.45456 13.2732 6.31629C13.2732 6.17696 13.3853 6.06488 13.5236 6.06383L15.0351 6.05859H15.0362C15.1745 6.05859 15.2865 6.17068 15.2876 6.30895C15.2876 6.44827 15.1755 6.56036 15.0372 6.56141L13.5246 6.56664Z" fill="#808080"/>
  <path d="M13.5268 7.26635C13.3885 7.26635 13.2764 7.15427 13.2754 7.01599C13.2754 6.87667 13.3875 6.76459 13.5257 6.76354L15.0373 6.7583H15.0384C15.1767 6.7583 15.2887 6.87039 15.2898 7.00866C15.2898 7.14798 15.1777 7.26007 15.0394 7.26111L13.5268 7.26635Z" fill="#808080"/>
</svg>