<svg xmlns="http://www.w3.org/2000/svg" width="14" height="12" viewBox="0 0 14 12" fill="none">
  <path d="M11.6985 12H1.36029C0.6105 12 0 11.3885 0 10.6364V1.36364C0 0.612 0.6105 0 1.36029 0H11.6985C12.4483 0 13.0588 0.612 13.0588 1.36364V10.6364C13.0588 11.3885 12.4483 12 11.6985 12ZM1.36029 0.705882C0.910309 0.705882 0.705882 0.912545 0.705882 1.36364C0.705882 1.36364 0.705882 10.1371 0.705882 10.5882C0.705882 11.0393 0.961779 11.2941 1.41176 11.2941H11.716C12.166 11.2941 12.3529 11.0875 12.3529 10.6364L12.3715 1.41176C12.3715 0.960674 12.097 0.705882 11.6471 0.705882H1.36029Z" fill="#808080"/>
  <path d="M12.7868 3.10578H0.272059C0.121882 3.10578 0 2.94767 0 2.75284C0 2.55802 0.121882 2.3999 0.272059 2.3999H12.7868C12.9369 2.3999 13.0588 2.55802 13.0588 2.75284C13.0588 2.94767 12.9369 3.10578 12.7868 3.10578Z" fill="#808080"/>
  <path d="M8.43389 10.45H4.62507C4.17509 10.45 3.7312 10.0947 3.7312 9.63989V5.3614C3.7312 4.90655 4.17509 4.23535 4.62507 4.23535H8.43389C8.88388 4.23535 9.32784 4.90655 9.32784 5.3614V9.51266C9.32784 9.96751 8.88388 10.45 8.43389 10.45ZM4.62507 4.95005C4.47489 4.95005 4.35301 5.07325 4.35301 5.22505V9.62505C4.35301 9.7763 4.39214 9.85171 4.54232 9.85171H8.43389C8.58407 9.85171 8.70595 9.7763 8.70595 9.62505V5.22505C8.70595 5.07325 8.58407 4.95005 8.43389 4.95005H4.62507Z" fill="#808080"/>
  <path d="M7.34557 8.8H5.71322C5.56304 8.8 5.44116 8.6768 5.44116 8.525C5.44116 8.3732 5.56304 8.25 5.71322 8.25H7.34557C7.49575 8.25 7.61763 8.3732 7.61763 8.525C7.61763 8.6768 7.49575 8.8 7.34557 8.8Z" fill="#808080"/>
  <path d="M7.34557 7.14961H5.71322C5.56304 7.14961 5.44116 7.02641 5.44116 6.87461C5.44116 6.72281 5.56304 6.59961 5.71322 6.59961H7.34557C7.49575 6.59961 7.61763 6.72281 7.61763 6.87461C7.61763 7.02641 7.49575 7.14961 7.34557 7.14961Z" fill="#808080"/>
</svg>