<svg xmlns="http://www.w3.org/2000/svg" width="13" height="12" viewBox="0 0 13 12" fill="none">
  <path d="M1 10.125C1 9.39565 1.28973 8.69618 1.80546 8.18046C2.32118 7.66473 3.02065 7.375 3.75 7.375H9.25C9.97935 7.375 10.6788 7.66473 11.1945 8.18046C11.7103 8.69618 12 9.39565 12 10.125C12 10.4897 11.8551 10.8394 11.5973 11.0973C11.3394 11.3551 10.9897 11.5 10.625 11.5H2.375C2.01033 11.5 1.66059 11.3551 1.40273 11.0973C1.14487 10.8394 1 10.4897 1 10.125Z" stroke="#808080" stroke-linejoin="round"/>
  <path d="M6.5 4.625C7.63909 4.625 8.5625 3.70159 8.5625 2.5625C8.5625 1.42341 7.63909 0.5 6.5 0.5C5.36091 0.5 4.4375 1.42341 4.4375 2.5625C4.4375 3.70159 5.36091 4.625 6.5 4.625Z" stroke="#808080"/>
</svg>