<svg xmlns="http://www.w3.org/2000/svg" width="16" height="16" viewBox="0 0 16 16" fill="none">
  <path d="M11.5454 2.39014C11.2002 2.39014 10.9204 2.66995 10.9204 3.01514V4.45289C10.9204 4.65951 11.0225 4.85279 11.1932 4.96923L12.1019 5.58901C12.2097 5.66251 12.3323 5.69773 12.4535 5.69773C12.6532 5.69773 12.8494 5.60223 12.9704 5.42486C13.1649 5.1397 13.0914 4.75086 12.8063 4.55636L12.1704 4.12267V3.01517C12.1704 2.66995 11.8906 2.39014 11.5454 2.39014Z" fill="#808080"/>
  <path d="M11.5461 0C10.1846 0 8.96394 0.61425 8.1466 1.58019C7.79163 1.44556 7.4245 1.35381 7.04913 1.30569V0.632062C7.04913 0.286875 6.76931 0.0070625 6.42413 0.0070625C6.07894 0.0070625 5.79913 0.286875 5.79913 0.632062V1.30603C3.41297 1.61363 1.56334 3.65812 1.56334 6.12647V9.73975C0.675406 9.90109 0 10.6801 0 11.6138C0 12.664 0.854469 13.5185 1.90478 13.5185H4.23709V13.813C4.23709 15.0189 5.21816 16 6.42406 16H6.42416C7.63006 16 8.61113 15.0189 8.61113 13.813V13.5185H10.9434C11.9937 13.5185 12.8482 12.664 12.8482 11.6138C12.8482 10.6801 12.1728 9.90109 11.2849 9.73975V8.89753C11.3713 8.90256 11.4584 8.90512 11.5461 8.90512C12.1758 8.90512 12.785 8.77594 13.3567 8.52116C13.672 8.38066 13.8137 8.01116 13.6732 7.69588C13.5327 7.38056 13.1631 7.23888 12.8479 7.37941C12.4374 7.56234 11.9994 7.65513 11.5461 7.65513C9.78028 7.65513 8.34369 6.21847 8.34369 4.45259C8.34369 2.68666 9.78028 1.25 11.5461 1.25C13.3119 1.25 14.7485 2.68666 14.7485 4.45256C14.7485 4.786 14.6974 5.11478 14.5966 5.42984C14.4913 5.75859 14.6726 6.11041 15.0013 6.21562C15.3302 6.32084 15.6818 6.13963 15.7871 5.81087C15.9274 5.3725 15.9985 4.9155 15.9985 4.45259C15.9985 1.99741 14.0012 0 11.5461 0ZM7.36113 13.813C7.36113 14.3297 6.94081 14.75 6.42416 14.75H6.42406C5.90741 14.75 5.48709 14.3297 5.48709 13.813V13.5185H7.36113V13.813ZM11.5982 11.6138C11.5982 11.9748 11.3045 12.2685 10.9434 12.2685H1.90478C1.54375 12.2685 1.25 11.9748 1.25 11.6138C1.25 11.2528 1.54372 10.9591 1.90478 10.9591H10.9434C11.3045 10.9591 11.5982 11.2528 11.5982 11.6138ZM10.0349 8.64106V9.70909H2.81334V6.12647C2.81334 4.13562 4.43313 2.516 6.42409 2.516C6.78103 2.516 7.1305 2.56722 7.46678 2.66856C7.22691 3.21503 7.09369 3.81853 7.09369 4.45256C7.09369 6.37741 8.32141 8.02091 10.0349 8.64106Z" fill="#808080"/>
</svg>