<svg xmlns="http://www.w3.org/2000/svg" width="13" height="16" viewBox="0 0 13 16" fill="none">
  <path d="M11.4231 0.5H2.65385C2.07692 0.5 1.59231 0.961538 1.59231 1.56154V2.06923H1.01538C0.461538 2.06923 0 2.53077 0 3.10769V14.4385C0 15.0154 0.461539 15.5 1.06154 15.5H9.80769C10.3846 15.5 10.8692 15.0385 10.8692 14.4385V13.9308H11.4462C12.0231 13.9308 12.5077 13.4692 12.5077 12.8692V1.56154C12.4615 0.961538 12 0.5 11.4231 0.5ZM10.3846 14.4385C10.3846 14.7615 10.1308 15.0385 9.78462 15.0385H1.03846C0.715385 15.0385 0.438462 14.7846 0.438462 14.4385V3.10769C0.438462 2.78462 0.692308 2.50769 1.03846 2.50769H1.84615H9.80769C10.1308 2.50769 10.4077 2.76154 10.4077 3.08462V14.4385H10.3846ZM12 12.8923C12 13.2154 11.7462 13.4923 11.4 13.4923H10.8462V3.10769C10.8462 2.53077 10.3846 2.04615 9.78462 2.04615H2.07692V1.56154C2.07692 1.23846 2.33077 0.961538 2.67692 0.961538H11.4231C11.7462 0.961538 12.0231 1.21538 12.0231 1.56154V12.8923H12Z" fill="#808080"/>
  <path d="M8.90767 3.13086C8.44613 3.13086 8.0769 3.50009 8.0769 3.96163C8.0769 4.10009 8.12305 4.23855 8.19228 4.35394L7.01536 5.50778C6.89997 5.43855 6.76151 5.3924 6.59997 5.3924C6.43844 5.3924 6.29997 5.43855 6.16151 5.50778L5.09997 4.53855C5.14613 4.42317 5.19228 4.30778 5.19228 4.16932C5.19228 3.70778 4.82305 3.33855 4.36151 3.33855C3.89997 3.33855 3.53074 3.70778 3.53074 4.16932C3.53074 4.30778 3.5769 4.44624 3.62305 4.56163L2.35382 5.76163C2.23844 5.6924 2.09997 5.64624 1.93844 5.64624C1.4769 5.64624 1.10767 6.01547 1.10767 6.47701C1.10767 6.93855 1.4769 7.30778 1.93844 7.30778C2.39997 7.30778 2.7692 6.93855 2.7692 6.47701C2.7692 6.33855 2.72305 6.20009 2.6769 6.08471L3.92305 4.88471C4.03844 4.95394 4.19997 5.00009 4.33843 5.00009C4.49997 5.00009 4.66151 4.95394 4.7769 4.86163L5.81536 5.83086C5.7692 5.94624 5.72305 6.06163 5.72305 6.20009C5.72305 6.66163 6.09228 7.03086 6.55382 7.03086C7.01536 7.03086 7.38459 6.66163 7.38459 6.20009C7.38459 6.06163 7.33844 5.92317 7.2692 5.80778L8.44613 4.65394C8.56151 4.72317 8.69997 4.76932 8.86151 4.76932C9.32305 4.76932 9.69228 4.40009 9.69228 3.93855C9.73844 3.52317 9.3692 3.13086 8.90767 3.13086ZM1.93844 6.8924C1.73074 6.8924 1.5692 6.73086 1.5692 6.52317C1.5692 6.31547 1.73074 6.15394 1.93844 6.15394C2.14613 6.15394 2.30767 6.31547 2.30767 6.52317C2.30767 6.73086 2.14613 6.8924 1.93844 6.8924ZM3.9692 4.21547C3.9692 4.00778 4.13074 3.84624 4.33843 3.84624C4.54613 3.84624 4.70767 4.00778 4.70767 4.21547C4.70767 4.42317 4.54613 4.58471 4.33843 4.58471C4.15382 4.58471 3.9692 4.42317 3.9692 4.21547ZM6.59997 6.61547C6.39228 6.61547 6.23074 6.45394 6.23074 6.24624C6.23074 6.03855 6.39228 5.87701 6.59997 5.87701C6.80767 5.87701 6.9692 6.03855 6.9692 6.24624C6.9692 6.45394 6.80767 6.61547 6.59997 6.61547ZM8.90767 4.35394C8.69997 4.35394 8.53844 4.1924 8.53844 3.98471C8.53844 3.77701 8.69997 3.61547 8.90767 3.61547C9.11536 3.61547 9.2769 3.77701 9.2769 3.98471C9.2769 4.1924 9.11536 4.35394 8.90767 4.35394Z" fill="#808080"/>
  <path d="M9.30005 8.55371H1.5462C1.40774 8.55371 1.31543 8.64602 1.31543 8.78448C1.31543 8.92294 1.40774 9.01525 1.5462 9.01525H9.30005C9.43851 9.01525 9.53082 8.92294 9.53082 8.78448C9.53082 8.64602 9.41543 8.55371 9.30005 8.55371Z" fill="#808080"/>
  <path d="M9.29994 10.1924H5.97686C5.8384 10.1924 5.74609 10.2847 5.74609 10.4232C5.74609 10.5616 5.8384 10.6539 5.97686 10.6539H9.27686C9.41532 10.6539 9.50763 10.5616 9.50763 10.4232C9.50763 10.2847 9.41532 10.1924 9.29994 10.1924Z" fill="#808080"/>
  <path d="M9.29994 11.8076H5.97686C5.8384 11.8076 5.74609 11.8999 5.74609 12.0384C5.74609 12.1768 5.8384 12.2692 5.97686 12.2692H9.27686C9.41532 12.2692 9.50763 12.1768 9.50763 12.0384C9.53071 11.923 9.41532 11.8076 9.29994 11.8076Z" fill="#808080"/>
  <path d="M9.29994 13.4463H5.97686C5.8384 13.4463 5.74609 13.5386 5.74609 13.6771C5.74609 13.8155 5.8384 13.9078 5.97686 13.9078H9.27686C9.41532 13.9078 9.50763 13.8155 9.50763 13.6771C9.53071 13.5617 9.41532 13.4463 9.29994 13.4463Z" fill="#808080"/>
  <path d="M3.27697 10.1001C2.19235 10.1001 1.31543 10.977 1.31543 12.0616C1.31543 13.1463 2.19235 14.0232 3.27697 14.0232C4.33851 14.0232 5.19235 13.1693 5.23851 12.1309C5.30774 11.1155 4.43081 10.1001 3.27697 10.1001ZM4.75389 11.8539H3.50774V10.5616C4.15389 10.677 4.66158 11.2078 4.75389 11.8539ZM3.0462 10.5616V11.9924L2.07697 12.9616C1.89235 12.7078 1.77697 12.3847 1.77697 12.0616C1.77697 11.3001 2.33081 10.677 3.0462 10.5616ZM3.27697 13.5386C2.95389 13.5386 2.67697 13.4463 2.42312 13.2616L3.36928 12.3155H4.73081C4.61543 13.0078 3.99235 13.5386 3.27697 13.5386Z" fill="#808080"/>
</svg>