<svg xmlns="http://www.w3.org/2000/svg" width="15" height="16" viewBox="0 0 15 16" fill="none">
  <path d="M5.6986 11.0832V10.195C5.91808 10.2222 6.08918 10.4079 6.08918 10.6347C6.08918 10.7641 6.19411 10.8691 6.32355 10.8691C6.453 10.8691 6.55793 10.7641 6.55793 10.6347C6.55793 10.1494 6.17673 9.75508 5.6986 9.72626V9.46143C5.6986 9.33198 5.59367 9.22705 5.46422 9.22705C5.33478 9.22705 5.22985 9.33198 5.22985 9.46143V9.72423C4.74229 9.74285 4.35059 10.1426 4.35059 10.6347C4.35059 11.1267 4.74229 11.5263 5.22985 11.545V12.4332C5.01033 12.4059 4.83927 12.2203 4.83927 11.9935C4.83927 11.8641 4.73434 11.7592 4.60489 11.7592C4.47545 11.7592 4.37052 11.8641 4.37052 11.9935C4.37052 12.4787 4.75181 12.8731 5.22985 12.902V13.1668C5.22985 13.2962 5.33478 13.4012 5.46422 13.4012C5.59367 13.4012 5.6986 13.2962 5.6986 13.1668V12.904C6.18622 12.8854 6.57795 12.4856 6.57795 11.9935C6.57795 11.5015 6.18619 11.1018 5.6986 11.0832ZM4.81934 10.6347C4.81934 10.4011 5.00084 10.211 5.22985 10.193V11.0762C5.00084 11.0583 4.81934 10.8682 4.81934 10.6347ZM5.6986 12.4352V11.552C5.92764 11.5699 6.1092 11.76 6.1092 11.9935C6.1092 12.2272 5.92764 12.4173 5.6986 12.4352Z" fill="#808080"/>
  <path d="M1.06099 6.1061C1.19043 6.1061 1.29536 6.00117 1.29536 5.87173V1.304L1.72177 1.73046C1.81332 1.82201 1.96164 1.82201 2.05319 1.73046C2.14474 1.63903 2.14474 1.49059 2.05319 1.39904L1.2346 0.58033C1.19168 0.531914 1.13079 0.5 1.06099 0.5C0.994249 0.5 0.934821 0.528546 0.892138 0.573292L0.0686656 1.39676C-0.0228885 1.48832 -0.0228885 1.63663 0.0686656 1.72819C0.16022 1.81974 0.308533 1.81974 0.400087 1.72819L0.826612 1.30166V5.87173C0.826612 6.00114 0.931544 6.1061 1.06099 6.1061Z" fill="#808080"/>
  <path d="M10.8512 2.67138L11.437 2.08556V5.87193C11.437 6.00137 11.542 6.1063 11.6714 6.1063C11.8009 6.1063 11.9058 6.00137 11.9058 5.87193V2.08832L12.4916 2.67414C12.5832 2.7657 12.7315 2.7657 12.823 2.67414C12.9146 2.58259 12.9146 2.43428 12.823 2.34272L11.8465 1.36614C11.8035 1.31661 11.7421 1.28369 11.6715 1.28369C11.6044 1.28369 11.5449 1.31257 11.5021 1.35768L10.5198 2.33996C10.4283 2.43152 10.4283 2.57983 10.5198 2.67138C10.6114 2.76294 10.7597 2.76294 10.8512 2.67138Z" fill="#808080"/>
  <path d="M11.672 7.08395C10.4111 7.08395 9.13606 7.44956 9.13606 8.14332V8.38003C8.6978 7.66049 8.14935 7.02768 7.53763 6.58941C7.38294 6.47693 7.32436 6.26597 7.39935 6.07613L8.19155 4.0441C8.21497 3.98552 8.21263 3.9199 8.18451 3.86129C8.15873 3.80502 8.10952 3.76049 8.05091 3.7394C6.99388 3.36442 6.08687 3.36909 5.34858 3.75582C4.765 4.08863 3.86263 3.94096 2.97436 3.73237C2.88999 3.71128 2.79859 3.74174 2.74232 3.80736C2.68607 3.87297 2.66966 3.96674 2.70245 4.04643L3.52044 6.0761C3.59776 6.26361 3.53918 6.48157 3.38213 6.59406C3.37743 6.59639 3.3751 6.60109 3.37042 6.60343C3.36809 6.60577 3.36572 6.60577 3.36572 6.60813C1.86105 7.70499 0.729004 9.95969 0.729004 11.8628C0.729004 14.2089 2.40947 15.5003 5.46337 15.5003C7.08759 15.5003 8.32976 15.1065 9.136 14.3893V14.4432C9.13834 15.137 10.4133 15.5003 11.6719 15.5003C12.9306 15.5003 14.2055 15.137 14.2079 14.4432V8.14329C14.2079 7.44956 12.9329 7.08395 11.672 7.08395ZM9.13606 13.7261C8.25717 14.823 6.59311 15.0315 5.46343 15.0315C3.86969 15.0315 1.19782 14.619 1.19782 11.8628C1.19782 10.4308 1.88687 8.78547 2.88999 7.67217C2.78218 8.35889 3.01889 8.8581 3.69857 9.08076C3.8228 9.12062 3.95403 9.0503 3.99389 8.92841C4.03375 8.80652 3.96577 8.67295 3.84391 8.63309C3.38923 8.48545 3.27672 8.20417 3.35407 7.73075C3.51109 8.24403 3.88611 8.48778 4.40877 8.52294C4.5447 8.53232 4.65018 8.43154 4.65719 8.30731C4.66656 8.17842 4.57046 8.06593 4.44156 8.05653C3.79938 8.00966 3.71265 7.55028 3.7478 6.89638C3.86499 6.78623 3.94702 6.64796 3.98922 6.50029H6.9353C6.98921 6.68546 7.1017 6.85185 7.26575 6.96904C8.03216 7.51982 8.69076 8.39638 9.13606 9.36671V13.7261ZM13.7392 14.4409C13.7392 14.6495 12.954 15.0315 11.672 15.0315C10.3899 15.0315 9.60479 14.6495 9.60479 14.4409V13.8362C10.0899 14.1152 10.8845 14.2558 11.672 14.2558C12.4595 14.2558 13.254 14.1152 13.7392 13.8362V14.4409ZM13.7392 13.1964C13.7392 13.405 12.954 13.787 11.672 13.787C10.3899 13.787 9.60479 13.405 9.60479 13.1964V12.5917C10.0899 12.8683 10.8845 13.0112 11.672 13.0112C12.4595 13.0112 13.254 12.8682 13.7392 12.5917V13.1964ZM13.7392 11.9542C13.7392 12.1605 12.954 12.5425 11.672 12.5425C10.3899 12.5425 9.60479 12.1605 9.60479 11.9542V11.3472C10.0899 11.6261 10.8845 11.7667 11.672 11.7667C12.4595 11.7667 13.254 11.6261 13.7392 11.3472V11.9542ZM13.7392 10.7074C13.7392 10.9159 12.954 11.298 11.672 11.298C10.3899 11.298 9.60479 10.9159 9.60479 10.7074V10.0863C10.0899 10.3629 10.8845 10.5035 11.672 10.5035C12.4595 10.5035 13.254 10.3629 13.7392 10.0863V10.7074ZM13.7392 9.4464C13.7392 9.65499 12.954 10.0347 11.672 10.0347C10.3899 10.0347 9.60479 9.65499 9.60479 9.4464V8.78313C10.0899 9.05971 10.8845 9.20265 11.672 9.20265C12.4595 9.20265 13.254 9.05968 13.7392 8.78313V9.4464ZM11.672 8.73393C10.39 8.73393 9.60482 8.35191 9.60482 8.14332C9.60482 7.93706 10.39 7.55271 11.672 7.55271C12.954 7.55271 13.7392 7.93706 13.7392 8.14332C13.7392 8.35191 12.954 8.73393 11.672 8.73393Z" fill="#808080"/>
</svg>