<svg xmlns="http://www.w3.org/2000/svg" width="18" height="18" viewBox="0 0 18 18" fill="none">
  <path fill-rule="evenodd" clip-rule="evenodd" d="M11.1338 15.2999H4.07859V5.75044C5.18001 5.31221 5.96096 4.23618 5.96096 2.98047C5.96096 2.88591 5.95604 2.79249 5.94737 2.70016H11.7897V4.57679C11.7897 4.71766 11.9039 4.83185 12.0447 4.83185H13.9213V10.997C13.9213 11.1379 14.0355 11.2521 14.1764 11.2521C14.3173 11.2521 14.4315 11.1379 14.4315 10.997V4.57679C14.4315 4.50916 14.4046 4.44427 14.3568 4.39643L12.2251 2.26473C12.1773 2.21692 12.1124 2.19003 12.0447 2.19003H5.85373C5.50641 0.929153 4.35022 0 2.98048 0C1.33706 0 0 1.33707 0 2.98047C0 4.62394 1.33702 5.96098 2.98045 5.96098C3.18169 5.96098 3.37827 5.94064 3.56843 5.90246V15.555C3.56843 15.6958 3.68262 15.81 3.82349 15.81H11.1337C11.2746 15.81 11.3888 15.6958 11.3888 15.555C11.3888 15.4141 11.2746 15.2999 11.1338 15.2999ZM12.2998 3.06085L13.5606 4.32173H12.2998V3.06085ZM0.510119 2.98047C0.510119 1.61833 1.61832 0.510124 2.98048 0.510124C4.34265 0.510124 5.45084 1.61829 5.45084 2.98047C5.45084 4.34265 4.34265 5.45085 2.98048 5.45085C1.61832 5.45085 0.510119 4.34265 0.510119 2.98047ZM6.69102 10.3663H5.27667C5.13581 10.3663 5.02162 10.4805 5.02162 10.6214V12.0357C5.02162 12.1766 5.13581 12.2908 5.27667 12.2908H6.69102C6.83188 12.2908 6.94608 12.1766 6.94608 12.0357V10.6214C6.94608 10.4805 6.83185 10.3663 6.69102 10.3663ZM6.43596 11.7807H5.53173V10.8765H6.43596V11.7807ZM6.94608 8.29286C6.94608 8.15199 6.83188 8.0378 6.69102 8.0378H5.27667C5.13581 8.0378 5.02162 8.15199 5.02162 8.29286V9.70718C5.02162 9.84804 5.13581 9.96224 5.27667 9.96224H6.69102C6.83188 9.96224 6.94608 9.84804 6.94608 9.70718V8.29286ZM6.43596 9.45215H5.53173V8.54796H6.43596V9.45215ZM6.94608 5.96433C6.94608 5.82346 6.83188 5.70927 6.69102 5.70927H5.27667C5.13581 5.70927 5.02162 5.82346 5.02162 5.96433V7.37868C5.02162 7.51955 5.13581 7.63374 5.27667 7.63374H6.69102C6.83188 7.63374 6.94608 7.51955 6.94608 7.37868V5.96433ZM6.43596 7.12362H5.53173V6.21939H6.43596V7.12362ZM12.9783 6.6715C12.9783 6.81237 12.8641 6.92657 12.7233 6.92657H7.82997C7.6891 6.92657 7.57491 6.81237 7.57491 6.6715C7.57491 6.53064 7.6891 6.41644 7.82997 6.41644H12.7232C12.8641 6.41644 12.9783 6.53064 12.9783 6.6715ZM12.9783 9.00004C12.9783 9.1409 12.8641 9.2551 12.7233 9.2551H7.82997C7.6891 9.2551 7.57491 9.1409 7.57491 9.00004C7.57491 8.85917 7.6891 8.74498 7.82997 8.74498H12.7232C12.8641 8.74498 12.9783 8.85913 12.9783 9.00004ZM12.9783 11.3286C12.9783 11.4694 12.8641 11.5836 12.7233 11.5836H7.82997C7.6891 11.5836 7.57491 11.4694 7.57491 11.3286C7.57491 11.1877 7.6891 11.0735 7.82997 11.0735H12.7232C12.8641 11.0735 12.9783 11.1877 12.9783 11.3286ZM17.5461 13.9633C17.3731 13.9633 17.2301 13.8676 17.1637 13.7072C17.0972 13.5468 17.1306 13.3781 17.253 13.2557C17.43 13.0787 17.43 12.7908 17.253 12.6139L16.8252 12.186C16.6483 12.0091 16.3604 12.0091 16.1834 12.186C16.0611 12.3084 15.8923 12.3417 15.7319 12.2754C15.5715 12.209 15.4758 12.066 15.4758 11.8929C15.4758 11.6427 15.2722 11.4391 15.022 11.4391H14.417C14.1667 11.4391 13.9632 11.6427 13.9632 11.8929C13.9632 12.066 13.8674 12.209 13.7071 12.2754C13.5468 12.3417 13.3779 12.3084 13.2556 12.186C13.1699 12.1003 13.0559 12.0531 12.9347 12.0531C12.8134 12.0531 12.6995 12.1003 12.6138 12.186L12.1859 12.6139C12.009 12.7908 12.009 13.0787 12.1859 13.2557C12.3083 13.378 12.3417 13.5468 12.2753 13.7072C12.2089 13.8676 12.0659 13.9633 11.8929 13.9633C11.6426 13.9633 11.4391 14.1669 11.4391 14.4171V15.0221C11.4391 15.2723 11.6426 15.4759 11.8929 15.4759C12.0659 15.4759 12.2089 15.5716 12.2753 15.732C12.3418 15.8923 12.3083 16.0611 12.1859 16.1835C12.009 16.3604 12.009 16.6484 12.1859 16.8253L12.6138 17.2531C12.6995 17.3388 12.8134 17.386 12.9347 17.386C13.056 17.386 13.1699 17.3388 13.2556 17.2531C13.3782 17.1306 13.5471 17.0969 13.7073 17.1633C13.8675 17.2296 13.9632 17.3728 13.9632 17.5462C13.9632 17.7964 14.1668 18 14.417 18H15.022C15.2722 18 15.4758 17.7964 15.4758 17.5462C15.4758 17.3732 15.5715 17.2302 15.7319 17.1638C15.8922 17.0974 16.0611 17.1308 16.1835 17.2531C16.2692 17.3388 16.3831 17.386 16.5044 17.386C16.6256 17.386 16.7396 17.3388 16.8253 17.2531L17.2531 16.8253C17.43 16.6484 17.43 16.3604 17.2531 16.1835C17.1308 16.0611 17.0973 15.8924 17.1637 15.732C17.2302 15.5716 17.3731 15.4759 17.5462 15.4759C17.7964 15.4759 18 15.2723 18 15.0221V14.4171C17.9999 14.1669 17.7964 13.9633 17.5461 13.9633ZM17.4898 14.9674C17.1333 14.9879 16.831 15.2021 16.6924 15.5368C16.5537 15.8715 16.616 16.2368 16.8537 16.5033L16.5032 16.8538C16.2366 16.6162 15.8713 16.5539 15.5366 16.6925C15.202 16.8312 14.9877 17.1334 14.9673 17.4899H14.4717C14.4512 17.1331 14.2371 16.8306 13.9025 16.692C13.5678 16.5533 13.2025 16.6159 12.9358 16.8538L12.5853 16.5033C12.8229 16.2368 12.8852 15.8715 12.7466 15.5368C12.6079 15.2021 12.3056 14.9879 11.9491 14.9674V14.4718C12.3056 14.4513 12.6079 14.2371 12.7466 13.9024C12.8852 13.5677 12.8229 13.2024 12.5853 12.9359L12.9358 12.5854C13.2023 12.823 13.5676 12.8853 13.9023 12.7467C14.237 12.608 14.4512 12.3057 14.4717 11.9492H14.9673C14.9877 12.3057 15.202 12.608 15.5366 12.7467C15.8713 12.8854 16.2366 12.823 16.5032 12.5854L16.8537 12.9359C16.616 13.2024 16.5537 13.5677 16.6924 13.9024C16.831 14.2371 17.1333 14.4513 17.4898 14.4718V14.9674ZM14.7195 13.0108C13.7773 13.0108 13.0107 13.7774 13.0107 14.7196C13.0107 15.6618 13.7773 16.4284 14.7195 16.4284C15.6616 16.4284 16.4282 15.6618 16.4282 14.7196C16.4282 13.7774 15.6617 13.0108 14.7195 13.0108ZM14.7195 15.9182C14.0586 15.9182 13.5209 15.3805 13.5209 14.7196C13.5209 14.0586 14.0586 13.5209 14.7195 13.5209C15.3804 13.5209 15.9181 14.0586 15.9181 14.7196C15.9181 15.3805 15.3804 15.9182 14.7195 15.9182ZM2.98048 0.856971C1.80958 0.856971 0.857001 1.80959 0.857001 2.98047C0.857001 4.15135 1.80961 5.104 2.98048 5.104C4.15135 5.104 5.10396 4.15135 5.10396 2.98047C5.10396 1.80959 4.15135 0.856971 2.98048 0.856971ZM2.98048 4.59392C2.09087 4.59392 1.36712 3.87016 1.36712 2.98051C1.36712 2.09089 2.09087 1.36713 2.98048 1.36713C3.87009 1.36713 4.59384 2.09089 4.59384 2.98051C4.59381 3.87013 3.87009 4.59392 2.98048 4.59392ZM3.34482 2.98051C3.34482 3.1812 3.18114 3.34488 2.98045 3.34488C2.9467 3.34488 2.91417 3.33989 2.88312 3.33125L2.58973 3.50065C2.54958 3.52382 2.50571 3.53483 2.46242 3.53483C2.37428 3.53483 2.28854 3.4891 2.24132 3.40726C2.17089 3.28527 2.21268 3.12928 2.33467 3.05885L2.62806 2.88945C2.6449 2.82455 2.67889 2.76655 2.72535 2.72093V2.14806C2.72535 2.00719 2.83954 1.893 2.98041 1.893C3.12127 1.893 3.23547 2.00719 3.23547 2.14806V2.72089C3.30288 2.78706 3.34482 2.87899 3.34482 2.98051Z" fill="#808080"/>
</svg>