<svg
                width="195"
                height="195"
                viewBox="0 0 195 195"
                fill="none"
                xmlns="http://www.w3.org/2000/svg"
              >
                <path
                  d="M43.3217 113.274C13.4009 130.549 13.4017 158.557 43.3233 175.832C73.2452 193.107 121.757 193.107 151.678 175.832C181.599 158.557 181.598 130.548 151.677 113.274C121.755 95.999 73.2429 95.999 43.3217 113.274Z"
                  fill="#FAFAFA"
                />
                <path
                  d="M122.994 174.256C136.347 166.546 136.346 154.047 122.991 146.338C109.637 138.629 87.9875 138.628 74.6362 146.337C61.285 154.045 61.2865 166.544 74.6394 174.254C87.9926 181.964 109.641 181.965 122.994 174.256Z"
                  fill="#E0E0E0"
                />
                <path
                  d="M15.4932 56.3974C15.4932 57.2336 16.171 57.9118 17.0075 57.9118C17.8437 57.9118 18.5215 57.234 18.5215 56.3974C18.5215 55.5609 17.8437 54.8831 17.0075 54.8831C16.171 54.8831 15.4932 55.5609 15.4932 56.3974Z"
                  fill="#F5F5F5"
                />
                <path
                  d="M177.219 95.6269C177.219 96.4631 177.897 97.1413 178.734 97.1413C179.57 97.1413 180.248 96.4635 180.248 95.6269C180.248 94.7908 179.57 94.1125 178.734 94.1125C177.897 94.1129 177.219 94.7908 177.219 95.6269Z"
                  fill="#F5F5F5"
                />
                <path
                  d="M148.399 24.9748C148.399 25.811 149.077 26.4892 149.913 26.4892C150.749 26.4892 151.427 25.8114 151.427 24.9748C151.427 24.1387 150.749 23.4604 149.913 23.4604C149.077 23.4608 148.399 24.1387 148.399 24.9748Z"
                  fill="#F5F5F5"
                />
                <path
                  d="M180.248 69.397C180.248 70.2332 180.925 70.9114 181.762 70.9114C182.598 70.9114 183.276 70.2336 183.276 69.397C183.276 68.5605 182.598 67.8831 181.762 67.8831C180.925 67.8831 180.248 68.5609 180.248 69.397Z"
                  fill="#F5F5F5"
                />
                <path
                  d="M15.4932 97.1413C15.4932 97.9775 16.171 98.6553 17.0075 98.6553C17.8437 98.6553 18.5215 97.9775 18.5215 97.1413C18.5215 96.3052 17.8437 95.627 17.0075 95.627C16.171 95.627 15.4932 96.3052 15.4932 97.1413Z"
                  fill="#F5F5F5"
                />
                <path
                  d="M35.499 55.1577C35.499 52.9655 37.2829 51.1816 39.4755 51.1816C41.6684 51.1816 43.4523 52.9655 43.4523 55.1577C43.4523 57.3499 41.6684 59.1337 39.4755 59.1337C37.2833 59.1337 35.499 57.3499 35.499 55.1577ZM36.1289 55.1577C36.1289 57.0032 37.63 58.5043 39.4755 58.5043C41.3209 58.5043 42.8224 57.0032 42.8224 55.1577C42.8224 53.3122 41.3206 51.8111 39.4755 51.8111C37.63 51.8111 36.1289 53.3122 36.1289 55.1577Z"
                  fill="#F5F5F5"
                />
                <path
                  d="M160.802 57.9017C160.802 55.7095 162.586 53.9253 164.778 53.9253C166.971 53.9253 168.755 55.7092 168.755 57.9017C168.755 60.0939 166.971 61.8778 164.778 61.8778C162.586 61.8778 160.802 60.0939 160.802 57.9017ZM161.432 57.9017C161.432 59.7472 162.933 61.2483 164.778 61.2483C166.624 61.2483 168.126 59.7472 168.126 57.9017C168.126 56.0563 166.624 54.5551 164.778 54.5551C162.933 54.5551 161.432 56.0563 161.432 57.9017Z"
                  fill="#F5F5F5"
                />
                <path
                  d="M172.143 31.4875C172.143 29.2953 173.927 27.5115 176.12 27.5115C178.313 27.5115 180.097 29.2953 180.097 31.4875C180.097 33.6797 178.313 35.464 176.12 35.464C173.927 35.464 172.143 33.6801 172.143 31.4875ZM172.773 31.4875C172.773 33.333 174.274 34.8341 176.12 34.8341C177.965 34.8341 179.467 33.333 179.467 31.4875C179.467 29.642 177.965 28.1409 176.12 28.1409C174.274 28.1413 172.773 29.642 172.773 31.4875Z"
                  fill="#F5F5F5"
                />
                <path
                  d="M18.7041 27.8288C18.7041 25.6366 20.488 23.8528 22.6802 23.8528C24.8731 23.8528 26.657 25.6366 26.657 27.8288C26.657 30.021 24.8731 31.8053 22.6802 31.8053C20.488 31.8053 18.7041 30.0214 18.7041 27.8288ZM19.3336 27.8288C19.3336 29.6743 20.8347 31.1754 22.6802 31.1754C24.5256 31.1754 26.0275 29.6743 26.0275 27.8288C26.0275 25.9834 24.5256 24.4822 22.6802 24.4822C20.8347 24.4826 19.3336 25.9834 19.3336 27.8288Z"
                  fill="#F5F5F5"
                />
                <path
                  opacity="0.15"
                  d="M98.8162 92.0146C122.41 92.0146 141.536 72.8882 141.536 49.2944C141.536 25.7007 122.41 6.57422 98.8162 6.57422C75.2224 6.57422 56.0959 25.7007 56.0959 49.2944C56.0959 72.8882 75.2224 92.0146 98.8162 92.0146Z"
                  fill="#BA68C8"
                />
                <path
                  d="M104.571 146.074L103.772 138.632L112.291 139.193C112.291 139.193 112.162 143.233 112.043 145.519C111.972 146.871 113.794 149.38 113.794 149.38C113.794 149.38 109.791 151.525 107.648 150.775C105.504 150.024 104.369 147.357 104.399 146.775C104.429 146.193 104.571 146.074 104.571 146.074Z"
                  fill="#C8856A"
                />
                <path
                  d="M125.088 157.699C125.222 157.697 125.447 159.08 124.727 159.681C123.896 160.376 121.44 161.535 118.165 161.195C114.889 160.855 113.104 159.939 111.779 158.937C110.455 157.935 108.599 156.522 107.115 156.242C105.737 155.982 104.236 155.425 103.79 155.035C103.344 154.646 103.377 152.879 103.377 152.879L125.088 157.699Z"
                  fill="#263238"
                />
                <path
                  d="M104.569 146.06C104.569 146.06 104.159 146.072 104.082 146.482C103.989 146.97 103.903 148.387 103.7 149.19C103.418 150.305 103.254 152.584 103.448 153.486C103.642 154.388 105.892 154.978 107.331 155.464C108.801 155.959 110.508 157.004 112.011 158.123C113.566 159.282 116.817 160.46 118.947 160.409C121.467 160.349 124.293 159.537 124.926 158.432C125.709 157.065 126.269 155.483 122.506 153.927C121.793 153.633 119.286 152.299 118.431 151.814C116.117 150.504 114.485 149.293 113.392 146.923C113.264 146.646 113.13 146.339 112.843 146.201C112.623 146.097 112.36 146.116 112.115 146.153C111.494 146.245 109.015 146.608 108.452 146.87C107.954 147.103 107.247 147.375 107.267 147.976C107.274 148.185 107.342 148.388 107.418 148.584C107.465 148.706 107.503 148.869 107.389 148.944C107.282 149.014 107.136 148.938 107.038 148.858C106.641 148.537 106.347 148.121 106.012 147.744C105.832 147.542 105.637 147.348 105.411 147.19C105.207 147.047 104.947 146.977 104.765 146.813C104.534 146.606 104.585 146.342 104.569 146.06Z"
                  fill="#455A64"
                />
                <path
                  d="M112.011 158.123C111.35 157.632 110.651 157.157 109.949 156.735V156.732C109.949 156.732 114.385 159.157 116.142 157.991C117.275 157.241 116.716 156.361 116.684 156.078C116.652 155.795 120.659 153.722 121.768 153.58C122.08 153.734 122.342 153.859 122.506 153.927C126.269 155.483 125.709 157.065 124.926 158.432C124.293 159.536 122.251 160.425 118.994 160.481C116.863 160.517 113.566 159.282 112.011 158.123Z"
                  fill="#37474F"
                />
                <path
                  d="M116.363 155.256C118.701 156.086 117.716 156.509 117.067 156.607C116.418 156.705 112.471 154.634 110.057 152.909C107.538 151.11 105.937 149.123 105.001 148.462C104.652 148.215 104.277 147.912 103.942 147.628C103.995 147.148 104.038 146.712 104.082 146.482C104.16 146.072 104.569 146.06 104.569 146.06C104.585 146.342 104.534 146.606 104.765 146.813C104.947 146.978 105.207 147.047 105.411 147.191C105.637 147.349 105.832 147.542 106.012 147.744C106.348 148.122 106.641 148.537 107.038 148.859C109.107 151.233 114.025 154.426 116.363 155.256Z"
                  fill="#37474F"
                />
                <path
                  d="M116.897 156.29C116.845 156.291 116.794 156.276 116.75 156.244C116.651 156.171 116.634 156.036 116.713 155.942C117.357 155.179 120.437 153.343 122.149 153.489C122.276 153.499 122.369 153.605 122.357 153.723C122.346 153.841 122.246 153.925 122.107 153.918C120.508 153.785 117.584 155.604 117.073 156.208C117.029 156.261 116.963 156.289 116.897 156.29Z"
                  fill="#263238"
                />
                <path
                  d="M114.851 155.158C114.799 155.158 114.748 155.144 114.704 155.112C114.605 155.038 114.588 154.903 114.667 154.809C115.31 154.047 118.389 152.212 120.103 152.357C120.23 152.368 120.323 152.473 120.311 152.591C120.3 152.709 120.191 152.796 120.061 152.786C118.461 152.655 115.537 154.472 115.027 155.076C114.983 155.128 114.917 155.157 114.851 155.158Z"
                  fill="#263238"
                />
                <path
                  d="M112.805 154.087C112.754 154.088 112.702 154.073 112.659 154.041C112.559 153.967 112.543 153.832 112.621 153.738C113.265 152.976 116.344 151.138 118.057 151.287C118.184 151.297 118.277 151.402 118.265 151.52C118.254 151.638 118.147 151.725 118.015 151.715C116.415 151.582 113.492 153.4 112.982 154.005C112.937 154.057 112.872 154.086 112.805 154.087Z"
                  fill="#263238"
                />
                <path
                  d="M110.905 152.856C110.854 152.857 110.802 152.842 110.759 152.81C110.659 152.737 110.643 152.601 110.722 152.508C111.365 151.745 114.452 149.909 116.158 150.056C116.285 150.066 116.378 150.171 116.366 150.289C116.354 150.407 116.246 150.494 116.115 150.484C114.518 150.352 111.592 152.169 111.082 152.774C111.038 152.827 110.972 152.855 110.905 152.856Z"
                  fill="#263238"
                />
                <path
                  d="M109.044 151.625C108.994 151.625 108.944 151.611 108.901 151.581C108.8 151.509 108.782 151.373 108.859 151.279C109.743 150.198 112.974 148.653 114.686 148.799C114.813 148.809 114.906 148.914 114.894 149.032C114.883 149.15 114.775 149.234 114.644 149.227C113.103 149.097 110.008 150.582 109.223 151.54C109.179 151.595 109.112 151.623 109.044 151.625Z"
                  fill="#263238"
                />
                <path
                  d="M87.3658 150.683L89.1871 143.6L80.4929 142.409L80.2242 149.239C80.2242 149.239 79.3447 151.69 79.8899 152.579C80.4351 153.467 86.2161 154.382 86.743 153.787C87.2703 153.192 87.3658 150.683 87.3658 150.683Z"
                  fill="#C8856A"
                />
                <path
                  d="M86.7461 166.073C86.5016 168.262 86.0488 169.679 85.107 170.868C84.1651 172.057 82.4807 172.266 80.8099 171.686C79.1392 171.107 77.0238 169.838 76.626 167.878C76.2282 165.917 76.385 164.624 76.8604 162.624L86.7461 166.073Z"
                  fill="#263238"
                />
                <path
                  d="M80.2241 149.24C79.5267 149.206 79.7163 152.203 79.1816 155.122C78.6083 158.25 77.4777 159.438 76.9761 161.999C76.4032 164.925 76.5195 166.277 77.6154 168.217C78.7113 170.158 82.7996 172.418 84.9704 170.083C86.7398 168.179 86.9145 165.856 86.8962 162.864C86.8771 159.772 86.8365 157.593 87.0834 155.277C87.3197 153.063 87.9566 151.091 87.3638 150.772C87.3026 151.093 87.2386 151.504 87.1746 151.819C87.1255 152.061 87.0019 153.261 86.6115 153.226C86.5885 152.937 86.6072 152.673 86.6415 152.385C86.6715 152.135 86.6602 151.857 86.4836 151.643C86.3053 151.428 85.6396 151.16 85.36 151.077C84.681 150.876 83.4685 150.627 82.7758 150.489C82.4311 150.42 82.084 150.364 81.7361 150.327C81.4541 150.296 81.1211 150.278 80.85 150.334C80.6835 150.368 80.5271 150.453 80.46 150.592C80.4101 150.694 80.4132 150.813 80.4081 150.927C80.3988 151.133 80.3602 151.336 80.2935 151.528C80.2642 151.613 80.1909 151.712 80.0922 151.679C80.0123 151.652 79.9842 151.56 79.9869 151.486C80.0006 151.126 80.0638 150.871 80.1016 150.455C80.1188 150.263 80.1663 150.004 80.178 149.81C80.1905 149.619 80.2011 149.429 80.2241 149.24Z"
                  fill="#455A64"
                />
                <path
                  d="M77.1725 161.171C77.0855 161.592 76.5465 164.388 77.3975 165.004C78.3183 165.671 78.9384 163.497 78.9384 163.497C78.9384 163.497 81.1844 163.158 84.3575 164.793C84.1706 165.235 84.6 166.816 85.5009 166.6C86.3956 166.385 86.8905 163.164 86.8967 163.122C86.9022 165.989 86.6885 168.235 84.9705 170.083C82.7998 172.418 78.711 170.157 77.6155 168.217C76.5196 166.276 76.403 164.925 76.9763 161.999C77.034 161.706 77.1003 161.433 77.1725 161.171Z"
                  fill="#37474F"
                />
                <path
                  d="M79.1829 163.718C79.1201 164.793 77.9373 164.287 77.954 162.76C77.9704 161.234 79.0729 157.738 79.1818 155.122C79.3701 151.53 79.5265 149.205 80.2242 149.239C80.2199 149.275 80.2192 149.312 80.2156 149.348L80.0561 150.844C80.0261 151.061 79.9965 151.253 79.9879 151.485C79.8713 153.679 79.8592 157.94 79.555 159.923C79.2508 161.906 79.2453 162.643 79.1829 163.718Z"
                  fill="#37474F"
                />
                <path
                  d="M83.9842 164.719C84.2603 163.689 84.4845 162.997 84.8172 161.021C85.1471 159.059 86.3047 155.129 86.8776 153.016C87.064 152.669 87.1397 151.994 87.1751 151.819C87.2348 151.524 87.2941 151.15 87.3518 150.839C87.3577 150.817 87.3631 150.796 87.3678 150.774C87.7953 151.012 87.6549 152.712 87.4326 153.593C87.2103 154.474 86.938 155.418 86.6603 156.681C85.9482 159.172 85.894 162.908 85.4342 164.342C84.9748 165.776 83.7084 165.75 83.9842 164.719Z"
                  fill="#37474F"
                />
                <path
                  d="M84.4217 164.889C84.3897 164.882 84.3585 164.87 84.3288 164.853C84.3047 164.838 81.8321 163.395 78.9948 163.726C78.8548 163.741 78.7179 163.651 78.6867 163.526C78.6555 163.4 78.7433 163.284 78.8825 163.268C81.9186 162.915 84.4782 164.412 84.5866 164.477C84.7099 164.55 84.7528 164.694 84.681 164.798C84.6272 164.876 84.5223 164.91 84.4217 164.889Z"
                  fill="#263238"
                />
                <path
                  d="M85.1077 162.621C85.0789 162.615 85.0508 162.605 85.0231 162.59C84.9958 162.575 82.2112 161.059 79.0506 161.33C78.911 161.34 78.7761 161.249 78.7492 161.122C78.7226 160.995 78.8151 160.882 78.9551 160.87C82.2982 160.586 85.1444 162.138 85.2649 162.203C85.3909 162.274 85.4392 162.416 85.3725 162.523C85.3199 162.606 85.2122 162.643 85.1077 162.621Z"
                  fill="#263238"
                />
                <path
                  d="M79.3193 159.13C79.2222 159.11 79.1372 159.042 79.1076 158.95C79.0678 158.825 79.1458 158.704 79.2819 158.679C82.4417 158.113 85.4583 159.883 85.5855 159.96C85.7095 160.033 85.7516 160.177 85.6798 160.281C85.6085 160.384 85.449 160.406 85.3277 160.336C85.2992 160.319 82.3683 158.602 79.4281 159.132C79.3923 159.139 79.3552 159.138 79.3193 159.13Z"
                  fill="#263238"
                />
                <path
                  d="M79.5927 157.058C79.4976 157.038 79.4137 156.972 79.3829 156.883C79.34 156.757 79.4153 156.635 79.5514 156.608C83.0294 155.927 85.8643 157.806 85.9833 157.886C86.1018 157.967 86.1346 158.111 86.0554 158.211C85.9762 158.31 85.8132 158.325 85.6978 158.245C85.6716 158.227 82.9436 156.426 79.707 157.059C79.6684 157.067 79.6298 157.066 79.5927 157.058Z"
                  fill="#263238"
                />
                <path
                  d="M79.9105 154.732C79.8169 154.712 79.7335 154.648 79.7015 154.559C79.657 154.435 79.73 154.311 79.8657 154.283C83.1269 153.598 86.211 155.546 86.3401 155.63C86.461 155.707 86.4969 155.852 86.4208 155.953C86.3455 156.054 86.1864 156.075 86.0651 155.995C86.0351 155.976 83.0555 154.095 80.0275 154.732C79.9882 154.74 79.9488 154.74 79.9105 154.732Z"
                  fill="#263238"
                />
                <path
                  d="M84.4491 73.9807C82.8173 91.2718 82.4238 116.024 82.4238 116.024C82.2819 117.337 81.2823 121.25 80.4231 127.71C79.6576 133.467 80.427 145.424 80.4231 146.147C80.4231 146.147 84.5084 149.004 88.3085 147.781C88.3085 147.781 93.0123 129.993 95.0902 121.964C97.0566 114.365 99.6759 102.15 99.6759 102.15L101.165 114.574C101.165 114.574 100.808 119.591 100.891 123.047C100.987 127.066 103.808 143.047 103.808 143.047C103.808 143.047 108.367 145.624 112.344 142.611C112.344 142.611 114.768 119.224 114.962 114.394C115.343 104.921 115.264 85.6741 114.115 74.0244L84.4491 73.9807Z"
                  fill="#455A64"
                />
                <path
                  d="M99.6758 102.15L101.834 89.8646C101.834 89.8646 106.425 89.264 108.809 87.1436C108.809 87.1436 107.246 89.9757 102.908 91.0174L100.779 102.198L101.165 114.574L99.6758 102.15Z"
                  fill="#263238"
                />
                <path
                  d="M80.1921 146.306C81.118 147.61 84.9564 149.121 88.3603 148.004L89.214 144.859C86.6455 145.642 82.249 145.105 80.1921 143.388V146.306Z"
                  fill="#37474F"
                />
                <path
                  d="M103.755 143.211C104.887 144.332 109.244 144.949 112.408 143.244L112.584 140.519C110.186 141.746 105.607 141.857 103.293 140.531L103.755 143.211Z"
                  fill="#37474F"
                />
                <path
                  d="M110.234 41.7756C113.951 42.6286 115.736 43.292 118.533 47.5203C121.331 51.7487 124.067 56.6405 124.813 58.8791C125.559 61.1177 126.05 65.5216 124.536 66.6452C123.021 67.7687 110.234 54.8165 110.234 54.8165V41.7756Z"
                  fill="#BA68C8"
                />
                <path
                  d="M94.9418 40.3365L93.7718 40.3482C93.7718 40.3482 84.7835 43.0447 83.8378 43.4351C83.8378 43.4351 81.9981 49.3849 83.3101 58.0694C83.5835 59.8775 84.0823 64.8071 84.0593 68.594C84.0285 73.7112 83.6576 80.5689 83.6576 80.5689C83.6576 80.5689 89.903 84.1562 102.375 83.4163C112.167 82.8356 114.794 80.2214 114.794 80.2214C114.794 80.2214 114.418 67.018 114.279 59.8014C114.096 50.3233 112.319 43.4639 110.234 41.7756L103.441 40.0405L94.9418 40.3365Z"
                  fill="#37474F"
                />
                <path
                  d="M106.923 22.517C106.276 21.3486 105.444 20.8841 104.915 20.7015C104.438 18.3346 101.332 16.6627 99.4113 16.0469C96.801 15.21 94.1283 15.8176 91.6655 16.8285C90.7919 17.1869 89.8582 17.4985 88.9203 17.3893C88.5104 17.3417 88.0416 17.1401 87.9733 16.7329C87.6531 16.9045 87.4839 17.2656 87.3907 17.6166C87.1727 18.438 87.2655 19.3381 87.6461 20.0978C87.2787 20.1485 86.9933 20.4445 86.7936 20.7569C86.1743 21.7249 86.1142 23.0103 86.5857 24.0583C87.5833 26.277 89.9904 26.2895 92.013 26.9209C94.0187 27.5472 96.0241 28.1736 98.0299 28.7995C99.7131 29.3252 101.396 29.8506 103.079 30.3763L103.009 33.0236L103.013 36.8206C103.013 36.8206 103.959 36.5476 104.4 35.651C104.84 34.7544 105.569 33.5103 106.351 30.31C107.565 25.3375 107.441 23.4507 106.923 22.517Z"
                  fill="#263238"
                />
                <path
                  d="M106.506 33.643C104.565 34.652 103.627 33.1208 103.627 33.1208L103.542 40.4212C104.608 41.1505 107.088 44.7241 103.004 45.7818C98.7689 46.8785 94.3981 43.5572 93.812 41.1872L93.7718 38.8721C93.7718 38.8721 93.1123 38.8913 92.0648 38.7516C90.3172 38.5239 88.8231 37.3554 88.2537 35.0252C87.5673 32.2152 87.6535 26.8091 88.3574 23.0861C88.6289 21.6501 89.0777 21.2465 89.9081 20.8077C91.9696 19.7189 98.0895 19.3667 99.7949 21.8689C99.5996 23.4141 100.088 25.1024 101.514 25.5774C101.624 28.011 102 29.181 102.967 29.5578C103.754 29.8643 104.101 28.6514 104.622 28.0773C105.147 27.5075 107.139 26.9534 108.053 28.7704C108.978 30.6201 108.304 32.7082 106.506 33.643Z"
                  fill="#C8856A"
                />
                <path
                  d="M93.7715 38.8715C96.0549 38.7967 98.074 38.4601 99.4066 37.8556C100.739 37.2511 101.885 35.3959 102.228 33.5769C102.267 35.0324 101.698 37.6306 99.6839 38.7573C97.6695 39.8844 95.2925 40.0057 93.7988 40.0782L93.7715 38.8715Z"
                  fill="#AF6152"
                />
                <path
                  d="M95.5562 25.2242L97.4933 26.023C97.7027 25.4688 97.4383 24.8405 96.9036 24.6201C96.3681 24.3994 95.7652 24.67 95.5562 25.2242Z"
                  fill="#263238"
                />
                <path
                  d="M89.1093 25.6085L91.1354 25.0149C90.9911 24.4447 90.4209 24.1156 89.8613 24.2794C89.3016 24.4436 88.965 25.0383 89.1093 25.6085Z"
                  fill="#263238"
                />
                <path
                  d="M91.1128 27.3417C91.1093 27.7539 90.6651 28.0842 90.1215 28.0795C89.5774 28.0749 89.1394 27.7367 89.1433 27.3241C89.1472 26.9119 89.5938 27.5585 90.1378 27.5636C90.6815 27.5686 91.1167 26.9294 91.1128 27.3417Z"
                  fill="#263238"
                />
                <path
                  d="M97.4246 27.4899C97.4211 27.9021 96.9769 28.2324 96.4332 28.2277C95.8892 28.2227 95.4512 27.8849 95.4551 27.4723C95.459 27.0601 95.9056 27.7067 96.4496 27.7118C96.9933 27.7164 97.4285 27.0776 97.4246 27.4899Z"
                  fill="#263238"
                />
                <path
                  d="M93.8604 26.0229L93.3023 31.4744L90.4038 30.4916C91.3745 28.5486 92.5266 27.0588 93.8604 26.0229Z"
                  fill="#AF6152"
                />
                <path
                  d="M96.272 32.923C96.1195 32.8641 95.9494 32.8641 95.7876 32.8598C95.6293 32.8555 95.4705 32.8626 95.3137 32.8848C95.0735 32.9183 94.8344 32.964 94.5993 33.0244C94.1352 33.1438 93.6001 33.3337 93.2612 33.6839C93.1629 33.7857 93.3458 33.9791 93.4601 33.9355C93.7011 33.843 93.9285 33.7202 94.1675 33.6223C94.4011 33.5267 94.6465 33.4573 94.8918 33.3976C95.1273 33.3403 95.366 33.3064 95.6051 33.2674C95.7326 33.2467 95.8597 33.2245 95.9873 33.2019C96.1051 33.1812 96.2377 33.1769 96.3336 33.1001C96.3944 33.0505 96.3254 32.9437 96.272 32.923Z"
                  fill="#AF6152"
                />
                <path
                  d="M84.4537 43.6051C79.9586 45.2724 77.4965 49.8147 81.5022 55.9319C84.9642 61.2187 91.8017 67.2941 94.0274 68.7375C97.7332 71.1411 99.5732 71.0491 102.599 67.7871C106.145 63.9647 111.536 57.6646 113.067 55.6678C114.598 53.671 116.834 53.4238 117.789 51.5116C118.744 49.5991 119.007 48.3936 119.897 46.8628C120.609 45.637 122.712 43.705 123.143 42.0841C123.372 41.7351 123.555 41.3853 123.665 41.0366C123.857 40.4329 123.531 40.0019 123.119 40.0402C123.301 39.8077 123.377 39.6728 123.378 39.197C123.379 38.6404 122.761 38.5492 122.462 38.6958C121.864 38.9879 120.769 39.6775 120.769 39.6775C120.223 39.6775 120.02 39.6954 119.804 39.7453C119.492 39.8179 119.22 40.0015 118.955 40.1817C118.123 40.748 117.29 41.3147 116.458 41.881C115.961 42.2191 115.462 42.5592 115.018 42.9652C114.029 43.8711 113.429 45.031 112.796 46.1908C112.179 47.3226 111.32 48.477 110.48 49.4657C108.853 51.379 97.9302 59.1252 97.9302 59.1252C97.9302 59.1252 93.9631 54.8488 91.2257 50.6797C87.5987 45.1573 86.4326 44.3372 84.4537 43.6051Z"
                  fill="#C8856A"
                />
                <path
                  d="M118.726 44.4658C119.761 43.5356 120.781 42.5903 121.883 41.737C122.2 41.5346 122.535 41.1563 122.94 41.1726C123.459 41.5736 123.216 42.3879 122.964 42.8492C122.213 44.0345 121.291 45.0742 120.397 46.1475C120.952 45.3515 122.327 43.5649 122.801 42.7611C123.038 42.3309 123.167 41.728 122.877 41.3626C122.877 41.3626 122.863 41.3622 122.843 41.3657C121.341 42.1788 120.12 43.4756 118.726 44.4658Z"
                  fill="#AF6152"
                />
                <path
                  d="M117.373 44.1156C119.048 42.4811 120.925 40.9149 123.119 40.0405C121.079 41.147 119.207 42.698 117.373 44.1156Z"
                  fill="#AF6152"
                />
                <path
                  d="M120.769 39.6782C119.263 40.7328 117.817 41.8392 116.297 42.8739C117.638 41.6232 119.121 40.4929 120.769 39.6782Z"
                  fill="#AF6152"
                />
                <path
                  d="M92.8434 52.416C91.1059 50.021 88.2769 43.976 84.6662 43.1472C81.8228 43.8925 79.2292 46.5379 79.2292 49.7784C79.2292 53.0189 80.0553 54.779 82.685 58.2075C85.3148 61.6359 90.6757 66.8292 94.0274 68.7371C94.0535 64.1807 95.5784 60.6851 97.9142 59.1177C97.9142 59.1177 94.5812 54.8113 92.8434 52.416Z"
                  fill="#BA68C8"
                />
                <path
                  opacity="0.2"
                  d="M97.9138 59.118C96.158 60.3411 94.1316 62.5485 93.9171 64.9517C93.1211 61.3161 97.0995 58.0615 97.0995 58.0615L97.9138 59.118Z"
                  fill="black"
                />
                <path
                  d="M122.435 58.0452C123.249 58.7944 123.948 59.7838 124.472 60.9433C124.914 61.9226 125.115 63.0033 125.109 64.075C125.104 64.9104 125.119 66.4228 124.249 66.8534C124.002 66.9754 123.723 67.0215 123.447 67.0289C122.987 67.0417 122.541 67.0843 122.064 67.0472C121.558 67.0082 121.054 66.9466 120.552 66.8682C119.547 66.7106 118.594 66.3534 117.703 65.8659C115.867 64.862 114.674 63.3672 113.319 61.8212C111.15 59.3459 108.944 56.8717 106.941 54.2583C105.41 52.2615 103.174 52.0143 102.219 50.1017C101.264 48.1895 101.001 46.9837 100.111 45.4529C99.3993 44.2271 97.2965 42.2951 96.8647 40.6742C96.6362 40.3252 96.4537 39.9754 96.3429 39.6267C96.1514 39.023 96.4771 38.592 96.8889 38.6302C96.7068 38.3978 96.6311 38.2629 96.6303 37.7871C96.6292 37.2305 97.2465 37.1393 97.5465 37.2859C98.1439 37.578 99.2391 38.2679 99.2391 38.2679C99.7858 38.2679 99.9882 38.2855 100.204 38.3358C100.516 38.4083 100.788 38.592 101.053 38.7722C101.885 39.3385 102.718 39.9052 103.55 40.4714C104.047 40.8096 104.546 41.1496 104.99 41.5556C105.979 42.4616 106.579 43.6215 107.212 44.7813C107.829 45.9131 108.688 47.0675 109.528 48.0562C111.184 50.0038 113.602 51.5053 115.632 53.0228C116.959 54.0146 118.395 55.0695 119.739 56.0379C120.76 56.7742 121.592 57.2699 122.435 58.0452Z"
                  fill="#C8856A"
                />
                <path
                  d="M112.919 61.3634C110.723 58.9021 108.561 56.3305 106.459 53.79C105.699 52.9894 104.714 52.4648 103.791 51.8482C101.794 50.6466 101.448 48.1335 100.436 46.2201C99.5131 44.219 97.5089 42.8911 96.7777 40.6985C96.5324 40.3073 95.9797 39.486 96.2878 38.8799C96.3931 38.6623 96.647 38.5067 96.8978 38.5364L96.8136 38.6908C96.7055 38.5598 96.5936 38.3843 96.5647 38.1971C96.4922 37.841 96.5062 37.3445 96.9122 37.1948C97.0943 37.1171 97.2921 37.1058 97.4824 37.1577C98.1434 37.4483 98.6863 37.8195 99.292 38.1854L99.2394 38.1701C99.5576 38.1748 99.8821 38.1647 100.212 38.2396C100.548 38.316 100.829 38.5059 101.09 38.6842L102.667 39.7621C103.696 40.4953 104.844 41.1283 105.662 42.1474C106.873 43.6598 107.515 45.4869 108.744 46.9732C109.855 48.5426 111.405 49.6787 112.895 50.8658C113.897 51.6513 114.911 52.42 115.929 53.1851C117.961 54.7194 120.013 56.2271 122.077 57.7177C118.956 55.5154 115.843 53.2986 112.823 50.9571C111.819 50.1736 110.815 49.3881 109.878 48.5165C108.978 47.5996 108.227 46.5641 107.535 45.4862C106.869 44.3934 106.351 43.2206 105.534 42.2531C104.739 41.2679 103.602 40.6443 102.564 39.9127L100.983 38.8417C100.465 38.4264 99.8844 38.3378 99.2386 38.369C98.6462 38.0606 98.035 37.6132 97.4266 37.3504C97.145 37.2657 96.7773 37.3948 96.7379 37.6854C96.7055 37.9911 96.7387 38.3273 96.9637 38.573L97.1064 38.7524L96.8795 38.7275C95.8842 38.8417 96.6256 40.1576 96.9473 40.6381C97.2578 41.6915 97.9886 42.5744 98.6629 43.4285C99.3614 44.2869 100.109 45.1328 100.572 46.1531C101.318 47.6312 101.72 49.2867 102.646 50.656C103.69 51.9648 105.406 52.4718 106.537 53.7148C108.637 56.2689 110.743 58.8725 112.919 61.3634Z"
                  fill="#AF6152"
                />
                <path
                  d="M101.282 43.0568C99.8883 42.0666 98.6664 40.7698 97.1653 39.9567C97.1458 39.9535 97.1314 39.9539 97.1314 39.9539C97.1536 39.9422 97.1267 39.9609 97.1131 39.9801C96.837 40.3775 96.9836 40.9262 97.2075 41.3521C97.6739 42.1477 99.0646 43.9557 99.6114 44.7388C98.7175 43.6652 97.7956 42.6258 97.044 41.4406C96.7917 40.9796 96.5491 40.1649 97.0678 39.764C97.4723 39.7468 97.8081 40.1259 98.1251 40.3279C99.2269 41.1813 100.247 42.1266 101.282 43.0568Z"
                  fill="#AF6152"
                />
                <path
                  d="M102.636 42.7067C100.8 41.2879 98.9308 39.7392 96.8892 38.6316C99.0825 39.506 100.96 41.0722 102.636 42.7067Z"
                  fill="#AF6152"
                />
                <path
                  d="M99.2393 38.2693C100.887 39.0844 102.37 40.2142 103.711 41.4649C102.191 40.4299 100.745 39.3235 99.2393 38.2693Z"
                  fill="#AF6152"
                />
                <path
                  d="M72.4605 25.8668C73.1313 19.8666 68.8109 14.4587 62.8108 13.7879C56.8106 13.1172 51.4027 17.4375 50.7319 23.4377C50.0611 29.4379 54.3815 34.8458 60.3816 35.5166C66.3818 36.1873 71.7897 31.867 72.4605 25.8668Z"
                  fill="white"
                />
                <path
                  d="M48.8901 28.1167C50.805 35.1363 58.0461 39.2696 65.0611 37.3562C72.0807 35.4413 76.2151 28.2049 74.3002 21.1853C72.3868 14.1707 65.1492 10.0313 58.1292 11.9458C51.1147 13.8595 46.9764 21.1018 48.8901 28.1167ZM51.0484 27.5278C49.4599 21.7051 52.8954 15.6925 58.7181 14.104C64.5459 12.5144 70.5534 15.9511 72.1419 21.7738C73.7316 27.6015 70.2999 33.6079 64.4722 35.1972C58.6495 36.786 52.638 33.3556 51.0484 27.5278Z"
                  fill="#BA68C8"
                />
                <path
                  d="M72.8701 30.7815L75.4192 36.0067C75.8544 36.899 74.964 37.86 74.0413 37.4938L68.6375 35.3507L72.8701 30.7815Z"
                  fill="#BA68C8"
                />
                <path
                  d="M52.1511 32.1225L54.1248 34.0962L71.0413 17.1797L69.0676 15.206L52.1511 32.1225Z"
                  fill="#BA68C8"
                />
                <path
                  d="M34.6135 80.6019L32.103 85.2212L55.1366 97.7394L57.6471 93.1201L34.6135 80.6019Z"
                  fill="#E0E0E0"
                />
                <path
                  d="M36.3065 99.4373L40.9258 101.948L53.444 78.9142L48.8247 76.4037L36.3065 99.4373Z"
                  fill="#E0E0E0"
                />
                <path
                  d="M139.986 93.1275L142.497 97.7468L165.53 85.2286L163.02 80.6093L139.986 93.1275Z"
                  fill="#E0E0E0"
                />
                <path
                  d="M148.8 76.4058L144.181 78.9163L156.699 101.95L161.318 99.4393L148.8 76.4058Z"
                  fill="#E0E0E0"
                />
              </svg>