<svg
                width="227"
                height="227"
                viewBox="0 0 227 227"
                fill="none"
                xmlns="http://www.w3.org/2000/svg"
              >
                <path d="M227 173.609H0V173.722H227V173.609Z" fill="#EBEBEB" />
                <path
                  d="M204.255 180.916H189.218V181.03H204.255V180.916Z"
                  fill="#EBEBEB"
                />
                <path
                  d="M150.374 182.148H146.427V182.262H150.374V182.148Z"
                  fill="#EBEBEB"
                />
                <path
                  d="M188.763 176.7H180.05V176.814H188.763V176.7Z"
                  fill="#EBEBEB"
                />
                <path
                  d="M43.426 177.463H23.8164V177.577H43.426V177.463Z"
                  fill="#EBEBEB"
                />
                <path
                  d="M50.3437 177.463H47.4685V177.577H50.3437V177.463Z"
                  fill="#EBEBEB"
                />
                <path
                  d="M102.217 179.38H59.6877V179.494H102.217V179.38Z"
                  fill="#EBEBEB"
                />
                <path
                  d="M107.604 153.361H19.9374C18.5086 153.361 17.3459 152.199 17.3459 150.77V27.5397C17.3459 26.1109 18.5086 24.9482 19.9374 24.9482H107.604C109.033 24.9482 110.195 26.1109 110.195 27.5397V150.77C110.195 152.199 109.033 153.361 107.604 153.361ZM19.9374 25.0622C18.5708 25.0622 17.4594 26.1736 17.4594 27.5401V150.77C17.4594 152.137 18.5708 153.248 19.9374 153.248H107.604C108.97 153.248 110.082 152.137 110.082 150.77V27.5397C110.082 26.1736 108.97 25.0617 107.604 25.0617L19.9374 25.0622Z"
                  fill="#EBEBEB"
                />
                <path
                  d="M205.803 153.361H118.136C116.707 153.361 115.545 152.199 115.545 150.77V27.5397C115.545 26.1109 116.708 24.9482 118.136 24.9482H205.803C207.232 24.9482 208.394 26.1109 208.394 27.5397V150.77C208.395 152.199 207.232 153.361 205.803 153.361ZM118.136 25.0622C116.77 25.0622 115.659 26.1736 115.659 27.5401V150.77C115.659 152.137 116.77 153.248 118.136 153.248H205.803C207.169 153.248 208.281 152.137 208.281 150.77V27.5397C208.281 26.1736 207.169 25.0617 205.803 25.0617L118.136 25.0622Z"
                  fill="#EBEBEB"
                />
                <path
                  d="M178.455 34.5781H45.9839V96.5573H178.455V34.5781Z"
                  fill="#E6E6E6"
                />
                <path
                  d="M180.451 34.5781H46.9165V96.5573H180.451V34.5781Z"
                  fill="#F0F0F0"
                />
                <path
                  d="M178.455 96.5574H45.9839V99.719H178.455V96.5574Z"
                  fill="#E6E6E6"
                />
                <path
                  d="M183.775 96.5574H50.241V99.719H183.775V96.5574Z"
                  fill="#F0F0F0"
                />
                <path
                  d="M177.656 93.7637V37.3723L49.7102 37.3723L49.7102 93.7637L177.656 93.7637Z"
                  fill="#FAFAFA"
                />
                <path
                  d="M63.4387 93.7639L71.2148 37.3726H83.3493L75.5728 93.7639H63.4387Z"
                  fill="white"
                />
                <path
                  d="M51.0037 90.9825C50.8934 90.9825 50.804 90.8931 50.804 90.7828V39.1898C50.804 39.0794 50.8934 38.99 51.0037 38.99C51.114 38.99 51.2035 39.0794 51.2035 39.1898V90.7832C51.2035 90.8931 51.114 90.9825 51.0037 90.9825Z"
                  fill="#F0F0F0"
                />
                <path
                  d="M78.1797 93.7639L85.9558 37.3726H90.6865L82.9104 93.7639H78.1797Z"
                  fill="white"
                />
                <path
                  d="M177.656 93.7634V37.3721H177.302V93.7634H177.656Z"
                  fill="#E6E6E6"
                />
                <path
                  opacity="0.6"
                  d="M181.111 41.5847H48.6403L48.3833 38.458H180.854L181.111 41.5847Z"
                  fill="#EBEBEB"
                />
                <path
                  opacity="0.6"
                  d="M181.111 46.7126H48.6403L48.3833 43.5859H180.854L181.111 46.7126Z"
                  fill="#EBEBEB"
                />
                <path
                  opacity="0.6"
                  d="M181.111 51.8406H48.6403L48.3833 48.7139H180.854L181.111 51.8406Z"
                  fill="#EBEBEB"
                />
                <path
                  opacity="0.6"
                  d="M181.111 56.9685H48.6403L48.3833 53.8418H180.854L181.111 56.9685Z"
                  fill="#EBEBEB"
                />
                <path
                  opacity="0.6"
                  d="M181.111 62.0964H48.6403L48.3833 58.9697H180.854L181.111 62.0964Z"
                  fill="#EBEBEB"
                />
                <path
                  opacity="0.6"
                  d="M181.111 67.2244H48.6403L48.3833 64.0977H180.854L181.111 67.2244Z"
                  fill="#EBEBEB"
                />
                <path
                  d="M199.306 112.138H179.09V173.609H199.306V112.138Z"
                  fill="#E6E6E6"
                />
                <path
                  d="M193.908 173.609H199.306V165.124H188.248L193.908 173.609Z"
                  fill="#FAFAFA"
                />
                <path
                  d="M144.184 112.138H123.968V173.609H144.184V112.138Z"
                  fill="#E6E6E6"
                />
                <path
                  d="M199.306 112.138H139.473V170.689H199.306V112.138Z"
                  fill="#FAFAFA"
                />
                <path
                  d="M144.871 173.609H139.473V165.124H150.531L144.871 173.609Z"
                  fill="#FAFAFA"
                />
                <path
                  d="M195.118 133.956H143.661V148.608H195.118V133.956Z"
                  fill="#F0F0F0"
                />
                <path
                  d="M195.118 151.74H143.661V166.393H195.118V151.74Z"
                  fill="#F0F0F0"
                />
                <path
                  d="M184.911 135.523H153.868C152.696 135.523 151.746 134.572 151.746 133.401V132.687H187.033V133.401C187.033 134.572 186.082 135.523 184.911 135.523Z"
                  fill="#FAFAFA"
                />
                <path
                  d="M195.118 116.172H143.661V130.824H195.118V116.172Z"
                  fill="#F0F0F0"
                />
                <path
                  d="M184.911 117.738H153.868C152.696 117.738 151.746 116.788 151.746 115.616V114.903H187.033V115.616C187.033 116.788 186.082 117.738 184.911 117.738Z"
                  fill="#FAFAFA"
                />
                <path
                  d="M184.911 153.307H153.868C152.696 153.307 151.746 152.357 151.746 151.185V150.471H187.033V151.185C187.033 152.357 186.082 153.307 184.911 153.307Z"
                  fill="#FAFAFA"
                />
                <path
                  d="M24.2514 125.244C25.3778 122.01 34.259 126.407 37.8628 131.766C40.2631 135.334 41.7295 139.143 42.4142 144.26C42.332 138.422 42.2389 132.149 42.1477 126.229C41.419 124.753 39.7546 121.35 38.5574 118.653C34.5631 109.656 25.0655 106.306 21.7844 100.625C17.485 93.1813 17.51 82.0156 21.1697 77.9864C24.3504 74.4851 34.8827 98.1603 36.069 100.805C40.1496 109.903 41.3359 116.655 42.1004 123.196C42.0133 117.636 41.9302 112.531 41.8616 108.592C41.6387 95.7446 41.36 91.6123 41.2324 90.3406C40.7925 89.7196 40.2735 88.9959 39.9716 88.6077C37.4229 85.3262 31.7674 81.42 28.9412 76.6498C24.8144 69.685 25.4813 61.3491 28.376 58.2451C31.4024 54.9994 36.7528 62.6702 39.5935 70.2706C42.4341 77.8711 41.2201 85.1455 42.0169 91.4575C42.1835 92.6955 42.3547 97.3976 42.5154 103.92C43.3771 96.9023 45.0937 92.2007 48.2748 87.8196C52.1874 82.431 55.5652 75.8689 58.789 76.717C62.0129 77.5651 60.2777 86.2478 57.7271 92.3432C55.4558 97.7717 44.251 103.186 42.5998 107.55C42.7942 116.392 42.968 127.592 43.0911 138.021C43.9746 132.634 43.3671 132.182 46.9868 123.935C49.1388 119.032 57.9614 112.986 59.0138 116.354C60.0461 119.66 58.4667 126.089 55.1361 130.549C52.4494 134.146 46.4879 134.142 45.1082 136.373C44.7863 136.894 43.7221 138.89 43.1142 140.038C43.2581 152.77 43.3226 164.008 43.2513 167.84L42.6729 167.878C42.7006 166.889 42.6307 160.412 42.5172 151.842C41.0699 147.281 31.3243 144.619 28.3138 139.877C25.1644 134.914 22.9003 129.122 24.2514 125.244Z"
                  fill="#E6E6E6"
                />
                <path
                  d="M33.415 173.609H52.1198C53.1418 173.609 54.0226 172.889 54.2255 171.887L55.5534 165.341H29.9814L31.3094 171.887C31.5123 172.889 32.3931 173.609 33.415 173.609Z"
                  fill="#F0F0F0"
                />
                <path
                  d="M29.4466 167.879H56.0882C56.7265 167.879 57.2631 167.399 57.3344 166.765L57.8792 161.925C57.9628 161.181 57.3812 160.53 56.633 160.53H28.9018C28.1536 160.53 27.5715 161.181 27.6555 161.925L28.2003 166.765C28.2716 167.399 28.8082 167.879 29.4466 167.879Z"
                  fill="#F0F0F0"
                />
                <path
                  d="M80.7393 144.199H64.7554V173.609H80.7393V144.199Z"
                  fill="#E0E0E0"
                />
                <path
                  d="M121.481 173.609H67.9571L62.3347 133.704H115.859L121.481 173.609Z"
                  fill="#E6E6E6"
                />
                <path
                  d="M129.289 173.609H70.084L64.4617 133.704H123.667L129.289 173.609Z"
                  fill="#F0F0F0"
                />
                <path
                  d="M75.8794 167.371L71.1433 139.942H117.872L122.608 167.371H75.8794Z"
                  fill="white"
                />
                <path
                  d="M95.9574 167.371L80.0742 139.942H85.0573L100.941 167.371H95.9574Z"
                  fill="#FAFAFA"
                />
                <path
                  d="M103.053 167.371L87.1694 139.942H95.6665L111.55 167.371H103.053Z"
                  fill="#FAFAFA"
                />
                <path
                  d="M113.5 194.113C162.115 194.113 201.526 191.811 201.526 188.972C201.526 186.133 162.115 183.832 113.5 183.832C64.8848 183.832 25.4744 186.133 25.4744 188.972C25.4744 191.811 64.8848 194.113 113.5 194.113Z"
                  fill="#F5F5F5"
                />
                <path
                  d="M35.0787 100.575C34.9788 100.575 34.8948 100.498 34.8862 100.397L33.8774 88.2743C33.8683 88.1681 33.9473 88.075 34.054 88.066C34.1539 88.0582 34.2533 88.1359 34.2624 88.2426L35.2712 100.365C35.2803 100.472 35.2013 100.565 35.0946 100.574C35.0891 100.574 35.0841 100.575 35.0787 100.575Z"
                  fill="#407BFF"
                />
                <path
                  d="M35.6775 107.775C35.5776 107.775 35.4936 107.699 35.485 107.597L35.1794 103.928C35.1703 103.822 35.2493 103.728 35.356 103.719C35.4582 103.706 35.5558 103.789 35.5644 103.896L35.87 107.566C35.879 107.672 35.8 107.765 35.6934 107.774C35.6884 107.775 35.6829 107.775 35.6775 107.775Z"
                  fill="#407BFF"
                />
                <path
                  d="M137.814 142.27H44.0747C41.683 142.27 39.5633 140.314 39.364 137.922L34.0849 74.4646C33.886 72.0729 35.6798 70.1157 38.0719 70.1157H131.811C134.203 70.1157 136.323 72.0725 136.522 74.4646L141.801 137.922C142 140.313 140.206 142.27 137.814 142.27Z"
                  fill="white"
                />
                <path
                  d="M137.814 142.452H44.0747C41.585 142.452 39.3908 140.426 39.1838 137.937L33.9047 74.48C33.8034 73.2692 34.1852 72.1274 34.9784 71.2652C35.7679 70.4072 36.8666 69.9346 38.0719 69.9346H131.812C134.301 69.9346 136.495 71.9603 136.702 74.4496L141.982 137.906C142.083 139.117 141.701 140.258 140.908 141.12C140.118 141.978 139.019 142.452 137.814 142.452ZM38.0719 70.2973C36.9692 70.2973 35.9654 70.7282 35.2453 71.5109C34.5212 72.2972 34.1734 73.3409 34.2656 74.4501L39.5447 137.907C39.7368 140.213 41.7689 142.089 44.0752 142.089H137.814C138.918 142.089 139.921 141.658 140.642 140.875C141.366 140.088 141.713 139.045 141.621 137.937L136.342 74.48C136.15 72.1737 134.118 70.2973 131.812 70.2973H38.0719Z"
                  fill="#407BFF"
                />
                <path
                  d="M131.811 70.1162H38.0719C35.6802 70.1162 33.886 72.073 34.0849 74.4651H136.521C136.323 72.073 134.203 70.1162 131.811 70.1162Z"
                  fill="#407BFF"
                />
                <path
                  d="M40.2662 72.2903C40.3093 72.8083 39.9243 73.2282 39.4063 73.2282C38.8883 73.2282 38.4334 72.8083 38.3903 72.2903C38.3471 71.7722 38.7321 71.3523 39.2501 71.3523C39.7682 71.3523 40.2231 71.7722 40.2662 72.2903Z"
                  fill="white"
                />
                <path
                  d="M44.0797 72.2903C44.1228 72.8083 43.7378 73.2282 43.2198 73.2282C42.7018 73.2282 42.2474 72.8083 42.2042 72.2903C42.1611 71.7722 42.5461 71.3523 43.0641 71.3523C43.5821 71.3523 44.0366 71.7722 44.0797 72.2903Z"
                  fill="white"
                />
                <path
                  d="M47.8934 72.2903C47.9365 72.8083 47.5516 73.2282 47.0335 73.2282C46.5155 73.2282 46.0606 72.8083 46.0179 72.2903C45.9748 71.7722 46.3598 71.3523 46.8778 71.3523C47.3958 71.3523 47.8503 71.7722 47.8934 72.2903Z"
                  fill="white"
                />
                <path
                  d="M129.679 133.955H50.8262C48.9248 133.955 47.24 132.399 47.0816 130.498L43.3992 86.2378C43.2412 84.3364 44.6672 82.781 46.5685 82.781H125.421C127.322 82.781 129.007 84.3364 129.166 86.2378L132.848 130.498C133.007 132.399 131.58 133.955 129.679 133.955Z"
                  fill="#F0F0F0"
                />
                <path
                  opacity="0.1"
                  d="M105.293 90.5308L80.864 119.942C77.5131 123.977 79.636 130.127 84.7621 131.236L124.384 139.805C129.856 140.989 134.428 135.579 132.349 130.381L117.155 92.4C115.188 87.4818 108.677 86.4562 105.293 90.5308Z"
                  fill="#263238"
                />
                <path
                  opacity="0.1"
                  d="M50.9211 94.6545L42.4126 117.566C41.2772 120.623 43.7356 123.814 46.9812 123.496L71.8282 121.059C75.3122 120.717 77.0311 116.65 74.8478 113.913L58.5097 93.4377C56.3677 90.7541 52.1164 91.4356 50.9211 94.6545Z"
                  fill="#263238"
                />
                <path
                  d="M113.72 83.1255L90.8829 116.284C87.7721 120.801 90.5279 127.01 95.9641 127.733L137.943 133.32C143.77 134.096 148.102 128.054 145.499 122.784L126.356 84.0381C123.873 79.0114 116.9 78.5075 113.72 83.1255Z"
                  fill="#407BFF"
                />
                <path
                  d="M96.9606 124.761C95.4338 124.558 94.1067 123.595 93.4107 122.186C92.7148 120.777 92.7947 119.216 93.625 118.01L116.519 84.7676C117.35 83.5623 118.757 82.9634 120.283 83.1664C121.81 83.3698 123.137 84.3322 123.833 85.741L143.024 124.584C143.72 125.994 143.64 127.554 142.809 128.761C141.979 129.966 140.571 130.565 139.045 130.362L96.9606 124.761Z"
                  fill="white"
                />
                <path
                  d="M118.334 94.9173L121.008 95.2732C122.727 95.502 124.05 97.0661 123.963 98.7663L123.783 102.254C123.777 102.382 123.762 102.509 123.74 102.633L121.838 113.143C121.563 114.658 120.18 115.637 118.61 115.429C117.036 115.219 115.77 113.882 115.658 112.312L114.887 101.45C114.878 101.325 114.877 101.199 114.883 101.074L115.063 97.5822C115.15 95.8816 116.615 94.6885 118.334 94.9173ZM118.121 118.326L118.85 118.423C120.388 118.627 121.571 120.026 121.493 121.547C121.415 123.068 120.105 124.135 118.567 123.931L117.837 123.833C116.299 123.629 115.116 122.23 115.194 120.709C115.273 119.188 116.583 118.121 118.121 118.326Z"
                  fill="#407BFF"
                />
                <path
                  d="M59.7032 88.1939L53.433 111.972C52.6027 115.12 55.3507 118.053 58.5464 117.429L82.8681 112.684C86.2858 112.017 87.6215 107.84 85.2253 105.314L67.1742 86.2817C64.7944 83.7729 60.5849 84.8502 59.7032 88.1939Z"
                  fill="#407BFF"
                />
                <path
                  d="M58.5002 115.504C57.6158 115.676 56.6955 115.366 56.0395 114.674C55.383 113.982 55.127 113.052 55.3553 112.187L61.6414 88.3498C61.8693 87.4853 62.5335 86.8661 63.4184 86.6936C64.3027 86.5211 65.223 86.8311 65.879 87.523L83.9759 106.603C84.6324 107.296 84.8885 108.225 84.6601 109.09C84.4322 109.954 83.768 110.574 82.8836 110.746L58.5002 115.504Z"
                  fill="white"
                />
                <path
                  d="M64.5974 93.946L66.1465 93.6437C67.1426 93.4494 68.1763 94.1126 68.4546 95.1246L69.0262 97.2007C69.0471 97.277 69.0634 97.3537 69.0748 97.4309L70.0423 103.949C70.1816 104.888 69.6037 105.726 68.6943 105.903C67.7827 106.081 66.8243 105.539 66.4607 104.642L63.9446 98.4288C63.9155 98.3566 63.8906 98.2835 63.8701 98.2091L63.2981 96.1302C63.0198 95.1187 63.6014 94.1403 64.5974 93.946ZM68.9808 107.694L69.4035 107.611C70.2947 107.438 71.219 108.031 71.4683 108.936C71.7175 109.842 71.1972 110.717 70.306 110.891L69.8838 110.973C68.9926 111.147 68.0683 110.554 67.819 109.649C67.5693 108.743 68.0896 107.868 68.9808 107.694Z"
                  fill="#407BFF"
                />
                <path
                  d="M176.317 93.5398L172.793 94.6843L175.628 98.038C175.628 98.038 176.962 96.9012 177.691 95.6264C177.995 95.0938 177.819 94.416 177.29 94.1073L176.317 93.5398Z"
                  fill="#7F3E3B"
                />
                <path
                  d="M171.172 97.4365L173.285 100.003L175.628 98.038L172.793 94.6843L171.172 97.4365Z"
                  fill="#7F3E3B"
                />
                <path
                  d="M177.453 66.1377C178.315 68.4976 179.104 70.8579 179.852 73.2519C180.59 75.6513 181.294 78.0466 181.893 80.564L182.108 81.5292L182.208 82.0336L182.258 82.2856L182.27 82.3491L182.284 82.4454L182.311 82.6383C182.437 83.6662 182.33 84.4743 182.188 85.2234C181.891 86.7066 181.409 87.9647 180.879 89.1859C179.8 91.6112 178.506 93.7908 176.992 95.9038L174.637 94.6017C175.471 92.3394 176.295 90.0095 176.912 87.7653C177.209 86.6476 177.464 85.5199 177.54 84.5442C177.574 84.0671 177.55 83.6208 177.485 83.4192L177.29 82.7092L177.037 81.8711C176.325 79.5974 175.512 77.2602 174.708 74.938C173.908 72.6117 173.102 70.2677 172.328 67.9369L177.453 66.1377Z"
                  fill="#7F3E3B"
                />
                <path
                  d="M157.845 52.0932C157.905 52.376 157.806 52.643 157.623 52.6893C157.439 52.7356 157.242 52.5436 157.182 52.2607C157.122 51.9779 157.222 51.7109 157.406 51.6646C157.589 51.6183 157.786 51.8099 157.845 52.0932Z"
                  fill="#263238"
                />
                <path
                  d="M157.831 52.6362C157.831 52.6362 157.54 54.4295 157.005 55.3943C157.6 55.7361 158.398 55.3098 158.398 55.3098L157.831 52.6362Z"
                  fill="#630F0F"
                />
                <path
                  d="M157.096 50.3753C157.043 50.3753 156.99 50.3499 156.957 50.3031C156.903 50.2264 156.922 50.1206 156.999 50.0666C157.026 50.0475 157.681 49.5994 158.536 49.9513C158.623 49.9871 158.664 50.0861 158.628 50.1728C158.593 50.2595 158.494 50.3013 158.407 50.265C157.722 49.9826 157.199 50.3413 157.194 50.3449C157.164 50.3653 157.13 50.3753 157.096 50.3753Z"
                  fill="#263238"
                />
                <path
                  d="M167.577 52.9927C167.893 56.2883 167.426 59.4794 168.164 62.3446C168.164 62.3446 167.344 65.0037 162.473 65.0037C157.117 65.0037 160.016 62.3446 160.016 62.3446C162.967 61.6464 162.975 59.4776 162.544 57.4405L167.577 52.9927Z"
                  fill="#7F3E3B"
                />
                <path
                  d="M169.202 63.2576C169.618 62.4159 169.894 61.2241 169.031 60.9222C168.082 60.5904 163.013 60.48 161.174 61.1029C159.334 61.7263 159.783 63.4333 159.783 63.4333L169.202 63.2576Z"
                  fill="#263238"
                />
                <path
                  d="M180.147 182.823C180.499 182.739 180.862 182.576 181.111 182.45C181.145 182.433 181.165 182.398 181.162 182.36C181.159 182.323 181.135 182.291 181.099 182.279C180.94 182.225 179.532 181.761 179.162 182.077C179.105 182.126 179.042 182.216 179.067 182.369C179.102 182.574 179.203 182.719 179.367 182.802C179.574 182.906 179.857 182.891 180.147 182.823ZM180.819 182.385C180.203 182.668 179.7 182.762 179.45 182.636C179.341 182.581 179.275 182.483 179.25 182.338C179.238 182.266 179.261 182.236 179.282 182.218C179.475 182.054 180.252 182.214 180.819 182.385Z"
                  fill="#407BFF"
                />
                <path
                  d="M181.091 182.458C181.108 182.453 181.124 182.444 181.137 182.431C181.16 182.407 181.169 182.371 181.158 182.339C181.144 182.293 180.792 181.215 180.264 180.958C180.127 180.892 179.988 180.883 179.852 180.933C179.643 181.011 179.618 181.157 179.621 181.238C179.641 181.682 180.601 182.336 181.046 182.457C181.061 182.461 181.076 182.461 181.091 182.458ZM179.956 181.095C180.031 181.077 180.105 181.087 180.183 181.125C180.521 181.289 180.795 181.901 180.915 182.212C180.453 182.007 179.818 181.491 179.806 181.229C179.805 181.205 179.803 181.149 179.917 181.107C179.93 181.102 179.943 181.098 179.956 181.095Z"
                  fill="#407BFF"
                />
                <path
                  d="M155.348 185.593C155.71 185.593 156.1 185.518 156.372 185.452C156.409 185.443 156.436 185.413 156.442 185.377C156.448 185.34 156.431 185.303 156.4 185.283C156.257 185.194 154.994 184.418 154.561 184.641C154.494 184.675 154.412 184.749 154.402 184.903C154.389 185.111 154.454 185.275 154.594 185.393C154.771 185.542 155.05 185.593 155.348 185.593ZM156.103 185.322C155.439 185.455 154.928 185.431 154.713 185.251C154.619 185.172 154.578 185.062 154.588 184.915C154.592 184.842 154.621 184.818 154.646 184.806C154.871 184.69 155.59 185.025 156.103 185.322Z"
                  fill="#407BFF"
                />
                <path
                  d="M156.35 185.455C156.368 185.455 156.386 185.45 156.401 185.44C156.429 185.421 156.445 185.388 156.443 185.355C156.439 185.307 156.345 184.177 155.89 183.805C155.772 183.709 155.639 183.668 155.495 183.686C155.274 183.713 155.215 183.85 155.2 183.929C155.118 184.365 155.901 185.223 156.306 185.443C156.32 185.451 156.335 185.455 156.35 185.455ZM155.56 183.868C155.636 183.868 155.706 183.894 155.773 183.949C156.064 184.187 156.19 184.845 156.235 185.176C155.832 184.87 155.333 184.222 155.382 183.964C155.387 183.94 155.397 183.885 155.517 183.87C155.532 183.868 155.546 183.868 155.56 183.868Z"
                  fill="#407BFF"
                />
                <path
                  d="M160.565 185.313H156.981L156.945 177.014H160.528L160.565 185.313Z"
                  fill="#7F3E3B"
                />
                <path
                  d="M185.533 182.243L182.083 182.875L179.608 174.709L183.058 174.077L185.533 182.243Z"
                  fill="#7F3E3B"
                />
                <path
                  d="M181.427 181.957L185.344 181.031C185.487 180.997 185.63 181.068 185.688 181.201L186.99 184.166C187.125 184.474 186.933 184.84 186.603 184.912C185.23 185.212 184.55 185.288 182.827 185.695C181.767 185.946 179.605 186.573 178.141 186.92C176.71 187.258 176.2 185.851 176.773 185.576C179.344 184.348 180.196 183.291 180.903 182.307C181.03 182.13 181.218 182.006 181.427 181.957Z"
                  fill="#263238"
                />
                <path
                  d="M157.021 184.898H160.935C161.081 184.898 161.204 185 161.23 185.143L161.815 188.328C161.875 188.658 161.613 188.971 161.275 188.966C159.864 188.942 157.828 188.859 156.053 188.859C153.978 188.859 153.239 188.972 150.806 188.972C149.335 188.972 148.984 187.485 149.605 187.35C152.432 186.736 153.667 186.671 156.147 185.177C156.417 185.015 156.712 184.898 157.021 184.898Z"
                  fill="#263238"
                />
                <path
                  d="M176.152 63.2697C179.496 65.6233 180.504 71.6892 180.504 71.6892L172.924 75.5323C172.924 75.5323 170.999 71.8013 170.156 68.0095C169.358 64.4211 173.775 61.5967 176.152 63.2697Z"
                  fill="#407BFF"
                />
                <path
                  opacity="0.2"
                  d="M172.361 67.1382L175.348 74.2941L172.926 75.5331C172.926 75.5331 171.869 73.4756 170.964 70.8455L172.361 67.1382Z"
                  fill="black"
                />
                <path
                  d="M153.856 79.011C153.882 83.0107 154.124 87.9861 154.72 94.1614H173.89C174.125 91.3462 172.949 78.073 175.802 64.7845C176.014 63.7961 175.353 62.8336 174.355 62.6784C173.133 62.4886 171.462 62.2707 169.827 62.1917C167.383 62.0745 163.84 61.9964 161.681 62.1917C160.507 62.2984 159.358 62.4859 158.413 62.6697C156.777 62.988 155.476 64.2097 155.044 65.8187C154.63 67.3568 154.207 69.7213 153.994 73.2888C153.896 74.9332 153.843 76.8254 153.856 79.011Z"
                  fill="#407BFF"
                />
                <path
                  opacity="0.2"
                  d="M159.905 71.4868C158.639 72.4175 156.214 72.8443 154.008 73.035C154.044 72.4493 154.09 71.8954 154.139 71.3733C154.734 71.0601 155.306 70.7741 155.847 70.5107L159.905 71.4868Z"
                  fill="black"
                />
                <g opacity="0.2">
                  <path
                    d="M156.946 177.017L156.964 181.628H160.549L160.531 177.017H156.946Z"
                    fill="black"
                  />
                  <path
                    d="M183.06 174.079L179.608 174.711L180.885 178.92L184.337 178.287L183.06 174.079Z"
                    fill="black"
                  />
                </g>
                <path
                  d="M167.066 49.1327C167.59 52.6612 168.075 54.6933 166.715 56.9161C164.668 60.2594 160.083 59.7409 158.527 56.4794C157.126 53.5438 156.503 48.2665 159.579 46.0324C162.609 43.8314 166.54 45.6042 167.066 49.1327Z"
                  fill="#7F3E3B"
                />
                <path
                  d="M159.734 51.7087C158.407 51.1253 158.533 49.0319 158.936 48.1493C157.398 48.6792 155.173 48.9815 154.772 47.4179C154.371 45.8544 155.733 45.35 154.901 44.0129C154.069 42.6764 156.717 41.2131 157.953 43.08C159.188 44.9468 162.236 44.126 164.208 42.3232C165.641 41.0116 167.739 42.7013 166.906 44.4166C166.906 44.4166 171.219 44.1392 170.362 47.0647C169.504 49.9903 168.293 50.0961 168.571 52.1768C168.759 53.5855 168.924 56.4471 167.234 56.8507C165.193 57.3383 160.096 55.5296 159.734 51.7087Z"
                  fill="#263238"
                />
                <path
                  opacity="0.2"
                  d="M159.71 55.5287C159.319 55.8102 158.915 56.1099 158.502 56.4277C158.511 56.4458 158.516 56.4594 158.525 56.4776C158.952 57.372 159.61 58.0621 160.382 58.5251C160.638 58.2759 160.782 57.4374 161.266 57.4501C162.704 57.4877 165.488 56.8867 165.949 55.2627L159.71 55.5287Z"
                  fill="black"
                />
                <path
                  d="M160.828 51.6588C160.928 52.5637 160.76 53.4113 160.487 53.9633C160.075 54.7937 159.433 54.2643 159.181 53.2428C158.954 52.323 158.895 50.7826 159.484 50.33C160.064 49.8832 160.713 50.6242 160.828 51.6588Z"
                  fill="#7F3E3B"
                />
                <path
                  d="M161.52 94.1614C161.52 94.1614 164.53 121.547 166.366 131.807C168.377 143.042 178.792 178.308 178.792 178.308L185.212 176.941C185.212 176.941 178.043 143.949 177.077 132.825C176.029 120.753 173.888 94.1618 173.888 94.1618L161.52 94.1614Z"
                  fill="#407BFF"
                />
                <path
                  opacity="0.3"
                  d="M161.52 94.1614C161.52 94.1614 164.53 121.547 166.366 131.807C168.377 143.042 178.792 178.308 178.792 178.308L185.212 176.941C185.212 176.941 178.043 143.949 177.077 132.825C176.081 121.348 176.079 121.372 173.888 94.1618L161.52 94.1614Z"
                  fill="black"
                />
                <path
                  d="M177.354 176.141C177.327 176.147 178.447 178.485 178.447 178.485L185.669 176.947L185.153 174.757L177.354 176.141Z"
                  fill="#263238"
                />
                <path
                  opacity="0.2"
                  d="M163.713 103.919C168.38 104.841 167.206 122.376 166.291 131.396C165.181 125.02 163.67 112.753 162.65 104.045C162.968 103.89 163.322 103.841 163.713 103.919Z"
                  fill="black"
                />
                <path
                  d="M154.721 94.1614C154.721 94.1614 153.193 120.954 153.161 131.882C153.127 143.248 155.661 180.466 155.661 180.466H161.731C161.731 180.466 163.365 143.913 164.067 132.75C164.831 120.58 167.32 94.1614 167.32 94.1614H154.721Z"
                  fill="#407BFF"
                />
                <path
                  opacity="0.3"
                  d="M154.721 94.1614C154.721 94.1614 153.193 120.954 153.161 131.882C153.127 143.248 155.661 180.466 155.661 180.466H161.731C161.731 180.466 163.365 143.913 164.067 132.75C164.831 120.58 167.32 94.1614 167.32 94.1614H154.721Z"
                  fill="black"
                />
                <path
                  d="M154.586 178.048C154.558 178.048 154.831 180.568 154.831 180.568H162.215L162.502 178.319L154.586 178.048Z"
                  fill="#263238"
                />
                <path
                  d="M162.314 68.8894C161.589 68.9602 160.974 68.997 160.309 69.0165C159.657 69.0379 159.006 69.0465 158.353 69.0442C157.05 69.0297 155.741 68.9639 154.425 68.8163C153.11 68.6751 151.787 68.4622 150.456 68.1348C149.124 67.8148 147.783 67.369 146.45 66.7134L146.299 66.6389C145.126 66.0614 144.642 64.6418 145.22 63.4682C145.282 63.3406 145.364 63.2108 145.445 63.1C146.065 62.2664 146.667 61.6853 147.282 61.1355C147.895 60.593 148.508 60.1049 149.126 59.641C150.359 58.7098 151.622 57.8876 152.889 57.0886C154.163 56.3004 155.449 55.5522 156.752 54.8404C158.066 54.1394 159.366 53.4507 160.729 52.8178C161.406 52.5032 162.21 52.7974 162.525 53.4747C162.797 54.0604 162.614 54.7409 162.121 55.1178L162.106 55.1291C160.964 56.0035 159.789 56.8729 158.651 57.7628C157.504 58.6444 156.362 59.5266 155.248 60.4259C154.129 61.3162 153.041 62.2342 152.012 63.1563C151.498 63.6175 151.007 64.0879 150.565 64.5569C150.129 65.0204 149.715 65.5012 149.494 65.8658L148.488 62.2524C149.412 62.6119 150.456 62.8698 151.54 63.0659C152.628 63.2543 153.758 63.3774 154.905 63.4573C156.052 63.5299 157.216 63.5681 158.384 63.5685C158.968 63.5721 159.553 63.5658 160.136 63.5485C160.707 63.5272 161.327 63.5068 161.835 63.4786L161.897 63.475C163.394 63.391 164.676 64.5364 164.761 66.0337C164.843 67.4924 163.753 68.7468 162.314 68.8894Z"
                  fill="#7F3E3B"
                />
                <path
                  d="M164.856 52.0837L162.576 52.5872C162.576 52.5872 159.539 52.21 158.844 54.499L160.643 56.0349L163.421 56.4739C163.861 56.5434 164.312 56.4703 164.708 56.2651L165.417 55.8974C165.743 55.7285 165.961 55.4052 165.995 55.0397L166.163 53.2378C166.23 52.5096 165.57 51.9262 164.856 52.0837Z"
                  fill="#7F3E3B"
                />
                <path
                  d="M160.424 71.5425C156.606 72.6017 152.252 71.2778 152.252 71.2778L153.854 62.7276C153.854 62.7276 157.648 62.3953 160.016 62.3449C166.113 62.216 167.308 69.633 160.424 71.5425Z"
                  fill="#407BFF"
                />
              </svg>